<?xml version="1.0" encoding="UTF-8"?>
<!DOCTYPE svg PUBLIC "-//W3C//DTD SVG 1.1//EN" "http://www.w3.org/Graphics/SVG/1.1/DTD/svg11.dtd">
<!-- Creator: CorelDRAW 2018 (64-Bit Evaluation Version) -->
<svg xmlns="http://www.w3.org/2000/svg" xml:space="preserve" width="183.997mm" height="50.9433mm" version="1.1" style="shape-rendering:geometricPrecision; text-rendering:geometricPrecision; image-rendering:optimizeQuality; fill-rule:evenodd; clip-rule:evenodd"
viewBox="0 0 5751.94 1592.55"
 xmlns:xlink="http://www.w3.org/1999/xlink">
 <defs>
  <style type="text/css">
   <![CDATA[
    .str0 {stroke:#FEFEFE;stroke-width:46.89;stroke-miterlimit:22.9256}
    .fil4 {fill:none;fill-rule:nonzero}
    .fil3 {fill:#2B2A29}
    .fil2 {fill:#E84F28}
    .fil1 {fill:#E31E24}
    .fil0 {fill:#FF2D20}
    .fil5 {fill:#0B4E8F;fill-rule:nonzero}
    .fil6 {fill:#FF2D20;fill-rule:nonzero}
   ]]>
  </style>
 </defs>
 <g id="Layer_x0020_1">
  <metadata id="CorelCorpID_0Corel-Layer"/>
  <path class="fil0" d="M4514.66 1272.94c0.15,0.55 0.23,1.12 0.23,1.68l0 88.66c0,2.5 -1.08,4.36 -3.25,5.61l-74.41 42.84 0 84.92c0,2.31 -1.23,4.44 -3.23,5.61l-155.33 89.42c-0.35,0.2 -0.74,0.33 -1.13,0.47 -0.15,0.05 -0.28,0.14 -0.44,0.18 -1.1,0.29 -2.21,0.29 -3.31,0 -0.18,-0.05 -0.34,-0.15 -0.51,-0.21 -0.36,-0.13 -0.73,-0.24 -1.07,-0.44l-155.3 -89.42c-2.13,-1.23 -3.21,-3.05 -3.25,-5.49l0 -0.12 0 -265.97 0 -0.03 0 -0.03 0 -0.03 0 -0.03 0 -0.03c0.02,-0.53 0.1,-1.06 0.23,-1.56 0.05,-0.18 0.16,-0.35 0.23,-0.54 0.13,-0.34 0.24,-0.69 0.41,-1 0.12,-0.21 0.3,-0.38 0.45,-0.58 0.18,-0.26 0.35,-0.53 0.57,-0.75 0.19,-0.18 0.43,-0.32 0.64,-0.48 0.24,-0.2 0.45,-0.41 0.71,-0.56l0.01 0 77.65 -44.71c0.79,-0.46 1.59,-0.74 2.38,-0.86l1.7 0c0.79,0.12 1.59,0.41 2.39,0.86l77.65 44.71 0.02 0c0.26,0.16 0.48,0.36 0.71,0.55 0.21,0.16 0.45,0.31 0.63,0.48 0.23,0.23 0.39,0.5 0.58,0.76 0.14,0.19 0.32,0.36 0.43,0.58 0.19,0.32 0.29,0.66 0.42,1 0.07,0.19 0.18,0.36 0.23,0.55 0.15,0.55 0.23,1.12 0.23,1.69l0 166.12 64.71 -37.26 0 -84.92c0,-0.57 0.08,-1.14 0.23,-1.68 0.05,-0.2 0.16,-0.37 0.23,-0.55 0.13,-0.34 0.24,-0.69 0.42,-1 0.12,-0.21 0.3,-0.38 0.43,-0.58 0.19,-0.26 0.35,-0.53 0.58,-0.75 0.18,-0.18 0.42,-0.32 0.63,-0.48 0.24,-0.2 0.45,-0.41 0.71,-0.56l0.01 0 77.66 -44.71c2.16,-1.24 4.31,-1.24 6.46,0l77.65 44.71c0.28,0.16 0.48,0.36 0.73,0.55 0.2,0.16 0.43,0.31 0.62,0.48 0.23,0.23 0.39,0.5 0.58,0.76 0.15,0.19 0.33,0.36 0.44,0.58 0.18,0.31 0.29,0.66 0.42,1 0.07,0.18 0.18,0.35 0.23,0.55l0 0zm-12.72 86.6l0 -73.72 -27.18 15.64 -37.54 21.61 0 73.73 64.72 -37.26 -0 0zm-77.66 133.37l0 -73.77 -36.93 21.09 -105.45 60.18 0 74.47 142.37 -81.97 0 0zm-297.68 -251.04l0 251.04 142.36 81.96 0 -74.45 -74.37 -42.09 -0.03 -0.02 -0.03 -0.02c-0.25,-0.14 -0.46,-0.36 -0.69,-0.53 -0.2,-0.16 -0.44,-0.29 -0.62,-0.47l-0.02 -0.03c-0.21,-0.2 -0.36,-0.45 -0.53,-0.68 -0.16,-0.22 -0.36,-0.41 -0.49,-0.63l-0.01 -0.03c-0.15,-0.24 -0.23,-0.53 -0.34,-0.81 -0.1,-0.24 -0.24,-0.47 -0.31,-0.73l0 -0.01c-0.08,-0.31 -0.1,-0.63 -0.13,-0.95 -0.03,-0.24 -0.09,-0.48 -0.09,-0.73l0 -0.02 0 -173.57 -37.53 -21.62 -27.18 -15.62 0 -0.01zm71.19 -48.43l-64.7 37.24 64.69 37.24 64.69 -37.25 -64.69 -37.24 0.02 0zm33.65 232.42l37.53 -21.6 0 -162.38 -27.18 15.64 -37.54 21.61 0 162.38 27.18 -15.65 0 0zm199.32 -188.47l-64.69 37.24 64.69 37.24 64.68 -37.25 -64.68 -37.23 0 0zm-6.47 85.69l-37.54 -21.61 -27.18 -15.64 0 73.72 37.53 21.61 27.18 15.65 0 -73.73 0 0zm-148.86 166.14l94.89 -54.17 47.43 -27.07 -64.64 -37.22 -74.43 42.85 -67.83 39.05 64.58 36.55 0 0z"/>
  <path class="fil0" d="M4616.93 1212.72l0 235.93 85.36 0 0 40.7 -130.81 0 0 -276.63 45.45 0 0 0zm245.8 117.37l0 -24.9 43.08 0 0 184.17 -43.07 0 0 -24.91c-5.81,9.23 -14.02,16.47 -24.7,21.74 -10.67,5.27 -21.4,7.9 -32.21,7.9 -13.97,0 -26.75,-2.56 -38.34,-7.7 -11.42,-4.98 -21.36,-12.03 -29.85,-21.15 -8.38,-9.06 -14.83,-19.33 -19.35,-30.81 -4.7,-11.94 -7.02,-24.33 -6.93,-37.16 0,-12.9 2.31,-25.23 6.92,-36.96 4.49,-11.56 10.94,-21.9 19.36,-31.02 8.48,-9.12 18.43,-16.17 29.85,-21.14 11.59,-5.14 24.36,-7.7 38.34,-7.7 10.8,0 21.54,2.63 32.21,7.9 10.67,5.27 18.9,12.51 24.7,21.74l-0.01 0zm-3.95 89.71c2.67,-7.27 4,-14.78 3.96,-22.52 0,-7.91 -1.33,-15.41 -3.96,-22.52 -2.49,-6.91 -6.18,-13.1 -11.06,-18.58 -4.87,-5.38 -10.61,-9.6 -17.2,-12.65 -6.71,-3.15 -14.16,-4.74 -22.32,-4.74 -8.18,0 -15.56,1.59 -22.15,4.74 -6.51,3.09 -12.17,7.3 -17,12.65 -4.86,5.46 -8.48,11.65 -10.85,18.57 -2.55,7.29 -3.8,14.8 -3.77,22.52 0,7.9 1.25,15.41 3.75,22.52 2.5,7.12 6.12,13.31 10.87,18.58 4.82,5.35 10.49,9.57 16.99,12.66 6.57,3.16 13.96,4.74 22.12,4.74 8.17,0 15.61,-1.58 22.33,-4.74 6.59,-3.05 12.32,-7.27 17.2,-12.66 4.88,-5.48 8.57,-11.67 11.06,-18.57zm81.02 69.55l0 -184.16 116.98 0 0 42.39 -73.91 0 0 141.78 -43.07 0 0 -0.02zm273.08 -159.26l0 -24.9 43.08 0 0 184.17 -43.08 0 0 -24.91c-5.8,9.23 -14.02,16.47 -24.7,21.74 -10.67,5.27 -21.4,7.9 -32.21,7.9 -13.96,0 -26.74,-2.56 -38.33,-7.7 -11.42,-4.98 -21.36,-12.03 -29.84,-21.15 -8.39,-9.06 -14.84,-19.33 -19.36,-30.81 -4.7,-11.94 -7.01,-24.33 -6.92,-37.16 0,-12.9 2.31,-25.23 6.92,-36.96 4.48,-11.56 10.93,-21.9 19.35,-31.02 8.48,-9.12 18.43,-16.17 29.85,-21.14 11.59,-5.14 24.36,-7.7 38.33,-7.7 10.8,0 21.54,2.63 32.21,7.9 10.68,5.27 18.91,12.51 24.7,21.74l0 0zm-3.95 89.71c2.67,-7.27 3.99,-14.78 3.95,-22.52 0,-7.91 -1.33,-15.41 -3.95,-22.52 -2.49,-6.91 -6.18,-13.1 -11.06,-18.58 -4.87,-5.38 -10.61,-9.6 -17.2,-12.65 -6.71,-3.15 -14.17,-4.74 -22.33,-4.74 -8.17,0 -15.55,1.59 -22.13,4.74 -6.51,3.09 -12.17,7.3 -16.99,12.65 -4.87,5.46 -8.49,11.65 -10.86,18.57 -2.55,7.29 -3.8,14.8 -3.76,22.52 0,7.9 1.24,15.41 3.76,22.52 2.5,7.12 6.12,13.31 10.86,18.58 4.82,5.35 10.48,9.57 16.99,12.66 6.58,3.16 13.97,4.74 22.13,4.74 8.16,0 15.61,-1.58 22.33,-4.74 6.59,-3.05 12.32,-7.27 17.2,-12.66 4.88,-5.48 8.57,-11.67 11.06,-18.57l0 0zm219.72 -114.61l43.63 0 -70.69 184.17 -54.15 0 -70.7 -184.17 43.63 0 54.14 141.03 54.13 -141.03zm137.59 -4.74c58.65,0 98.65,51.98 91.13,112.82l-142.9 0c0,15.89 16.04,46.6 54.13,46.6 32.76,0 54.72,-28.82 54.73,-28.84l29.1 22.52c-26.02,27.78 -47.33,40.54 -80.69,40.54 -59.61,0 -100.02,-37.72 -100.02,-96.83 0,-53.47 41.76,-96.82 94.5,-96.82l0.01 0zm-51.66 80.82l103.23 0c-0.32,-3.55 -5.91,-46.6 -51.92,-46.6 -46.01,0 -50.98,43.06 -51.31,46.6zm170.84 108.08l0 -276.63 43.07 0 0 276.63 -43.07 0z"/>
  <g id="_2742915799616">
   <path class="fil1" d="M703.24 1012.16c-92.48,-195.49 -183.73,-388.4 -276.2,-583.9 -205.17,-291.77 -565.8,38.73 -371.24,286.06 180.09,141.96 328.75,265.48 508.83,407.44 91.65,-16.88 128.89,-61.22 138.61,-109.6z"/>
   <path class="fil1" d="M855.92 964.37c-17.41,-162.15 -71.32,-482.77 -77.96,-603.4 -28.01,-409.21 -485.75,-279.41 -313.94,78.91 89.03,178.85 156.69,375.73 256.54,566.86 55.59,14.71 124.23,-10.46 135.36,-42.37z"/>
   <path class="fil2" d="M1017.4 224.64c-81.99,-65.52 -187.14,-62.69 -205.97,33.02 -6.01,63.15 2.08,158.74 14.67,269.27 15.2,133.41 36.7,285.51 48.13,431.72 10.45,14.11 23.77,23.87 37.72,29.73l105.45 -763.74z"/>
   <path class="fil3" d="M717.21 1019.46c60.71,8.24 125.43,-2.02 148.09,-50.47 12.55,16.71 28.34,27.63 44.68,33.62l-62.29 451.11c-6.65,-1.79 -13.56,-4.76 -21.02,-9.06 -14.63,-119.31 -29.27,-196.19 -43.9,-315.5 -47.18,87.53 -118.35,81.84 -203.94,3.95 23.21,-10.76 114.02,-14.5 138.38,-113.65z"/>
  </g>
  <g>
   <path class="fil4 str0" d="M1189.79 944.9c11.04,1.89 22.35,3.5 33.94,4.58 11.58,1.08 23.43,1.62 35.55,1.62 74.07,0 132.25,-23.43 174.27,-70.57 42.29,-47.14 63.3,-112.05 63.3,-194.47 0,-52.79 -13.74,-94 -41.48,-124.44 -27.48,-30.17 -65.45,-45.25 -113.13,-45.25 -13.74,0 -28.01,1.62 -42.83,4.85 -14.81,2.96 -30.7,7.81 -48.21,14l-61.41 409.68zm-298.98 549.2l127.94 -857.07c-34.21,21.01 -63.3,48.21 -87,81.34 -23.7,33.13 -37.71,49.56 -42.56,49.56 -3.5,0 -6.19,-0.81 -7.54,-2.69 -1.35,-1.89 -1.89,-5.66 -1.89,-11.31 0,-32.59 14.54,-72.19 43.9,-118.78 29.09,-46.6 67.34,-89.43 114.74,-128.21l38.52 -260.19 217.91 0 -22.09 142.22c24.24,-8.08 47.68,-14 70.3,-18.32 22.62,-4.04 44.44,-6.19 65.45,-6.19 92.39,0 169.15,29.09 230.03,87.27 60.6,58.18 91.04,130.9 91.04,218.17 0,137.64 -43.63,249.96 -130.63,336.96 -87,86.73 -199.59,130.1 -338.04,130.1 -18.32,0 -49.56,-1.89 -93.2,-5.66l-5.39 -0.81 -54.68 363.62 -216.83 0zm1459.14 -411.57c-40.13,19.93 -83.77,35.28 -131.17,45.52 -47.41,10.24 -96.43,15.36 -147.61,15.36 -112.05,0 -200.93,-32.59 -266.39,-97.51 -65.45,-64.91 -98.31,-153.53 -98.31,-265.58 0,-124.17 37.98,-224.37 113.67,-301.14 75.96,-76.49 175.88,-114.74 300.06,-114.74 100.74,0 178.31,28.82 232.99,86.73 54.68,57.91 82.15,140.06 82.15,246.45 0,13.2 -0.27,26.67 -1.08,40.67 -0.81,14 -2.15,27.74 -3.77,41.48l-496.15 0.81c0,2.69 -0.27,6.46 -0.81,11.85 -0.54,5.12 -0.81,8.62 -0.81,10.23 0,53.6 15.89,94.27 47.68,122.56 31.78,28.01 78.11,42.02 138.45,42.02 34.21,0 73.26,-6.46 117.17,-19.39 43.9,-12.93 95.08,-33.4 154.07,-61.41l-40.13 196.09zm-384.9 -432.04l253.73 0 0 -15.08c0,-38.79 -9.16,-68.41 -27.21,-88.62 -18.04,-20.2 -44.44,-30.44 -79.19,-30.44 -35.83,0 -65.99,11.31 -90.5,33.94 -24.78,22.63 -43.63,56.03 -56.83,100.2zm446.92 476.75l164.57 -1103.8 213.6 0 -164.57 1103.8 -213.59 0zm413.52 -958.08c0,-31.51 10.78,-57.91 32.06,-79.46 21.28,-21.55 47.67,-32.32 79.19,-32.32 31.51,0 57.91,10.77 79.46,32.59 21.55,21.82 32.32,48.21 32.32,79.19 0,30.7 -10.77,56.83 -32.59,78.65 -21.82,21.82 -48.21,32.59 -79.19,32.59 -30.7,0 -56.83,-10.77 -78.65,-32.59 -21.82,-21.82 -32.59,-47.95 -32.59,-78.65zm-127.67 958.08l112.05 -748.26 212.79 0 -111.24 748.26 -213.59 0zm281 0l111.24 -748.26 215.48 0 -13.47 83.77c41.75,-33.4 82.42,-58.18 122.82,-74.34 40.13,-15.89 82.42,-23.97 126.6,-23.97 63.57,0 113.4,18.32 149.22,54.68 36.09,36.63 54.14,86.73 54.14,150.3 0,14.81 -0.54,29.09 -1.62,43.09 -1.08,14.01 -2.69,27.21 -4.58,39.86l-71.11 474.87 -219.79 0 67.88 -451.97c1.89,-14.28 3.5,-27.2 4.58,-38.79 1.08,-11.58 1.61,-20.74 1.61,-27.48 0,-24.78 -5.92,-44.44 -17.78,-59.26 -11.85,-14.81 -27.48,-22.09 -46.87,-22.09 -29.09,0 -59.8,9.43 -92.12,28.28 -32.32,19.13 -64.91,46.87 -98.04,83.77l-72.73 487.52 -215.48 0zm1508.5 0l111.24 -748.26 216.83 0 -12.66 90.23c36.36,-35.28 74.88,-61.41 116.09,-78.92 40.94,-17.24 85.65,-25.86 134.14,-25.86 46.6,0 84.85,10.23 114.74,30.44 29.63,20.2 52.52,51.98 68.95,95.62 52.52,-42.02 102.08,-73.53 148.41,-94.54 46.33,-21.01 90.77,-31.51 133.33,-31.51 66.8,0 118.51,18.32 155.15,54.95 36.63,36.36 54.95,88.35 54.95,155.68 0,17.78 -1.35,40.67 -4.31,68.68 -2.96,27.74 -7.54,63.57 -13.74,107.2l-56.29 376.28 -220.33 0 72.46 -474.87c0.54,-1.08 0.81,-2.69 0.81,-4.85 1.62,-15.62 2.69,-26.93 3.23,-33.94 0,-28.82 -6.19,-50.37 -18.58,-64.64 -12.39,-14.27 -30.97,-21.28 -56.3,-21.28 -26.39,0 -55.75,9.43 -88.08,28.01 -32.32,18.58 -63.57,44.71 -94.27,78.38l-72.45 493.18 -218.44 0 72.45 -474.87c0.54,-1.08 0.81,-2.69 0.81,-4.85 1.62,-15.62 2.69,-27.47 3.23,-35.55 0,-27.74 -6.19,-48.75 -18.58,-63.03 -12.39,-14.27 -30.7,-21.28 -54.68,-21.28 -29.63,0 -60.34,9.69 -92.93,28.82 -32.32,19.12 -64.11,46.87 -95.62,83.23l-72.73 487.52 -216.83 0z"/>
   <path id="1" class="fil5" d="M1189.79 944.9c11.04,1.89 22.35,3.5 33.94,4.58 11.58,1.08 23.43,1.62 35.55,1.62 74.07,0 132.25,-23.43 174.27,-70.57 42.29,-47.14 63.3,-112.05 63.3,-194.47 0,-52.79 -13.74,-94 -41.48,-124.44 -27.48,-30.17 -65.45,-45.25 -113.13,-45.25 -13.74,0 -28.01,1.62 -42.83,4.85 -14.81,2.96 -30.7,7.81 -48.21,14l-61.41 409.68zm-298.98 549.2l127.94 -857.07c-34.21,21.01 -63.3,48.21 -87,81.34 -23.7,33.13 -37.71,49.56 -42.56,49.56 -3.5,0 -6.19,-0.81 -7.54,-2.69 -1.35,-1.89 -1.89,-5.66 -1.89,-11.31 0,-32.59 14.54,-72.19 43.9,-118.78 29.09,-46.6 67.34,-89.43 114.74,-128.21l38.52 -260.19 217.91 0 -22.09 142.22c24.24,-8.08 47.68,-14 70.3,-18.32 22.62,-4.04 44.44,-6.19 65.45,-6.19 92.39,0 169.15,29.09 230.03,87.27 60.6,58.18 91.04,130.9 91.04,218.17 0,137.64 -43.63,249.96 -130.63,336.96 -87,86.73 -199.59,130.1 -338.04,130.1 -18.32,0 -49.56,-1.89 -93.2,-5.66l-5.39 -0.81 -54.68 363.62 -216.83 0zm1459.14 -411.57c-40.13,19.93 -83.77,35.28 -131.17,45.52 -47.41,10.24 -96.43,15.36 -147.61,15.36 -112.05,0 -200.93,-32.59 -266.39,-97.51 -65.45,-64.91 -98.31,-153.53 -98.31,-265.58 0,-124.17 37.98,-224.37 113.67,-301.14 75.96,-76.49 175.88,-114.74 300.06,-114.74 100.74,0 178.31,28.82 232.99,86.73 54.68,57.91 82.15,140.06 82.15,246.45 0,13.2 -0.27,26.67 -1.08,40.67 -0.81,14 -2.15,27.74 -3.77,41.48l-496.15 0.81c0,2.69 -0.27,6.46 -0.81,11.85 -0.54,5.12 -0.81,8.62 -0.81,10.23 0,53.6 15.89,94.27 47.68,122.56 31.78,28.01 78.11,42.02 138.45,42.02 34.21,0 73.26,-6.46 117.17,-19.39 43.9,-12.93 95.08,-33.4 154.07,-61.41l-40.13 196.09zm-384.9 -432.04l253.73 0 0 -15.08c0,-38.79 -9.16,-68.41 -27.21,-88.62 -18.04,-20.2 -44.44,-30.44 -79.19,-30.44 -35.83,0 -65.99,11.31 -90.5,33.94 -24.78,22.63 -43.63,56.03 -56.83,100.2zm446.92 476.75l164.57 -1103.8 213.6 0 -164.57 1103.8 -213.59 0zm413.52 -958.08c0,-31.51 10.78,-57.91 32.06,-79.46 21.28,-21.55 47.67,-32.32 79.19,-32.32 31.51,0 57.91,10.77 79.46,32.59 21.55,21.82 32.32,48.21 32.32,79.19 0,30.7 -10.77,56.83 -32.59,78.65 -21.82,21.82 -48.21,32.59 -79.19,32.59 -30.7,0 -56.83,-10.77 -78.65,-32.59 -21.82,-21.82 -32.59,-47.95 -32.59,-78.65zm-127.67 958.08l112.05 -748.26 212.79 0 -111.24 748.26 -213.59 0zm281 0l111.24 -748.26 215.48 0 -13.47 83.77c41.75,-33.4 82.42,-58.18 122.82,-74.34 40.13,-15.89 82.42,-23.97 126.6,-23.97 63.57,0 113.4,18.32 149.22,54.68 36.09,36.63 54.14,86.73 54.14,150.3 0,14.81 -0.54,29.09 -1.62,43.09 -1.08,14.01 -2.69,27.21 -4.58,39.86l-71.11 474.87 -219.79 0 67.88 -451.97c1.89,-14.28 3.5,-27.2 4.58,-38.79 1.08,-11.58 1.61,-20.74 1.61,-27.48 0,-24.78 -5.92,-44.44 -17.78,-59.26 -11.85,-14.81 -27.48,-22.09 -46.87,-22.09 -29.09,0 -59.8,9.43 -92.12,28.28 -32.32,19.13 -64.91,46.87 -98.04,83.77l-72.73 487.52 -215.48 0zm1508.5 0l111.24 -748.26 216.83 0 -12.66 90.23c36.36,-35.28 74.88,-61.41 116.09,-78.92 40.94,-17.24 85.65,-25.86 134.14,-25.86 46.6,0 84.85,10.23 114.74,30.44 29.63,20.2 52.52,51.98 68.95,95.62 52.52,-42.02 102.08,-73.53 148.41,-94.54 46.33,-21.01 90.77,-31.51 133.33,-31.51 66.8,0 118.51,18.32 155.15,54.95 36.63,36.36 54.95,88.35 54.95,155.68 0,17.78 -1.35,40.67 -4.31,68.68 -2.96,27.74 -7.54,63.57 -13.74,107.2l-56.29 376.28 -220.33 0 72.46 -474.87c0.54,-1.08 0.81,-2.69 0.81,-4.85 1.62,-15.62 2.69,-26.93 3.23,-33.94 0,-28.82 -6.19,-50.37 -18.58,-64.64 -12.39,-14.27 -30.97,-21.28 -56.3,-21.28 -26.39,0 -55.75,9.43 -88.08,28.01 -32.32,18.58 -63.57,44.71 -94.27,78.38l-72.45 493.18 -218.44 0 72.45 -474.87c0.54,-1.08 0.81,-2.69 0.81,-4.85 1.62,-15.62 2.69,-27.47 3.23,-35.55 0,-27.74 -6.19,-48.75 -18.58,-63.03 -12.39,-14.27 -30.7,-21.28 -54.68,-21.28 -29.63,0 -60.34,9.69 -92.93,28.82 -32.32,19.12 -64.11,46.87 -95.62,83.23l-72.73 487.52 -216.83 0z"/>
  </g>
  <g>
   <path class="fil4 str0" d="M3994.62 818.57c0,34.75 9.97,62.76 29.63,83.5 19.66,20.74 46.33,31.25 80,31.25 46.33,0 85.11,-17.51 116.63,-52.26 31.25,-34.74 46.87,-77.03 46.87,-127.13 0,-36.9 -8.89,-65.45 -26.94,-85.11 -17.78,-19.66 -43.37,-29.63 -76.49,-29.63 -46.33,0 -86.19,17.78 -119.59,53.06 -33.4,35.28 -50.1,77.31 -50.1,126.33zm155.41 -343.96c22.09,-9.16 43.63,-15.62 64.91,-19.93 21.01,-4.04 40.67,-6.2 58.99,-6.2 69.49,0 125.52,24.78 167.81,74.61 42.29,49.56 63.57,115.82 63.57,198.24 0,123.63 -38.25,225.45 -114.48,305.44 -76.22,80 -173.73,119.86 -292.78,119.86 -101.01,0 -181.81,-31.25 -242.15,-93.46 -60.61,-62.22 -90.77,-145.45 -90.77,-249.69 0,-60.07 11.31,-120.13 33.94,-180.73 22.62,-60.34 63.03,-135.22 121.47,-224.64l245.11 -374.67 258.85 0 -274.47 451.16z"/>
   <path id="1" class="fil6" d="M3994.62 818.57c0,34.75 9.97,62.76 29.63,83.5 19.66,20.74 46.33,31.25 80,31.25 46.33,0 85.11,-17.51 116.63,-52.26 31.25,-34.74 46.87,-77.03 46.87,-127.13 0,-36.9 -8.89,-65.45 -26.94,-85.11 -17.78,-19.66 -43.37,-29.63 -76.49,-29.63 -46.33,0 -86.19,17.78 -119.59,53.06 -33.4,35.28 -50.1,77.31 -50.1,126.33zm155.41 -343.96c22.09,-9.16 43.63,-15.62 64.91,-19.93 21.01,-4.04 40.67,-6.2 58.99,-6.2 69.49,0 125.52,24.78 167.81,74.61 42.29,49.56 63.57,115.82 63.57,198.24 0,123.63 -38.25,225.45 -114.48,305.44 -76.22,80 -173.73,119.86 -292.78,119.86 -101.01,0 -181.81,-31.25 -242.15,-93.46 -60.61,-62.22 -90.77,-145.45 -90.77,-249.69 0,-60.07 11.31,-120.13 33.94,-180.73 22.62,-60.34 63.03,-135.22 121.47,-224.64l245.11 -374.67 258.85 0 -274.47 451.16z"/>
  </g>
  <path class="fil6" d="M2422.25 1434.43c2.56,0.44 5.19,0.81 7.88,1.06 2.69,0.25 5.44,0.38 8.25,0.38 17.19,0 30.7,-5.44 40.45,-16.38 9.82,-10.94 14.69,-26.01 14.69,-45.14 0,-12.25 -3.19,-21.82 -9.63,-28.89 -6.38,-7 -15.19,-10.5 -26.26,-10.5 -3.19,0 -6.5,0.38 -9.94,1.13 -3.44,0.69 -7.13,1.81 -11.19,3.25l-14.26 95.09zm-69.4 127.48l29.7 -198.94c-7.94,4.88 -14.69,11.19 -20.19,18.88 -5.5,7.69 -8.75,11.5 -9.88,11.5 -0.81,0 -1.44,-0.19 -1.75,-0.63 -0.31,-0.44 -0.44,-1.31 -0.44,-2.63 0,-7.56 3.38,-16.75 10.19,-27.57 6.75,-10.82 15.63,-20.76 26.63,-29.76l8.94 -60.4 50.58 0 -5.13 33.01c5.63,-1.88 11.06,-3.25 16.32,-4.25 5.25,-0.94 10.32,-1.44 15.19,-1.44 21.45,0 39.26,6.75 53.39,20.26 14.07,13.5 21.13,30.39 21.13,50.64 0,31.95 -10.13,58.02 -30.32,78.21 -20.19,20.13 -46.33,30.2 -78.46,30.2 -4.25,0 -11.5,-0.44 -21.63,-1.31l-1.25 -0.19 -12.69 84.41 -50.33 0zm191.95 -164.93c0,-27.88 9.44,-51.08 28.32,-69.71 18.82,-18.63 42.39,-27.95 70.58,-27.95 23.95,0 43.45,7.57 58.52,22.7 15.07,15.19 22.63,34.64 22.63,58.46 0,28.57 -9.44,52.39 -28.39,71.46 -18.94,19.07 -42.52,28.57 -70.71,28.57 -24.82,0 -44.45,-7.57 -59.08,-22.63 -14.57,-15.07 -21.88,-35.39 -21.88,-60.9zm95.72 -56.02c-12,0 -22.25,5.5 -30.76,16.57 -8.57,11.07 -12.82,24.7 -12.82,40.82 0,12.44 2.94,22.32 8.75,29.64 5.88,7.25 13.82,10.88 23.82,10.88 11.94,0 22.07,-5.44 30.38,-16.38 8.32,-10.94 12.44,-24.51 12.44,-40.64 0,-12.38 -2.94,-22.26 -8.75,-29.7 -5.88,-7.44 -13.57,-11.19 -23.07,-11.19zm114.99 135.8l-40.95 -173.68 49.21 0 20.13 97.84 53.64 -97.84 31.14 0 17.26 95.28 53.27 -95.28 52.21 0 -99.85 173.68 -33.7 0 -18.82 -91.22 -50.95 91.22 -32.57 0zm356.2 -10.38c-9.32,4.63 -19.44,8.19 -30.45,10.57 -11,2.38 -22.38,3.56 -34.26,3.56 -26.01,0 -46.64,-7.57 -61.83,-22.63 -15.19,-15.07 -22.82,-35.64 -22.82,-61.65 0,-28.82 8.82,-52.08 26.38,-69.9 17.63,-17.76 40.83,-26.63 69.65,-26.63 23.38,0 41.39,6.69 54.08,20.13 12.69,13.44 19.07,32.51 19.07,57.21 0,3.06 -0.06,6.19 -0.25,9.44 -0.19,3.25 -0.5,6.44 -0.88,9.63l-115.16 0.19c0,0.63 -0.06,1.5 -0.19,2.75 -0.13,1.19 -0.19,2 -0.19,2.38 0,12.44 3.69,21.88 11.07,28.45 7.38,6.5 18.13,9.75 32.13,9.75 7.94,0 17.01,-1.5 27.2,-4.5 10.19,-3 22.07,-7.75 35.76,-14.26l-9.32 45.52zm-89.34 -100.28l58.89 0 0 -3.5c0,-9 -2.13,-15.88 -6.31,-20.57 -4.19,-4.69 -10.32,-7.07 -18.38,-7.07 -8.31,0 -15.31,2.63 -21,7.88 -5.75,5.25 -10.13,13 -13.19,23.26zm107.86 110.66l26.01 -173.68 50.14 0 -3.31 24.01c9.82,-10.94 17.51,-18.26 23.19,-21.88 5.63,-3.69 11.44,-5.5 17.26,-5.5 4.69,0 9.63,0.94 14.88,2.88 5.25,1.94 10.75,4.88 16.63,8.75l-24.32 52.89c-4.69,-5 -8.94,-8.69 -12.82,-11.07 -3.94,-2.38 -7.63,-3.56 -11.19,-3.56 -5,0 -10.13,2 -15.25,5.94 -5.19,4 -10.38,9.88 -15.51,17.69l-15.38 103.53 -50.33 0zm280.48 -10.38c-9.32,4.63 -19.44,8.19 -30.45,10.57 -11,2.38 -22.38,3.56 -34.26,3.56 -26.01,0 -46.64,-7.57 -61.83,-22.63 -15.19,-15.07 -22.82,-35.64 -22.82,-61.65 0,-28.82 8.82,-52.08 26.38,-69.9 17.63,-17.76 40.83,-26.63 69.65,-26.63 23.38,0 41.39,6.69 54.08,20.13 12.69,13.44 19.07,32.51 19.07,57.21 0,3.06 -0.06,6.19 -0.25,9.44 -0.19,3.25 -0.5,6.44 -0.88,9.63l-115.16 0.19c0,0.63 -0.06,1.5 -0.19,2.75 -0.13,1.19 -0.19,2 -0.19,2.38 0,12.44 3.69,21.88 11.07,28.45 7.38,6.5 18.13,9.75 32.13,9.75 7.94,0 17.01,-1.5 27.2,-4.5 10.19,-3 22.07,-7.75 35.76,-14.26l-9.32 45.52zm-89.34 -100.28l58.89 0 0 -3.5c0,-9 -2.13,-15.88 -6.31,-20.57 -4.19,-4.69 -10.32,-7.07 -18.38,-7.07 -8.31,0 -15.31,2.63 -21,7.88 -5.75,5.25 -10.13,13 -13.19,23.26zm221.52 73.15l13.75 -94.91c-1.25,-0.13 -2.63,-0.25 -4.13,-0.31 -1.56,-0.06 -3.75,-0.06 -6.69,-0.06 -19.63,0 -35.01,4.81 -46.01,14.51 -11.07,9.63 -16.57,22.95 -16.57,39.95 0,13.25 4.5,23.51 13.44,30.57 9,7.07 21.88,10.63 38.7,10.63 0.88,0 2.13,-0.06 3.75,-0.19 1.63,-0.13 2.94,-0.19 3.75,-0.19zm45.39 35.01c-9.75,1.94 -18.88,3.44 -27.38,4.44 -8.5,0.94 -16.26,1.44 -23.38,1.44 -17.32,0 -31.45,-1.13 -42.39,-3.38 -10.94,-2.25 -20.32,-5.94 -28.14,-11.07 -11.69,-7.82 -20.69,-17.63 -26.95,-29.32 -6.19,-11.75 -9.32,-24.76 -9.32,-39.01 0,-29.32 10.25,-52.89 30.76,-70.65 20.57,-17.76 47.89,-26.63 82.09,-26.63 3.19,0 6.5,0.13 9.94,0.38 3.38,0.25 6.75,0.5 10.07,0.75l11.88 -80.65 50.71 0 -37.89 253.71zm117.05 -1.06l37.51 -252.65 50.96 0 -14.51 96.16c8.19,-5.75 16.07,-10 23.69,-12.82 7.57,-2.81 15.13,-4.19 22.7,-4.19 18.57,0 33.7,7.13 45.27,21.45 11.63,14.26 17.44,32.89 17.44,55.83 0,33.51 -10.44,59.08 -31.26,76.9 -20.82,17.76 -50.89,26.63 -90.22,26.63 -10,0 -20.13,-0.63 -30.32,-1.81 -10.19,-1.25 -20.63,-3.06 -31.26,-5.5zm55.14 -33.57c0.94,0 2.25,0.06 3.94,0.19 1.63,0.13 2.81,0.19 3.56,0.19 21.95,0 38.95,-5.19 50.95,-15.57 12.07,-10.38 18.07,-24.95 18.07,-43.64 0,-12 -2.56,-21.38 -7.63,-28.14 -5.06,-6.81 -11.88,-10.19 -20.57,-10.19 -6.38,0 -12.5,1.63 -18.5,4.94 -6,3.31 -11.88,8.38 -17.76,15.26l-12.07 76.96zm165.69 20.63l-54.08 -157.18 51.02 0 33.32 96.34 46.89 -96.34 52.21 0 -126.04 258.84 -52.27 0 48.95 -101.66z"/>
 </g>
</svg>
