<?xml version="1.0" encoding="utf-8"?>
<!-- Generator: Adobe Illustrator 24.1.2, SVG Export Plug-In . SVG Version: 6.00 Build 0)  -->
<svg version="1.1" id="katman_1" xmlns="http://www.w3.org/2000/svg" xmlns:xlink="http://www.w3.org/1999/xlink" x="0px" y="0px"
	 viewBox="0 0 1280 1024" style="enable-background:new 0 0 1280 1024;" xml:space="preserve">
<style type="text/css">
	.st0{fill:#D6DBE1;}
	.st1{fill:#333439;}
	.st2{fill:#7E909E;}
	.st3{fill:#B80201;}
	.st4{fill:#060A0B;}
	.st5{fill:#E0CD00;}
	.st6{fill:#FFFFFF;}
	.st7{fill:none;}
	.st8{fill:#788D9E;}
	.st9{fill:#C5CBD1;}
	.st10{fill:#040404;}
	.st11{fill:#27262C;}
	.st12{fill:#C3BFBE;}
</style>
<g>
	<g>
		<path class="st0" d="M820,380.7c0,0,14-11,17.4-11.7c3.4-0.8,6.1-1.4,6.1,0.9c0,2.3-5.9,11.1-5.1,14.4
			C839.1,387.5,820,380.7,820,380.7z"/>
		<path d="M1016.6,612.6l-19,17l-29.6,1.9l-143.3-2.8l-426-3.8l-11.3,3.8c0,0-17.2-0.5-24.2,0c-7,0.5-107.1,2.7-107.1,2.7
			s-21,1.1-27.4,5.4l-18.8-35.9l15.5-86.3c0,0,50.1-21.7,54-22.1c3.9-0.4,80.5-2.7,80.5-2.7l130.9,12.6L884,479.4l122,3.1
			L1016.6,612.6z"/>
		<path class="st1" d="M1114,578.8c0,0-2.7,7.5-2.3,9.5c0.5,2,5.7,5.1,5.7,8.5c0,3.4-5.7,14.3-11.5,15c0,0-1.9,9.5-8.3,9.5
			c-6.4,0-48.6,1.3-48.6,1.3S1094.6,572.6,1114,578.8z"/>
		<path class="st2" d="M406.2,463.2c0,0,22.3-19.8,44.2-29.9c21.8-10.2,97.1-51.1,125.4-55.8c28.3-4.6,21.1,22.3,21.1,23
			C596.8,401.2,412.8,505.6,406.2,463.2z"/>
		<path class="st3" d="M1051.6,471.4h42.5l3.3,2c0,0,14.7,11,3.3,35.9C1089.2,534.2,1032.7,507.1,1051.6,471.4z"/>
		<path class="st2" d="M848.9,389.1l19.8-0.8c0,0,96.1,22.8,156.6,54.3c60.5,31.5-36.3,18-36.3,18S840.2,406.1,848.9,389.1z"/>
		<path class="st4" d="M397.3,454.1c0,0,13-4,17.8,0c4.8,4,3.3,9.1,3.3,9.1L397.3,454.1z"/>
		<path class="st5" d="M228.7,637c0,0-91.4-6.6-92.7-23.1c0,0-0.5-3.5,4.3-5.8c0,0-3.1-53.3,4.3-69.8c7.4-16.5,6.8-36.8,44.4-50.8
			c37.6-14,127.4-30.5,210.4-33.5c0,0,20,6.9,30.7,6.6c0,0,119.3-72.1,148.5-73.9c0,0-8.1-5.6-6.1-8.1c2-2.5,71.3-14.5,158.9-8.9
			c87.6,5.6,137.3,18.5,137.3,18.5s-12.9,6.3-11.2,7.4c1.8,1,135,45.2,135,45.2s19.5,4.1,30.2-0.5c0,0,23.6,6.3,30.2,6.9
			c6.6,0.5,40.1-0.8,40.6,3.3c0.5,4.1-0.5,11.4,1.3,12.9c1.8,1.5,10.9,15.7,8.1,20.6l-5.6-10.7c0,0-46.7,2.3-47.5,8.1
			c-0.8,5.8,4.1,21.1,6.6,23.9c2.5,2.8,45.7,1,45.7,1s3,20.6,7.1,23.4c4.1,2.8,16.2,5.1,16,12.4c-0.3,7.4,0.8,37.8-11.4,39.8
			c0,0-14.2-1.8-23.6,9.4c-9.4,11.2-20.1,26.9-39.3,31.5c-19.3,4.6-53.3,6.9-53.3,6.9s8.6-110.2-82.7-112.7
			c-91.4-2.5-87.6,111.9-87.6,111.9H387.4c0,0,23.1-114.1-80.2-118.2C203.9,506.6,228.7,637,228.7,637z"/>
		<g>
			<path class="st6" d="M804,394.7c-33.4-8-143.1-17.4-195.5-6.4c-52.5,11-106.3,30.8-156.4,72.5l9.7-0.2
				c11.8-9.5,41.6-31.3,87.9-49.3c61.2-23.7,101.6-25.7,149.4-23.1c47.8,2.7,93.9,4,124,18.7c30.1,14.7,63.2,36.8,60.8,39.1
				c-2.1,2.1-136.3,8-169,9.4l166-3.4c0,0,10.4-0.3,10.4-4.7C891.2,443.1,837.4,402.7,804,394.7z"/>
			<path class="st7" d="M456.1,465.5l251.7-9.7c0,0,2.6-0.1,7.1-0.3l-253.1,5.1C458,463.7,456.1,465.5,456.1,465.5z"/>
			<path d="M823.1,407c-30.1-14.7-76.2-16-124-18.7c-47.8-2.7-88.2-0.7-149.4,23.1c-46.3,18-76.1,39.7-87.9,49.3l253.1-5.1
				c32.7-1.4,167-7.3,169-9.4C886.2,443.8,853.1,421.7,823.1,407z"/>
		</g>
		<path class="st8" d="M511.9,452.2c0,0,60.5-41.1,107.6-49.1c47.1-8,101.9-3.7,101.9-3.7s-11,54.5-15.7,56.8
			c-4.7,2.3-203.8,3.7-203.8,3.7L511.9,452.2z"/>
		<path class="st8" d="M750.9,401.3l-7,49.1l106.6-3.7c0,0,11,0.3,11-3.7C861.5,439.1,812.4,398,750.9,401.3z"/>
		<g>
			<path class="st0" d="M530.4,448.8c0.3-1.7,0.2-3.6-0.3-5.7c-2.5-9.9-8.6-19.6-23-14.6c-14.4,5-16.5,12.8-18.4,20.5
				c0,0-7.8-2.2-8.5,1.3c-0.4,2.1,1,5,3,7.2C498,459.9,518.2,453.5,530.4,448.8z"/>
			<path class="st9" d="M483.2,457.5c1.3,1.4,3,2.5,4.6,2.8c4,0.7,11,2.1,13.6,0.9c2.5-1.1,14.9,0.3,18.9-0.7
				c3.1-0.8,9.1-5.1,10.2-11.7C518.2,453.5,498,459.9,483.2,457.5z"/>
		</g>
		<path class="st8" d="M167.2,506.6c0,0-11,3.6-16.1,19.9c-5.1,16.3,1.1,12.4,3.5,11.7c2.4-0.7,36.5-4.2,41.7-4.9
			c5.2-0.6,4.6-5.1,6.1-7.5c1.5-2.4,15.7-18.3,11.8-22.4C210.4,499.4,173.6,503.6,167.2,506.6z"/>
		<path class="st10" d="M143.3,572.1c0,0,0.5,24.5,2.6,28.1c2.1,3.6,7.3,7.2,15.3,8.2c8,1,23,2.2,24.3-8.1
			c1.2-10.3,3.4-29.8,3.4-29.8S142.7,569.9,143.3,572.1z"/>
		<path class="st10" d="M389.1,611.3l0-1.1c0.7,0,21.4-0.2,50.9-0.5c-7.2-10.9-6.5-34.4-6.5-35.5c0-0.7-1.9-69.1,2.7-88.6
			c4.7-19.7,20.5-28,20.7-28.1c0.5-0.3,49.8-30.4,64-38.1c33.7-18.3,66.2-29.8,91.7-32.2c36.7-3.5,115.5-2,116.3-2
			c3,0.3,71.5,6.8,84.7,12.4c13.2,5.6,59.2,33.7,59.7,34c0.7,0.3,17.4,8.8,18.4,14.8c0.2,1.1-0.2,2.1-1,2.9
			c-4,3.9-15.7,3.8-30.6,3.6c-6.3-0.1-12.8-0.2-19.3,0.1c-20.5,0.7-113.7,2.9-121.6,3.1c0,1.4,0.2,5.5,2.9,9.1
			c0.5,0.6,1,1.3,1.5,1.9c3.3,4.2,7.3,9.5,6.6,17.3c-0.2,1.6-0.3,4.7-0.6,8.9c-1.1,19-3.2,58.6-10.1,74.6
			c-8.6,20.2-13.4,27.8-24.8,33.3c-11.5,5.5-32.3,8.1-46.8,7.8C633.7,608.7,391.5,611.3,389.1,611.3z M689.5,386
			c-25.4,0-57.1,0.4-76.8,2.3c-25.3,2.4-57.7,13.8-91.2,32.1c-14.1,7.7-63.5,37.8-64,38.1c-0.2,0.1-15.6,8.2-20.1,27.4
			c-4.6,19.4-2.7,87.6-2.7,88.3c0,0.3-0.7,25.1,6.7,35.4c72.7-0.7,196.5-1.9,206.4-1.7c14.4,0.3,35-2.3,46.3-7.7
			c11-5.3,15.7-12.8,24.2-32.7c6.8-15.9,9-55.3,10-74.2c0.2-4.3,0.4-7.4,0.6-9c0.7-7.4-3-12.2-6.3-16.5c-0.5-0.7-1-1.3-1.5-2
			c-3.5-4.8-3.1-10.2-3.1-10.4l0-0.5l0.5,0c1,0,100.9-2.4,122.2-3.1c6.5-0.2,13.1-0.2,19.4-0.1c14,0.2,26.1,0.3,29.8-3.3
			c0.6-0.5,0.8-1.2,0.7-1.9c-0.7-4.5-13.1-11.7-17.8-14c-0.5-0.3-46.4-28.4-59.6-33.9c-13.1-5.5-83.6-12.3-84.3-12.3
			C728.4,386.3,711.3,386,689.5,386z"/>
		<g>
			<path class="st11" d="M380.4,585.7c0,39.2-31.8,70.9-70.9,70.9c-39.2,0-70.9-31.8-70.9-70.9c0-39.2,31.8-70.9,70.9-70.9
				C348.7,514.8,380.4,546.6,380.4,585.7z"/>
			<path class="st12" d="M256.1,585.7c0,29.6,24,53.6,53.6,53.6c29.6,0,53.6-24,53.6-53.6c0-29.6-24-53.6-53.6-53.6
				C280.1,532.2,256.1,556.2,256.1,585.7z"/>
			<g>
				<path class="st11" d="M291.1,549.8l12.4,14.1c0,0,2.1,3.4,5.1,3.4c2.9,0,5.1-2.4,5.1-2.4l13-15.1c0,0,1.8-2.1,0-3.6
					c-1.8-1.5-8.1-3.6-16.9-3.6C300.9,542.6,287.9,545,291.1,549.8z"/>
				<path class="st11" d="M291.1,621.7l12.4-14.1c0,0,2.1-3.4,5.1-3.4c2.9,0,5.1,2.4,5.1,2.4l13,15.1c0,0,1.8,2.1,0,3.6
					c-1.8,1.5-8.1,3.6-16.9,3.6C300.9,628.9,287.9,626.5,291.1,621.7z"/>
				<path class="st11" d="M346,567.8l-14.1,12.4c0,0-3.4,2.1-3.4,5.1c0,2.9,2.4,5.1,2.4,5.1l15.1,13c0,0,2.1,1.8,3.6,0
					c1.5-1.8,3.6-8.1,3.6-16.9C353.2,577.6,350.9,564.7,346,567.8z"/>
				<path class="st11" d="M274.2,567.8l14.1,12.4c0,0,3.4,2.1,3.4,5.1c0,2.9-2.4,5.1-2.4,5.1l-15.1,13c0,0-2.1,1.8-3.6,0
					c-1.5-1.8-3.6-8.1-3.6-16.9C267,577.6,269.3,564.7,274.2,567.8z"/>
			</g>
		</g>
		<g>
			<path class="st11" d="M985.1,594.2c0,39.2-31.8,70.9-70.9,70.9c-39.2,0-70.9-31.8-70.9-70.9c0-39.2,31.8-70.9,70.9-70.9
				C953.4,523.3,985.1,555.1,985.1,594.2z"/>
			<path class="st12" d="M860.8,594.2c0,29.6,24,53.6,53.6,53.6c29.6,0,53.6-24,53.6-53.6c0-29.6-24-53.6-53.6-53.6
				C884.8,540.7,860.8,564.7,860.8,594.2z"/>
			<g>
				<path class="st11" d="M895.8,558.3l12.4,14.1c0,0,2.1,3.4,5.1,3.4c2.9,0,5.1-2.4,5.1-2.4l13-15.1c0,0,1.8-2.1,0-3.6
					c-1.8-1.5-8.1-3.6-16.9-3.6C905.6,551.1,892.6,553.5,895.8,558.3z"/>
				<path class="st11" d="M895.8,630.2l12.4-14.1c0,0,2.1-3.4,5.1-3.4c2.9,0,5.1,2.4,5.1,2.4l13,15.1c0,0,1.8,2.1,0,3.6
					c-1.8,1.5-8.1,3.6-16.9,3.6C905.6,637.4,892.6,635,895.8,630.2z"/>
				<path class="st11" d="M950.7,576.3l-14.1,12.4c0,0-3.4,2.1-3.4,5.1c0,2.9,2.4,5.1,2.4,5.1l15.1,13c0,0,2.1,1.8,3.6,0
					c1.5-1.8,3.6-8.1,3.6-16.9C958,586.1,955.6,573.2,950.7,576.3z"/>
				<path class="st11" d="M878.9,576.3l14.1,12.4c0,0,3.4,2.1,3.4,5.1c0,2.9-2.4,5.1-2.4,5.1l-15.1,13c0,0-2.1,1.8-3.6,0
					c-1.5-1.8-3.6-8.1-3.6-16.9C871.7,586.1,874.1,573.2,878.9,576.3z"/>
			</g>
		</g>
	</g>
</g>
</svg>
