<?xml version="1.0" encoding="utf-8"?>
<!-- Generator: Adobe Illustrator 24.1.2, SVG Export Plug-In . SVG Version: 6.00 Build 0)  -->
<svg version="1.1" id="katman_1" xmlns="http://www.w3.org/2000/svg" xmlns:xlink="http://www.w3.org/1999/xlink" x="0px" y="0px"
	 viewBox="0 0 1280 1024" style="enable-background:new 0 0 1280 1024;" xml:space="preserve">
<style type="text/css">
	.st0{fill:#100607;}
	.st1{fill:#353544;}
	.st2{fill:#040402;}
	.st3{fill:#7C82A2;}
	.st4{fill:#AE222F;}
	.st5{fill:#080705;}
	.st6{fill:#EFD93F;}
	.st7{fill:#E0CD00;}
	.st8{fill:#D2CCCE;stroke:#3D3F2E;stroke-miterlimit:10;}
	.st9{fill:#D2CCCE;}
	.st10{fill:#1B1A20;}
	.st11{fill:#282C38;}
	.st12{fill:#292C3B;}
	.st13{fill:#D8D6E1;}
	.st14{fill:#27262C;}
	.st15{fill:#C3BFBE;}
	.st16{fill:#3A394B;}
	.st17{fill:#BEC0CC;}
</style>
<g>
	<g>
		<path class="st0" d="M924,258.9c0,0,8.6-17.5,32.7-16.4c0,0,7.4,8.9-1.2,18.4C946.9,270.5,924,258.9,924,258.9z"/>
		<path class="st1" d="M1124.5,459.8c-0.6-1.7-1.3-2.9-2.1-3.7c-7.4-6.7-8.5-13.1-8.5-13.1v-35.2c0-9.5-21.8-8.8-45.5-15.7
			c-23.7-6.9-34.5-25.3-34.1-31.5c0.4-6.2,12.9-10,43.5-8.1c30.5,1.9,25.9-2.9,25.9-2.9c-16.9-9.6-11.7-2.1-43.5-15
			c-31.8-12.9-60.3-42.2-60.3-42.2s42.1-17.6,36.5-23.4c-5.6-5.8-127.8-16.2-240.3-16.2c-112.4,0-153.3,4.1-179.3,7.8
			c-26,3.7-113.8,38.3-148.5,65.6c-34.7,27.4-75.8,40-81.9,42.7c-6.1,2.6-56,8.4-119.3,19.8c-63.3,11.4-88.6,31.6-88.6,31.6
			s-17.9,16.5-25.7,57.2c-1.1,5.5-1.7,10.5-2,15.1c-2.1,29.3,9,40.5,11.1,44.4c2.5,4.5-3.8,9.4-3.8,9.4c-6.9,4.1-6.6,7.3-6.6,7.3
			c-0.4,13.2,85.5,24.4,85.5,24.4S223.5,448,330.6,451c107.1,3,97.9,122.9,97.9,122.9l12.5-0.2c4.1-3,11.9-6.2,26.6-7.8
			c32.4-3.4,343.4-12.8,356.4-10c5.8,1.3,8.7,6.5,10.1,11.7l13.4-0.2c0,0-6.4-138.5,100.3-129.6c106.7,8.9,92.7,114,92.7,114
			c7.4-4.5,38.5-11.7,48.7-14.2c10.2-2.5,27.8-21.9,33.3-24.2C1127.3,511.4,1129.3,473,1124.5,459.8z"/>
		<path class="st2" d="M826.7,547.3c0.5,1.7,20.7,20.2,20.7,20.2s21.6,0.5,27.5-3.1c5.8-3.6,143.5-13.3,143.5-13.3
			s19.7,3.5,24.7-0.7c5-4.2,24.8-91.8,24.8-91.8l-141.3-60.4C926.6,398.3,804.1,471.7,826.7,547.3z"/>
		<path class="st3" d="M1029.7,270.9c0,0,6-3,7,0c1,3-7,14.4,28.6,40.4c35.7,25.9,31.4,39.1,31.4,39.1L994,323.6
			C994,323.6,971.5,277.3,1029.7,270.9z"/>
		<path class="st4" d="M1090.1,348.2c0,0,18.3,0,21.7,9.8c3.4,9.8,2.5,49.7,0,52.7c-2.6,3-103.3-36.1-103.3-36.1
			S1029.7,338.5,1090.1,348.2z"/>
		<path class="st2" d="M222.9,547c0,0,9.1,30.5,14.1,31.2c5,0.8,19.5-3.1,24.1-3.8c4.5-0.6,130.6,22.4,130.6,22.4
			s30.1-10.4,40.7-26.8c10.7-16.3,20.4-112.7,20.4-112.7l-114.9-19.7l-53.8,9.7l-39.8,36.2L222.9,547z"/>
		<path class="st5" d="M813,556.7l-1-1.5c0.2-0.1,17.3-11.5,20.9-21.7c0.3-0.9,0.7-2.4,1.3-4.4c3-10.6,10.1-35.5,25.7-58
			c19.6-28.1,45.8-43,77.8-44.3c42.5-1.7,69.2,16,84.1,31.1c14.5,14.7,20.9,29.9,22.2,33c32.4,0.7,80.7-1.1,82.4-9l1.7,0.4
			c-0.4,1.9-1.8,7.8-43.7,9.8c-20.4,1-40.8,0.5-41,0.5l-0.6,0l-0.2-0.6c-0.1-0.2-6.1-16.9-22-33c-14.7-14.8-40.9-32.2-82.8-30.5
			c-49.2,1.9-83.4,35.9-101.9,101.1c-0.6,2.1-1,3.5-1.3,4.5C830.8,544.9,813.7,556.2,813,556.7z"/>
		<g>
			<path class="st6" d="M232.6,482.4c0,0,27.3-64.8,92.9-56.3c65.6,8.5,125.7,56.3,125.7,56.3s0,31.4,143.4,21.9
				c143.4-9.6,210.4-16.4,210.4-16.4s20.5-8.2-46.4-6.8c-66.9,1.4-251.3,0-251.3,0s-56-11.8-51.9-42.1
				c4.1-30.3,136.6-1.3,222.7-10.3c86.1-9,189.9,10,189.9,10s45.1-43.4,90.2-29.8c45.1,13.5,92,57.2,97.9,57.2
				c4.8,0,52.3,5.2,68.7-6.3c-0.6-1.7-1.3-2.9-2.1-3.7c-7.4-6.7-8.5-13.1-8.5-13.1v-35.2c0-9.5-21.8-8.8-45.5-15.7
				c-23.7-6.9-34.5-25.3-34.1-31.5c0.4-6.2,12.9-10,43.5-8.1c30.5,1.9,25.9-2.9,25.9-2.9c-16.9-9.6-11.7-2.1-43.5-15
				c-31.8-12.9-60.3-42.2-60.3-42.2s42.1-17.6,36.5-23.4c-5.6-5.8-127.8-16.2-240.3-16.2c-112.4,0-153.3,4.1-179.3,7.8
				c-26,3.7-113.8,38.3-148.5,65.6c-34.7,27.4-75.8,40-81.9,42.7c-6.1,2.6-56,8.4-119.3,19.8c-63.3,11.4-88.6,31.6-88.6,31.6
				s-17.9,16.5-25.7,57.2c-1.1,5.5-1.7,10.5-2,15.1C167.4,486.4,205.5,474.1,232.6,482.4z"/>
			<path class="st7" d="M1055.9,466c-5.9,0-52.9-43.7-97.9-57.2c-45.1-13.5-90.2,29.8-90.2,29.8s-103.8-19.1-189.9-10
				c-86.1,9-218.6-20-222.7,10.3c-4.1,30.3,51.9,42.1,51.9,42.1s184.4,1.4,251.3,0c66.9-1.4,46.4,6.8,46.4,6.8s-66.9,6.8-210.4,16.4
				c-143.4,9.6-143.4-21.9-143.4-21.9s-60.1-47.8-125.7-56.3c-65.6-8.5-92.9,56.3-92.9,56.3c-27-8.3-65.2,3.9-81.8,10.3
				c-2.1,29.3,9,40.5,11.1,44.4c2.5,4.5-3.8,9.4-3.8,9.4c-6.9,4.1-6.6,7.3-6.6,7.3c-0.4,13.2,85.5,24.4,85.5,24.4
				S223.5,448,330.6,451c107.1,3,97.9,122.9,97.9,122.9l12.5-0.2c4.1-3,11.9-6.2,26.6-7.8c32.4-3.4,343.4-12.8,356.4-10
				c5.8,1.3,8.7,6.5,10.1,11.7l13.4-0.2c0,0-6.4-138.5,100.3-129.6c106.7,8.9,92.7,114,92.7,114c7.4-4.5,38.5-11.7,48.7-14.2
				c10.2-2.5,27.8-21.9,33.3-24.2c4.9-2.1,7-40.5,2.1-53.7C1108.1,471.2,1060.7,466,1055.9,466z"/>
		</g>
		<path class="st2" d="M823.9,556c-13-2.9-324,6.6-356.4,10c-14.7,1.5-22.5,4.7-26.6,7.8l393.1-6C832.7,562.4,829.8,557.2,823.9,556
			z"/>
		<path class="st8" d="M165.6,457c0,0-0.9-18.8,16.3-31.5c17.2-12.7,88-32.2,93-26.3c5,5.9-15.7,14.1-21.5,19.5
			c-5.8,5.4-36.4,36.8-52,38.3c-15.6,1.5-37.2,10.8-35.8,0.5"/>
		<path class="st9" d="M156.3,501.2c-1.4-1.3-2.5-3.6,3-4.6c5.5-1,21-2.1,21-2.1s6.5-0.5,11.6,6.8c5,7.3,10.8,21.2,10.8,21.2
			s6.5,10.8-3.6,10.9s-35.7,0-35.7,0s5.7-3,4.5-8.5c-1.1-5.5-5.9-20.6-5.9-20.6S157.7,502.5,156.3,501.2z"/>
		<path class="st10" d="M163.7,500.6l10.7,25c0,0,1.4,3.5,7.4,3c6-0.5,15.6,0.8,15.6,0.8s3.4,1.1,0-5.3
			c-3.4-6.4-13.6-24.2-13.6-24.2s-0.1-0.8-6-1.3c-5.9-0.5-15.8,1.4-15.8,1.4S162.3,501,163.7,500.6z"/>
		<path class="st3" d="M422.3,375.7c0,0,61.8-46.9,97.9-65.1c36-18.2,56.3-28.3,105.7-36.8c49.4-8.5,102.5-6,102.5-6h111.4
			c0,0,82.9,1.3,102.1,13.4c19.1,12.1,31.7,24.3,29.8,30.2c-1.9,5.9-30.6,27.3-51.8,30.3c-21.3,3.1-173.6,19-173.6,19l-150.9,13.8
			l-159.9,12.2c0,0-13.9,2.5-15.7-3.9C418.5,378.7,422.3,375.7,422.3,375.7z"/>
		<path class="st11" d="M449.1,386.3l8.9-28.7c0,0,62.5-43.2,80.3-50.3c17.8-7.1,64.2-31.9,157.3-30c0,0,78.3-5.9,172.7-3.4
			l24.4,70.4l8.3-1.3l-30-73.3c0,0-231.4-10.8-296.4,16.6c-65,27.4-162.5,86.7-153.6,98.2L449.1,386.3z"/>
		<polygon class="st12" points="679.5,273.6 657,367.7 705.9,363.3 705.9,273.4 		"/>
		<polygon class="st12" points="844.6,350.5 840.8,350.2 845.5,273.3 849.3,272 		"/>
		<path class="st12" d="M871.2,273.3c0,0,10.4-0.2,19.4,0.5c9,0.8,32.3,0.6,54.8,16c22.5,15.4,20.2,27.3,19.2,29.2
			c-1,1.9,3.9-1.4,3.9-1.4l1.1-8.2l-17-22.3l-26.6-11.7l-57.4-6.7L871.2,273.3z"/>
		<path class="st13" d="M909.1,273.9c0,0,26.9,1.8,47.3,23.6c16.2,17.3,10.6,21,0,28.3c-10.6,7.3-29,15-29,15s44.1-13.9,47.5-27.3
			C978.2,300.1,952.1,273,909.1,273.9z"/>
		<g>
			<path class="st14" d="M416.1,543.9c0,46.9-38,85-84.9,85c-46.9,0-84.9-38-84.9-85c0-46.9,38-84.9,84.9-84.9
				C378.1,458.9,416.1,497,416.1,543.9z"/>
			<path class="st15" d="M267.2,543.9c0,35.4,28.7,64.2,64.2,64.2c35.4,0,64.2-28.7,64.2-64.2c0-35.4-28.7-64.2-64.2-64.2
				C295.9,479.7,267.2,508.4,267.2,543.9z"/>
			<g>
				<path class="st14" d="M309.1,500.9l14.8,16.9c0,0,2.6,4.1,6.1,4.1c3.5,0,6.1-2.8,6.1-2.8l15.5-18.1c0,0,2.2-2.6,0-4.3
					c-2.2-1.8-9.7-4.3-20.3-4.3C320.9,492.2,305.3,495.1,309.1,500.9z"/>
				<path class="st14" d="M309.1,586.9L324,570c0,0,2.6-4,6.1-4c3.5,0,6.1,2.8,6.1,2.8l15.5,18.1c0,0,2.2,2.6,0,4.3
					c-2.2,1.8-9.7,4.3-20.3,4.3C320.9,595.5,305.3,592.7,309.1,586.9z"/>
				<path class="st14" d="M374.9,522.4L358,537.3c0,0-4.1,2.6-4.1,6.1c0,3.5,2.8,6.1,2.8,6.1l18.1,15.5c0,0,2.6,2.2,4.3,0
					c1.8-2.2,4.3-9.7,4.3-20.3C383.6,534.2,380.7,518.6,374.9,522.4z"/>
				<path class="st14" d="M288.9,522.4l16.9,14.8c0,0,4.1,2.6,4.1,6.1c0,3.5-2.8,6.1-2.8,6.1L288.9,565c0,0-2.6,2.2-4.3,0
					c-1.8-2.2-4.3-9.7-4.3-20.3C280.2,534.2,283.1,518.6,288.9,522.4z"/>
			</g>
		</g>
		<g>
			<path class="st14" d="M1029,533.9c0,46.9-38,85-85,85c-46.9,0-84.9-38-84.9-85c0-46.9,38-84.9,84.9-84.9
				C991,448.9,1029,486.9,1029,533.9z"/>
			<path class="st15" d="M880.1,533.9c0,35.4,28.7,64.2,64.2,64.2c35.4,0,64.2-28.7,64.2-64.2c0-35.4-28.7-64.2-64.2-64.2
				C908.9,469.7,880.1,498.4,880.1,533.9z"/>
			<g>
				<path class="st14" d="M922,490.8l14.9,16.9c0,0,2.6,4,6.1,4c3.5,0,6.1-2.8,6.1-2.8l15.5-18.1c0,0,2.2-2.6,0-4.3
					c-2.2-1.8-9.7-4.3-20.3-4.3C933.8,482.2,918.2,485,922,490.8z"/>
				<path class="st14" d="M922,576.9l14.8-16.9c0,0,2.6-4,6.1-4c3.5,0,6.1,2.8,6.1,2.8l15.5,18.1c0,0,2.2,2.6,0,4.3
					c-2.2,1.8-9.7,4.3-20.3,4.3C933.8,585.5,918.2,582.7,922,576.9z"/>
				<path class="st14" d="M987.8,512.4L971,527.3c0,0-4.1,2.6-4.1,6.1c0,3.5,2.8,6.1,2.8,6.1l18.1,15.5c0,0,2.6,2.2,4.3,0
					c1.8-2.2,4.3-9.7,4.3-20.3C996.5,524.2,993.6,508.6,987.8,512.4z"/>
				<path class="st14" d="M901.8,512.4l16.9,14.9c0,0,4.1,2.6,4.1,6.1c0,3.5-2.8,6.1-2.8,6.1l-18.1,15.5c0,0-2.6,2.2-4.3,0
					c-1.8-2.2-4.3-9.7-4.3-20.3C893.2,524.2,896,508.6,901.8,512.4z"/>
			</g>
		</g>
		<path class="st5" d="M460.4,571.1c-17.2-35.6-26.7-65.6-27.7-122.2c-1-58.9,22.1-98.5,22.4-98.9l1.5,0.9
			c-0.2,0.4-23.2,39.6-22.1,98c1,56.2,10.4,86.1,27.5,121.5L460.4,571.1z"/>
		<path class="st5" d="M680.6,559c-0.1-0.2-6.3-24-9.3-37c-3.1-12.9-0.4-37.3-0.4-38.9v-93.6c0-6.8,8.4-20.4,9.4-22.1l14.3-98.5
			l1.8,0.2l-14.1,98.8l-0.1,0.2c-0.1,0.1-8.9,14.8-8.9,21.3l0,93.7c0,0.3-3.1,25.6,0,38.4c3.1,12.9,8.9,36.7,9,37L680.6,559z"/>
		<path class="st5" d="M901.7,438.2l-1.4-1.1c4.3-5.6,6.9-57.8,6.8-69.5c-0.1-9.8-10.3-23.1-10.4-23.2l-0.1-0.2l-27-71.9l1.6-0.6
			l27,71.8c1.1,1.4,10.6,14.2,10.6,24.2C908.9,374.7,906.8,431.6,901.7,438.2z"/>
		<path class="st13" d="M429.6,388c-6.1,0-9.9-1.7-10.9-5c-1.3-4.5,2.8-7.8,3-8c0.6-0.5,62.3-47.2,98-65.2
			c36.1-18.3,56-28.3,105.9-36.9c30.5-5.3,62.3-5.9,83.6-5.9c11.6,0,19,0.8,19.1,0.8h111.4c3.4,0,83.4,1,102.5,13.1
			c16.2,10.2,32.6,23.6,30.2,31c-2,6.1-31.2,27.7-52.6,30.8c-21,3-172.1,18.8-173.6,18.9l-150.9,13.7l-159.9,12.2
			C435.4,387.5,432.8,388,429.6,388z M709.3,267.8c-21.2,0-52.9,1.3-83.3,6.6c-49.6,8.6-69.5,18.7-105.4,36.9
			c-35.6,18-97.1,64.6-97.7,65.1c0,0-3.3,2.7-2.3,6c0.9,3.1,5.4,3.7,9.1,3.7c3,0,5.6-0.4,5.6-0.4l159.9-12.2l150.9-13.8
			c1.5-0.2,152.6-16,173.6-19c21.4-3.1,49.5-24.7,51.1-29.7c1.7-5.1-10.4-17.5-29.4-29.6c-18.7-11.8-100.8-13.7-101.6-13.7H728.3
			C728.2,267.8,720.9,267.8,709.3,267.8z"/>
		<path class="st5" d="M228.9,538.8h-67.4c-0.5,0-0.9-0.5-0.9-1c0-0.5,0.4-1,0.9-1h66.6c0.5-5,3.6-26,16.5-47.1
			c13.2-21.7,39.7-47.8,90.8-47.8c43.3,0,67.9,23.7,81,43.7c14.1,21.6,18,43.5,18,43.7c0.1,0.5-0.2,0.9-0.7,1
			c-0.5,0.1-0.9-0.2-1-0.7c0-0.2-3.9-21.8-17.8-43.1c-12.8-19.6-37-43-79.5-43c-50.3,0-76.3,25.4-89.3,46.7
			c-14.1,23.1-16.3,47-16.3,47.3C229.8,537.9,229.4,538.8,228.9,538.8z"/>
		<path class="st16" d="M461.3,383.8c0,0,4.9-31.4,25.1-35.4c20.2-4,24,14.7,24.2,15.9c0.2,1.2,3.8,17-12,19.5
			S461.1,391.8,461.3,383.8z"/>
		<path class="st0" d="M591.9,400.9c-0.2-5.3,11.8-9,25.6-10.6c13.8-1.5,27.6-0.5,28.8,3.6c1.2,4.1-10.7,14-27.2,13.6
			C602.7,407.2,592.1,406.2,591.9,400.9z"/>
		<path class="st17" d="M596.5,401.2c0,0,1.5-4.6,20.8-7c19.3-2.4,24.2-2.4,24.2,0c0,2.4-8.5,6.8-13.5,7
			C623,401.4,595.8,405.8,596.5,401.2z"/>
		<path class="st0" d="M826,376.3c-0.2-5.3,11.8-9,25.6-10.6c13.8-1.5,27.6-0.5,28.8,3.6c1.2,4.1-10.7,14-27.2,13.6
			C836.7,382.6,826.1,381.6,826,376.3z"/>
		<path class="st17" d="M830.5,376.6c0,0,1.5-4.6,20.8-7c19.3-2.4,24.2-2.4,24.2,0c0,2.4-8.5,6.8-13.5,7
			C857.1,376.8,829.9,381.2,830.5,376.6z"/>
	</g>
</g>
</svg>
