<?xml version="1.0" encoding="utf-8"?>
<!-- Generator: Adobe Illustrator 24.1.2, SVG Export Plug-In . SVG Version: 6.00 Build 0)  -->
<svg version="1.1" id="katman_1" xmlns="http://www.w3.org/2000/svg" xmlns:xlink="http://www.w3.org/1999/xlink" x="0px" y="0px"
	 viewBox="0 0 1280 1024" style="enable-background:new 0 0 1280 1024;" xml:space="preserve">
<style type="text/css">
	.st0{fill:#C3BFBE;}
	.st1{fill:#C5D6E2;}
	.st2{fill:#B95E25;}
	.st3{fill:#010101;}
	.st4{fill:#222222;}
	.st5{fill:#E0CD00;}
	.st6{fill:#AE222F;}
	.st7{fill:#DEDEDE;}
	.st8{fill:#EFEA48;}
	.st9{fill:#1E1E1E;}
	.st10{fill:#040404;}
	.st11{fill:#27262C;}
	.st12{fill:#1A1A1A;}
</style>
<g>
	<path class="st0" d="M1095.2,617.6l5.5,3.5c0,0,32-2.1,36.6-1.7c4.6,0.4,14.7-2.6,24.6,8.3c0,0,16.7-4.3,18-6.7
		c1.3-2.5-13.4-10.9-20-13.4c-6.6-2.5-51.4-2.5-56.3-1.3C1098.6,607.3,1095.2,617.6,1095.2,617.6z"/>
	<path d="M1224.3,560.8c0,0,29.2,0.8,30.5,5.4c1.3,4.6-8.4,32.6-8.4,32.6s-2.7,9.2-8.4,9.8c-5.7,0.7-53.1-2.6-60.1-9.8
		C1170.7,591.5,1224.3,560.8,1224.3,560.8z"/>
	<g>
		<path class="st1" d="M114,495.1c0,0-30.5,1.8-33.6,1.3c-3.1-0.5-1.2-2.4,1.5-11.1c2.1-6.8-2.1-13.7-4-16.3c-5.3,1-10,2.9-13,6
			c0,0-9,12-13.3,22.5c-1,2.5-1.8,4.9-2.1,7c-1.6,11.2-4.2,44.1-1,47c3.1,3,39.6,2.2,39.6,2.2l24-24.2l14.8-33.3L114,495.1z"/>
		<path class="st2" d="M81.9,485.4c-2.7,8.7-4.6,10.6-1.5,11.1c3.1,0.5,33.6-1.3,33.6-1.3l12.9,1.4l8.5-19l-26.9-8.4
			c0,0-17.1-2.7-30.6-0.1C79.8,471.7,84,478.6,81.9,485.4z"/>
	</g>
	<path class="st2" d="M70.5,518.9h56.3l-7.1,33H72.1c0,0-3.3-11.2-2.7-19.9C70,523.3,68.6,519.7,70.5,518.9z"/>
	<path d="M64.5,475.8l-2.7,4c0,0,11.4-3.7,13.9-4c2.5-0.3,28.5-3.1,32.7,8.5c4.2,11.6-19.8,35.3-22.6,69.6l9.3-4.3l35.8-46.6
		l-5.4-21.7l-13.4-7.3c0,0-36.6-8.5-47.6,1.2"/>
	<path d="M53.4,498.5c-0.4,0-0.8-0.4-0.8-0.8c0-0.4,0.3-0.8,0.8-0.9l52.3-1.2c0.4,0,0.8,0.3,0.8,0.8c0,0.4-0.3,0.9-0.8,0.9
		L53.4,498.5C53.4,498.5,53.4,498.5,53.4,498.5z"/>
	<path d="M96.2,516.5H50.4c-0.4,0-0.8-0.1-0.8-0.5c0-0.4,0.4-0.5,0.8-0.5h45.8c0.4,0,0.8,0.1,0.8,0.5
		C97,516.5,96.7,516.5,96.2,516.5z"/>
	<polygon points="78.5,499.2 101.9,499.2 95.4,512.1 76.9,512.1 	"/>
	<path class="st3" d="M29.6,573c0,0-7.4,5.3-5.4,14c2.1,8.7,6.3,24.9,6.3,24.9s-0.2,5.2,13.3,7c13.6,1.8,17.4,3,17.4,3v8
		c0,0-10.3,2-10,6.3c0.3,4.3,11.2,7.8,53.6,7.8l1.1-14.6l32.4,0.3l150.4-2.8c0,0,30.9,9.3,42.4,11.5c11.5,2.2,26.4,4.7,30.2,4.5
		c3.7-0.2,7.5-28.9,7.5-28.9L323,495.5l-183.2-10.2l-23.4,46L100,553l-3.9,0.9l-34.4-0.3c0,0-18.5,7-22.2,11.1
		C35.8,568.7,29.6,573,29.6,573z"/>
	<path d="M804.7,472.2l-26-37.4c0,0-10.5,4.4-15.9,3.6c-5.5-0.8-254,54.7-254,54.7L317.6,602.7c0,0-4.2,29.6,7.9,34.4
		c12.1,4.8,83.6,5.6,83.6,5.6l382-5.6c0,0,13.7,6.4,30.6,5.6c16.9-0.8,29-7.2,29-7.2h19.3c0,0,37-0.9,54.7-3.3
		c17.7-2.4,139.1-9.7,139.1-9.7h36.9v-15.1V475.5L804.7,472.2z"/>
	<path class="st1" d="M478.3,332.6l-12.7-3c0,0-138.4,83.9-151.1,121.7c-12.7,37.8,43.1-28.3,43.1-28.3L478.3,332.6z"/>
	<g>
		<path class="st4" d="M425.1,361.5c14.1-9.2,45.4-28.6,45.4-28.6l-3.3-3.7c-1.2,0.4-1.8,0.5-1.6,0.5c1.6-0.3,3.5,3,3.5,3
			c-34,14.7-107.2,75.9-113.1,81c-5.9,5.1-27.1,19.3-32.7,20.4c-0.1,0-0.3,0.1-0.5,0.1C330.3,438.5,405.1,374.5,425.1,361.5z"/>
		<path class="st5" d="M763.1,619.1c-3.2-1.9-1.5-11.6-1.5-11.6l-5.6,7.9c1.6-4,12.9-156.6,12.6-185.2
			c-0.3-28.7-7.5-95.2-14.7-106.7c-7.2-11.5-35.9-11.3-120.6-9.9c-84.7,1.3-128.7,8.6-134.8,8.6c-5.1,0-25.3,5.3-31.1,7l3.3,3.7
			c0,0-31.3,19.5-45.4,28.6c-20,13-94.7,77.1-102.2,72.5c-6.2,1-25.7,0.8-32.3,0c-6.7-0.8-156,20.4-179.9,24.7
			c-23.9,4.3-32.2,6.4-41,10c-8.8,3.6-7.9,11.2-7.9,11.2c22.6-14.9,46.5-1.4,48.9,2.3c2.4,3.8-6.2,22.3-11.8,32.4
			c-5.6,10.2-13.1,39.3-13.1,39.3h35.1c9.7-25.7,22.3-35.9,34.9-41.5c12.6-5.6,106.4-18.2,130.3-1c23.9,17.2,32.2,95.7,32.7,101.3
			c0.5,5.6,5.1,10.2,5.1,10.2c0.5,6.4,6.2,8.6,6.2,8.6l440.5-4V621C770.6,621,766.4,621,763.1,619.1z"/>
	</g>
	<path class="st6" d="M1205.4,437.1l24.8,13.7c0,0,5.2,12.5,5.5,31.2c0.3,18.7,1.5,57.4-4.6,64.9c-6.2,7.5-43.5-22.6-43.7-25.3
		C1187.3,518.7,1205.4,437.1,1205.4,437.1z"/>
	<path class="st5" d="M778.7,434.9c0,0-4.6-1.4-4.6,6c0,7.4-1.1,67.6-1.9,87.3c-0.8,19.7-11.9,87.8-8.9,89.6
		c2.9,1.8,11.7,3.4,11.7,3.4l-0.3,7.3h67.9c0,0,11-5.1,17-5.1c6,0,7.9-4.2,7.9-8.1s7.7-82.5,43.5-98.1
		c35.9-15.6,127.6-14.7,127.6-14.7s31.5-1.2,41.6,32.5c10.1,33.7,13.7,67,8.2,77.7l66.8-8.2c0,0,56.1-2.2,64.9-19.5
		c8.8-17.2,12.3-41.1,12.3-41.1s-11.2-3.6-14.5-19.2c-3.3-15.6-10.7-35.6-11-40.5c-0.3-4.9-6-26.6,0.9-30.4
		c6.8-3.8,21.7-3.3,21.7-3.3v-13.9c0,0,1.1-6.4-4.9-6.4C1218.7,430.5,778.7,434.9,778.7,434.9z"/>
	<path class="st7" d="M116.3,558.3H52c0,0-21.7,0.7-23.5,10.7c-1.8,10,0.6,13.7,2.2,14c1.6,0.3,79.9,0,79.9,0
		S111.8,569.1,116.3,558.3z"/>
	<path class="st4" d="M773,540.6v19.7h66.4c0,0,3.3,0,4.2-1c1-1,1-4.4,1-4.4v-9.5c0,0-0.1-4.6-3.4-4.8
		C837.9,540.4,773,540.6,773,540.6z"/>
	<path class="st8" d="M839.4,560.3c0,0,4.8,3.6,12.3-9.9c7.5-13.5,19.3-66.1,42.9-72.5c23.6-6.4,231.6-24.1,231.6-24.1
		s-219.3-4.3-243.4,19.3C858.7,496.7,854.9,554.3,839.4,560.3z"/>
	<path class="st9" d="M367.1,438.1c0,0-2.8-11.9,9.1-21.1c11.9-9.1,73.6-58.2,73.6-58.2s28.9-23.3,66.6-26.4
		c37.7-3.1,85.8-3.8,85.8-3.8s11.3-0.6,11.6,8.5c0.3,9.1-6.3,89.6-6.3,89.6s1.9,6.6-3.8,10.1c-5.7,3.5-18.2,2.8-18.2,2.8l-199.6,9.4
		C385.9,449.1,369.3,448.2,367.1,438.1z"/>
	<path class="st1" d="M600.7,428.4l7.2-86.1c0,0,2.5-6.6-3.6-6.6c-6.1,0-86.9,0-116.5,12.9c-29.6,12.9-95.6,52.2-105.3,79.9
		c-9.7,27.7,16.3,10.7,16.3,10.7l38.4-0.6l147.1-6.6C584.3,431.9,600.2,433.8,600.7,428.4z"/>
	<g>
		<path class="st1" d="M737.2,412.6c0,12.9-10.5,24.9-23.4,24.9h-49.7c-12.9,0-26.5-13.5-26.5-26.4v-63.4
			c0-12.9,13.6-19.2,26.5-19.2h43.3c12.9,0,21.4,4.1,25.7,21.3L737.2,412.6z"/>
		<path class="st9" d="M707.4,332.3c10.3,0,17.1,2.7,20.9,17.7l4,62.9c-0.1,10.6-8.7,19.9-18.6,19.9h-49.7
			c-10.2,0-21.8-11.6-21.8-21.8v-63.4c0-9.9,11.3-15.3,21.8-15.3H707.4 M707.4,327.5h-43.3c-12.9,0-26.6,7.3-26.6,20.2v63.4
			c0,12.9,13.7,26.6,26.6,26.6h49.7c12.9,0,23.4-12.1,23.4-25l-4.1-63.3C728.8,332.2,720.3,327.5,707.4,327.5L707.4,327.5z"/>
	</g>
	<g>
		<path class="st4" d="M364.3,540.6c-5.5,0-6.7,4.4-6.7,9.9v0.3c0,5.5,1.2,9.9,6.7,9.9h259.5v-20.1H364.3z"/>
		<path class="st4" d="M758.9,550.5c0-5.5,0.4-9.9-5.1-9.9H630.3v20.1h123.6c5.5,0,5.1-4.4,5.1-9.9V550.5z"/>
	</g>
	<path class="st10" d="M368.8,440c0,0-1.9-11.2,9.6-14l1.4-14.4c0,0-0.5-7.5,3.8-9.4c4.4-1.9,26.9-7.4,36.2-6
		c9.3,1.4,6.5,25.9,6.3,29.7c-0.2,3.7,1,10.6-5.2,12.8c-6.2,2.2-27,9.2-29.9,10.2C388.1,450,368.4,453.3,368.8,440z"/>
	<polygon class="st4" points="627.6,601.5 626.6,601.5 626.6,467.4 630,313.6 631.6,313.6 627.6,467.5 	"/>
	<path class="st4" d="M350.3,607.4l-0.2-0.5c-3.7-9.9-14.6-84.1-12.4-111.3c2.1-26,14.6-78.8,14.7-79.3l2-1.4
		c-0.1,0.5-13,55-15.1,80.9c-2.1,25.8,8.4,98.5,12.1,110.1l406.1-5.8l0,1.6L350.3,607.4z"/>
	<path class="st11" d="M208.6,711.1c-47.6,0-86.1-38.6-86.1-86.1c0-47.6,38.6-86.1,86.1-86.1c47.6,0,86.1,38.6,86.1,86.1
		C294.7,672.5,256.2,711.1,208.6,711.1"/>
	<path class="st0" d="M208.8,690c35.9,0,65-29.1,65-65.1c0-35.9-29.1-65.1-65-65.1c-35.9,0-65.1,29.1-65.1,65.1
		C143.8,660.9,172.9,690,208.8,690"/>
	<g>
		<path class="st11" d="M186.2,581.3l15.1,17.1c0,0,2.6,4.1,6.2,4.1c3.6,0,6.2-2.9,6.2-2.9l15.7-18.3c0,0,2.2-2.6,0-4.4
			c-2.2-1.8-9.9-4.4-20.5-4.4C198.1,572.6,182.4,575.5,186.2,581.3z"/>
		<path class="st11" d="M186.2,668.6l15.1-17.1c0,0,2.6-4.1,6.2-4.1s6.2,2.9,6.2,2.9l15.7,18.3c0,0,2.2,2.6,0,4.4
			c-2.2,1.8-9.9,4.4-20.5,4.4C198.1,677.3,182.4,674.5,186.2,668.6z"/>
		<path class="st11" d="M253,603.2l-17.1,15.1c0,0-4.1,2.6-4.1,6.2c0,3.6,2.9,6.2,2.9,6.2l18.3,15.7c0,0,2.6,2.2,4.4,0
			c1.8-2.2,4.4-9.9,4.4-20.5C261.7,615.1,258.8,599.4,253,603.2z"/>
		<path class="st11" d="M165.7,603.2l17.1,15.1c0,0,4.1,2.6,4.1,6.2c0,3.6-2.9,6.2-2.9,6.2l-18.3,15.7c0,0-2.6,2.2-4.4,0
			c-1.8-2.2-4.4-9.9-4.4-20.5C157,615.1,159.8,599.4,165.7,603.2z"/>
	</g>
	<path class="st11" d="M208.6,711.1c-47.6,0-86.1-38.6-86.1-86.1c0-47.6,38.6-86.1,86.1-86.1c47.6,0,86.1,38.6,86.1,86.1
		C294.7,672.5,256.2,711.1,208.6,711.1"/>
	<path class="st0" d="M208.8,690c35.9,0,65-29.1,65-65.1c0-35.9-29.1-65.1-65-65.1c-35.9,0-65.1,29.1-65.1,65.1
		C143.8,660.9,172.9,690,208.8,690"/>
	<g>
		<path class="st11" d="M186.2,581.3l15.1,17.1c0,0,2.6,4.1,6.2,4.1c3.6,0,6.2-2.9,6.2-2.9l15.7-18.3c0,0,2.2-2.6,0-4.4
			c-2.2-1.8-9.9-4.4-20.5-4.4C198.1,572.6,182.4,575.5,186.2,581.3z"/>
		<path class="st11" d="M186.2,668.6l15.1-17.1c0,0,2.6-4.1,6.2-4.1s6.2,2.9,6.2,2.9l15.7,18.3c0,0,2.2,2.6,0,4.4
			c-2.2,1.8-9.9,4.4-20.5,4.4C198.1,677.3,182.4,674.5,186.2,668.6z"/>
		<path class="st11" d="M253,603.2l-17.1,15.1c0,0-4.1,2.6-4.1,6.2c0,3.6,2.9,6.2,2.9,6.2l18.3,15.7c0,0,2.6,2.2,4.4,0
			c1.8-2.2,4.4-9.9,4.4-20.5C261.7,615.1,258.8,599.4,253,603.2z"/>
		<path class="st11" d="M165.7,603.2l17.1,15.1c0,0,4.1,2.6,4.1,6.2c0,3.6-2.9,6.2-2.9,6.2l-18.3,15.7c0,0-2.6,2.2-4.4,0
			c-1.8-2.2-4.4-9.9-4.4-20.5C157,615.1,159.8,599.4,165.7,603.2z"/>
	</g>
	<path class="st11" d="M982.3,711.1c-47.6,0-86.1-38.6-86.1-86.1c0-47.6,38.6-86.1,86.1-86.1c47.6,0,86.1,38.6,86.1,86.1
		C1068.4,672.5,1029.8,711.1,982.3,711.1"/>
	<path class="st0" d="M982.5,690c35.9,0,65.1-29.1,65.1-65.1c0-35.9-29.1-65.1-65.1-65.1c-35.9,0-65.1,29.1-65.1,65.1
		C917.4,660.9,946.6,690,982.5,690"/>
	<g>
		<path class="st11" d="M959.9,581.3l15.1,17.1c0,0,2.6,4.1,6.2,4.1c3.6,0,6.2-2.9,6.2-2.9l15.7-18.3c0,0,2.2-2.6,0-4.4
			c-2.2-1.8-9.9-4.4-20.5-4.4C971.8,572.6,956.1,575.5,959.9,581.3z"/>
		<path class="st11" d="M959.9,668.6l15.1-17.1c0,0,2.6-4.1,6.2-4.1s6.2,2.9,6.2,2.9l15.7,18.3c0,0,2.2,2.6,0,4.4
			c-2.2,1.8-9.9,4.4-20.5,4.4C971.8,677.3,956.1,674.5,959.9,668.6z"/>
		<path class="st11" d="M1026.6,603.2l-17.1,15.1c0,0-4.1,2.6-4.1,6.2c0,3.6,2.9,6.2,2.9,6.2l18.3,15.7c0,0,2.6,2.2,4.4,0
			c1.8-2.2,4.4-9.9,4.4-20.5C1035.4,615.1,1032.5,599.4,1026.6,603.2z"/>
		<path class="st11" d="M939.4,603.2l17.1,15.1c0,0,4.1,2.6,4.1,6.2c0,3.6-2.9,6.2-2.9,6.2l-18.3,15.7c0,0-2.6,2.2-4.4,0
			c-1.8-2.2-4.4-9.9-4.4-20.5C930.6,615.1,933.5,599.4,939.4,603.2z"/>
	</g>
	<path class="st7" d="M1231,565.5h20.9c0,0,4.9,0.4,4.1,5.6c-0.8,5.2-2.5,28-12.5,28.6c-10,0.7-28.2,5-28.8,2.4
		c-0.7-2.6,7.4-8,10-14.1C1227.4,582,1229.6,565.5,1231,565.5z"/>
	<path class="st12" d="M547.6,467.8c0,0,0.3-5.9,3.6-6.1c3.3-0.2,8.5-1,8.5-1s5.3-6.8,11.3-6.8c5.9,0,12.6,0,12.6,0
		s10.9-1.6,15.8,6.4h10.8c0,0,5.4,0.2,5.6,7.5c0.2,7.3-5.2,5.9-5.2,5.9l-11,0.2c0,0-5,7.3-9.2,7.3c-4.2,0-12.3,0-12.3,0
		s-11.6,0.8-14.4-2.9c-2.7-3.8-5.4-3.9-5.4-3.9l-5.9-0.3C552.3,474,546.4,472.1,547.6,467.8z"/>
</g>
</svg>
