<?xml version="1.0" encoding="utf-8"?>
<!-- Generator: Adobe Illustrator 24.1.2, SVG Export Plug-In . SVG Version: 6.00 Build 0)  -->
<svg version="1.1" id="katman_1" xmlns="http://www.w3.org/2000/svg" xmlns:xlink="http://www.w3.org/1999/xlink" x="0px" y="0px"
	 viewBox="0 0 1280 1024" style="enable-background:new 0 0 1280 1024;" xml:space="preserve">
<style type="text/css">
	.st0{fill:#050505;}
	.st1{fill:#DFE4E8;}
	.st2{fill:#C5D6E2;}
	.st3{fill:#5C5F66;}
	.st4{fill:#AE222F;}
	.st5{fill:#8C7E18;}
	.st6{fill:#E0CD00;}
	.st7{fill:#9D9E9B;}
	.st8{fill:#313D49;}
	.st9{fill:#27262C;}
	.st10{fill:#C3BFBE;}
	.st11{fill:#F0F4F7;}
	.st12{fill:#1D1D1D;}
	.st13{fill:#BC4926;}
	.st14{fill:#DCE4F1;}
</style>
<g>
	<g>
		<path class="st0" d="M130.9,540.7l34.6,22.1c0,0,7.1-18,33.6-12.7c26.6,5.4,135,13.8,135,13.8s39,11,57.1-1.7
			c18.1-12.7,418.3-12.1,418.3-12.1l57.6,14.5c0,0,18.8-6.6,32.2-7.1c13.3-0.5,127.7-3,127.7-3l20.1-3.5l47.6-42l-95.5-130.1
			l-701.2,25.5l-142.6,40.3L130.9,540.7z"/>
		<path class="st1" d="M1126.2,521.6h40.9c0,0,5.4-0.3,4.5,10c-0.9,10.3-9.4,9-9.4,9h-39.6L1126.2,521.6z"/>
		<path class="st2" d="M211.7,397.4l-19.1-2.5c0,0-31.9,5-49.9,20.4c-18,15.4-25.5,45.6-24.4,49.9c1.1,4.3,59.2-18.7,60.7-20.6
			C180.4,442.6,211.7,397.4,211.7,397.4z"/>
		<path class="st3" d="M382.3,368.1c0,0,7.7-4.3,13.3-6.2c5.6-1.9,25.1-4.6,23.9-3.1c-1.2,1.5-9,5-7.4,9.3
			C413.6,372.4,382.3,368.1,382.3,368.1z"/>
		<path class="st2" d="M403.7,368.4c0,0,128-71.8,171.4-87l16.7,0.8l-96.3,53l-60.4,40L403.7,368.4z"/>
		<path class="st4" d="M1118.7,363.7c0,0,15.4-4.7,18,5.7c2.5,10.4,2.5,20.5,6.8,31.2c4.3,10.8,7.2,17.2,3.6,24.8
			c-3.6,7.5-63.2-7.2-63.2-7.2S1083.5,364.4,1118.7,363.7z"/>
		<path class="st5" d="M372.1,568.6c33.7-3,420.4-3.9,485.6-4l-0.4-18.1L372,554.9C372.1,560.2,372.1,564.7,372.1,568.6z"/>
		<path class="st6" d="M1153.6,442.9c0-3.5-5-24.1-5-24.1s-6.5-0.2-25.4-0.7c-18.9-0.5-22.6-17.8-26.9-26.1
			c-4.3-8.3,30.2-21.1,34.2-27.1c4-6-58.6-11.8-71.9-13.3c-13.3-1.5-51.5-24.3-101.8-48.9c-50.3-24.6-113.9-40.8-235-40.8
			s-154.5,21.7-154.5,21.7h14.5c-95.8,44.5-150.1,81.8-150.1,81.8c-10.1,3-41.2-0.6-41.2-0.6c-145.5,14.8-197.8,30.2-197.8,30.2
			s13.3,6.1,10.5,10.1c-2.8,4-43.1,33.2-55.6,44.3c-12.6,11.1-29.8,10.4-29.8,10.4c-13.1,6-15.5,16.6-15,23.7c0.5,7,5.8,40.7,6,45.2
			c0.2,4.5-6.8,4-4.5,12.3c2.3,8.3,22.1,18.1,22.1,18.1l32.6,3.1c-2-9.7-7.6-41.9,0.6-62.4c9.7-24.2,34.5-73.4,103.4-73.4
			c55.7,0,109,36.4,109,113.2c0,5.7,0,10.7,0,15.2l485.3-8.4l-0.2-12.3c0,0,14.9-109.3,110.4-104.6c82,4.1,96.7,77.2,87,120.8
			c18-1.6,62.5-5.3,68.7-5.1c7.8,0.3,11.1-6.3,11.1-6.3c43.5-12.6,28.4-26.9,28.4-26.9c9.6-19.1,8.8-31.7,10.1-49.5
			C1174,444.7,1153.6,442.9,1153.6,442.9z"/>
		<path class="st7" d="M967.5,429.6c-95.5-4.7-110.4,104.6-110.4,104.6l0.6,30.4c6,0,9.3,0,9.3,0c-1.5-20.4-0.8-122,101.3-123.1
			c91.7-1,78.7,109.5,78.7,109.5s2.9-0.3,7.5-0.7C1064.3,506.8,1049.5,433.7,967.5,429.6z"/>
		<path class="st7" d="M263,426.5c-68.9,0-93.7,49.2-103.4,73.4c-8.2,20.4-2.6,52.7-0.6,62.4l6.6,0.6
			c-10.1-55.8,13.3-134.7,107.1-126.9c93.8,7.8,95.5,112.6,95.5,121.2c0,8.5,2,11.8,2,11.8c0.4-0.1,1.1-0.2,2-0.3
			c-0.1-7.1-0.1-16.6-0.1-29C372,462.9,318.7,426.5,263,426.5z"/>
		<path class="st2" d="M448.5,378.9c0,0,125-86.3,143.2-89.5c0,0,82.4-23,149.6-16.6c67.2,6.4,191.3,16.6,194.9,55.5
			c3.6,39-2.2,31.8-2.2,31.8L448.5,378.9z"/>
		<polygon class="st8" points="707.5,276.5 688.8,370.7 728.8,368.7 735.5,276.5 		"/>
		
			<ellipse transform="matrix(0.9997 -2.497651e-02 2.497651e-02 0.9997 -13.145 6.7283)" class="st9" cx="262.8" cy="529.6" rx="79.1" ry="79.1"/>
		<path class="st10" d="M203.2,529.6c0,33,26.8,59.8,59.8,59.8c33,0,59.8-26.8,59.8-59.8S296,469.8,263,469.8
			C229.9,469.8,203.2,496.6,203.2,529.6z"/>
		<g>
			<path class="st9" d="M242.2,489.5l13.8,15.7c0,0,2.4,3.8,5.7,3.8c3.3,0,5.7-2.6,5.7-2.6l14.5-16.9c0,0,2-2.4,0-4
				c-2-1.6-9.1-4-18.9-4C253.2,481.5,238.7,484.1,242.2,489.5z"/>
			<path class="st9" d="M242.2,569.7l13.8-15.7c0,0,2.4-3.8,5.7-3.8c3.3,0,5.7,2.6,5.7,2.6l14.5,16.9c0,0,2,2.4,0,4
				c-2,1.6-9.1,4-18.9,4C253.2,577.7,238.7,575.1,242.2,569.7z"/>
			<path class="st9" d="M303.5,509.6l-15.7,13.8c0,0-3.8,2.4-3.8,5.7c0,3.3,2.6,5.7,2.6,5.7l16.9,14.5c0,0,2.4,2,4,0
				c1.6-2,4-9.1,4-18.9C311.6,520.5,308.9,506.1,303.5,509.6z"/>
			<path class="st9" d="M223.4,509.6l15.7,13.8c0,0,3.8,2.4,3.8,5.7c0,3.3-2.6,5.7-2.6,5.7l-16.9,14.5c0,0-2.4,2-4,0
				c-1.6-2-4-9.1-4-18.9C215.3,520.5,218,506.1,223.4,509.6z"/>
		</g>
		<g>
			<path class="st9" d="M1037.9,529.6c0,43.7-35.4,79.1-79.1,79.1c-43.7,0-79.1-35.4-79.1-79.1c0-43.7,35.4-79.1,79.1-79.1
				C1002.5,450.4,1037.9,485.9,1037.9,529.6z"/>
			<path class="st10" d="M899.2,529.6c0,33,26.8,59.8,59.8,59.8c33,0,59.8-26.8,59.8-59.8S992,469.8,959,469.8
				C926,469.8,899.2,496.6,899.2,529.6z"/>
			<g>
				<path class="st9" d="M938.2,489.5l13.8,15.7c0,0,2.4,3.8,5.7,3.8c3.3,0,5.7-2.6,5.7-2.6l14.5-16.9c0,0,2-2.4,0-4
					c-2-1.6-9.1-4-18.9-4C949.2,481.5,934.7,484.1,938.2,489.5z"/>
				<path class="st9" d="M938.2,569.7l13.8-15.7c0,0,2.4-3.8,5.7-3.8c3.3,0,5.7,2.6,5.7,2.6l14.5,16.9c0,0,2,2.4,0,4
					c-2,1.6-9.1,4-18.9,4C949.2,577.7,934.7,575.1,938.2,569.7z"/>
				<path class="st9" d="M999.6,509.6l-15.7,13.8c0,0-3.8,2.4-3.8,5.7c0,3.3,2.6,5.7,2.6,5.7l16.9,14.5c0,0,2.4,2,4,0
					c1.6-2,4-9.1,4-18.9C1007.6,520.5,1005,506.1,999.6,509.6z"/>
				<path class="st9" d="M919.4,509.6l15.7,13.8c0,0,3.8,2.4,3.8,5.7c0,3.3-2.6,5.7-2.6,5.7l-16.9,14.5c0,0-2.4,2-4,0
					c-1.6-2-4-9.1-4-18.9C911.3,520.5,914,506.1,919.4,509.6z"/>
			</g>
		</g>
		<path class="st11" d="M891.7,293.1c0,0-65.1-24-169.7-21.2c0,0-88-0.6-129.6,13.9c0,0-64.4,24.2-155.1,96.6h10.2h4l4.8-0.5
			l487.3-19.3c-0.2-4.5,0.7-13-0.7-22.9C940.3,319.3,933.1,303.3,891.7,293.1z M929.2,358.3l-220,8.2l-255,11.6
			c24.6-17.2,116.9-78.4,144.4-88.7c32-12,129.9-12.7,140.5-12.1c10.6,0.5,122.2,3.7,172.3,29.6
			C911.3,306.9,943.8,315.2,929.2,358.3z"/>
		<path class="st12" d="M421.4,540.7l-0.1-0.8c-0.1-0.9-8.2-91.1-2.7-118.6c5.4-26.8,9.2-33.4,27.3-46.8l0.9-0.7
			c73.3-54.6,128.2-86.9,158.9-93.3c27.5-5.7,78.5-9.6,126.8-9.6c36,0,86.9,2.1,125.5,11.8c72.3,18.3,81.3,29.3,84.6,49.8
			c3.2,19.7,2.5,86.8-3.1,99.3l-0.2,0.4l-0.4,0.1c-0.7,0.2-73.5,17.8-80.3,102.7l-0.1,0.8L421.4,540.7z M732.6,272.7
			c-48.2,0-99,3.8-126.4,9.6c-30,6.3-86.2,39.3-158.2,92.9l-0.9,0.7c-17.6,13.1-21.4,19.5-26.6,45.8c-5.2,25.8,1.8,108.1,2.6,117.2
			l434.1-4.7c6.9-82.1,74.9-101.8,81.1-103.4c5.2-13,5.8-79.1,2.8-97.9c-3.2-19.8-12.1-30.3-83.3-48.4
			C819.3,274.8,768.5,272.7,732.6,272.7z"/>
		<path class="st13" d="M199.1,454.3l-44.8,0.2c0,0-1.8,8.7,8.9,9.3c10.7,0.7,24.9,0.9,24.9,0.9S194.6,457.6,199.1,454.3z"/>
		<path class="st5" d="M872.7,468.4c0.1,3.1-98.6,4.9-220.3,7.2c-121.7,2.3-220.3,4.3-220.4,1.2c-0.1-3.1,98.9-6.4,220.6-8.7
			C774.3,465.8,872.6,465.3,872.7,468.4z"/>
		<path class="st12" d="M700.7,536.9c-7.3-53.3,7.8-171.6,7.9-172.8l11.6-92.3l1.8,0.2l-11.6,92.3c-0.2,1.2-15.2,119.3-7.9,172.4
			L700.7,536.9z"/>
		<path class="st7" d="M629.7,402.3c0,0-0.5-6.9,11.5-9.9c11.9-3,15.3-3.3,19.3-3.3c3.9,0,28.8,1.7,29,10.8
			c0.2,9.2-18.5,12.2-25.7,12.8C656.5,413.2,629.2,414.1,629.7,402.3z"/>
		<path class="st7" d="M864.7,397c0,0-0.5-6.9,11.5-9.9c11.9-3,15.3-3.3,19.3-3.3c3.9,0,28.8,1.7,29,10.8
			c0.2,9.2-18.5,12.2-25.7,12.8C891.5,407.9,864.2,408.7,864.7,397z"/>
		<path class="st14" d="M679.4,399.3c0,2.2-1.7,4-3.9,4.1l-32.9,0.8c-2.2,0.1-4-1.7-4.1-3.9l0-0.9c0-2.2,1.7-4,3.9-4.1l32.9-0.8
			c2.2-0.1,4,1.7,4.1,3.9L679.4,399.3z"/>
		<path class="st14" d="M914.4,394c0.1,2.2-1.7,4-3.9,4.1l-32.9,0.8c-2.2,0.1-4-1.7-4.1-3.9l0-0.9c0-2.2,1.7-4,3.9-4.1l32.9-0.8
			c2.2-0.1,4,1.7,4.1,3.9L914.4,394z"/>
	</g>
</g>
</svg>
