<?xml version="1.0" encoding="utf-8"?>
<!-- Generator: Adobe Illustrator 24.1.2, SVG Export Plug-In . SVG Version: 6.00 Build 0)  -->
<svg version="1.1" id="katman_1" xmlns="http://www.w3.org/2000/svg" xmlns:xlink="http://www.w3.org/1999/xlink" x="0px" y="0px"
	 viewBox="0 0 1280 1024" style="enable-background:new 0 0 1280 1024;" xml:space="preserve">
<style type="text/css">
	.st0{fill:#050102;}
	.st1{fill:#D5D2BF;}
	.st2{fill:#E0CD00;}
	.st3{fill:#9C9C9E;}
	.st4{fill:#020100;}
	.st5{fill:#292325;}
	.st6{fill:#D3D2D1;}
	.st7{fill:#27262C;}
	.st8{fill:#C3BFBE;}
	.st9{fill:#090600;}
	.st10{fill:#5B5851;}
	.st11{fill:#3E0300;}
	.st12{opacity:0.5;fill:#9D9990;}
	.st13{fill:#0D090A;}
	.st14{fill:#9D9990;}
	.st15{fill:#345781;}
	.st16{fill:#76736E;}
	.st17{fill:#788D9E;}
</style>
<g>
	<polygon class="st0" points="778.5,664.2 868.6,675 865,690 778.5,669.6 	"/>
	<path class="st0" d="M784,622.3c0,0-1.4,53.8,54.2,54.7c55.6,0.9,89.7-27.4,89.7-27.4l69.3,0l20-5.2l49.1-6.3c0,0,8-23.8,3-29.9
		c-5-6.1-21-24.9-21-24.9S846.6,500,784,622.3z"/>
	<path class="st1" d="M731.9,619.3c0,0,40.3,57.4,50.8,55.6c10.4-1.8,4.2-63.6,37.6-54.3C853.6,630,731.9,619.3,731.9,619.3z"/>
	<path class="st1" d="M488.5,641.1c0,0,0,13.2,66.1,11.8c66.1-1.4,194,4.5,249.6-34.3C859.8,579.9,491.9,623,488.5,641.1z"/>
	<g>
		<path class="st2" d="M1139.6,464.9h-601v165h315c0,0,7-1.7,9.4-11.4c2.4-9.7,7.3-45.5,87.6-45.5c80.3,0,76.5,44.2,81.4,45.6
			c4.9,1.4,19.8-2.1,25-5.6c5.2-3.5,73.4-23.3,73.4-23.3s9.4-9.4,10.4-20.2c1-10.8,0-26.1,0-26.1s5.9-12.9,4.5-17.4l0.2-37.7
			C1145.5,488.4,1139.6,476.9,1139.6,464.9z"/>
		<path class="st3" d="M1140.3,462.3l-601.7-2.7v5.3h601C1139.6,464.9,1140.2,463.2,1140.3,462.3z"/>
	</g>
	<path class="st4" d="M470.7,668.9h22.9c0,0,25.4-7.6,26.1-39.6C520.5,597.3,460.7,645.9,470.7,668.9z"/>
	<path class="st4" d="M229.1,630l24.4,31.1c0,0,10.1-12.3,20.3-8.2c10.2,4.2,124.4,16.7,124.4,16.7s71.1,17.4,72,11.8
		c0.9-5.6,0-38.9,0-38.9s-54.1-110.6-103.4-97.7C317.4,557.7,227.7,586.9,229.1,630z"/>
	<polygon class="st4" points="474.6,657.1 474.6,722.8 465.6,707.9 465.6,685.3 465.6,661.3 	"/>
	<path class="st4" d="M171.2,576.3l-15.8,4c0,0-22.8,11.8-20.8,16.8c2,5,3,14.7,2.9,19.6c-0.1,4.9,4.4,51.5,57.2,43.5
		C247.5,652.2,171.2,576.3,171.2,576.3z"/>
	<path class="st5" d="M158.2,446.7l-5.1,5c0,0-2.2-2.5-4.5,8.3c-2.3,10.8-11,61.4-2.6,82.6c8.3,21.2,18.4,6.3,18.4,5.6
		C164.4,547.4,158.2,446.7,158.2,446.7z"/>
	<path class="st2" d="M532.8,631V413l-5.4-159.6c0,0-1.4-7.8-12.6-7.7c-11.2,0.1-153.3,4.9-180.4,11.2c-27.1,6.3-30.2,7.3-44.6,20.3
		C275.3,290.3,185,405.7,185,405.7s-23.5,38.2-31.9,39.6v6.3c0,0,5.8-0.7,5.8,7.3c0,8-2.7,80.3-2.7,80.3l-10.7,1.7
		c0,0,3.2,12.9,8.4,25.4c5.2,12.5,1.4,13.9,1.4,13.9s8,4.2,9.1,14.3c1,10.1,2.1,52.2,7.3,57c5.2,4.9,10.9,9,34.5,9
		c23.6,0,51,4.2,52.1-2.8c1-7,4.2-93.9,103.6-82.1c99.4,11.8,67.5,91.4,101.5,88.3C463.4,664.1,497.2,662.3,532.8,631z"/>
	<rect x="538.6" y="453.9" class="st6" width="607" height="9"/>
	<g>
		<path class="st7" d="M446.1,688.5c0,49.6-40.2,89.8-89.8,89.8c-49.6,0-89.8-40.2-89.8-89.8c0-49.6,40.2-89.8,89.8-89.8
			C405.9,598.7,446.1,638.9,446.1,688.5z"/>
		<path class="st8" d="M288.7,688.5c0,37.5,30.4,67.8,67.8,67.8c37.5,0,67.8-30.4,67.8-67.8c0-37.5-30.4-67.8-67.8-67.8
			C319.1,620.7,288.7,651,288.7,688.5z"/>
		<g>
			<path class="st7" d="M333,643l15.7,17.8c0,0,2.7,4.3,6.4,4.3c3.7,0,6.4-3,6.4-3l16.4-19.1c0,0,2.3-2.7,0-4.6
				c-2.3-1.9-10.3-4.6-21.4-4.6C345.4,633.9,329,636.9,333,643z"/>
			<path class="st7" d="M333,734l15.7-17.8c0,0,2.7-4.3,6.4-4.3c3.7,0,6.4,3,6.4,3l16.4,19.1c0,0,2.3,2.7,0,4.6
				c-2.3,1.9-10.3,4.6-21.4,4.6C345.4,743.1,329,740.1,333,734z"/>
			<path class="st7" d="M402.5,665.8l-17.8,15.7c0,0-4.3,2.7-4.3,6.4c0,3.7,3,6.4,3,6.4l19.1,16.4c0,0,2.7,2.3,4.6,0
				c1.9-2.3,4.6-10.3,4.6-21.4C411.7,678.2,408.7,661.8,402.5,665.8z"/>
			<path class="st7" d="M311.6,665.8l17.8,15.7c0,0,4.3,2.7,4.3,6.4c0,3.7-3,6.4-3,6.4l-19.1,16.4c0,0-2.7,2.3-4.6,0
				c-1.9-2.3-4.6-10.3-4.6-21.4C302.5,678.2,305.5,661.8,311.6,665.8z"/>
		</g>
	</g>
	<g>
		<path class="st7" d="M1022.9,674.9c0,46.7-37.9,84.6-84.6,84.6c-46.7,0-84.6-37.9-84.6-84.6c0-46.7,37.9-84.6,84.6-84.6
			C985,590.4,1022.9,628.2,1022.9,674.9z"/>
		<path class="st8" d="M874.7,674.9c0,35.3,28.6,63.9,63.9,63.9c35.3,0,63.9-28.6,63.9-63.9c0-35.3-28.6-63.9-63.9-63.9
			C903.3,611,874.7,639.7,874.7,674.9z"/>
		<g>
			<path class="st7" d="M916.4,632.1l14.8,16.8c0,0,2.6,4,6,4c3.5,0,6.1-2.8,6.1-2.8l15.5-18c0,0,2.1-2.6,0-4.3
				c-2.1-1.7-9.7-4.3-20.2-4.3C928.1,623.5,912.6,626.3,916.4,632.1z"/>
			<path class="st7" d="M916.4,717.8l14.8-16.8c0,0,2.6-4,6.1-4c3.5,0,6.1,2.8,6.1,2.8l15.5,18c0,0,2.1,2.6,0,4.3
				c-2.2,1.8-9.7,4.3-20.2,4.3C928.1,726.4,912.6,723.5,916.4,717.8z"/>
			<path class="st7" d="M981.9,653.6l-16.8,14.8c0,0-4,2.6-4,6c0,3.5,2.8,6.1,2.8,6.1l18,15.5c0,0,2.6,2.1,4.3,0
				c1.8-2.1,4.3-9.7,4.3-20.2C990.5,665.3,987.7,649.8,981.9,653.6z"/>
			<path class="st7" d="M896.2,653.6l16.8,14.8c0,0,4,2.6,4,6c0,3.5-2.8,6.1-2.8,6.1l-18,15.5c0,0-2.6,2.1-4.3,0
				c-1.7-2.2-4.3-9.7-4.3-20.2C887.6,665.3,890.5,649.8,896.2,653.6z"/>
		</g>
	</g>
	<path class="st9" d="M428,453.9h41.6v9.2C469.6,463.1,428,471.9,428,453.9z"/>
	<path class="st10" d="M458.2,479.8c0,3.5,2.8,6.3,6.3,6.3c3.5,0,6.3-2.8,6.3-6.3c0-3.5-2.8-6.3-6.3-6.3
		C461,473.5,458.2,476.3,458.2,479.8z"/>
	<path class="st11" d="M503.6,289.9v26.6h16.2C519.8,316.5,525.5,279.5,503.6,289.9z"/>
	
		<rect x="540" y="531.4" transform="matrix(0.9996 -2.808231e-02 2.808231e-02 0.9996 -14.6207 23.865)" class="st12" width="604.7" height="2.1"/>
	
		<rect x="540" y="541.4" transform="matrix(0.9996 -2.996256e-02 2.996256e-02 0.9996 -15.874 25.4824)" class="st12" width="604.8" height="2.1"/>
	<path class="st13" d="M1073.7,584.8c0,9-6.9,16.3-15.3,16.3s-15.3-7.3-15.3-16.3c0-9,6.9-16.3,15.3-16.3S1073.7,575.8,1073.7,584.8
		z"/>
	<path class="st14" d="M1061.1,602.4c-11.2,0-20.3-9.1-20.3-20.3c0-11.2,9.1-20.3,20.3-20.3s20.3,9.1,20.3,20.3
		C1081.5,593.2,1072.3,602.4,1061.1,602.4z M1061.1,563.8c-10.1,0-18.3,8.2-18.3,18.3c0,10.1,8.2,18.3,18.3,18.3
		c10.1,0,18.3-8.2,18.3-18.3C1079.4,571.9,1071.2,563.8,1061.1,563.8z"/>
	<path class="st15" d="M1051.7,583.2c0,5.8,4.3,10.5,9.5,10.5c5.3,0,9.5-4.7,9.5-10.5s-4.3-10.5-9.5-10.5
		C1056,572.8,1051.7,577.5,1051.7,583.2z"/>
	<path class="st16" d="M260.1,645.5l-82.2-3.2l-0.2-0.8c-11.8-47.1-7-172.1-4.9-191.5c2.4-21.9,117.4-158.2,118.6-159.6
		c21-24.7,46.3-23.5,47.8-23.4l156.6-3.8l-0.1,1.1L486,404.3c2.2,2.2,13.4,14.5,13.9,32c0.5,18.6-4.2,155-4.2,156.4
		c0,0.1-0.6,14.9-20.7,16.5c-19.1,1.6-43.6,5-43.9,5l-0.3-2.1c0.2,0,24.8-3.4,44-5c18.3-1.5,18.8-14.4,18.8-14.5
		c0-1.4,4.7-137.8,4.2-156.3c-0.5-18.1-13.5-30.7-13.6-30.9l-0.3-0.3l0-0.5l9.6-139.1l-154.4,3.7l-0.1,0c-0.3,0-25.3-1.8-46.1,22.7
		c-22.9,27-116,139.9-118.1,158.5c-2.1,19.3-6.9,142.6,4.6,190l80.6,3.1L260.1,645.5z"/>
	<path class="st17" d="M227.6,403.9v-18l78.1-98.4c0,0,10.1-12.5,28.7-12.5c18.6,0,153,0,153,0l-9.4,129H227.6z"/>
	<g>
		<path class="st9" d="M249.2,340l4.3,51.9c0,0-10-9.1-11.2-12.3c-1.1-3.2-5.6-3.2-5.8-5.2c-0.2-2,2.4-5.6,6-8.5
			C246.2,363.1,242.9,343.1,249.2,340z"/>
		<path class="st9" d="M243.3,410.8l-3.1-0.2c0.3-5.2-4.4-17-7.1-24c-1-2.6-1.9-4.7-2.3-6.1c-0.7-2-0.1-3.5,0.5-4.4
			c2-3,7.2-3.4,7.8-3.4l0.2,3.1l-0.1-1.6l0.1,1.6c-1.6,0.1-4.5,0.8-5.4,2.1c-0.2,0.3-0.4,0.8-0.1,1.7c0.4,1.3,1.2,3.4,2.2,5.9
			C239,393.2,243.6,404.9,243.3,410.8z"/>
		<path class="st9" d="M241.4,408.1c0,0-2.6,1.6-5.8,2.7c-3.2,1-8.4,9.8,5.8,9.8c14.1,0,12.1-6.2,12.1-6.2S247.5,407,241.4,408.1z"
			/>
	</g>
</g>
</svg>
