<?xml version="1.0" encoding="utf-8"?>
<!-- Generator: Adobe Illustrator 24.1.2, SVG Export Plug-In . SVG Version: 6.00 Build 0)  -->
<svg version="1.1" id="katman_1" xmlns="http://www.w3.org/2000/svg" xmlns:xlink="http://www.w3.org/1999/xlink" x="0px" y="0px"
	 viewBox="0 0 1280 1024" style="enable-background:new 0 0 1280 1024;" xml:space="preserve">
<style type="text/css">
	.st0{fill:#0A0A0A;}
	.st1{fill:#575757;}
	.st2{fill:#232222;}
	.st3{fill:#7C7A7A;}
	.st4{fill:#788D9E;}
	.st5{fill:#3F3F3F;}
	.st6{fill:#C4C8D1;}
	.st7{fill:#27262C;}
	.st8{fill:#C3BFBE;}
	.st9{fill:#FF9F06;}
	.st10{fill:#262626;}
	.st11{fill:#373737;}
	.st12{opacity:0.7;fill:#A3A8AC;}
	.st13{fill:#A3A8AC;}
	.st14{fill:#D4D8DD;}
	.st15{fill:#8A8685;}
	.st16{fill:#E5D67F;}
</style>
<g>
	<path class="st0" d="M187.2,673.5h23H312l25.4,3.6c0,0,23.2-72-4.3-90.1C305.7,568.9,161.8,531,187.2,673.5z"/>
	<path class="st1" d="M349.9,611.1c0,0,11,38.4,9.6,53.3c-1.4,14.9-14.9,12.5-14.9,12.5l-16.8-54.5L349.9,611.1z"/>
	<rect x="724.9" y="622.1" class="st0" width="16.3" height="37.7"/>
	<rect x="709.1" y="641.4" class="st0" width="37.7" height="18.3"/>
	<path class="st0" d="M900.6,610.7c0,0-24.4,6.1-26.8,40c-2.4,34,2.4,27.3,2.4,27.3l14.6,3.3l100.1-1.1l5.3,1.2l2.1,2.2h5
		c0,0,7.2-61.4-34.2-73C927.6,599,900.6,610.7,900.6,610.7z"/>
	<path class="st0" d="M757.8,679.8c0,0-13.1-69.9,43.4-72.7c56.5-2.8,53,4.8,53,4.8s32.4,23.9,25.2,72.3l-6.6-3.1L757.8,679.8z"/>
	<path class="st2" d="M351.7,576.7l741,4.5c0,0,40.5,16.6,63.9,17.9v19.2l-797.3,3.8L351.7,576.7z"/>
	<rect x="374.1" y="615.5" class="st3" width="342.1" height="40.2"/>
	<path class="st1" d="M361.9,564.4c0,0,3.4,60.7,0,61.2c-3.4,0.5-26.2-0.1-26.2-0.1l-3.2,2.7l-2.5,1.1l-30.4-33.6l-80.3,1
		l-27.1,34.2l-7,38.8h-52.7l-11-12.4l-3.9-19.6v-41.4l77.9-43.7L361.9,564.4z"/>
	<g>
		<path class="st4" d="M117,436.8c-1.4,15.3-4.9,55.8-2.8,76.5l13.5-5.9v-70.6H117z"/>
		<path class="st5" d="M133.4,430.7h-15.8c0,0-0.2,3.1-0.6,6.1h10.7v70.6l4.1-2L133.4,430.7z"/>
	</g>
	<g>
		<polygon class="st1" points="117.4,421.5 110.4,434 126.9,434 129.6,421.5 		"/>
		<path class="st6" d="M347.2,417.6l-57.3-89l-8.6,0.7c-4.4,0-12.7-0.7-23.3-0.7c-36.9,0-101.2,4.1-123.6,30.9
			c-26.9,32.3-12.2,53.2-12.2,53.2l-4.8,8.3h12.2l-2.7,13.2h3.3v66.9c0,0-19.3,4.5-20.2,11.9c-1,7.4,0.3,48.7,0.3,48.7s-0.1,0-0.3,0
			c-1.1,0-4.2,0.7-3.1,8.4c1.3,9.3-2,20.7-0.2,22.9c1.8,2.2,3.7,6.2,3.7,6.2h72c0,0,17.1-22.3,28.8-24.8c11.8-2.5,49.8-3,49.8-3
			l67-4.3c0,0,7-0.5,7-1.9c-1.2,0,0.3-4.2,0.3-4.2L347.2,417.6z"/>
	</g>
	<path class="st6" d="M362.2,312.7c-7.7-4.8-27.2,5.8-36.5,9.3s-15.4,4.8-25.3,5.1c-5.1,0.2-10.1,0.7-13.6,1.2l-0.1,1.2
		c-1.2,12.7,19.4,72.8,21.8,76.5c3,4.7,4.1,9.7,4.1,9.9l0,0l0,0c0.1,0.7,10.9,70.2,13.1,81.2c2,10.1,3.9,58.7,4.3,69.8
		c9.7,0.1,34.4,0.2,39,0c5.8-0.3,4.5-5.1,4.5-5.1s-1.9-177.9,0.3-198.4C376,343.1,369.9,317.5,362.2,312.7z"/>
	<g>
		<g>
			<path class="st7" d="M316,663.7c0,30.3-24.6,54.8-54.8,54.8c-30.3,0-54.8-24.6-54.8-54.8c0-30.3,24.6-54.8,54.8-54.8
				C291.4,608.9,316,633.4,316,663.7z"/>
			<path class="st8" d="M219.9,663.7c0,22.9,18.5,41.4,41.4,41.4c22.9,0,41.4-18.5,41.4-41.4c0-22.9-18.5-41.4-41.4-41.4
				C238.4,622.3,219.9,640.8,219.9,663.7z"/>
			<g>
				<path class="st7" d="M246.9,635.9l9.6,10.9c0,0,1.7,2.6,3.9,2.6c2.3,0,3.9-1.8,3.9-1.8l10-11.7c0,0,1.4-1.7,0-2.8
					c-1.4-1.1-6.3-2.8-13.1-2.8C254.5,630.4,244.5,632.2,246.9,635.9z"/>
				<path class="st7" d="M246.9,691.5l9.6-10.9c0,0,1.7-2.6,3.9-2.6c2.3,0,3.9,1.8,3.9,1.8l10,11.7c0,0,1.4,1.7,0,2.8
					c-1.4,1.1-6.3,2.8-13.1,2.8C254.5,697.1,244.5,695.2,246.9,691.5z"/>
				<path class="st7" d="M289.4,649.9l-10.9,9.6c0,0-2.6,1.7-2.6,3.9c0,2.3,1.8,3.9,1.8,3.9l11.7,10c0,0,1.7,1.4,2.8,0
					c1.1-1.4,2.8-6.3,2.8-13.1C295,657.5,293.1,647.4,289.4,649.9z"/>
				<path class="st7" d="M233.8,649.9l10.9,9.6c0,0,2.6,1.7,2.6,3.9c0,2.3-1.8,3.9-1.8,3.9l-11.7,10c0,0-1.7,1.4-2.8,0
					c-1.1-1.4-2.8-6.3-2.8-13.1C228.3,657.5,230.1,647.4,233.8,649.9z"/>
			</g>
		</g>
	</g>
	<path class="st5" d="M109.5,615.5h24.4v61.3c0,0-13.9-0.5-19.3-8.6c-5.4-8.1-5-20.7-5-20.7L109.5,615.5z"/>
	<rect x="111.4" y="626.2" class="st9" width="18.3" height="5.6"/>
	<path class="st10" d="M183.4,676.6h7.7l4-44.7l23.9-30.7h79.6c0,0,35.7,17.3,35.7,75.3h10.3c0,0-4.5-73.3-43.5-86.5h-81.3
		C219.9,590,173.7,618,183.4,676.6z"/>
	<path class="st5" d="M165.1,421c0,0-22.8,0-27.3,6.3c-4.5,6.3-5.8,51.3-3,70.4l1.5,3.3l91.2-13.2V421H165.1z"/>
	<path class="st4" d="M221.4,425.3v58.6l-83.7,11.9c0,0-5.8-56.6,4.4-65.3C152.2,421.8,221.4,425.3,221.4,425.3z"/>
	<path class="st5" d="M137.2,509c0,0,2.2-3.8,1.4-8.5c-0.8-4.7-5.3,2.1-5.3,5.5C133.4,509.3,133.2,509,137.2,509z"/>
	<path class="st2" d="M143,506v-43.2h-6.6c0,0-5.6,9.4-4.9,20.2C132.1,493.7,130.3,506,143,506z"/>
	<g>
		<path class="st4" d="M234.3,419.8c0,0,6.8,57.9,6.1,66.1c0,0,42-4.2,51.1-14.6c9.1-10.4,3.6-48.2-2-51.4
			C284.1,416.5,234.3,419.8,234.3,419.8z"/>
		<path class="st5" d="M272.9,420.2c12.8,0,15.4,0.9,15.8,1.2c0.8,0.5,3.1,4.7,4.7,14.3c2,12.4,1.9,28.4-3.2,34.2
			c-6.7,7.6-34.9,12.3-47.8,13.8c-0.2-11.9-4.8-52.5-6-62.1C242.3,421.2,259.6,420.2,272.9,420.2 M272.9,418.3
			c-16.4,0-38.5,1.4-38.5,1.4s6.8,57.9,6.1,66.1c0,0,42-4.2,51.1-14.6c9.1-10.4,3.6-48.2-2-51.4
			C287.8,418.7,281.1,418.3,272.9,418.3L272.9,418.3z"/>
	</g>
	<path class="st11" d="M206.2,551.8c0,0,7.4-13.2,15.5-13.2c8.1,0,7.8,0,7.8,0V552L206.2,551.8z"/>
	<path class="st12" d="M125.2,552.5c0,0,2.5,6.5-14.8,9.2v-2.9C110.4,558.8,120.9,560.6,125.2,552.5z"/>
	<path class="st13" d="M113.6,523.3c0,0,0.5-0.6,1.8-1.6c0.3-0.2,0.7-0.5,1-0.8c0.4-0.3,0.8-0.6,1.3-0.8c1-0.6,2.1-1.3,3.4-1.8
		c1.3-0.6,2.8-1.3,4.4-1.8c1.7-0.6,3.4-1.3,5.4-1.7c3.9-1.1,8.4-1.8,13.3-2.4c4.9-0.5,10.2-1,15.9-1.5c5.6-0.5,11.6-1.1,17.7-1.6
		c6.1-0.5,12.5-1.1,18.9-1.7c6.5-0.5,13-1.1,19.6-1.6c6.6-0.5,13.1-1,19.6-1.5c6.5-0.5,12.8-1,19-1.4c12.3-0.9,23.8-1.7,33.6-2.3
		c9.8-0.6,18.1-1,23.8-1.4c2.9-0.1,5.1-0.3,6.7-0.3c1.5-0.1,2.4-0.1,2.4-0.1s-0.8,0.1-2.3,0.3c-1.5,0.2-3.8,0.4-6.6,0.7
		c-5.7,0.6-13.9,1.5-23.7,2.5c-9.8,1-21.3,2.1-33.6,3.2c-6.1,0.5-12.5,1.1-18.9,1.7c-6.5,0.5-13,1.1-19.6,1.6
		c-6.6,0.5-13.1,1-19.6,1.5c-6.5,0.5-12.8,1-19,1.4c-6.2,0.4-12.1,0.8-17.7,1.2c-5.6,0.4-11,0.7-15.9,1c-4.9,0.5-9.3,0.9-13.2,1.8
		c-2,0.3-3.7,0.9-5.4,1.4c-1.7,0.4-3.1,1.1-4.5,1.6c-2.7,1.1-4.6,2.2-5.9,3C114.2,522.7,113.6,523.3,113.6,523.3z"/>
	<path class="st5" d="M128.7,599.1c0-1.4-0.1-142.4,0-159.7c0.1-17.9,6.7-21.7,7-21.8l0.2-0.1l0.2,0l94.7-2.6l0.1,0.9l10.6,156.1
		l-1.9,0.1L229,416.8l-92.6,2.5c-0.9,0.7-5.7,5.1-5.8,20.1c-0.1,17.3,0,158.3,0,159.7L128.7,599.1z"/>
	<path class="st14" d="M127.7,368.6c0,0,3.7-0.2,10.2-0.6c6.5-0.3,15.7-0.8,26.8-1.4c11.1-0.6,24-1.2,37.9-2
		c6.9-0.4,14.1-0.8,21.4-1.2c7.3-0.4,14.7-0.8,22-1.3c7.4-0.4,14.8-0.9,22-1.4c3.6-0.3,7.2-0.5,10.8-0.8c3.6-0.3,7.1-0.5,10.5-0.8
		c6.9-0.6,13.6-1.1,19.9-1.7c3.2-0.3,6.2-0.6,9.2-0.9c3-0.3,5.8-0.6,8.6-0.9c2.8-0.3,5.4-0.6,7.9-1c2.5-0.3,4.9-0.6,7.1-1
		c4.5-0.7,8.3-1.4,11.5-2c1.6-0.3,3-0.7,4.2-0.9c1.2-0.2,2.2-0.6,3.1-0.8c1.7-0.5,2.6-0.7,2.6-0.7s-0.9,0.3-2.5,0.9
		c-1.6,0.6-4.1,1.4-7.2,2.2c-3.1,0.8-7,1.8-11.4,2.7c-4.4,0.9-9.4,1.8-14.9,2.7c-5.5,0.9-11.5,1.7-17.8,2.5
		c-6.3,0.8-13,1.5-19.9,2.2c-6.9,0.7-14.1,1.3-21.3,1.9c-7.3,0.5-14.7,1.1-22.1,1.5c-7.4,0.4-14.8,0.8-22.1,1.1
		c-7.3,0.4-14.5,0.6-21.4,0.8c-6.9,0.3-13.7,0.4-20,0.5c-6.4,0.1-12.4,0.2-17.9,0.3c-11.1,0.1-20.4,0.1-26.9,0
		c-3.2,0-5.8-0.1-7.5-0.1C128.6,368.6,127.7,368.6,127.7,368.6z"/>
	<path d="M312.6,416.1L312.6,416.1L312.6,416.1c-0.1-0.3-1.1-5.3-4.1-10c-2.4-3.7-23-63.9-21.8-76.5l0.1-1.2
		c-3.4,0.5-5.5,0.9-5.5,0.9c2.3,0.1,3.5,0.2,3.5,0.2c-1.3,13.1,19.2,73.3,22.1,77.8c2.9,4.5,3.8,9.3,3.8,9.3s10.9,70.1,13.1,81.3
		c2,9.9,3.8,58.4,4.2,69.4c0.5,0,1.2,0,1.9,0c-0.4-11.1-2.2-59.7-4.3-69.8C323.5,486.3,312.7,416.8,312.6,416.1z"/>
	<polygon class="st15" points="760,622.1 366.5,622.1 366.5,599.2 773.7,599.2 	"/>
	<rect x="347.6" y="652.1" class="st15" width="405.2" height="24.4"/>
	<g>
		<g>
			<path class="st7" d="M872.7,663.7c0,30.3-24.6,54.8-54.8,54.8c-30.3,0-54.8-24.6-54.8-54.8c0-30.3,24.6-54.8,54.8-54.8
				C848.2,608.9,872.7,633.4,872.7,663.7z"/>
			<path class="st8" d="M776.6,663.7c0,22.9,18.5,41.4,41.4,41.4c22.9,0,41.4-18.5,41.4-41.4c0-22.9-18.5-41.4-41.4-41.4
				C795.2,622.3,776.6,640.8,776.6,663.7z"/>
			<g>
				<path class="st7" d="M803.7,635.9l9.6,10.9c0,0,1.7,2.6,3.9,2.6c2.3,0,3.9-1.8,3.9-1.8l10-11.7c0,0,1.4-1.7,0-2.8
					c-1.4-1.1-6.3-2.8-13.1-2.8C811.2,630.4,801.2,632.2,803.7,635.9z"/>
				<path class="st7" d="M803.7,691.5l9.6-10.9c0,0,1.7-2.6,3.9-2.6c2.3,0,3.9,1.8,3.9,1.8l10,11.7c0,0,1.4,1.7,0,2.8
					c-1.4,1.1-6.3,2.8-13.1,2.8C811.2,697.1,801.2,695.2,803.7,691.5z"/>
				<path class="st7" d="M846.2,649.9l-10.9,9.6c0,0-2.6,1.7-2.6,3.9c0,2.3,1.8,3.9,1.8,3.9l11.7,10c0,0,1.7,1.4,2.8,0
					c1.1-1.4,2.8-6.3,2.8-13.1C851.7,657.5,849.9,647.4,846.2,649.9z"/>
				<path class="st7" d="M790.6,649.9l10.9,9.6c0,0,2.6,1.7,2.6,3.9c0,2.3-1.8,3.9-1.8,3.9l-11.7,10c0,0-1.7,1.4-2.8,0
					c-1.1-1.4-2.8-6.3-2.8-13.1C785,657.5,786.9,647.4,790.6,649.9z"/>
			</g>
		</g>
	</g>
	<g>
		<g>
			<path class="st7" d="M994.7,663.7c0,30.3-24.6,54.8-54.8,54.8c-30.3,0-54.8-24.6-54.8-54.8c0-30.3,24.6-54.8,54.8-54.8
				C970.1,608.9,994.7,633.4,994.7,663.7z"/>
			<path class="st8" d="M898.5,663.7c0,22.9,18.5,41.4,41.4,41.4c22.9,0,41.4-18.5,41.4-41.4c0-22.9-18.5-41.4-41.4-41.4
				C917.1,622.3,898.5,640.8,898.5,663.7z"/>
			<g>
				<path class="st7" d="M925.6,635.9l9.6,10.9c0,0,1.7,2.6,3.9,2.6c2.3,0,3.9-1.8,3.9-1.8l10-11.7c0,0,1.4-1.7,0-2.8
					c-1.4-1.1-6.3-2.8-13.1-2.8C933.2,630.4,923.1,632.2,925.6,635.9z"/>
				<path class="st7" d="M925.6,691.5l9.6-10.9c0,0,1.7-2.6,3.9-2.6c2.3,0,3.9,1.8,3.9,1.8l10,11.7c0,0,1.4,1.7,0,2.8
					c-1.4,1.1-6.3,2.8-13.1,2.8C933.2,697.1,923.1,695.2,925.6,691.5z"/>
				<path class="st7" d="M968.1,649.9l-10.9,9.6c0,0-2.6,1.7-2.6,3.9c0,2.3,1.8,3.9,1.8,3.9l11.7,10c0,0,1.7,1.4,2.8,0
					c1.1-1.4,2.8-6.3,2.8-13.1C973.6,657.5,971.8,647.4,968.1,649.9z"/>
				<path class="st7" d="M912.5,649.9l10.9,9.6c0,0,2.6,1.7,2.6,3.9c0,2.3-1.8,3.9-1.8,3.9l-11.7,10c0,0-1.7,1.4-2.8,0
					c-1.1-1.4-2.8-6.3-2.8-13.1C906.9,657.5,908.8,647.4,912.5,649.9z"/>
			</g>
		</g>
	</g>
	<g>
		<rect x="372.6" y="305.4" class="st16" width="801.3" height="273.4"/>
		<path class="st10" d="M1171.9,307.5v269.8H374.1V307.5H1171.9 M1173.9,305.4H372.6v273.4h801.3V305.4L1173.9,305.4z"/>
	</g>
</g>
</svg>
