<?xml version="1.0" encoding="utf-8"?>
<!-- Generator: Adobe Illustrator 24.1.2, SVG Export Plug-In . SVG Version: 6.00 Build 0)  -->
<svg version="1.1" id="katman_1" xmlns="http://www.w3.org/2000/svg" xmlns:xlink="http://www.w3.org/1999/xlink" x="0px" y="0px"
	 viewBox="0 0 1280 1024" style="enable-background:new 0 0 1280 1024;" xml:space="preserve">
<style type="text/css">
	.st0{fill:#2D2D2B;}
	.st1{fill:#2E2E2E;}
	.st2{fill:#E0CD00;stroke:#000000;stroke-width:4;stroke-miterlimit:10;}
	.st3{fill:#393B3A;}
	.st4{fill:#BA1F25;}
	.st5{fill:#27262C;}
	.st6{fill:#C3BFBE;}
	.st7{fill:#CCCCCC;}
	.st8{fill:#D8D8D6;}
	.st9{fill:#FFFFFF;}
	.st10{fill:#E5E5E3;}
</style>
<g>
	<g>
		<path d="M94.6,646.3l15.3,13.8c0,0,5.9-5.8,17.5-6.9c11.6-1.1,172.7,12.5,172.7,12.5s21.4-3.6,29.9-5.6c8.5-2,551.3-6.7,551.3-6.7
			l6.3,8.4c0,0,11.8-7.9,28.5-10c16.7-2,169.4-10.5,169.4-10.5s8.8,7.4,14.6,5.1c5.9-2.2,26.4-20.1,26.4-20.1l-21.4-106l-137.2-20.3
			l-171.7-8l-505,16.5l-189.6,10.7L87.1,599L94.6,646.3z"/>
		<path class="st0" d="M201.8,439.9c0,0-3.3-12.1-2.1-12.9c1.3-0.8,31.2-11.5,34.8-13.6c3.5-2.1,132.8-125.1,156.6-122.9
			c23.8,2.3-21.5,78.8-21.5,78.8l-139.4,83.8L201.8,439.9z"/>
		<path class="st1" d="M1220.3,584c0,0,19.1,3.4,19.3,12.5c0.3,9.1,11.5,43.6-46.2,41C1135.6,634.9,1188.6,579.3,1220.3,584z"/>
		<path class="st0" d="M85.8,482.3l-9.9,5.4c0,0-12.4,28.1-12,39.5c0.4,11.4-0.1,44,1.7,47.1c1.8,3.1,20.2,2.7,20.2,2.7l15.9-2.5
			C101.7,574.5,98.4,488.3,85.8,482.3z"/>
		<path class="st2" d="M1202.2,416.5c2.1-6.8-18.7-75.9-18.7-75.9h17.5c-6.1-19.2-13.7-35.7-23.1-46.3c0,0-2.9-24.6-62.9-19.3
			l-179.8-3.4l-414,4.5c0,0-122.4-4.2-145.8,21.9L232.6,432.1c0,0-28,4.1-32.9-5.1L81.1,478.7c0,0-4.4,1-5.3,9c0,0,13,1.8,13.9,14.8
			c0.9,13,2.7,69.9-0.9,71.3c-3.6,1.3-22.4,0-23.7-3.6c0,0-1.1,2.8,0.9,4.7c2,1.9,9.1,3.8,13.1,4c4,0.2,47.5,1.4,47.5,1.4
			s34.7-45.9,95.3-36.5c60.6,9.4,80.1,42.5,89.2,73.3c9.1,30.8,8.7,43.6,21.3,44.8c12.7,1.1,555.2,0,555.2,0s7.4-10.8,5.7-17
			c-1.7-6.2,0.6-120.1,107.7-112.8c107.1,7.4,99.2,114.5,99.2,114.5l104-8.5c0,0,5.9-6.2,5.9-15.9c0-9.6,0-30.6,0-30.6
			s15.9,4,15.9-10.2v-75.9c0,0-1.7-41.6-8.6-89H1202.2z"/>
		<path class="st0" d="M331.2,364.9c0,0,44.5-45.1,54.6-50.3c10.1-5.2,25.4-16.8,50.6-16.5c25.1,0.4,47.9-2.6,47.9-2.6h27.1
			c0,0,7.4-1,9.3,6.1c1.9,7.1,0,114.4,0,114.4s0.4,6.8-3.8,7.9c-4.1,1.1-180.4,3.8-180.4,3.8L331.2,364.9z"/>
		<path class="st3" d="M70.7,567.6c0,0-31.3,6-31.3,16.9c0,10.9,0,55.8,0,55.8s4.1,18.9,25.2,19.8c21.1,0.9,45.3,0,45.3,0
			s-13.1-67.3,16.6-79.9C132.1,577.9,70.7,567.6,70.7,567.6z"/>
		<path class="st4" d="M1202.2,416.5h15.2c-3.7-25.5-9-52.7-16.4-75.9h-17.5C1183.5,340.5,1204.3,409.7,1202.2,416.5z"/>
		<g>
			<path class="st5" d="M304.4,660.1c0,51-41.3,92.3-92.3,92.3c-51,0-92.3-41.3-92.3-92.3c0-51,41.3-92.3,92.3-92.3
				C263,567.8,304.4,609.1,304.4,660.1z"/>
			<path class="st6" d="M142.5,660.1c0,38.5,31.2,69.7,69.7,69.7c38.5,0,69.7-31.2,69.7-69.7c0-38.5-31.2-69.7-69.7-69.7
				C173.8,590.4,142.5,621.6,142.5,660.1z"/>
			<g>
				<path class="st5" d="M188.1,613.4l16.1,18.3c0,0,2.8,4.4,6.6,4.4c3.8,0,6.6-3.1,6.6-3.1l16.9-19.7c0,0,2.3-2.8,0-4.7
					c-2.3-1.9-10.6-4.7-22-4.7C200.8,604,184,607.1,188.1,613.4z"/>
				<path class="st5" d="M188.1,706.9l16.1-18.3c0,0,2.8-4.4,6.6-4.4c3.8,0,6.6,3.1,6.6,3.1l16.9,19.7c0,0,2.3,2.8,0,4.7
					c-2.3,1.9-10.6,4.7-22,4.7C200.8,716.3,184,713.2,188.1,706.9z"/>
				<path class="st5" d="M259.6,636.8l-18.3,16.1c0,0-4.4,2.8-4.4,6.6c0,3.8,3.1,6.6,3.1,6.6l19.7,16.9c0,0,2.8,2.3,4.7,0
					c1.9-2.3,4.7-10.6,4.7-22C269,649.6,265.9,632.7,259.6,636.8z"/>
				<path class="st5" d="M166.1,636.8l18.3,16.1c0,0,4.4,2.8,4.4,6.6c0,3.8-3.1,6.6-3.1,6.6L166.1,683c0,0-2.8,2.3-4.7,0
					c-1.9-2.3-4.7-10.6-4.7-22C156.7,649.6,159.8,632.7,166.1,636.8z"/>
			</g>
		</g>
		<g>
			<path class="st5" d="M1090.9,654.4c0,51-41.3,92.3-92.3,92.3c-51,0-92.3-41.3-92.3-92.3c0-51,41.3-92.3,92.3-92.3
				C1049.6,562.1,1090.9,603.5,1090.9,654.4z"/>
			<path class="st6" d="M929.1,654.4c0,38.5,31.2,69.7,69.7,69.7c38.5,0,69.7-31.2,69.7-69.7c0-38.5-31.2-69.7-69.7-69.7
				C960.3,584.7,929.1,615.9,929.1,654.4z"/>
			<g>
				<path class="st5" d="M974.6,607.7l16.1,18.3c0,0,2.8,4.4,6.6,4.4c3.8,0,6.6-3.1,6.6-3.1l16.9-19.7c0,0,2.3-2.8,0-4.7
					c-2.3-1.9-10.6-4.7-22-4.7C987.4,598.3,970.5,601.4,974.6,607.7z"/>
				<path class="st5" d="M974.6,701.2l16.1-18.3c0,0,2.8-4.4,6.6-4.4c3.8,0,6.6,3.1,6.6,3.1l16.9,19.7c0,0,2.3,2.8,0,4.7
					c-2.3,1.9-10.6,4.7-22,4.7C987.4,710.6,970.5,707.5,974.6,701.2z"/>
				<path class="st5" d="M1046.2,631.1l-18.3,16.1c0,0-4.4,2.8-4.4,6.6c0,3.8,3.1,6.6,3.1,6.6l19.7,16.9c0,0,2.8,2.3,4.7,0
					c1.9-2.3,4.7-10.6,4.7-22C1055.5,643.9,1052.5,627,1046.2,631.1z"/>
				<path class="st5" d="M952.6,631.1l18.3,16.1c0,0,4.4,2.8,4.4,6.6c0,3.8-3.1,6.6-3.1,6.6l-19.7,16.9c0,0-2.8,2.3-4.7,0
					c-1.9-2.3-4.7-10.6-4.7-22C943.3,643.9,946.3,627,952.6,631.1z"/>
			</g>
		</g>
		<path class="st7" d="M550.3,651.6H342.2c-8,0-9.8-3.6-10-4l-0.1-0.3c-0.9-5.5-4.8-15.8-9.7-28.9c-8.9-23.7-21.1-56.1-24.8-84
			c-5.6-42.7,2.5-165.4,2.6-166.6l2.3,0.2c-0.1,1.2-8.1,123.7-2.6,166.2c3.6,27.6,15.8,59.9,24.6,83.5c4.9,13.1,8.8,23.4,9.8,29.1
			c0.3,0.4,2.1,2.6,7.9,2.6h207.4c0.9-0.6,4-3.1,4-7c0-5.2-3.7-362.6-3.8-366.2l2.3,0c0,3.6,3.8,361.1,3.8,366.3
			c0,5.8-5.2,9-5.4,9.1L550.3,651.6z"/>
		<path class="st8" d="M353.9,418.4c0,8-6.5,14.5-14.5,14.5h-0.4c-8,0-14.5-6.5-14.5-14.5V376c0-8,6.5-14.5,14.5-14.5h0.4
			c8,0,14.5,6.5,14.5,14.5V418.4z"/>
		<path class="st8" d="M545.6,481.3c0,6.4-5,11.2-11.5,11.2h-0.6c-6.4,0-11.9-4.7-11.9-11.2v-29.6c0-6.4,5.4-12.2,11.9-12.2h0.6
			c6.4,0,11.5,5.7,11.5,12.2V481.3z"/>
		<path class="st9" d="M540.6,478.7c0,2.1-1.7,3.8-3.8,3.8h-0.4c-2.1,0-3.8-1.7-3.8-3.8v-30.4c0-2.1,1.7-3.8,3.8-3.8h0.4
			c2.1,0,3.8,1.7,3.8,3.8V478.7z"/>
		<path class="st7" d="M1163.5,445.4H604c-11.7,0-22.3-10.6-22.3-22.3v-91.4c0-11,10-20,22.3-20h531.2c11.6,0,16.5,7.5,21.1,20.5
			l28.4,91.3v0.2C1184.6,435.4,1174.9,445.4,1163.5,445.4z M604,313.9c-11,0-20,8-20,17.8v91.4c0,10.5,9.5,20,20,20h559.5
			c10.2,0,18.8-8.8,18.9-19.3l-28.3-91c-4.3-12.3-8.6-18.9-18.9-18.9H604z"/>
	</g>
	<path class="st10" d="M358.9,413.4c0,8-6.5,14.5-14.5,14.5h-0.4c-8,0-14.5-6.5-14.5-14.5V371c0-8,6.5-14.5,14.5-14.5h0.4
		c8,0,14.5,6.5,14.5,14.5V413.4z"/>
</g>
</svg>
