<?xml version="1.0" encoding="utf-8"?>
<!-- Generator: Adobe Illustrator 24.1.2, SVG Export Plug-In . SVG Version: 6.00 Build 0)  -->
<svg version="1.1" id="katman_1" xmlns="http://www.w3.org/2000/svg" xmlns:xlink="http://www.w3.org/1999/xlink" x="0px" y="0px"
	 viewBox="0 0 101 33" style="enable-background:new 0 0 101 33;" xml:space="preserve">
<style type="text/css">
	.st0{fill:url(#SVGID_1_);stroke:#020202;stroke-width:1.205;}
	.st1{fill:#E0CD00;stroke:#050505;stroke-width:1.205;}
	.st2{fill:url(#SVGID_2_);stroke:#BCBCBC;stroke-width:1.205;}
</style>
<g>
	
		<linearGradient id="SVGID_1_" gradientUnits="userSpaceOnUse" x1="0.9914" y1="19.55" x2="100.0687" y2="19.55" gradientTransform="matrix(1 0 0 -1 0 34)">
		<stop  offset="0" style="stop-color:#E0CD00"/>
		<stop  offset="0.11" style="stop-color:#B0A20A;stop-opacity:0.8649"/>
		<stop  offset="0.2912" style="stop-color:#676018;stop-opacity:0.6422"/>
		<stop  offset="0.4214" style="stop-color:#393721;stop-opacity:0.4824"/>
		<stop  offset="0.4865" style="stop-color:#272725;stop-opacity:0.4024"/>
		<stop  offset="0.5455" style="stop-color:#272725;stop-opacity:0.402"/>
		<stop  offset="0.888" style="stop-color:#272725;stop-opacity:0.4"/>
		<stop  offset="0.9562" style="stop-color:#9A8F0E;stop-opacity:0.7655"/>
		<stop  offset="1" style="stop-color:#E0CD00"/>
	</linearGradient>
	<path class="st0" d="M60,11.7h4.8 M88.5,27.1l9-1.8c0.1,0,0.2-0.1,0.3-0.2l2-2.8c0,0,0-0.1,0.1-0.1c0-0.1,0.3-2.2,0.1-4.3
		c-0.2-1.5-0.2-1.5-0.4-3l-1-6.3c0-0.2-0.2-0.3-0.4-0.4l-6.6-0.7 M46.8,1L31.7,8.9c-1.5,0.2-24.1,3-25.9,3.5c-1.9,0.5-3.5,4.2-3.8,5
		c-0.3,0.3-1.1,1.1-1,2.2s0.2,6.6,0.2,6.6c0,0.2,0.2,0.4,0.4,0.4l8,1.3c0,0,0,0,0.1,0h0.5"/>
	<path class="st1" d="M28.7,28.4h41 M92.1,7L39.6,9.1"/>
	
		<linearGradient id="SVGID_2_" gradientUnits="userSpaceOnUse" x1="49.15" y1="16.3" x2="49.15" y2="2.1" gradientTransform="matrix(1 0 0 -1 0 34)">
		<stop  offset="0" style="stop-color:#A1A08A"/>
		<stop  offset="0.1309" style="stop-color:#9C9B85"/>
		<stop  offset="0.2954" style="stop-color:#8C8B78"/>
		<stop  offset="0.4779" style="stop-color:#727262"/>
		<stop  offset="0.6733" style="stop-color:#4F4E44"/>
		<stop  offset="0.8769" style="stop-color:#21211D"/>
		<stop  offset="1" style="stop-color:#020202"/>
	</linearGradient>
	<path class="st2" d="M19,17.7c-4,0-7.2,3.2-7.2,7.1s3.2,7.1,7.2,7.1s7.2-3.2,7.2-7.1S23,17.7,19,17.7z M79.3,17.7
		c-4,0-7.2,3.2-7.2,7.1s3.2,7.1,7.2,7.1s7.2-3.2,7.2-7.1S83.2,17.7,79.3,17.7z"/>
</g>
</svg>
