<?xml version="1.0" encoding="utf-8"?>
<!-- Generator: Adobe Illustrator 24.1.2, SVG Export Plug-In . SVG Version: 6.00 Build 0)  -->
<svg version="1.1" id="katman_1" xmlns="http://www.w3.org/2000/svg" xmlns:xlink="http://www.w3.org/1999/xlink" x="0px" y="0px"
	 viewBox="0 0 101 35" style="enable-background:new 0 0 101 35;" xml:space="preserve">
<style type="text/css">
	.st0{fill:url(#SVGID_1_);stroke:#050505;stroke-width:1.205;}
	.st1{fill:url(#SVGID_2_);stroke:#BCBCBC;stroke-width:1.205;}
	.st2{fill:url(#SVGID_3_);stroke:#050505;stroke-width:1.205;}
	.st3{fill:none;stroke:#BCBCBC;stroke-width:1.205;}
</style>
<g>
	<linearGradient id="SVGID_1_" gradientUnits="userSpaceOnUse" x1="0.9914" y1="15.1979" x2="100.0687" y2="15.1979">
		<stop  offset="0" style="stop-color:#E0CD00"/>
		<stop  offset="0.101" style="stop-color:#D2C100"/>
		<stop  offset="0.2902" style="stop-color:#AFA000"/>
		<stop  offset="0.5472" style="stop-color:#756B00"/>
		<stop  offset="0.859" style="stop-color:#262300"/>
		<stop  offset="1" style="stop-color:#000000"/>
	</linearGradient>
	<path class="st0" d="M60,12h4.8 M88.5,28.6l9-1.8c0.1,0,0.2-0.1,0.3-0.2l2-2.9c0,0,0-0.1,0.1-0.1c0-0.1,0.3-2.2,0.1-4.4
		c-0.2-1.6-0.2-1.6-0.4-3.1l-1-6.5c0-0.2-0.2-0.4-0.4-0.4L91.1,8c-3-0.3-4.9-1.2-4.9-1.2c-17.1-8.4-32.5-5.3-35.4-5
		c-3.6,0.4-5.2,1.3-5.2,1.3L31.7,9.9c-1.5,0.2-24.1,3-25.9,3.6C3.9,14,2.4,17.8,2,18.6c-0.3,0.3-1.1,1.1-1,2.3
		c0.1,1.1,0.2,6.8,0.2,6.8c0,0.2,0.2,0.4,0.4,0.4l8,1.3c0,0,0,0,0.1,0h0.5"/>
	<linearGradient id="SVGID_2_" gradientUnits="userSpaceOnUse" x1="48.55" y1="19.3" x2="48.55" y2="33.9">
		<stop  offset="0" style="stop-color:#BCBCBC"/>
		<stop  offset="1" style="stop-color:#000000"/>
	</linearGradient>
	<path class="st1" d="M19,19.3c-4,0-7.2,3.3-7.2,7.3s3.2,7.3,7.2,7.3s7.2-3.3,7.2-7.3S23,19.3,19,19.3z M78.1,19.3
		c-4,0-7.2,3.3-7.2,7.3s3.2,7.3,7.2,7.3s7.2-3.3,7.2-7.3C85.2,22.6,82,19.3,78.1,19.3z"/>
	<linearGradient id="SVGID_3_" gradientUnits="userSpaceOnUse" x1="28.7" y1="29.1" x2="69.7" y2="29.1">
		<stop  offset="0" style="stop-color:#E0CD00"/>
		<stop  offset="0.1145" style="stop-color:#DBC900"/>
		<stop  offset="0.2475" style="stop-color:#CDBC00"/>
		<stop  offset="0.3899" style="stop-color:#B6A600"/>
		<stop  offset="0.5388" style="stop-color:#958800"/>
		<stop  offset="0.6929" style="stop-color:#6B6200"/>
		<stop  offset="0.8487" style="stop-color:#383400"/>
		<stop  offset="1" style="stop-color:#000000"/>
	</linearGradient>
	<path class="st2" d="M28.7,29.1h41"/>
	<path class="st3" d="M79.6,9.6l-41.3,0.7"/>
</g>
</svg>
