<?xml version="1.0" encoding="utf-8"?>
<!-- Generator: Adobe Illustrator 24.1.2, SVG Export Plug-In . SVG Version: 6.00 Build 0)  -->
<svg version="1.1" id="katman_1" xmlns="http://www.w3.org/2000/svg" xmlns:xlink="http://www.w3.org/1999/xlink" x="0px" y="0px"
	 viewBox="0 0 94 44" style="enable-background:new 0 0 94 44;" xml:space="preserve">
<style type="text/css">
	.st0{fill:url(#SVGID_1_);stroke:#050505;}
	.st1{fill:none;stroke:#050505;}
	.st2{fill:none;stroke:#BCBCBC;}
	.st3{fill:url(#SVGID_2_);stroke:#BCBCBC;}
	.st4{fill:url(#SVGID_3_);stroke:#050505;}
</style>
<g>
	<linearGradient id="SVGID_1_" gradientUnits="userSpaceOnUse" x1="0.9995" y1="18.3631" x2="92.645" y2="18.3631">
		<stop  offset="0" style="stop-color:#E0CD00"/>
		<stop  offset="9.782618e-02" style="stop-color:#D4C200"/>
		<stop  offset="0.2759" style="stop-color:#B3A400"/>
		<stop  offset="0.5142" style="stop-color:#7E7400"/>
		<stop  offset="0.8002" style="stop-color:#363200"/>
		<stop  offset="1" style="stop-color:#000000"/>
	</linearGradient>
	<path class="st0" d="M84.2,35h7.3c0.5-1.2,1-4.2,1.1-5.8c0-0.1-0.7-0.6-0.7-0.8c0.2-6.4-0.4-10.5-0.4-10.5L89.9,5.3
		c-1.5-2.9-4-3-4-3C68.1,0.4,55.3,1.1,55.3,1.1c-5.8,0-19.8,0.3-22,0.9C29,3,19,14.4,18,15c-1.3,0.2-10.9,3.8-12.6,4.3
		c-1.7,0.5-3.1,6-3.4,6.8c-0.3,0.2-1,1-0.9,2c0.1,1,0.2,6.1,0.2,6.1c0,0.2,0.2,0.4,0.4,0.4l7.3,1.2c0,0,0,0,0.1,0l0.3-0.3"/>
	<path class="st1" d="M36,17.4h4.4 M45.9,17.4h4.4"/>
	<path class="st2" d="M43.1,14.5l-19.5,0.2 M43.2,33.5L43.1,4.3"/>
	<linearGradient id="SVGID_2_" gradientUnits="userSpaceOnUse" x1="46.841" y1="28.963" x2="46.841" y2="42.963">
		<stop  offset="0" style="stop-color:#BCBCBC"/>
		<stop  offset="1" style="stop-color:#000000"/>
	</linearGradient>
	<path class="st3" d="M18,29c-3.9,0-7,3.1-7,7s3.1,7,7,7c3.9,0,7-3.1,7-7S21.9,29,18,29z M75.7,29c-3.9,0-7,3.1-7,7s3.1,7,7,7
		c3.9,0,7-3.1,7-7S79.5,29,75.7,29z"/>
	<linearGradient id="SVGID_3_" gradientUnits="userSpaceOnUse" x1="26.185" y1="35.726" x2="66.71" y2="35.726">
		<stop  offset="0" style="stop-color:#E0CD00"/>
		<stop  offset="1" style="stop-color:#000000"/>
	</linearGradient>
	<path class="st4" d="M26.2,35.7h40.5"/>
</g>
</svg>
