<?xml version="1.0" encoding="utf-8"?>
<!-- Generator: Adobe Illustrator 24.1.2, SVG Export Plug-In . SVG Version: 6.00 Build 0)  -->
<svg version="1.1" id="katman_1" xmlns="http://www.w3.org/2000/svg" xmlns:xlink="http://www.w3.org/1999/xlink" x="0px" y="0px"
	 viewBox="0 0 1280 1024" style="enable-background:new 0 0 1280 1024;" xml:space="preserve">
<style type="text/css">
	.st0{fill:#D5D8A3;stroke:#3F3F3F;stroke-width:10;stroke-miterlimit:10;}
	.st1{fill:#8B8B8B;stroke:#3F3F3F;stroke-width:10;stroke-miterlimit:10;}
	.st2{fill:#09070A;}
	.st3{fill:#E0E0E0;stroke:#3F3F3F;stroke-width:10;stroke-miterlimit:10;}
	.st4{fill:#3A3638;}
	.st5{fill:#CBCBCB;}
	.st6{fill:#4C4C4C;}
	.st7{fill:#E8E8E8;}
	.st8{fill:#515151;}
	.st9{fill:#676767;}
	.st10{fill:#3F3F3F;}
	.st11{fill:#444C14;stroke:#2EE94F;stroke-width:10;stroke-linecap:round;}
	.st12{fill:#444C14;stroke:#2EE94F;stroke-width:10;}
	.st13{fill:none;stroke:#2EE94F;stroke-width:10;stroke-linecap:round;}
	.st14{fill:url(#SVGID_1_);}
	.st15{fill:url(#SVGID_2_);}
	.st16{fill:#54B20B;}
</style>
<g>
	<g>
		<path class="st0" d="M978.2,420.2c-1.1-5.7-1.3-11.1-0.8-15.4c-11.6-35.3-33.3-90.2-33.3-90.2l-27.9,114.6l62.8-5.8
			C978.7,422.3,978.4,421.3,978.2,420.2z"/>
		<path class="st0" d="M916.1,429.2l-2,8.3c0,0,64.6,51.1,69.7,44.9c4.4-5.2,5-23,2-43.6c-2.7-3.2-5.3-8.7-6.9-15.4L916.1,429.2z"/>
		<path class="st1" d="M983.8,427.1c-0.3-1.2-0.6-2.6-1-4.1c-1.2-4.9-3.2-11.2-5.5-18.2c-0.5,4.3-0.3,9.7,0.8,15.4
			c0.2,1.1,0.4,2.1,0.7,3.2c1.7,6.7,4.2,12.3,6.9,15.4C985.3,435,984.6,431.1,983.8,427.1z"/>
	</g>
	<path class="st2" d="M888.4,303c0,0,11.9-6.2,15.8-10.6c4-4.4,2,8,2,12S888.4,303,888.4,303z"/>
	<path class="st2" d="M816.5,600.7c0,0,17.8,1.7,18.8,3c1,1.2,10.9,17.3,25,21c14,3.7,118.3-26.2,118.3-26.2s15.5-3.4,17.1-4.2
		c1.6-0.7,10.5-20.1,0-45.3s-44.9-60.3-87.1-48.7C866.4,512,818.8,524.1,816.5,600.7z"/>
	<path class="st2" d="M373.8,573l3.2,40.7c0,0,10.1,1.1,14.6,0c4.4-1.1,134.6,5,134.6,5s5.7-5.2,9.6-7.7c4-2.5,10.1-0.2,10.1-0.2
		l24.2-64.7l-119.3-46.9C450.9,499.2,367.9,518.2,373.8,573z"/>
	<path class="st0" d="M519,433.8L490.6,406c0,0,131.1-85.1,196.7-99.9s73.4,70.9,73.4,70.9L519,433.8z"/>
	<path class="st0" d="M449.3,422l-51.6,25.3c0,0-13.4,12.4-13.4,28.9c0,0,5.7,18.1,13.9,22.7c8.3,4.6,95.5-54.7,95.5-54.7
		S480.8,414.2,449.3,422z"/>
	<g>
		<path class="st2" d="M542.8,620.3l288.7-8.8c0,0-0.1-8.5,2.1-20.5l-291.1,12C543.2,613.4,542.8,620.3,542.8,620.3z"/>
		<path class="st3" d="M1004.5,567.1c-0.5-30.5,1.5-74.4-9.3-83.2c-10.8-8.8-46.5-51.1-48-58.4c-1.5-7.2-1-100.7,0.5-106.9
			s6.7-12.4,0-13.9c-6.7-1.6-204.5-11.9-269.1,3.1l9.3,4.6c0,0-19.6-9.8-170.4,90.9c0,0-37.2-4.1-51.6,2.6
			c-14.5,6.7-68.2,41.3-68.2,41.3s55.3-20.7,62-18.6s12.9,5.7,12.9,5.7l-54.2,38.2l-28.9,12.9c0,0-13.4,6.7-15,12.4
			c-1.5,5.7-10.3,25.3-9.8,36.7s-1.1,38.7,0,50.1c1.1,11.4,2.1,30.5,13.5,28.9c0,0-17-101.5,83.7-99.2c65.5,1.5,78.4,59,80.8,88.6
			l291.1-12c5.4-30.2,24.7-82.6,94-76.6c72.3,6.2,78,74.9,65.6,80.1C993.1,594.5,1005,597.6,1004.5,567.1z"/>
	</g>
	<path class="st0" d="M549,427.1l310.4-31c0,0,22.7-61.5,6.2-71.8c-16.5-10.3-58.9-9.8-58.9-9.8s-96.6,0.5-131.7,16
		C639.9,346,545.9,384.3,549,427.1z"/>
	<circle class="st4" cx="918.6" cy="597.3" r="71.8"/>
	<g>
		<path class="st4" d="M459.6,524.4c-39.6,0-71.8,32.1-71.8,71.8c0,39.6,32.1,71.8,71.8,71.8c39.6,0,71.8-32.1,71.8-71.8
			C531.4,556.6,499.2,524.4,459.6,524.4z M459.8,650.8c-29.9,0-54.2-24.3-54.2-54.2s24.3-54.2,54.2-54.2c30,0,54.2,24.3,54.2,54.2
			S489.7,650.8,459.8,650.8z"/>
		<path class="st5" d="M459.8,542.3c-29.9,0-54.2,24.3-54.2,54.2s24.3,54.2,54.2,54.2c30,0,54.2-24.3,54.2-54.2
			S489.7,542.3,459.8,542.3z"/>
	</g>
	<path class="st5" d="M864.5,597.3c0,29.9,24.3,54.2,54.2,54.2s54.2-24.3,54.2-54.2s-24.3-54.2-54.2-54.2S864.5,567.3,864.5,597.3z"
		/>
	<path class="st6" d="M440.9,560.5l12.6,14.3c0,0,2.2,3.4,5.1,3.4c3,0,5.1-2.4,5.1-2.4l13.1-15.3c0,0,1.8-2.2,0-3.7
		s-8.2-3.7-17.1-3.7S437.7,555.6,440.9,560.5z"/>
	<path class="st6" d="M440.9,633.2l12.6-14.3c0,0,2.2-3.4,5.1-3.4s5.1,2.4,5.1,2.4l13.1,15.3c0,0,1.8,2.2,0,3.7s-8.2,3.7-17.1,3.7
		C450.9,640.5,437.7,638.1,440.9,633.2z"/>
	<path class="st6" d="M496.6,578.7l-14.3,12.5c0,0-3.4,2.2-3.4,5.1c0,3,2.4,5.1,2.4,5.1l15.3,13.1c0,0,2.2,1.8,3.7,0
		s3.7-8.2,3.7-17.1C503.9,588.6,501.5,575.5,496.6,578.7z"/>
	<path class="st6" d="M423.8,578.7l14.3,12.5c0,0,3.4,2.2,3.4,5.1c0,3-2.4,5.1-2.4,5.1l-15.3,13.1c0,0-2.2,1.8-3.7,0
		s-3.7-8.2-3.7-17.1C416.5,588.6,418.9,575.5,423.8,578.7z"/>
	<g>
		<path class="st6" d="M899.9,560.9l12.5,14.3c0,0,2.2,3.4,5.1,3.4c3,0,5.1-2.4,5.1-2.4l13.1-15.3c0,0,1.8-2.2,0-3.7
			s-8.2-3.7-17.1-3.7C909.9,553.6,896.7,556,899.9,560.9z"/>
		<path class="st6" d="M899.9,633.6l12.5-14.3c0,0,2.2-3.4,5.1-3.4c3,0,5.1,2.4,5.1,2.4l13.1,15.3c0,0,1.8,2.2,0,3.7
			s-8.2,3.7-17.1,3.7C909.9,640.9,896.7,638.5,899.9,633.6z"/>
		<path class="st6" d="M955.6,579.1l-14.3,12.5c0,0-3.4,2.2-3.4,5.1c0,3,2.4,5.1,2.4,5.1l15.3,13.1c0,0,2.2,1.8,3.6,0
			c1.5-1.8,3.7-8.2,3.7-17.1C962.9,589.1,960.5,576,955.6,579.1z"/>
		<path class="st6" d="M882.8,579.1l14.3,12.5c0,0,3.4,2.2,3.4,5.1c0,3-2.4,5.1-2.4,5.1l-15.3,13.1c0,0-2.2,1.8-3.7,0
			s-3.7-8.2-3.7-17.1C875.5,589.1,877.9,576,882.8,579.1z"/>
	</g>
	<path class="st2" d="M904,298c-0.3,0-0.7-0.1-0.9-0.3c-0.8-0.5-1-1.6-0.5-2.4l28.9-43.2c0.5-0.8,1.6-1,2.4-0.5
		c0.8,0.5,1,1.6,0.5,2.4l-28.9,43.2C905.1,297.7,904.5,298,904,298z"/>
	<path class="st7" d="M468.4,471.7c0,0,68.8,12.3,92.9,53.8c0,0,202.5-19.8,233.5-10.7s55.9-65.9,104.6-54.9
		c48.7,11,69.9,15.6,85,45.8s16.3,36.6,16.3,36.6l-4.2-48.7l-58.7-66.5L468.4,471.7z"/>
	<path class="st8" d="M569,599c-1.4,0-3.6-0.4-5.8-1.9c-3.8-2.6-6.2-7.8-7.2-15.3c-0.2-1.5-18.2-150.4-3.5-169.2l0.9,0.7
		c-12.8,16.3-0.3,136.9,3.7,168.3c0.9,7.1,3.2,12,6.7,14.4c3.2,2.2,6.4,1.3,6.4,1.3l0.1-0.3H581c1.1,0,111.7-6.3,166.2-6.4
		c50.1-0.1,56.1-13,66-34.5c0.9-2,1.8-4,2.9-6.1c11.4-23.9,45.6-165.4,47.9-174.7l-33.7-14.8l0.5-1l34.6,15.2l-0.1,0.5
		c-0.4,1.5-36.2,150.7-48,175.4c-1,2.1-1.9,4.1-2.8,6.1c-9.7,21.2-16.2,35.4-67,35.5c-54.5,0.1-165.1,6.8-166.2,6.8h-10.6
		C570.3,599,569.7,599,569,599z"/>
	<path class="st8" d="M835.8,430.5c-2.4,0-4.2-0.6-5.3-1.8c-1.4-1.5-1.1-3.4-1.1-3.5c0.1-0.2,3.7-11,7.1-17.6
		c3.6-6.9,10.8-6.3,10.9-6.3l10.8-1l0.1,1.1l-10.9,1c-0.4,0-6.7-0.5-9.9,5.7c-3.4,6.5-7,17.2-7,17.3l0,0c0,0-0.2,1.4,0.8,2.4
		c1.1,1.1,3.1,1.6,5.9,1.3c8.2-0.7,13.5-0.6,13.6-0.6v1.1c-0.1,0-5.3-0.1-13.4,0.6C836.9,430.5,836.3,430.5,835.8,430.5z"/>
	<path class="st9" d="M385.8,473.8l23.7-8.7c0,0,11.5-20.4,20.8-16.6l-16.6,19.8C413.8,468.4,383.4,478.5,385.8,473.8z"/>
	<path class="st10" d="M385.7,480.5l3.2,4.7l15-7.5c0,0,1.4-2.2,0-2.6C402.4,474.7,385.7,480.5,385.7,480.5z"/>
</g>
<g>
	<path class="st11" d="M792,498.1c0,33.4-22.9,60.6-51.4,60.6s-51.4-27.2-51.4-60.6c-0.6-52,51.4-86,51.4-86S792,446.1,792,498.1z
		 M740.7,443v160.9"/>
	<path class="st12" d="M763,518.5"/>
	<path class="st12" d="M740.7,485.1"/>
	<line class="st13" x1="719.6" y1="485.1" x2="740.7" y2="518.5"/>
	<line class="st13" x1="741.3" y1="518.5" x2="761.7" y2="485.1"/>
</g>
<g>
	<g>
		<linearGradient id="SVGID_1_" gradientUnits="userSpaceOnUse" x1="569.7" y1="512.6" x2="651.8" y2="512.6">
			<stop  offset="0" style="stop-color:#0091BF"/>
			<stop  offset="0.4921" style="stop-color:#3EBBC9"/>
			<stop  offset="1" style="stop-color:#274798"/>
		</linearGradient>
		<path class="st14" d="M643.3,420.3c-27.3,27.5-54,67.6-73.6,100.7c9.1,1,29.8,3,39.5,3.3c-10.5,25.8-26.6,53.1-31.6,80.6
			c26.9-31,55.8-73.9,74.2-110.4c-9.2-0.7-20-1.6-29.2-1.9C622,492.6,640.8,430.9,643.3,420.3z"/>
	</g>
	<g>
		
			<linearGradient id="SVGID_2_" gradientUnits="userSpaceOnUse" x1="548.9327" y1="450.8325" x2="671.7327" y2="573.6326" gradientTransform="matrix(1 0 0 -1 0 1024)">
			<stop  offset="0" style="stop-color:#0091BF"/>
			<stop  offset="0.4921" style="stop-color:#3EBBC9"/>
			<stop  offset="1" style="stop-color:#274798"/>
		</linearGradient>
		<path class="st15" d="M578.6,600.3c0.8-4.6,1.9-9.2,2.9-13.1c1-3.9,2.1-8.1,3.5-12.8c1.2-4,2.5-8.3,3.9-12.6
			c0.8-2.7,1.8-5.5,2.7-8.1c0.5-1.4,1-2.9,1.5-4.3c3.2-9.3,6.8-18.8,11-29.1c-3.6-0.1-6.6-0.3-9.4-0.5l-22.4-1.8l10.9-17.8
			c4.3-7,8.6-13.8,13-20.3c4.8-7.3,9.3-13.7,13.8-19.8c2.4-3.3,4.8-6.5,7.3-9.7c1.2-1.6,2.5-3.2,3.7-4.8l1.4-1.7
			c0.8-1,1.6-2,2.4-3.1c2.8-3.5,5.4-6.5,7.9-9.4c2.4-2.7,5.2-5.9,8.4-9.1l1.5-1.5l-0.5,2c-1,4.4-2.3,8.5-3.3,11.9
			c-1.1,3.6-2.4,7.4-3.8,11.6c-0.4,1.2-0.9,2.4-1.3,3.7l-0.7,2.1c-0.7,1.9-1.4,3.8-2.1,5.7c-1.4,3.7-2.9,7.5-4.4,11.3
			c-2.8,7-5.9,14.2-9.6,22.2c-0.2,0.4-0.7,1.5-0.7,1.5c0.3,0,0.7,0,1,0c2.5,0.1,5,0.2,7.4,0.4l21.3,1.5l-9.3,17.7
			c-8.3,15.9-17,31.2-25.9,45.3c-0.8,1.3-1.7,2.6-2.5,3.9c-1.5,2.4-3,4.8-4.7,7.1c-2.3,3.5-4.6,6.8-7.4,10.9
			c-2.8,4-5.4,7.5-7.8,10.7c-2.5,3.2-5.3,6.9-8.4,10.4l-1.4,1.6L578.6,600.3z"/>
		<path class="st16" d="M641.3,422.8c-1,4-2.1,8-3.3,11.9s-2.5,7.8-3.8,11.6c-0.7,1.9-1.4,3.8-2,5.7c-0.7,1.9-1.4,3.8-2.1,5.7
			c-1.4,3.8-2.9,7.5-4.4,11.3c-3,7.5-6.2,14.8-9.6,22.1c-0.4,0.8-0.7,1.6-1.1,2.3c0.6,0,1.2,0,1.9,0c2.5,0.1,4.9,0.2,7.4,0.4
			l20.4,1.4l-8.8,16.9c-8,15.4-16.6,30.5-25.9,45.3c-2.4,3.7-4.7,7.4-7.1,11c-2.4,3.7-4.9,7.3-7.4,10.9c-2.5,3.6-5.1,7.1-7.8,10.7
			c-2.7,3.5-5.4,7-8.4,10.4c0.8-4.4,1.8-8.7,2.9-13c1.1-4.3,2.3-8.5,3.5-12.8c1.2-4.2,2.5-8.4,3.9-12.6c1.3-4.2,2.8-8.3,4.1-12.4
			c3.5-10.1,7.3-20,11.3-29.8c-3.4-0.1-6.8-0.2-10.2-0.5l-21.4-1.7l10.4-17c4.2-6.8,8.5-13.6,12.9-20.3c4.5-6.7,9-13.3,13.8-19.8
			c2.4-3.3,4.8-6.5,7.2-9.7c1.2-1.6,2.5-3.2,3.7-4.8c1.3-1.6,2.5-3.2,3.8-4.8c2.6-3.1,5.2-6.3,7.9-9.4
			C635.7,428.8,638.4,425.8,641.3,422.8 M643.4,419l-2.9,3c-3.2,3.2-6,6.4-8.4,9.1c-2.5,2.8-5.1,5.9-7.9,9.4c-0.8,1-1.6,2-2.4,3.1
			c-0.4,0.6-0.9,1.1-1.4,1.7c-1.3,1.6-2.5,3.2-3.7,4.8c-2.5,3.2-4.9,6.4-7.3,9.7c-4.5,6.1-9,12.6-13.8,19.8
			c-4.3,6.5-8.7,13.3-13,20.3l-10.4,17l-1,1.6l1.9,0.2l21.4,1.7c2.6,0.2,5.4,0.4,8.6,0.5c-4,10-7.5,19.2-10.7,28.3
			c-0.5,1.5-1,2.9-1.5,4.3c-0.9,2.7-1.8,5.4-2.7,8.1c-1.4,4.3-2.7,8.6-3.9,12.6c-1.3,4.7-2.5,8.9-3.5,12.8c-1,3.9-2.1,8.5-2.9,13.1
			l-0.8,4.2l2.8-3.2c3.1-3.5,6-7.3,8.4-10.5s5-6.7,7.8-10.7s5.2-7.4,7.4-10.9c1.6-2.4,3.1-4.8,4.7-7.1c0.8-1.3,1.6-2.6,2.5-3.9
			c8.9-14.2,17.6-29.4,25.9-45.3l8.9-16.9l0.8-1.6l-1.8-0.1l-20.4-1.4c-2.5-0.2-5-0.3-7.5-0.4h-0.1c0.1-0.2,0.2-0.5,0.3-0.7
			c3.6-8,6.8-15.2,9.6-22.2c1.5-3.8,3-7.5,4.4-11.3c0.7-1.9,1.5-3.8,2.1-5.7c0.2-0.7,0.5-1.4,0.7-2.1c0.4-1.2,0.9-2.4,1.3-3.7
			c1.5-4.2,2.7-8,3.8-11.6c1.1-3.5,2.3-7.6,3.3-12L643.4,419L643.4,419z"/>
	</g>
</g>
</svg>
