<?xml version="1.0" encoding="utf-8"?>
<!-- Generator: Adobe Illustrator 24.1.2, SVG Export Plug-In . SVG Version: 6.00 Build 0)  -->
<svg version="1.1" id="katman_1" xmlns="http://www.w3.org/2000/svg" xmlns:xlink="http://www.w3.org/1999/xlink" x="0px" y="0px"
	 viewBox="0 0 1280 1024" style="enable-background:new 0 0 1280 1024;" xml:space="preserve">
<style type="text/css">
	.st0{fill:#353420;}
	.st1{fill:#000308;}
	.st2{fill:#E0E0E0;stroke:#3F3F3F;stroke-width:10;stroke-miterlimit:10;}
	.st3{fill:#686868;}
	.st4{fill:#151616;}
	.st5{fill:#020305;stroke:#3F3F3F;stroke-width:10;stroke-miterlimit:10;}
	.st6{fill:#AFAE74;}
	.st7{fill:#020305;}
	.st8{fill:#4B4B4B;}
	.st9{fill:#3A3638;}
	.st10{fill:#C4C4C4;}
	.st11{fill:#353535;}
</style>
<g>
	<g>
		<path class="st0" d="M583.9,316.6c0,0-50.7,14-157.5,87l-5.4,28.8l102.4-10c0,0,75.9-80.7,75.9-82
			C599.3,339.2,583.9,316.6,583.9,316.6z"/>
		<path class="st1" d="M400.3,406.8l15.2-3.1c0,0,8.6-9.6,12.5-8.8c4,0.8,8.8,1.5,6.5,4s-4.6,14.4-12.5,17.9
			C414.1,420.4,395.1,417.4,400.3,406.8z"/>
		<path class="st1" d="M236.6,574.4l18.9,22.4c0,0,6.3,1.6,13.4-5.5s121.6,8.1,121.6,8.1s23.8,0,38,0
			c14.3-0.1,370.2-15.8,370.2-15.8l55.2,13.2c0,0,19.8-4.3,29.3-2.7c9.6,1.6,117-3.3,117-3.3s30.9,5.5,35.6-3.9
			c4.8-9.4,40.4-131.5-54.9-133.4s-528.5,71.3-528.5,71.3l-113.7-67l-98.8,30.7L236.6,574.4z"/>
		<path class="st2" d="M1123.6,481.7c1.7-9-11.3-13.4-11.3-13.4s1.5-5.6,0-14.2s-5-35.5-9-43s-6.9-8.4-6.9-8.4l-0.8,4.6
			c-7.8-4-39.3-8.3-45.4-9.4c-6-1-14.3-7.3-33.1-27.1c-18.8-19.8-26.7-41.7-26.7-41.7l12.5-9.6c2.7-5.8-30.3-7.9-30.3-7.9
			c-11.5-1.3-156.7-13.6-241.6-14.2s-150.8,19.4-154.4,21.7c-3.5,2.3-1.5,9.2-1.5,9.2c-17.9,3.1-131.9,81.6-138.9,83.5
			c-7.1,1.9-25.2,2.7-32.5-0.4s8.8-7.1,8.8-7.1s-40.3-0.4-141.7,24S158.6,479,157.1,484.6c-1.5,5.6-3.5,14.4-3.5,14.4
			c-1.5,7.5-0.6,31.9-1,34.6c-0.4,2.7,0.2,4.8,0.2,4.8c-0.1,1-0.2,2-0.2,2.9c3.1,0.3,7.5,0.6,10.7,0.6c5.6,0,19.7,2.4,19.1,10.3
			c-0.7,7.9,2.6,15.8-8.9,18.1c-9.9,2-15,2.4-18.3-1.3c-0.3,0.4-0.6,0.9-0.9,1.4c-1.7,3.5,3.2,5.3,3.2,5.3
			c16.3,11.2,97.9,20.9,97.9,20.9c-9.9-26.6-10.1-115.9,77.7-116.5s89.3,119.1,89.3,119.1l431.5-2.6
			c-5.2-15.9-15.9-112.4,82.4-112.2c98.3,0.2,90.8,107.1,90.8,107.1h1.2c11.3,0,33.6-6.7,41.1-8s32.1-14.9,40.9-19.9
			s6.5-33.8,6.5-37.6s-4.4-16.9-3.5-22.1C1114,499,1121.9,490.7,1123.6,481.7z"/>
		<path class="st3" d="M173.6,570.4c11.4-2.3,8.2-10.2,8.9-18.1c0.7-7.9-13.4-10.3-19.1-10.3c-3.2,0-7.5-0.3-10.7-0.6
			c0,10.5,6.7,17.4,7.1,20.9c0.4,3.2-2.6,4.4-4.5,6.9C158.6,572.9,163.6,572.4,173.6,570.4z"/>
		<path class="st0" d="M999.8,317.5c0,0,3.5,1.9,8.9,5.2c5.4,3.3,78.7,61.9,90,83.8c11.4,21.9-24,8.7-24,8.7L974.5,355
			C974.5,355,977.6,324.4,999.8,317.5z"/>
		<path class="st4" d="M452.4,425.1c0,0,71.8-66.8,126.6-87.9c54.8-21.1,97.4-23.1,194.8-20.6s139.1,12.2,156.7,26.7
			c17.5,14.5,25.9,23.5,24.8,31.2c-1.1,7.7-8.1,26.4-15.6,27.5S739.9,412.9,736,413.1C732,413.4,452.4,425.1,452.4,425.1z"/>
		<path class="st0" d="M515.5,382.8l-3.9,33.4l215.1-7.8l26.7-85.7c0,0-113.8-5.3-152.5,12C562.3,351.9,548.4,357,515.5,382.8z"/>
		<path class="st0" d="M793.6,327.1l-16.4,61.3c0,0-2.9,8.5,0,10.1c2.9,1.7,92.1-2.1,92.1-2.1s63.8-1.2,66-3.3
			c2.3-2.1,13.2-14.9,7.7-24c-5.6-9.1-20.7-25.5-52-32.1C859.8,330.4,800.6,325.8,793.6,327.1z"/>
		<path class="st5" d="M683.2,575.4c-3.7,0-6.2-0.1-6.6-0.1l-229.4-2.2l-0.2-0.7c-14.1-51.3-10.7-106.5-6.9-128.6
			c3.4-19.9,13.9-20.2,14.3-20.3c0.6,0,1,0.4,1,1c0,0.5-0.4,1-1,1c-0.4,0-9.3,0.5-12.4,18.6c-3.7,21.8-7,76.2,6.7,127l227.9,2.2
			c0.5,0,42,2,48.2-11.1c6.5-13.7,30.5-113.7,24.3-152.7v-0.2v-0.2l21.1-92.8c0.1-0.5,0.7-0.9,1.2-0.8s0.9,0.7,0.8,1.2l-21.1,92.6
			c6.1,39.4-18,139.9-24.5,153.7C721.5,574.1,695.6,575.4,683.2,575.4z"/>
		<path class="st6" d="M160.8,495.7c0,0,0.7-10.4,12.9-17.2c12.7-7.1,19.6-7.8,24-5.1c4.4,2.7,10.6,10.9,11,15.6s1.9,14.5-8.7,14.8
			C189.4,504,162.6,509.1,160.8,495.7z"/>
		<path class="st6" d="M1021.9,433.2c0,0,11.5-13.6,33.8-13.4s45.7,5.9,45.3,20.9c-0.4,15-32.6,10.3-32.6,10.3
			S1013.5,446.4,1021.9,433.2z"/>
		<path class="st7" d="M969.5,493.6c-0.5,0-0.9-0.3-1-0.8s0.2-1.1,0.8-1.2l64.6-13.6c19.8-2.2,72.3-9.4,78.4-16.6
			c0.4-0.4,1-0.5,1.4-0.1s0.5,1,0.1,1.4c-7.9,9.3-76.6,16.9-79.6,17.2l-64.5,13.6C969.6,493.6,969.5,493.6,969.5,493.6z"/>
		<path class="st8" d="M496.2,412.3c0,0-7.4-11.9,11-21.8c18.4-9.9,18.4,5.3,18.6,8.5c0.2,3.2,0.9,15-5,16.1
			C514.9,416.1,497.6,417.4,496.2,412.3z"/>
		<path class="st6" d="M395.4,463.9c0,0,1.7,4.2,4.5,5.6s7.3,1.1,12.9,0.8c5.6-0.3,15.4-1,13.9-5.3
			C425.1,460.7,399.2,461.2,395.4,463.9z"/>
		<g>
			<path class="st9" d="M1008.2,565.1c0,39.4-31.9,71.3-71.3,71.3c-39.4,0-71.3-31.9-71.3-71.3c0-39.4,31.9-71.3,71.3-71.3
				C976.3,493.7,1008.2,525.7,1008.2,565.1z"/>
			<path class="st10" d="M883.2,565.1c0,29.8,24.1,53.9,53.9,53.9c29.8,0,53.9-24.1,53.9-53.9c0-29.8-24.1-53.9-53.9-53.9
				C907.3,511.2,883.2,535.3,883.2,565.1z"/>
			<g>
				<path class="st11" d="M918.4,528.9l12.5,14.2c0,0,2.2,3.4,5.1,3.4c2.9,0,5.1-2.4,5.1-2.4l13-15.2c0,0,1.8-2.2,0-3.6
					c-1.8-1.5-8.2-3.6-17-3.6C928.2,521.7,915.2,524.1,918.4,528.9z"/>
				<path class="st11" d="M918.4,601.2l12.5-14.2c0,0,2.2-3.4,5.1-3.4c2.9,0,5.1,2.4,5.1,2.4l13,15.2c0,0,1.8,2.2,0,3.6
					c-1.8,1.5-8.2,3.6-17,3.6C928.2,608.4,915.2,606.1,918.4,601.2z"/>
				<path class="st11" d="M973.6,547l-14.2,12.5c0,0-3.4,2.2-3.4,5.1c0,3,2.4,5.1,2.4,5.1l15.2,13c0,0,2.2,1.8,3.6,0
					c1.5-1.8,3.6-8.2,3.6-17C980.9,556.9,978.5,543.9,973.6,547z"/>
				<path class="st11" d="M901.4,547l14.2,12.5c0,0,3.4,2.2,3.4,5.1c0,2.9-2.4,5.1-2.4,5.1l-15.2,13c0,0-2.2,1.8-3.6,0
					c-1.5-1.8-3.6-8.2-3.6-17C894.1,556.9,896.5,543.9,901.4,547z"/>
			</g>
		</g>
		<g>
			<path class="st9" d="M403.2,565.1c0,39.4-31.9,71.3-71.3,71.3s-71.3-31.9-71.3-71.3c0-39.4,31.9-71.3,71.3-71.3
				C371.3,493.7,403.2,525.7,403.2,565.1z"/>
			<path class="st10" d="M278.2,565.1c0,29.8,24.1,53.9,53.9,53.9s53.9-24.1,53.9-53.9c0-29.8-24.1-53.9-53.9-53.9
				C302.3,511.2,278.2,535.3,278.2,565.1z"/>
			<g>
				<path class="st11" d="M313.4,528.9l12.5,14.2c0,0,2.2,3.4,5.1,3.4c3,0,5.1-2.4,5.1-2.4l13-15.2c0,0,1.8-2.2,0-3.6
					c-1.8-1.5-8.2-3.6-17-3.6C323.2,521.7,310.2,524.1,313.4,528.9z"/>
				<path class="st11" d="M313.4,601.2l12.5-14.2c0,0,2.2-3.4,5.1-3.4s5.1,2.4,5.1,2.4l13,15.2c0,0,1.8,2.2,0,3.6
					c-1.8,1.5-8.2,3.6-17,3.6C323.2,608.4,310.2,606.1,313.4,601.2z"/>
				<path class="st11" d="M368.6,547l-14.2,12.5c0,0-3.4,2.2-3.4,5.1c0,3,2.4,5.1,2.4,5.1l15.2,13c0,0,2.2,1.8,3.6,0
					c1.5-1.8,3.6-8.2,3.6-17C375.9,556.9,373.5,543.9,368.6,547z"/>
				<path class="st11" d="M296.4,547l14.2,12.5c0,0,3.4,2.2,3.4,5.1c0,2.9-2.4,5.1-2.4,5.1l-15.2,13c0,0-2.2,1.8-3.6,0
					c-1.5-1.8-3.6-8.2-3.6-17C289.1,556.9,291.5,543.9,296.4,547z"/>
			</g>
		</g>
	</g>
</g>
</svg>
