<?xml version="1.0" encoding="utf-8"?>
<!-- Generator: Adobe Illustrator 24.1.2, SVG Export Plug-In . SVG Version: 6.00 Build 0)  -->
<svg version="1.1" id="katman_1" xmlns="http://www.w3.org/2000/svg" xmlns:xlink="http://www.w3.org/1999/xlink" x="0px" y="0px"
	 viewBox="0 0 1280 1024" style="enable-background:new 0 0 1280 1024;" xml:space="preserve">
<style type="text/css">
	.st0{fill:#050505;stroke:#3F3F3F;stroke-width:2;stroke-miterlimit:10;}
	.st1{fill:#DEDEDE;stroke:#3F3F3F;stroke-width:2;stroke-miterlimit:10;}
	.st2{fill:#D5D8AD;stroke:#3F3F3F;stroke-width:2;stroke-miterlimit:10;}
	.st3{fill:#626262;stroke:#3F3F3F;stroke-width:2;stroke-miterlimit:10;}
	.st4{fill:#D3D3D3;stroke:#3F3F3F;stroke-width:2;stroke-miterlimit:10;}
	.st5{fill:#848253;stroke:#3F3F3F;stroke-width:2;stroke-miterlimit:10;}
	.st6{fill:#E0E0E0;stroke:#3F3F3F;stroke-width:7;stroke-miterlimit:10;}
	.st7{fill:#F0F0F0;stroke:#3F3F3F;stroke-width:7;stroke-miterlimit:10;}
	.st8{fill:#8C8C8C;stroke:#3F3F3F;stroke-width:2;stroke-miterlimit:10;}
	.st9{fill:#3F3F3F;stroke:#3F3F3F;stroke-width:2;stroke-miterlimit:10;}
	.st10{stroke:#3F3F3F;stroke-width:2;stroke-miterlimit:10;}
	.st11{fill:#B5B5B5;stroke:#3F3F3F;stroke-width:2;stroke-miterlimit:10;}
	.st12{fill:#F2F2F2;stroke:#3F3F3F;stroke-width:2;stroke-miterlimit:10;}
	.st13{fill:#1D1D1D;stroke:#3F3F3F;stroke-width:4;stroke-miterlimit:10;}
	.st14{fill:#E0E0E0;stroke:#3F3F3F;stroke-width:2;stroke-miterlimit:10;}
	.st15{fill:#1D1D1D;stroke:#3F3F3F;stroke-width:6.8971;stroke-miterlimit:10;}
	.st16{fill:#E4E4E4;stroke:#3F3F3F;stroke-width:2;stroke-miterlimit:10;}
</style>
<g>
	<g>
		<path class="st0" d="M130.9,540.7l34.6,22.1c0,0,7.1-18,33.6-12.7c26.6,5.4,135,13.8,135,13.8s39,11,57.1-1.7
			s418.3-12.1,418.3-12.1l57.6,14.5c0,0,18.8-6.6,32.2-7.1c13.3-0.5,127.7-3,127.7-3l20.1-3.5l47.6-42l-95.5-130.1L298,404.4
			l-142.6,40.3L130.9,540.7z"/>
		<path class="st1" d="M1126.2,521.6h40.9c0,0,5.4-0.3,4.5,10s-9.4,9-9.4,9h-39.6L1126.2,521.6z"/>
		<path class="st2" d="M211.7,397.4l-19.1-2.5c0,0-31.9,5-49.9,20.4s-25.5,45.6-24.4,49.9s59.2-18.7,60.7-20.6
			C180.4,442.6,211.7,397.4,211.7,397.4z"/>
		<path class="st3" d="M382.3,368.1c0,0,7.7-4.3,13.3-6.2c5.6-1.9,25.1-4.6,23.9-3.1s-9,5-7.4,9.3
			C413.6,372.4,382.3,368.1,382.3,368.1z"/>
		<path class="st4" d="M403.7,368.4c0,0,128-71.8,171.4-87l16.7,0.8l-96.3,53l-60.4,40L403.7,368.4z"/>
		<path class="st5" d="M1118.7,363.7c0,0,15.4-4.7,18,5.7c2.5,10.4,2.5,20.5,6.8,31.2c4.3,10.8,7.2,17.2,3.6,24.8
			c-3.6,7.5-63.2-7.2-63.2-7.2S1083.5,364.4,1118.7,363.7z"/>
		<path class="st6" d="M372.1,568.6c33.7-3,420.4-3.9,485.6-4l-0.4-18.1L372,554.9C372.1,560.2,372.1,564.7,372.1,568.6z"/>
		<path class="st7" d="M1153.6,442.9c0-3.5-5-24.1-5-24.1s-6.5-0.2-25.4-0.7s-22.6-17.8-26.9-26.1c-4.3-8.3,30.2-21.1,34.2-27.1
			s-58.6-11.8-71.9-13.3s-51.5-24.3-101.8-48.9s-113.9-40.8-235-40.8s-154.5,21.7-154.5,21.7h14.5c-95.8,44.5-150.1,81.8-150.1,81.8
			c-10.1,3-41.2-0.6-41.2-0.6C245,379.6,192.7,395,192.7,395s13.3,6.1,10.5,10.1s-43.1,33.2-55.6,44.3
			c-12.6,11.1-29.8,10.4-29.8,10.4c-13.1,6-15.5,16.6-15,23.7c0.5,7,5.8,40.7,6,45.2s-6.8,4-4.5,12.3s22.1,18.1,22.1,18.1l32.6,3.1
			c-2-9.7-7.6-41.9,0.6-62.4c9.7-24.2,34.5-73.4,103.4-73.4c55.7,0,109,36.4,109,113.2c0,5.7,0,10.7,0,15.2l485.3-8.4l-0.2-12.3
			c0,0,14.9-109.3,110.4-104.6c82,4.1,96.7,77.2,87,120.8c18-1.6,62.5-5.3,68.7-5.1c7.8,0.3,11.1-6.3,11.1-6.3
			c43.5-12.6,28.4-26.9,28.4-26.9c9.6-19.1,8.8-31.7,10.1-49.5C1174,444.7,1153.6,442.9,1153.6,442.9z"/>
		<path class="st8" d="M967.5,429.6c-95.5-4.7-110.4,104.6-110.4,104.6l0.6,30.4c6,0,9.3,0,9.3,0c-1.5-20.4-0.8-122,101.3-123.1
			c91.7-1,78.7,109.5,78.7,109.5s2.9-0.3,7.5-0.7C1064.3,506.8,1049.5,433.7,967.5,429.6z"/>
		<path class="st8" d="M263,426.5c-68.9,0-93.7,49.2-103.4,73.4c-8.2,20.4-2.6,52.7-0.6,62.4l6.6,0.6
			c-10.1-55.8,13.3-134.7,107.1-126.9c93.8,7.8,95.5,112.6,95.5,121.2c0,8.5,2,11.8,2,11.8c0.4-0.1,1.1-0.2,2-0.3
			c-0.1-7.1-0.1-16.6-0.1-29C372,462.9,318.7,426.5,263,426.5z"/>
		<path class="st2" d="M448.5,378.9c0,0,125-86.3,143.2-89.5c0,0,82.4-23,149.6-16.6s191.3,16.6,194.9,55.5
			c3.6,39-2.2,31.8-2.2,31.8L448.5,378.9z"/>
		<polygon class="st9" points="707.5,276.5 688.8,370.7 728.8,368.7 735.5,276.5 		"/>
		<ellipse class="st10" cx="262.8" cy="529.6" rx="79.1" ry="79.1"/>
		<path class="st11" d="M203.2,529.6c0,33,26.8,59.8,59.8,59.8s59.8-26.8,59.8-59.8S296,469.8,263,469.8
			C229.9,469.8,203.2,496.6,203.2,529.6z"/>
		<g>
			<path class="st10" d="M242.2,489.5l13.8,15.7c0,0,2.4,3.8,5.7,3.8c3.3,0,5.7-2.6,5.7-2.6l14.5-16.9c0,0,2-2.4,0-4s-9.1-4-18.9-4
				C253.2,481.5,238.7,484.1,242.2,489.5z"/>
			<path class="st10" d="M242.2,569.7L256,554c0,0,2.4-3.8,5.7-3.8c3.3,0,5.7,2.6,5.7,2.6l14.5,16.9c0,0,2,2.4,0,4s-9.1,4-18.9,4
				C253.2,577.7,238.7,575.1,242.2,569.7z"/>
			<path class="st10" d="M303.5,509.6l-15.7,13.8c0,0-3.8,2.4-3.8,5.7s2.6,5.7,2.6,5.7l16.9,14.5c0,0,2.4,2,4,0s4-9.1,4-18.9
				C311.6,520.5,308.9,506.1,303.5,509.6z"/>
			<path class="st10" d="M223.4,509.6l15.7,13.8c0,0,3.8,2.4,3.8,5.7s-2.6,5.7-2.6,5.7l-16.9,14.5c0,0-2.4,2-4,0s-4-9.1-4-18.9
				C215.3,520.5,218,506.1,223.4,509.6z"/>
		</g>
		<g>
			<path class="st10" d="M1037.9,529.6c0,43.7-35.4,79.1-79.1,79.1c-43.7,0-79.1-35.4-79.1-79.1c0-43.7,35.4-79.1,79.1-79.1
				C1002.5,450.4,1037.9,485.9,1037.9,529.6z"/>
			<path class="st11" d="M899.2,529.6c0,33,26.8,59.8,59.8,59.8s59.8-26.8,59.8-59.8S992,469.8,959,469.8S899.2,496.6,899.2,529.6z"
				/>
			<g>
				<path class="st10" d="M938.2,489.5l13.8,15.7c0,0,2.4,3.8,5.7,3.8s5.7-2.6,5.7-2.6l14.5-16.9c0,0,2-2.4,0-4s-9.1-4-18.9-4
					C949.2,481.5,934.7,484.1,938.2,489.5z"/>
				<path class="st10" d="M938.2,569.7L952,554c0,0,2.4-3.8,5.7-3.8s5.7,2.6,5.7,2.6l14.5,16.9c0,0,2,2.4,0,4s-9.1,4-18.9,4
					C949.2,577.7,934.7,575.1,938.2,569.7z"/>
				<path class="st10" d="M999.6,509.6l-15.7,13.8c0,0-3.8,2.4-3.8,5.7s2.6,5.7,2.6,5.7l16.9,14.5c0,0,2.4,2,4,0s4-9.1,4-18.9
					C1007.6,520.5,1005,506.1,999.6,509.6z"/>
				<path class="st10" d="M919.4,509.6l15.7,13.8c0,0,3.8,2.4,3.8,5.7s-2.6,5.7-2.6,5.7l-16.9,14.5c0,0-2.4,2-4,0s-4-9.1-4-18.9
					C911.3,520.5,914,506.1,919.4,509.6z"/>
			</g>
		</g>
		<path class="st12" d="M891.7,293.1c0,0-65.1-24-169.7-21.2c0,0-88-0.6-129.6,13.9c0,0-64.4,24.2-155.1,96.6h10.2h4l4.8-0.5
			l487.3-19.3c-0.2-4.5,0.7-13-0.7-22.9C940.3,319.3,933.1,303.3,891.7,293.1z M929.2,358.3l-220,8.2l-255,11.6
			c24.6-17.2,116.9-78.4,144.4-88.7c32-12,129.9-12.7,140.5-12.1c10.6,0.5,122.2,3.7,172.3,29.6
			C911.3,306.9,943.8,315.2,929.2,358.3z"/>
		<path class="st13" d="M425.5,535.7l-0.1-0.8c-0.1-0.9-8.1-88.1-2.7-114.7c5.4-25.9,9.1-32.3,27.1-45.3l0.9-0.7
			c72.7-52.8,127.1-84.1,157.5-90.3c27.3-5.5,77.8-9.3,125.7-9.3c35.7,0,86.1,2,124.4,11.4c71.7,17.7,80.6,28.3,83.9,48.2
			c3.2,19.1,2.5,84-3.1,96.1l-0.2,0.4l-0.4,0.1c-0.7,0.2-72.9,17.2-79.6,99.4l-0.1,0.8L425.5,535.7z M734,276.4
			c-47.8,0-98.1,3.7-125.3,9.3c-29.7,6.1-85.5,38-156.8,89.9l-0.9,0.7c-17.4,12.7-21.2,18.9-26.4,44.3c-5.2,25,1.8,104.6,2.6,113.4
			l430.3-4.5c6.8-79.4,74.2-98.5,80.4-100c5.2-12.6,5.7-76.5,2.8-94.7c-3.2-19.2-12-29.3-82.6-46.8C820,278.4,769.6,276.4,734,276.4
			z"/>
		<path class="st2" d="M199.1,454.3l-44.8,0.2c0,0-1.8,8.7,8.9,9.3c10.7,0.7,24.9,0.9,24.9,0.9S194.6,457.6,199.1,454.3z"/>
		<path class="st14" d="M872.7,468.4c0.1,3.1-98.6,4.9-220.3,7.2c-121.7,2.3-220.3,4.3-220.4,1.2c-0.1-3.1,98.9-6.4,220.6-8.7
			S872.6,465.3,872.7,468.4z"/>
		<path class="st15" d="M700.7,530.3c-7.3-51.7,7.8-166.6,7.9-167.8l11.6-89.6l1.8,0.2l-11.6,89.6c-0.2,1.2-15.2,115.8-7.9,167.4
			L700.7,530.3z"/>
		<path class="st8" d="M629.7,402.3c0,0-0.5-6.9,11.5-9.9c11.9-3,15.3-3.3,19.3-3.3c3.9,0,28.8,1.7,29,10.8
			c0.2,9.2-18.5,12.2-25.7,12.8C656.5,413.2,629.2,414.1,629.7,402.3z"/>
		<path class="st8" d="M864.7,397c0,0-0.5-6.9,11.5-9.9c11.9-3,15.3-3.3,19.3-3.3c3.9,0,28.8,1.7,29,10.8
			c0.2,9.2-18.5,12.2-25.7,12.8C891.5,407.9,864.2,408.7,864.7,397z"/>
		<path class="st16" d="M679.4,399.3c0,2.2-1.7,4-3.9,4.1l-32.9,0.8c-2.2,0.1-4-1.7-4.1-3.9v-0.9c0-2.2,1.7-4,3.9-4.1l32.9-0.8
			c2.2-0.1,4,1.7,4.1,3.9V399.3z"/>
		<path class="st16" d="M914.4,394c0.1,2.2-1.7,4-3.9,4.1l-32.9,0.8c-2.2,0.1-4-1.7-4.1-3.9v-0.9c0-2.2,1.7-4,3.9-4.1l32.9-0.8
			c2.2-0.1,4,1.7,4.1,3.9V394z"/>
	</g>
</g>
</svg>
