<?xml version="1.0" encoding="utf-8"?>
<!-- Generator: Adobe Illustrator 24.1.2, SVG Export Plug-In . SVG Version: 6.00 Build 0)  -->
<svg version="1.1" id="katman_1" xmlns="http://www.w3.org/2000/svg" xmlns:xlink="http://www.w3.org/1999/xlink" x="0px" y="0px"
	 viewBox="0 0 1280 1024" style="enable-background:new 0 0 1280 1024;" xml:space="preserve">
<style type="text/css">
	.st0{stroke:#3F3F3F;stroke-miterlimit:10;}
	.st1{fill:#E0CD00;stroke:#3F3F3F;stroke-miterlimit:10;}
	.st2{fill:#F2ECA5;stroke:#3F3F3F;stroke-miterlimit:10;}
	.st3{fill:#020202;stroke:#3F3F3F;stroke-miterlimit:10;}
	.st4{fill:#F2ECA5;stroke:#3F3F3F;stroke-width:3;stroke-miterlimit:10;}
	.st5{fill:#EFEFEF;stroke:#3F3F3F;stroke-width:10;stroke-miterlimit:10;}
	.st6{fill:#060405;stroke:#3F3F3F;stroke-miterlimit:10;}
	.st7{fill:#E0E0E0;stroke:#3F3F3F;stroke-miterlimit:10;}
	.st8{fill:#161615;stroke:#3F3F3F;stroke-width:4;stroke-miterlimit:10;}
	.st9{fill:#161615;stroke:#3F3F3F;stroke-width:2;stroke-miterlimit:10;}
	.st10{fill:#D0D866;stroke:#3F3F3F;stroke-miterlimit:10;}
	.st11{fill:#3A3638;stroke:#3F3F3F;stroke-width:1;stroke-miterlimit:9.9999;}
	.st12{fill:#3A3638;stroke:#3F3F3F;stroke-miterlimit:10;}
</style>
<g>
	<g>
		<path class="st0" d="M1081.1,576.6l24.9-0.1c0,0,8.6,17.7-8.3,25.7c-16.8,8-82.6,6.4-82.6,6.4l-111.1,1l-8.7,7l-27,0.1
			l-408.4-17.3l-14.3,16.5l-27.4,2.9l-125.7-11.3c0,0-13.2,14.3-27.5,9.2c-14.3-5.1-15.7-55.2-15.7-55.2l24.9-72.7l72.3-11.3
			l128.5,20L675.5,531l156.4-30.9l99.9-40.1l63.7,3.8l52.6,44.6L1081.1,576.6z"/>
		<path class="st1" d="M211.5,521.2c0,0,20.3-37.8,94.3-43.3C379.9,472.4,211.5,521.2,211.5,521.2z"/>
		<path class="st2" d="M1086.4,446.2c0,0,10.2,15.7,10.3,27.1c0.1,11.4-3,20.6-3.4,20.7s-41-5-41-5l-6.1-24.8L1086.4,446.2z"/>
		<path class="st3" d="M757.4,406c0,0-1.3-9.3-6-8.1c-4.7,1.3-5.6,4.4-6.5,14.4s-15.4,34.7-29.7,40.1s-23.4,6-38.6,6.8
			c-15.3,0.7-147.5-0.5-150.6,4.2c-3.1,4.7,5.4,13.5,6.6,13.4c1.2-0.1,143.2,14.8,143.2,14.8l59.5-12.2l36.9-43.2l-14.5-27.4
			L757.4,406z"/>
		<path class="st4" d="M437.3,472l-5-7.6l2.2-2.6c0,0,125.9-63.5,146.1-69.6c0,0,3.8,6.9-1.1,11.5c-5,4.7-68.3,51.2-74.8,66
			C498.1,484.6,437.3,472,437.3,472z"/>
		<path class="st3" d="M579.4,395.7c0,0-0.8-7.2,2.6-8.6c3.4-1.4,9.2-4.8,12-4.8s13.1,12.1,8.4,18.2c-4.7,6.1-66.2,51.8-79.3,72.7
			c-13.2,20.8-24.1,3.7-24.1,3.7l6.3-6.9c0,0,7.1-16.2,40.7-39.7C579.7,406.7,583.5,401.2,579.4,395.7z"/>
		<path class="st3" d="M807.5,414.1c0,0,2.3-30.7-11-34.3c-13.3-3.5-29.7-7.6-29.7-7.6s2.9,26-3.4,39"/>
		<path class="st3" d="M769.6,412.3c0,1.4-1.2,2.6-2.6,2.6l0,0c-1.4,0-2.6-1.2-2.6-2.6l-0.2-38.5c0-1.4,1.2-2.6,2.6-2.6l0,0
			c1.4,0,2.6,1.2,2.6,2.6L769.6,412.3z"/>
		<path class="st3" d="M220.5,612.3c0,0-29.1-2.2-42.3-8.9c-13.1-6.8-9.1-12.5-6.3-12.5s16.3-0.1,16.3-0.1s11.6-3.4,8.6-19.3
			C194,555.5,223.3,587.2,220.5,612.3z"/>
		<path class="st5" d="M168.6,553.9c0,0,13.1,4,18.2,18c5.1,14,14.2,34.9,28.3,39.1c14.1,4.2,50,5.4,50,5.4s-9.7-121.1,93.3-121.6
			s87.3,120.7,87.3,120.7s421.7,0.4,422.4,0.6c0.7,0.2-26.1-120.7,85.7-127.5s90.1,110.9,90.1,110.9l43.5-10.2c0,0,4.2-18.3,9.4-25
			c5.2-6.7,15.1-29.3,15-42.9c-0.1-13.6,0.8-29.3-9.7-36.6c0,0-3.4-12.8-5.8-15.2L1095,486c0,0-12.8,2.2-19.3-3.5
			s-19.3-13.9-19.6-16.3c-0.3-2.4,32.5-17.8,34.6-20.4s1.9-7.6-1-8.1s-11.4,3.9-24,3.9s-61.6-1.3-81.4-6.9
			c-19.8-5.6-121.7-24.3-142.4-26.1c-20.7-1.8-75.5-6.5-87.1-5.5c0,0-17.1,55.1-53,59.8c-35.9,4.7-148.2,6.3-148.2,6.3l-118.8-4.1
			l-0.2-3.1c0,0-99.8-2.3-136.6,14.3c0,0-7.3,5.3-16.1,6.7c-8.8,1.5-48,20.2-65.1,26.5c-17.1,6.3-40.9,13.8-45.3,27.8
			C166.9,551.3,168.6,553.9,168.6,553.9z"/>
		<path class="st6" d="M561,436.9l5.1-2.3h2.4c0,0,3.9,7.4,2.9,13.9c-1,6.6-2.2,13.1-2.2,13.1h-4.8L561,436.9z"/>
		<path class="st7" d="M525.4,468.1c0,0,8.6-9.2,10-12.3c1.3-3.1-0.4-10.4,5-13.7c5.4-3.3,13.8-8.1,25.7-7.7c0,0,6.2,7.8,1,27.3
			c0,0-10.9,2.8-14.7-0.3c0,0-4.4,7.5-3.4,10.1C550.1,474.1,525.4,470,525.4,468.1z"/>
		<path class="st8" d="M925.7,493.3c-0.1-0.1-11.4-14.7-24.1-34.9c-9.4-14.9-22-12.5-29.5-11c-2.7,0.5-4.7,0.9-5.9,0.4
			c-3.2-1.5-11-13.2-16.2-20.9c-1.7-2.5-3-4.5-3.7-5.4c-2.8-3.7-5-12.6-5.1-13h0.9c0,0.1,2.3,8.9,4.9,12.4c0.7,0.9,2,2.9,3.7,5.5
			c4.8,7.2,12.8,19.2,15.8,20.6c0.9,0.4,2.9,0,5.4-0.4c7.7-1.5,20.6-4,30.4,11.4c12.7,20.2,24.2,35,24.3,35.1L925.7,493.3z"/>
		<path class="st9" d="M1011.8,500.8l-0.7-0.5c8.4-1.4,48-30.1,48.4-30.4l0.7,0.6C1058.7,471.6,1020.5,499.4,1011.8,500.8z"/>
		<path class="st8" d="M288.4,510.1c-1.6,0-3.5-0.7-6-1.6c-2-0.7-4.3-1.6-6.9-2.2c-5.9-1.3-26.2-10.2-27-10.6l1-0.3
			c0.2,0.1,20.5,8.9,26.3,10.3c2.6,0.6,5,1.4,7,2.2c2.5,0.9,4.6,1.6,6,1.5c2.7-0.4,11,0,11.3,0l-1,0.7c-0.1,0-7.5-0.4-10.1-0.1
			C288.8,510.1,288.6,510.1,288.4,510.1z"/>
		<path class="st10" d="M838.1,601.9c0,0-5.5,0.1-15.2,0.4c-9.7,0.2-23.5,0.6-40.1,0.9c-16.6,0.3-36,0.7-56.7,0.9
			c-20.8,0.2-42.9,0.5-65,0.8c-22.1,0.1-44.3,0.3-65,0.4c-20.8,0.1-40.1,0-56.7,0.1c-16.6,0-30.4-0.1-40.1-0.1
			C489.5,605,484,605,484,605s5.5-0.1,15.2-0.4c9.7-0.2,23.5-0.6,40.1-0.9c16.6-0.3,36-0.7,56.7-0.9c20.8-0.2,42.9-0.5,65-0.8
			c22.1-0.1,44.3-0.3,65-0.4c20.8-0.1,40.1,0,56.7-0.1c16.6,0,30.4,0.1,40.1,0.1C832.6,601.8,838.1,601.9,838.1,601.9z"/>
		<path class="st8" d="M577.8,606.6c-30.7,0.2-55.7,0-61-0.8c-13.6-2.2-17.7-20-18.1-21.9c-0.6-1.2-4.1-9.1-12.6-50.1
			c-9.3-44.8,2.4-65.7,2.9-66.6l1.5,0.9c-0.1,0.2-11.9,21.3-2.7,65.4c9.1,43.7,12.3,49.5,12.5,49.7l0.1,0.1v0.2
			c0,0.2,3.8,18.5,16.7,20.6c7.6,1.2,67.7,0.8,102.8,0.5c48.4-0.5,93.6-1.3,95.3-1.5c2.5-0.4,16.3-11.8,27.3-39.1
			c11.1-27.6,36.1-88.2,36.4-88.8l0.1-0.1c0-0.1,3.3-5.5-0.2-15.8c-3.7-11,5.6-53.4,5.9-55.2l1.7,0.4c-0.1,0.4-9.6,43.7-6,54.3
			c3.6,10.6,0.5,16.5,0,17.3c-0.9,2.3-25.4,61.5-36.4,88.7c-11.4,28.4-25.8,39.7-28.7,40.2C714.8,604.8,636.1,606.3,577.8,606.6z"/>
		
			<ellipse transform="matrix(0.7071 -0.7071 0.7071 0.7071 -305.1183 422.8008)" class="st11" cx="357.8" cy="579.7" rx="73.1" ry="73.1"/>
		<path class="st7" d="M302.8,580c0.2,30.5,25,55.1,55.5,54.9c30.5-0.2,55.1-25,54.9-55.5s-25-55.1-55.5-54.9
			C327.2,524.7,302.6,549.5,302.8,580z"/>
		<g>
			<path class="st12" d="M338.6,542.8l12.9,14.5c0,0,2.2,3.5,5.2,3.5s5.2-2.5,5.2-2.5l13.3-15.6c0,0,1.8-2.2,0-3.7
				c-1.9-1.5-8.4-3.7-17.5-3.6C348.7,535.3,335.3,537.8,338.6,542.8z"/>
			<path class="st12" d="M339,616.8l12.7-14.6c0,0,2.2-3.5,5.2-3.5s5.2,2.4,5.2,2.4l13.4,15.5c0,0,1.9,2.2,0,3.7s-8.4,3.8-17.4,3.8
				C349.2,624.2,335.8,621.8,339,616.8z"/>
			<path class="st12" d="M395.3,561l-14.5,12.9c0,0-3.5,2.2-3.5,5.2s2.5,5.2,2.5,5.2l15.6,13.3c0,0,2.2,1.8,3.7,0
				c1.5-1.9,3.7-8.4,3.6-17.5C402.8,571.1,400.3,557.8,395.3,561z"/>
			<path class="st12" d="M321.3,561.4l14.6,12.7c0,0,3.5,2.2,3.5,5.2s-2.4,5.2-2.4,5.2L321.5,598c0,0-2.2,1.9-3.7,0
				s-3.8-8.4-3.8-17.4C313.9,571.6,316.3,558.2,321.3,561.4z"/>
		</g>
		<g>
			<ellipse class="st12" cx="950.2" cy="576.6" rx="73.1" ry="73.1"/>
			<path class="st7" d="M895.2,576.9c0.2,30.5,25,55.1,55.5,54.9c30.5-0.2,55.1-25,54.9-55.5c-0.2-30.5-25-55.1-55.5-54.9
				C919.6,521.5,895,546.4,895.2,576.9z"/>
			<g>
				<path class="st12" d="M931,539.6l12.9,14.5c0,0,2.2,3.5,5.2,3.5s5.2-2.5,5.2-2.5l13.3-15.6c0,0,1.8-2.2,0-3.7
					c-1.9-1.5-8.4-3.7-17.5-3.6C941.1,532.2,927.8,534.7,931,539.6z"/>
				<path class="st12" d="M931.4,613.7l12.7-14.6c0,0,2.2-3.5,5.2-3.5s5.2,2.4,5.2,2.4l13.4,15.5c0,0,1.9,2.2,0,3.7
					s-8.4,3.8-17.4,3.8C941.6,621.1,928.2,618.7,931.4,613.7z"/>
				<path class="st12" d="M987.8,557.9l-14.5,12.9c0,0-3.5,2.2-3.5,5.2s2.5,5.2,2.5,5.2l15.6,13.3c0,0,2.2,1.8,3.7,0
					c1.5-1.9,3.7-8.4,3.6-17.5C995.3,568,992.8,554.6,987.8,557.9z"/>
				<path class="st12" d="M913.7,558.3l14.6,12.7c0,0,3.5,2.2,3.5,5.2s-2.4,5.2-2.4,5.2l-15.5,13.4c0,0-2.2,1.9-3.7,0
					s-3.8-8.4-3.8-17.4C906.4,568.4,908.7,555.1,913.7,558.3z"/>
			</g>
		</g>
	</g>
</g>
</svg>
