<?xml version="1.0" encoding="utf-8"?>
<!-- Generator: Adobe Illustrator 24.1.2, SVG Export Plug-In . SVG Version: 6.00 Build 0)  -->
<svg version="1.1" id="katman_1" xmlns="http://www.w3.org/2000/svg" xmlns:xlink="http://www.w3.org/1999/xlink" x="0px" y="0px"
	 viewBox="0 0 1280 1024" style="enable-background:new 0 0 1280 1024;" xml:space="preserve">
<style type="text/css">
	.st0{fill:#010101;stroke:#3F3F3F;stroke-miterlimit:10;}
	.st1{fill:#C9C9AC;stroke:#3F3F3F;stroke-miterlimit:10;}
	.st2{fill:#F2ECA5;stroke:#3F3F3F;stroke-width:3;stroke-miterlimit:10;}
	.st3{fill:#3A3A3A;stroke:#3F3F3F;stroke-miterlimit:10;}
	.st4{fill:#8C8C8C;stroke:#3F3F3F;stroke-miterlimit:10;}
	.st5{fill:#474436;stroke:#3F3F3F;stroke-miterlimit:10;}
	.st6{fill:#C4C3BF;stroke:#3F3F3F;stroke-miterlimit:10;}
	.st7{fill:#E0CE80;stroke:#3F3F3F;stroke-miterlimit:10;}
	.st8{fill:#DADCB6;stroke:#3F3F3F;stroke-miterlimit:10;}
	.st9{fill:#E0E0E0;stroke:#3F3F3F;stroke-width:10;stroke-miterlimit:10;}
	.st10{fill:#CDCCC9;stroke:#3F3F3F;stroke-miterlimit:10;}
	.st11{fill:#F2ECA5;stroke:#3F3F3F;stroke-miterlimit:10;}
	.st12{fill:#E3E5C9;stroke:#3F3F3F;stroke-miterlimit:10;}
	.st13{fill:#161616;stroke:#3F3F3F;stroke-width:3;stroke-miterlimit:10;}
	.st14{fill:#161616;stroke:#3F3F3F;stroke-width:3;stroke-miterlimit:10.0001;}
	.st15{fill:#FFFFFF;stroke:#3F3F3F;stroke-miterlimit:10;}
	.st16{fill:#1C181A;stroke:#3F3F3F;stroke-miterlimit:10;}
	.st17{fill:#484538;stroke:#3F3F3F;stroke-miterlimit:10;}
	.st18{fill:#EBEAE9;stroke:#3F3F3F;stroke-miterlimit:10;}
	.st19{fill:#5F605D;stroke:#3F3F3F;stroke-miterlimit:10;}
	.st20{fill:#8C8C8C;stroke:#3F3F3F;stroke-width:3;stroke-miterlimit:10;}
	.st21{fill:#CDCCC9;stroke:#3F3F3F;stroke-width:10;stroke-miterlimit:10;}
	.st22{fill:#D5D8AD;stroke:#3F3F3F;stroke-miterlimit:10;}
	.st23{fill:#292B31;stroke:#3F3F3F;stroke-miterlimit:10;}
	.st24{fill:#C9C9C5;stroke:#3F3F3F;stroke-miterlimit:10;}
</style>
<g>
	<g>
		<path class="st0" d="M162.9,598.1c0,0,25.1,19,26.7,17.9c1.6-1.1-1.2-7.7,0-8.9s17.5-5.2,17.5-5.2l167.2,10c0,0,24.3,2.2,28.9,0.2
			s481.2-15.8,481.2-15.8l5.4,5.8c0,0,13.9-4.4,22.5,6.6c8.5,11,204.6-12.1,208.8-6.6c4.1,5.5-11-154.2-11-154.2L710,469.3
			l-462.1-23C247.9,446.3,146.5,521.9,162.9,598.1z"/>
		<path class="st1" d="M577.9,257.6c0,0,19.7-16,43.6-18.2c39.1-3.6,326.8-10.2,407.3,0.5c72.2,9.6-207.4,82.8-207.4,82.8
			L577.9,257.6z"/>
		<path class="st2" d="M369.8,383.4c0,0,173.3-118.1,186.2-120.1c12.8-2,19.2,9.4,19.2,9.4L379.4,399.1L369.8,383.4z"/>
		<path class="st3" d="M397.4,383.3c0,0,99.5-78.7,162.9-118.7l-15,3.3c0,0,25-30.2,220.2-24.1c195.1,6.2,278.1,2,327.8,7.5
			c0,0,7.8-1.5,8.5,16.3c0,0-19.8,9.4-19.2,14.6c0.7,5.2-91.4,90.4-91.4,90.4l-387.7,21.8L397.4,383.3z"/>
		<path class="st4" d="M1160.4,530l2.5-49.8c0,0,13.4,2.1,15.2,11.5c1.8,9.5,12.5,59.8,0,65.5s-0.7,21.2-0.7,21.2l-16.4,19.8
			C1161.1,598.3,1143.6,540.4,1160.4,530z"/>
		<path class="st5" d="M133.1,488c0,0-14,1.8-16.3,21.7s-5,58.9,3.2,81.1c8.2,22.2,14.9,4.3,14.9,4.3L133.1,488z"/>
		<path class="st6" d="M119.3,564.8c0.8,12,0.1,21.7-1.4,21.8s-3.4-9.5-4.2-21.5c-0.8-12-0.1-21.7,1.4-21.8
			C116.7,543.2,118.5,552.8,119.3,564.8z"/>
		<path class="st5" d="M1130.5,352.5c0,0,7.5-3.4,8.7,0c1.3,3.4-3.8,7.2-6.5,7.5C1130.2,360.3,1130.5,352.5,1130.5,352.5z"/>
		<path class="st3" d="M1102.4,263.6c0,0-17.3-5.3-22.5,21.4c-5.1,26.7-3.8,95.4-3.8,95.4l35.8,52.9l35.6,10.7c0,0-3.8-5.8-5.3-22.1
			c0,0-2-2.7-2-8s-8.2-48.7-4.4-49.8C1135.8,364.1,1124.9,309.6,1102.4,263.6z"/>
		<path class="st7" d="M173,414.1c0,0-15.3,7.9-16.9,11.1c-1.6,3.2-14.2,23.8-11.3,44.6c2.9,20.8,30.2,9.4,30.2,9.4l35.2-20.2
			l52.3-51.8C262.5,407.3,187.4,402.7,173,414.1z"/>
		<path class="st7" d="M1098.4,276.4l9.9,20.7c0,0-5.1,6-3.2,14.3c1.8,8.3,12.4,58.2,15.4,63.1c3,4.8,10.8,12.9,11,16.3
			c0.2,3.5,2.8,27.4,2.8,27.4s-32-23.2-35.9-33.8c-3.9-10.6-12-89.3-9.2-96.7C1091.9,280.3,1098.4,276.4,1098.4,276.4z"/>
		<path class="st7" d="M1111.5,308.4c0,0-2.7,2.5-1.1,9c1.6,6.4,10.1,51.1,13.1,54.3c3,3.2,4.1,6,4.8,4.4
			C1129,374.5,1116.4,316.8,1111.5,308.4z"/>
		<path class="st8" d="M1136.5,393.3c0,0-4.4-28.8-2.3-29.9s7.4,12.5,9.3,30.2s1.5,28.1-1,28.5
			C1140.1,422.6,1137.8,403,1136.5,393.3z"/>
		<path class="st9" d="M286.2,454.5c119.1,0,135.9,128.2,135.9,128.2l440.8-4.5c0,0,5.4-130.2,149-130.2
			c99.8,0,127.3,111.1,127.3,111.1l22.1-1.2c-0.5,0-0.8,0-0.8,0c-0.8-1.5,1.1-21.4,2.3-24.8c1.1-3.4,2.3-21,2.3-21s1.1-6.9,0-30.2
			c-1.1-23.3-12.2-29.4-13.4-30.9c-1.1-1.5-6.1-10.3-6.1-10.3s-24.1-19.1-41.6-33.7c-17.6-14.5-19.1-25.2-21-41.2
			s-2.4-84.4-2.4-84.4l-62.9-3c5.3,6.5-26.3,56.9-33.6,69.1S957.4,359,957.4,359l-244,8.4l-278,10.9c0,0-54.2,3.6-67.2,2.1
			s-84,9.2-138.2,16.8c-54.2,7.6-69.9,23.7-69.9,23.7s-11.1,10.3,3.4-1.1c14.5-11.5,68-11.1,74.5-10.7s9.9,5.3,9.9,5.3
			c-8,2.3-51.6,36.3-63.4,43.5c-11.8,7.3-22.5,10.7-31.7,10.7s-8.4-6.3-8.4-6.3c-9.9,14.3-13,8.1-17.9,21.1c-5,13,1.1,89.6,1.1,89.6
			l35.4,1.3C163,574.4,167.1,454.5,286.2,454.5z"/>
		<path class="st10" d="M1170.1,558.7c0,11.5,2.3,20.9,5,20.9c2.8,0,5-9.4,5-20.9s-2.3-20.9-5-20.9
			C1172.3,537.8,1170.1,547.2,1170.1,558.7z"/>
		<path class="st11" d="M493.4,371.2l198.4-7.2l24.2-92H583.4c0,0-88.6,61.9-93.4,70.9C485.1,351.9,493.4,371.2,493.4,371.2z"/>
		<polygon class="st11" points="751,272.9 738,361.4 930.3,355.5 935.5,305.2 921.6,276.4 		"/>
		<path class="st11" d="M935.5,276.4l32.9,74.5c0,0,1.6,3.3,9-5.4c7.4-8.7,32.3-53.2,32.3-53.2s3.5-5.2,0-9.7s-15.2-3.9-15.2-3.9
			L935.5,276.4z"/>
		<path class="st12" d="M356.4,406.4c0,0,6.3,16.3,25.5,15.7c19.2-0.6,32.1-2.1,32.1-2.1s3.3-15.7,4.6-17.7L356.4,406.4z"/>
		<path class="st13" d="M422.5,583c-18.3-55.1-9.1-157.7-8.8-160.9c-0.1-1.7-0.9-22.9,20.1-45.3c21.1-22.6,145.1-112.1,146.4-113
			l0.2-0.2h0.3l314.6,3.9c4,0,97.9-0.6,114,3c5.1,1.1,8.7,3.5,10.6,7.1c3.2,5.9,0.7,12.8,0.6,13.1l-1.7-0.6c0-0.1,2.3-6.4-0.5-11.6
			c-1.7-3.1-4.8-5.1-9.4-6.1c-15.9-3.5-112.7-3-113.7-3l-314.2-4c-6.2,4.5-125.3,90.6-145.8,112.6c-20.8,22.2-19.6,43.8-19.6,44.1
			v0.1v0.1c-0.1,1-9.7,104.9,8.7,160.2L422.5,583z"/>
		
			<rect x="247.8" y="407.4" transform="matrix(0.9974 -7.222564e-02 7.222564e-02 0.9974 -28.6196 25.1394)" class="st14" width="171" height="1.8"/>
		<path class="st15" d="M410.3,409.2h-41.7c0,0-0.9,7.1,8.8,9.9c0,0,31,0,32.9-1.8C412.2,415.5,410.3,409.2,410.3,409.2z"/>
		<path class="st16" d="M491.2,333.6l4.2-3.7h5.6c0,0,3.3,1.5,3.7,18.6c0.3,17.1-1.9,21.4-6.7,22.2
			C493.1,371.6,491.2,333.6,491.2,333.6z"/>
		<path class="st17" d="M460.4,358.2c0,0,4.1,13.2,12,14.1c7.9,1,24.3-0.8,26.6-2c2.3-1.2,2.3-24.5,1-28.6s-22.3-1-22.3-1l-8.7,5.6
			l-2,8.4C466.9,354.7,460.5,355.4,460.4,358.2z"/>
		<path class="st18" d="M468.4,354.1c0,0,0.7,1.5,2.8,0c2.1-1.5,8-5.6,29.6-4.6l-0.7-6.7C500.1,342.8,464.1,338.4,468.4,354.1z"/>
		<path class="st19" d="M465.8,355.4c0,0,0.8-22.5,19.6-24.5c18.7-2,10.8-1,10.8-1s2.8-2.5,3.9,14c0,0-21.9,0-26,1.6
			s-5.9,3.6-5.8,7.7C468.6,357.4,465.8,355.4,465.8,355.4z"/>
		<path class="st13" d="M701.8,581.4c-1.4-5.2-2.5-36-3.2-56.3c-0.2-5.8-0.4-10.8-0.5-14c-0.6-12.9,2.9-98.1,5.4-112.2
			c2.3-13,11-34.4,11.6-35.9l18-96.7l1.8,0.3l-18,96.9v0.1c-0.1,0.2-9.2,22.3-11.6,35.6c-2.3,12.9-6.1,97.1-5.4,111.8
			c0.1,3.1,0.3,8.2,0.5,14c0.6,19,1.7,50.8,3.1,55.9L701.8,581.4z"/>
		<g>
			<path class="st20" d="M422.1,582.7c0,0-16.8-128.2-135.9-128.2S163,574.4,163,574.4l-35.4-1.3c-8.5-0.6-6.8,4.4-6.8,6
				c0,1.5-2.3,4.2-3.8,6.1c-1.5,1.9-4.6-2.3-7.3,12.2c-2.7,14.5,46.6,15.7,46.6,15.7c1.1,2.3,6.1,3.1,6.1,3.1
				c21.4,3.4,27.1,0,27.1,0c-29.4-41.6,15.3-149.3,103.5-136.3c112.6,16.6,103.7,132.4,103.7,132.4h498.5c-2.6-8.7-3.1-20.7-1.3-34
				h-31.1L422.1,582.7z"/>
			<path class="st20" d="M1182,587c-2.7-2.7-3.8-16.4-3.8-16.4s-3.1,11.5-6.1,11.1c-3.1-0.4-5.7-13-6.4-18.7c-0.5-4.2-3-4.9-4.3-5
				l-22.1,1.2c0,0-27.5-111.1-127.3-111.1c-143.6,0-149,130.2-149,130.2h31c6.3-45,40.2-104.5,113.9-97.2
				c124.2,12.4,105.8,127.8,105.8,127.8s38.9-3.4,55.4-6.9C1185.4,598.5,1184.7,589.7,1182,587z"/>
		</g>
		<path class="st13" d="M879.4,579.7l-1.8-0.1c4.8-63.9,47.7-91.5,73.4-108c3.8-2.4,7-4.5,9.7-6.4c17.9-12.8,18.1-49.9,18.2-72.1
			c0-3.6,0-6.7,0.1-9.4c0.6-19.2-15.4-29.2-15.6-29.3l-0.2-0.1l-0.1-0.3l-37.8-84.7l1.7-0.7l37.7,84.4c2.1,1.4,16.8,11.9,16.2,30.7
			c-0.1,2.7-0.1,5.7-0.1,9.3c-0.1,22.5-0.3,60.2-19,73.6c-2.7,2-6,4.1-9.8,6.5C926.5,489.4,884.1,516.7,879.4,579.7z"/>
		<g>
			<path class="st21" d="M403.1,598c0.2,4,3.9,8,8.5,8h465.9c4.6,0,8.3-4,8.5-8H403.1z"/>
		</g>
		<path class="st22" d="M674.1,416.7c0.5,8.1-4.9,14.8-12,15.2l-8.6,0.5c-7.1,0.4-13.3-5.5-13.8-13.6l0,0c-0.5-8.1,4.9-14.8,12-15.2
			l8.6-0.5C667.4,402.7,673.6,408.6,674.1,416.7L674.1,416.7z"/>
		<path class="st20" d="M694.8,416.1c0.1,2.7-1.9,4.9-4.4,4.9l-63.4,2c-2.5,0.1-4.6-2-4.7-4.7l0,0c-0.1-2.7,1.9-4.9,4.4-4.9l63.4-2
			C692.6,411.3,694.7,413.4,694.8,416.1L694.8,416.1z"/>
		<path class="st22" d="M941.3,405.9c0.5,8.1-4.9,14.8-12,15.2l-8.6,0.5c-7.1,0.4-13.3-5.5-13.8-13.6l0,0c-0.5-8.1,4.9-14.8,12-15.2
			l8.6-0.5C934.7,391.8,940.9,397.7,941.3,405.9L941.3,405.9z"/>
		<path class="st20" d="M962.1,405.2c0.1,2.7-1.9,4.9-4.4,4.9l-63.4,2c-2.5,0.1-4.6-2-4.7-4.7l0,0c-0.1-2.7,1.9-4.9,4.4-4.9l63.4-2
			C959.9,400.5,962,402.5,962.1,405.2L962.1,405.2z"/>
		<g>
			<path class="st23" d="M384.6,584.6c0,51.1-41.4,92.4-92.4,92.4c-51.1,0-92.4-41.4-92.4-92.4c0-51.1,41.4-92.4,92.4-92.4
				C343.2,492.1,384.6,533.5,384.6,584.6z"/>
			<path class="st24" d="M222.5,584.6c0,38.6,31.3,69.8,69.8,69.8c38.6,0,69.8-31.3,69.8-69.8c0-38.6-31.3-69.8-69.8-69.8
				S222.5,546,222.5,584.6z"/>
			<g>
				<path class="st17" d="M268.1,537.8l16.2,18.4c0,0,2.8,4.4,6.6,4.4c3.8,0,6.6-3.1,6.6-3.1l16.9-19.7c0,0,2.3-2.8,0-4.7
					s-10.6-4.7-22-4.7C280.9,528.4,264,531.4,268.1,537.8z"/>
				<path class="st17" d="M268.1,631.4l16.2-18.4c0,0,2.8-4.4,6.6-4.4c3.8,0,6.6,3.1,6.6,3.1l16.9,19.7c0,0,2.4,2.8,0,4.7
					c-2.3,1.9-10.6,4.7-22,4.7C280.9,640.8,264,637.7,268.1,631.4z"/>
				<path class="st17" d="M339.7,561.2l-18.4,16.2c0,0-4.4,2.8-4.4,6.6s3.1,6.6,3.1,6.6l19.7,16.9c0,0,2.8,2.4,4.7,0
					c1.9-2.4,4.7-10.6,4.7-22C349.1,574,346.1,557.1,339.7,561.2z"/>
				<path class="st17" d="M246.1,561.2l18.4,16.2c0,0,4.4,2.8,4.4,6.6s-3.1,6.6-3.1,6.6l-19.7,16.9c0,0-2.8,2.4-4.7,0
					s-4.7-10.6-4.7-22C236.7,574,239.8,557.1,246.1,561.2z"/>
			</g>
		</g>
		<g>
			<path class="st23" d="M1091.4,584.6c0,51.1-41.4,92.4-92.4,92.4c-51.1,0-92.4-41.4-92.4-92.4c0-51.1,41.4-92.4,92.4-92.4
				C1050,492.1,1091.4,533.5,1091.4,584.6z"/>
			<path class="st24" d="M929.3,584.6c0,38.6,31.3,69.8,69.8,69.8c38.6,0,69.8-31.3,69.8-69.8c0-38.6-31.3-69.8-69.8-69.8
				C960.6,514.8,929.3,546,929.3,584.6z"/>
			<g>
				<path class="st17" d="M974.9,537.8l16.2,18.4c0,0,2.8,4.4,6.6,4.4s6.6-3.1,6.6-3.1l16.9-19.7c0,0,2.4-2.8,0-4.7
					c-2.3-1.9-10.6-4.7-22-4.7C987.7,528.4,970.8,531.4,974.9,537.8z"/>
				<path class="st17" d="M974.9,631.4l16.2-18.4c0,0,2.8-4.4,6.6-4.4s6.6,3.1,6.6,3.1l16.9,19.7c0,0,2.4,2.8,0,4.7
					c-2.3,1.9-10.6,4.7-22,4.7C987.7,640.8,970.8,637.7,974.9,631.4z"/>
				<path class="st17" d="M1046.6,561.2l-18.4,16.2c0,0-4.4,2.8-4.4,6.6s3.1,6.6,3.1,6.6l19.7,16.9c0,0,2.8,2.4,4.7,0
					c1.9-2.4,4.7-10.6,4.7-22C1056,574,1052.9,557.1,1046.6,561.2z"/>
				<path class="st17" d="M952.9,561.2l18.4,16.2c0,0,4.4,2.8,4.4,6.6s-3.1,6.6-3.1,6.6l-19.7,16.9c0,0-2.8,2.4-4.7,0
					s-4.7-10.6-4.7-22C943.5,574,946.6,557.1,952.9,561.2z"/>
			</g>
		</g>
	</g>
</g>
</svg>
