<?xml version="1.0" encoding="utf-8"?>
<!-- Generator: Adobe Illustrator 24.1.2, SVG Export Plug-In . SVG Version: 6.00 Build 0)  -->
<svg version="1.1" id="katman_1" xmlns="http://www.w3.org/2000/svg" xmlns:xlink="http://www.w3.org/1999/xlink" x="0px" y="0px"
	 viewBox="0 0 1280 1024" style="enable-background:new 0 0 1280 1024;" xml:space="preserve">
<style type="text/css">
	.st0{fill:#CBCDCC;}
	.st1{fill:#FF5963;}
	.st2{fill:#FF331B;}
	.st3{fill:#788D9E;}
	.st4{fill:#E0CD00;}
	.st5{fill:#2C2D32;}
	.st6{fill:#443D0C;}
	.st7{fill:#7A6F1B;}
	.st8{fill:#28272D;}
	.st9{fill:#C1B8BD;}
	.st10{fill:#252428;}
	.st11{fill:#1C1B21;}
	.st12{fill:#27262C;}
	.st13{fill:#C3BFBE;}
</style>
<g>
	<path d="M871.6,634.1l13,7.7c0,0,11.5-6.7,18.2-3.9c6.7,2.9,126.7-0.7,126.7-0.7s24.8,3.3,29.1-11.8
		c4.3-15.1,15.2-120.6-100.8-99.6C841.8,546.9,869.1,612.5,871.6,634.1z"/>
	<path d="M238.1,629.5l23.4,17.8c0,0,17.1-6.5,21.4-5c4.3,1.4,125.3,10.3,125.3,10.3s32.3,3,41.5-5.2
		c9.2-8.2-39.8-145.2-109.7-131.8C270,529.1,238.1,629.5,238.1,629.5z"/>
	<path class="st0" d="M183.9,546.2l-5-14.8c0,0,28-51.9,79.5-46.1C309.8,491.2,183.9,546.2,183.9,546.2z"/>
	<g>
		<path class="st1" d="M1032.3,346.7l58.1,128.2h26.8C1110.8,443.1,1091.1,391.2,1032.3,346.7z"/>
		<path class="st2" d="M1090.4,474.9l12.8,28.2l10.6,1.7c0,0,4.5,0.1,5.2-0.6c1.1-1,2-11.3-1.7-29.3H1090.4z"/>
	</g>
	<path class="st3" d="M334.9,461.8l5.2-9.3c0,0,171.4-113.1,241.1-111.1S353.5,497.4,334.9,461.8z"/>
	<g>
		<path class="st4" d="M1121,581.8c0,0-1.6-7.2-0.6-24.6c-24.1,0-63,0-70.6,0c-11.2,0-24.9-8.8-24.9-16.7s4.2-6.7,4.2-6.7h86.7
			v-29.6l-4.3-0.5c0,0,0.7-17.8-5.9-48.3c-6.5-30.6-35-68.7-51.2-92.5c-16.2-23.8-26.9-21.9-69.5-28.2
			c-42.6-6.3-226.2-9.1-226.2-9.1s-111.5,3.7-163.5,11.2c-52,7.6-105.5,36.3-124.3,46.5c-18.8,10.2-93.1,66.5-93.1,66.5
			c-3.8,2.4-32,0-32,0c-35.9,2.5-112.3,37.5-112.3,37.5c2.3-0.2,13.6,2.3,13.6,2.3c9.1,5.6-5.5,15.1-10.6,19.1
			c-5.1,3.9-31.4,19.1-40.3,22c-8.9,3-17.1,0.8-17.1,0.8c-3.2,3.8-8.2,21.7-8.2,21.7s-7.2,3.5-11.1,10.3l95.1-1.2c0,0,8.9-0.5,8,3.6
			c-0.9,4.2-7.2,16.7-19.2,17.6c-10.1,0.8-66.8,1-83.8,1.1c2.3,5.1,5.4,8.2,5.4,8.2v14.1c-4.2,4.6-3.3,10.8-3.3,10.8
			c4.9,29.5,99.8,29.7,99.8,29.7c-8.3-56.7,8.5-108.9,81.7-108.9c66.1,0,79.9,62.9,82,82.9l460.9-2.1c4.4-29.6,21.4-78,85.8-78.5
			c93-0.8,76.7,94.6,76.7,94.6s48-7.8,64.2-16.5C1129,610.2,1121,581.8,1121,581.8z"/>
		<path class="st5" d="M262.6,565.9c0.9-4.2-8-3.6-8-3.6l-95.1,1.2c-1.4,2.4-2.3,5.1-2.5,8.3c-0.2,4.9,1,9.3,2.6,12.8
			c17-0.1,73.6-0.3,83.8-1.1C255.4,582.5,261.7,570,262.6,565.9z"/>
	</g>
	<g>
		<path class="st6" d="M425.4,626.2c0,10.7,5.7,26.4,5.7,26.4l453.5-10.7c0,0-0.5-8.1,1-19.7l-460.3,2.1
			C425.4,625,425.4,625.7,425.4,626.2z"/>
		<path class="st7" d="M425.3,624.2l460.3-2.1c0.1-0.9,0.3-1.9,0.4-2.8l-460.9,2.1C425.2,622.4,425.3,623.4,425.3,624.2z"/>
	</g>
	<path class="st8" d="M434.3,574.2l429.2-11c0,0,20.1,1.6,25.9-13.6c0,0,2.1-4.2-11-3.9c-13.1,0.3-447.7,15.4-447.7,15.4
		S424.6,567.9,434.3,574.2z"/>
	<path class="st9" d="M713,490.9c0,4.5-25.9,5-57.9,5c-32,0-57.9,0.3-57.9-5c0-5,25.9-5,57.9-5C687.1,485.8,713,486.3,713,490.9z"/>
	<path class="st5" d="M1023,540c0,7.9,15.5,18.2,26.7,18.2c7.6,0,46.5,0,70.6,0c0-2.1,0.1-1.5,0.1-2.4c1.3-19.1-4.7-22.7-4.7-22.7
		h-86.7C1029.1,533.2,1023,532.1,1023,540z"/>
	<path class="st10" d="M376.7,474.9l278.9-16l364.3-14.8c0,0,36.3,0.5,38.8-10.7c2.6-11.2-15.5-57.7-26.4-69
		c-10.9-11.2-8.9-12.3-15.5-14.3c-6.6-2-134.4-10.7-187.5-11.2c-53.1-0.5-217.1-3.6-267.2,13.8C512.1,370,423.7,418.3,376.7,474.9z"
		/>
	<path class="st3" d="M391.5,467.2c0,0,70.4-62.4,92.5-70.3l-7.1,65L391.5,467.2z"/>
	<path class="st3" d="M492.1,390l-5.2,70.6l148.7-8.3L651,345C651,345,552.1,344.6,492.1,390z"/>
	<path class="st3" d="M689.5,345l-5.2,105.2l178.7-6l-15.6-101C847.4,343.1,726.2,339.6,689.5,345z"/>
	<path class="st3" d="M884.8,344.3l14.9,93.7h127.9c0,0,15.6-1.2,20-6.7c4.4-5.4,2.9-18.6-1.7-27.6c-4.6-9-19.6-47.4-31.7-49.5
		C1002.1,352.2,884.8,344.3,884.8,344.3z"/>
	<path class="st11" d="M650.3,620.4c-2.4-17.2,4.3-155.7,4.6-161.6l0-0.1l16.9-129.9l1.5,0.2l-16.9,129.8
		c-0.1,2.7-7,144.3-4.6,161.3L650.3,620.4z"/>
	<path class="st11" d="M871.8,619.7l-1.2-0.9c19.2-26.7,27.8-107.5,28.5-128c0.7-20.9-13.5-40.7-13.6-40.9l-0.1-0.1l0-0.2
		l-15.6-107.9l-7.4-12.3l1.3-0.8l7.5,12.5l15.6,108.1c1.3,1.9,14.5,21.2,13.8,41.7C899.8,511.5,891.2,592.8,871.8,619.7z"/>
	<path class="st11" d="M899.6,487c-0.4,0,0.1-1,0.1-2.3c0-1.3-1.2-2.2-0.2-2.4l205.9-6.3c0,0,0.1,0,0.1,0c1.3,0,2.4,1.1,2.4,2.4
		c0,1.3-1,2.3-2.4,2.4L899.6,487C899.7,487,899.6,487,899.6,487z"/>
	<path class="st11" d="M249.7,496l-0.3-1.4c0.9-0.2,90.5-17.1,127.2-20.4l0.1,1.5C340.1,478.9,250.6,495.9,249.7,496z"/>
	<path class="st6" d="M431.7,482l23.2-30.7c0,0,6.9-20.8,24.3-22.7c17.4-1.8,39.3-1.6,40.6,14.6c1.3,16.3-6.2,18.6-13.3,18.5
		c-7.1-0.2-35.6,3.1-35.6,3.1l2.4,12.8C473.1,477.6,433.7,488.9,431.7,482z"/>
	<g>
		<g>
			<path class="st12" d="M415.8,625.5c0,40.3-32.7,73-73,73c-40.3,0-73-32.7-73-73c0-40.3,32.7-73,73-73
				C383.1,552.5,415.8,585.2,415.8,625.5z"/>
			<path class="st13" d="M287.8,625.5c0,30.5,24.7,55.1,55.1,55.1c30.5,0,55.1-24.7,55.1-55.1c0-30.5-24.7-55.1-55.1-55.1
				C312.5,570.4,287.8,595,287.8,625.5z"/>
			<g>
				<path class="st12" d="M323.8,588.5l12.8,14.5c0,0,2.2,3.5,5.2,3.5c3,0,5.2-2.4,5.2-2.4l13.3-15.5c0,0,1.9-2.2,0-3.7
					c-1.9-1.5-8.4-3.7-17.4-3.7C333.9,581.1,320.6,583.5,323.8,588.5z"/>
				<path class="st12" d="M323.8,662.5l12.8-14.5c0,0,2.2-3.5,5.2-3.5c3,0,5.2,2.4,5.2,2.4l13.3,15.5c0,0,1.9,2.2,0,3.7
					c-1.9,1.5-8.4,3.7-17.4,3.7C333.9,669.9,320.6,667.5,323.8,662.5z"/>
				<path class="st12" d="M380.4,607.1l-14.5,12.8c0,0-3.5,2.2-3.5,5.2c0,3,2.4,5.2,2.4,5.2l15.5,13.3c0,0,2.2,1.9,3.7,0
					c1.5-1.9,3.7-8.4,3.7-17.4C387.8,617.2,385.4,603.8,380.4,607.1z"/>
				<path class="st12" d="M306.5,607.1l14.5,12.8c0,0,3.5,2.2,3.5,5.2c0,3-2.4,5.2-2.4,5.2l-15.5,13.3c0,0-2.2,1.9-3.7,0
					c-1.5-1.9-3.7-8.4-3.7-17.4C299,617.2,301.5,603.8,306.5,607.1z"/>
			</g>
		</g>
	</g>
	<g>
		<g>
			<path class="st12" d="M1039,625.5c0,40.3-32.7,73-73,73c-40.3,0-73-32.7-73-73c0-40.3,32.7-73,73-73
				C1006.3,552.5,1039,585.2,1039,625.5z"/>
			<path class="st13" d="M911,625.5c0,30.5,24.7,55.1,55.1,55.1c30.5,0,55.1-24.7,55.1-55.1c0-30.5-24.7-55.1-55.1-55.1
				C935.7,570.4,911,595,911,625.5z"/>
			<g>
				<path class="st12" d="M947,588.5l12.8,14.5c0,0,2.2,3.5,5.2,3.5c3,0,5.2-2.4,5.2-2.4l13.3-15.5c0,0,1.9-2.2,0-3.7
					c-1.9-1.5-8.4-3.7-17.4-3.7C957.1,581.1,943.8,583.5,947,588.5z"/>
				<path class="st12" d="M947,662.5l12.8-14.5c0,0,2.2-3.5,5.2-3.5c3,0,5.2,2.4,5.2,2.4l13.3,15.5c0,0,1.9,2.2,0,3.7
					c-1.9,1.5-8.4,3.7-17.4,3.7C957.1,669.9,943.8,667.5,947,662.5z"/>
				<path class="st12" d="M1003.6,607.1l-14.5,12.8c0,0-3.5,2.2-3.5,5.2c0,3,2.4,5.2,2.4,5.2l15.5,13.3c0,0,2.2,1.9,3.7,0
					c1.5-1.9,3.7-8.4,3.7-17.4C1011,617.2,1008.6,603.8,1003.6,607.1z"/>
				<path class="st12" d="M929.7,607.1l14.5,12.8c0,0,3.5,2.2,3.5,5.2c0,3-2.4,5.2-2.4,5.2l-15.5,13.3c0,0-2.2,1.9-3.7,0
					c-1.5-1.9-3.7-8.4-3.7-17.4C922.2,617.2,924.7,603.8,929.7,607.1z"/>
			</g>
		</g>
	</g>
</g>
</svg>
