<?xml version="1.0" encoding="UTF-8"?>
<svg width="290px" height="385px" viewBox="0 0 290 385" version="1.1" xmlns="http://www.w3.org/2000/svg" xmlns:xlink="http://www.w3.org/1999/xlink">
    <defs>
        <rect id="path-1" x="0.70078125" y="0.48515625" width="278.0125" height="7.3671875"></rect>
        <rect id="path-3" x="0.5453125" y="0.4734375" width="32.703125" height="1.9765625"></rect>
        <path d="M2.28828125,3.75546875 C1.37634667,3.72603619 0.656592989,2.97057875 0.671311185,2.05828805 C0.686029381,1.14599735 1.42977808,0.414150932 2.3421875,0.414150932 C3.25459692,0.414150932 3.99834562,1.14599735 4.01306382,2.05828805 C4.02778201,2.97057875 3.30802833,3.72603619 2.39609375,3.75546875 L2.28828125,3.75546875 M0.365625,1.95859375 C0.272861477,2.78112313 0.688678432,3.57762212 1.41658671,3.97171499 C2.14449499,4.36580786 3.03875887,4.27859262 3.67680503,3.75128174 C4.31485119,3.22397087 4.56893534,2.36213816 4.31899317,1.57303197 C4.06905099,0.783925793 3.36512383,0.225534407 2.53984375,0.16171875 L2.39609375,0.16171875 C1.35992799,0.154841482 0.484809713,0.929282438 0.365625,1.95859375" id="path-5"></path>
        <rect id="path-7" x="0.13203125" y="0.00625" width="46.4132812" height="1.9765625"></rect>
        <path d="M81.79375,14.878125 C58.003125,22.9820313 0.80859375,55.2898438 0.80859375,55.2898438 L17.96875,162.257813 C69.6289062,166.821875 120.103125,160.730469 120.103125,160.730469 C122.416637,160.734078 124.420587,159.126432 124.91875,156.867188 C127.470313,145.295313 135.017188,111.172656 137.748438,100.714844 C141.036719,88.1367188 145.852344,63.25 145.852344,63.25 C154.836719,27.5820313 159.939844,9.775 161.251562,3.10859375 C161.394715,2.37599701 161.207526,1.61755364 160.739955,1.03568763 C160.272384,0.453821614 159.572018,0.107752387 158.825781,0.08984375 C157.028906,0.08984375 155.339844,0.08984375 153.632812,0.08984375 C123.48125,0.08984375 103.661719,7.49296875 81.7578125,14.95" id="path-9"></path>
        <rect id="path-11" x="0.4671875" y="0.221875" width="32.990625" height="107.309375"></rect>
        <path d="M0.484968804,7.984375 L0.484968804,9.33203125 C0.484968804,14.0289357 4.28748099,17.8393097 8.984375,17.8492231 L15.453125,17.8492231 C19.6460578,17.8526314 23.587242,15.8486395 26.0546875,12.4585937 C27.0835525,11.0829797 27.3766152,9.29193033 26.8398409,7.66013662 C26.3030667,6.0283429 25.0039645,4.76103199 23.359375,4.26484375 L10.6195313,0.4375 C9.88362533,0.224606676 9.12154856,0.115738566 8.35546875,0.1140625 C6.26372783,0.0995862631 4.25346107,0.924128095 2.77434146,2.40324771 C1.29522185,3.88236732 0.470680013,5.89263408 0.484968804,7.984375" id="path-13"></path>
        <rect id="path-15" x="0.575" y="0.62890625" width="31.2835938" height="18.4539062"></rect>
        <path d="M23.7429688,0.14375 L1.96484375,1.13203125 C1.18772672,1.17082934 0.586672063,1.82798243 0.6171875,2.60546875 L0.6171875,2.78515625 C0.631116092,3.16022888 0.794899955,3.51404363 1.07185711,3.7673581 C1.34881426,4.02067257 1.71580105,4.15231879 2.090625,4.1328125 L23.86875,3.1265625 C24.2438226,3.11263391 24.5976374,2.94885004 24.8509519,2.67189289 C25.1042663,2.39493574 25.2359125,2.02794895 25.2164063,1.653125 L25.2164063,1.49140625 C25.1968019,0.734303076 24.5721335,0.13366042 23.8148438,0.14375 L23.8148438,0.14375" id="path-17"></path>
        <rect id="path-19" x="0.45546875" y="0.59921875" width="18.25625" height="10.8890625"></rect>
        <path d="M22.8382812,1.99453125 C10.2601562,16.81875 0.80859375,54.2117188 0.80859375,54.2117188 C0.80859375,54.2117188 48.1921875,52.9 97.9296875,52.9 C147.667187,52.9 195.050781,54.2117188 195.050781,54.2117188 C195.050781,54.2117188 185.599219,16.81875 173.021094,1.99453125 C173.021094,1.99453125 121.576563,0.7546875 97.9296875,0.7546875 C74.2828125,0.7546875 22.8382813,1.99453125 22.8382813,1.99453125" id="path-21"></path>
        <rect id="path-23" x="0.59296875" y="0.215625" width="122.816406" height="81.075"></rect>
    </defs>
    <g id="White-Car-Desktop-Cropped-Left" stroke="none" stroke-width="1" fill="none" fill-rule="evenodd">
        <g id="New-Hero_TrueCar_Find_Your_Next_Used_Car_Small_Final-copy-2" transform="translate(-285.000000, 0.000000)">
            <g id="Group" opacity="0.2" transform="translate(116.796875, 319.843750)">
                <g id="Clipped">
                    <mask id="mask-2" fill="white">
                        <use xlink:href="#path-1"></use>
                    </mask>
                    <g id="Rectangle"></g>
                    <path d="M5.98359375,3.090625 L199.165625,0.48515625 C200.9625,0.48515625 202.759375,0.48515625 204.55625,0.66484375 L277.347656,5.0671875 C278.055844,5.14776187 278.590778,5.74700891 278.590778,6.45976562 C278.590778,7.17252234 278.055844,7.77176938 277.347656,7.85234375 L62.890625,7.85234375 C60.6085938,7.85234375 58.3265625,7.7625 56.0265625,7.60078125 L1.13203125,7.60078125 C-0.66484375,7.475 4.240625,3.1625 6.0375,3.1625" id="Path" fill="#1A1919" fill-rule="nonzero" mask="url(#mask-2)"></path>
                </g>
            </g>
            <path d="M400.846875,125.296094 C401.051006,124.834032 401.207543,124.35238 401.314063,123.858594 C399.690554,122.136443 397.962267,120.516173 396.139063,119.007031 C395.387122,118.452746 394.580293,117.977079 393.73125,117.5875 C393.644328,117.527599 393.546736,117.484902 393.44375,117.461719 C391.240798,116.890701 389.001497,116.470456 386.741406,116.203906 L386.292188,116.347656 C385.016406,116.778906 381.674219,118.036719 381.063281,118.270313 C380.988176,118.307054 380.930217,118.371453 380.901563,118.45 C380.761824,118.687709 380.798635,118.98956 380.991406,119.186719 C381.173629,119.421828 381.449062,119.566102 381.746094,119.582031 L380.146875,120.4625 C380.001317,120.591524 379.911197,120.771765 379.895312,120.965625 C379.895312,121.360938 380.200781,121.989844 381.458594,121.720313 C383.044664,121.222164 384.569627,120.547082 386.004687,119.707812 C386.067813,119.680845 386.139218,119.680845 386.202344,119.707812 C386.507812,119.707812 386.759375,119.707812 387.190625,119.707812 C385.717188,120.264844 385.609375,120.31875 385.267969,120.60625 C384.926563,120.89375 382.878125,123.283594 382.878125,123.283594 L381.782031,124.469531 C381.588796,124.640049 381.501645,124.900973 381.553613,125.153392 C381.605582,125.405811 381.788716,125.611088 382.033594,125.691406 C382.326729,125.755182 382.631081,125.651426 382.824219,125.421875 L383.129687,125.170312 C382.843439,125.409364 382.774723,125.821658 382.967969,126.140625 C382.99611,126.205131 383.059319,126.247271 383.129687,126.248437 C383.632812,126.248437 385.303906,126.392187 386.148437,126.482031 C387.639844,126.625781 389.742187,126.482031 390.85625,126.64375 C391.460274,126.721227 392.059997,126.829177 392.653125,126.967188 C392.653125,126.967188 393.407812,127.110938 394.647656,127.290625 L396.767969,127.811719 C398.007812,127.811719 399.175781,127.50625 400.828906,125.314063 M387.675781,124.307813 C386.321293,124.200394 384.95849,124.33424 383.650781,124.703125 L384.189844,124.271875 C384.863063,123.804846 385.505295,123.294661 386.1125,122.744531 C386.349241,122.448468 386.703918,122.27113 387.082812,122.259375 C387.496094,122.259375 388.376562,121.9 389.005469,121.846094 C389.617898,121.750443 390.244931,121.844498 390.802344,122.115625 C391,122.349219 391.125781,122.33125 390.407031,123.625 C390.029687,124.271875 388.466406,124.253906 387.747656,124.307813" id="Shape" fill="#FABE78" fill-rule="nonzero"></path>
            <path d="M381.710156,119.689844 C381.710156,119.689844 381.710156,119.689844 381.710156,119.689844 C381.710156,119.689844 381.710156,119.689844 381.710156,119.689844 L385.627344,117.605469 C386.157217,117.256348 386.795063,117.109643 387.424219,117.192188 L389.670313,117.353906 C390.272778,117.356658 390.873912,117.41076 391.467188,117.515625 C391.467188,117.515625 391.467188,117.515625 391.467188,117.605469 C391.341406,117.605469 390.460938,117.605469 389.670313,117.461719 L387.40625,117.3 L387.100781,117.3 C386.606679,117.304273 386.122733,117.44077 385.699219,117.695312 L381.782031,119.797656 L381.710156,119.689844 Z" id="Path" fill="#000000" fill-rule="nonzero"></path>
            <path d="M387.190625,119.779687 C387.190625,119.779687 387.190625,119.779687 387.190625,119.779687 L388.340625,119.348437 C389.238324,119.018042 390.164668,118.771417 391.107812,118.611719 L391.107812,118.611719 C391.107812,118.611719 391.107812,118.611719 391.107812,118.611719 L391.107812,118.611719 C390.189438,118.769073 389.287283,119.009648 388.4125,119.330469 L387.2625,119.74375 L387.190625,119.779687 Z" id="Path" fill="#000000" fill-rule="nonzero"></path>
            <path d="M422.822656,156.54375 L399.660937,130.8125 C400.347833,128.465676 400.811096,126.059115 401.044531,123.625 L436.640625,151.171094" id="Path" fill="#FABE78" fill-rule="nonzero"></path>
            <g id="Group" opacity="0.2" transform="translate(532.875000, 326.234375)">
                <g id="Clipped">
                    <mask id="mask-4" fill="white">
                        <use xlink:href="#path-3"></use>
                    </mask>
                    <g id="Rectangle"></g>
                    <path d="M32.3140625,2.45 L1.4796875,2.45 C1.23187584,2.45 0.994213905,2.3515572 0.818984601,2.1763279 C0.643755298,2.0010986 0.5453125,1.76343666 0.5453125,1.515625 L0.5453125,1.4078125 C0.5453125,1.16000084 0.643755298,0.922338905 0.818984601,0.747109601 C0.994213905,0.571880298 1.23187584,0.4734375 1.4796875,0.4734375 L32.3140625,0.4734375 C32.8301036,0.4734375 33.2484375,0.891771437 33.2484375,1.4078125 L33.2484375,1.515625 C33.2484375,1.76343666 33.1499947,2.0010986 32.9747654,2.1763279 C32.7995361,2.3515572 32.5618742,2.45 32.3140625,2.45" id="Path" fill="#1A1919" fill-rule="nonzero" mask="url(#mask-4)"></path>
                </g>
            </g>
            <polygon id="Path" fill="#1A1919" fill-rule="nonzero" points="542.620313 291.147656 548.460156 298.85625 545.495312 302.503906 543.177344 304.875781 541.057031 305.989844 535.935938 298.065625"></polygon>
            <path d="M384.189844,128.135156 C383.074597,128.058328 382.231232,127.094482 382.303125,125.978906 C382.434404,124.896899 383.389975,124.10717 384.477344,124.182031 C385.232713,124.188953 385.921797,124.614637 386.266072,125.287025 C386.610347,125.959413 386.552895,126.767338 386.116937,127.384242 C385.680978,128.001147 384.938592,128.325037 384.189844,128.225 M384.441406,124.63125 C383.589985,124.644192 382.891015,125.308393 382.834685,126.158047 C382.778354,127.007701 383.383521,127.758363 384.225781,127.883594 C385.077202,127.870651 385.776172,127.206451 385.832503,126.356797 C385.888833,125.507143 385.283666,124.756481 384.441406,124.63125" id="Shape" fill="#1A1919" fill-rule="nonzero"></path>
            <g id="Clipped" transform="translate(381.937500, 123.984375)">
                <mask id="mask-6" fill="white">
                    <use xlink:href="#path-5"></use>
                </mask>
                <g id="Shape"></g>
                <path d="M2.59375,0.8625 C2.45196807,0.51710908 2.45196807,0.12976592 2.59375,-0.215625 L1.64140625,-0.215625 L1.8390625,1.02421875 L2.59375,0.8625 Z" id="Path" fill="#000000" fill-rule="nonzero" mask="url(#mask-6)"></path>
            </g>
            <path d="M383.560937,131.746875 L383.560937,131.746875 C383.523492,131.743124 383.489693,131.722803 383.468818,131.691491 C383.447943,131.660178 383.442185,131.621164 383.453125,131.585156 C383.707974,130.398988 383.893962,129.199066 384.010156,127.991406 C384.019263,127.919103 384.081034,127.865054 384.153906,127.865621 C384.226209,127.874732 384.280259,127.936503 384.279687,128.009375 C384.174445,129.255113 383.98231,130.491977 383.704687,131.710938 C383.66966,131.752864 383.611574,131.767386 383.560937,131.746875 Z" id="Path" fill="#000000" fill-rule="nonzero"></path>
            <path d="M380.9375,136.5625 L378.439844,143.75 C378.421743,143.788045 378.423892,143.832625 378.445569,143.868753 C378.467245,143.90488 378.505569,143.927755 378.547656,143.929688 C378.925,143.929688 379.93125,143.929688 380.667969,142.582031 L382.572656,137.191406" id="Path" fill="#494949" fill-rule="nonzero"></path>
            <path d="M382.339062,129.572656 L385.789062,130.794531 C386.616953,131.098531 387.048609,132.009805 386.759375,132.842969 L385.429687,136.5625 C385.125688,137.390391 384.214414,137.822046 383.38125,137.532813 L379.93125,136.310937 C379.105758,136.014687 378.672883,135.108856 378.960938,134.280469 L380.290625,130.489062 C380.594625,129.661172 381.505898,129.229516 382.339063,129.51875" id="Path" fill="#1A1919" fill-rule="nonzero"></path>
            <polygon id="Path" fill="#1A1919" fill-rule="nonzero" points="448.032813 302.378125 447.152344 312.009375 442.480469 312.692188 439.192187 312.871875 436.874219 312.278906 438.4375 302.971094"></polygon>
            <path d="M447.853125,317.669531 L448.086719,311.560156 C448.113637,310.953808 447.92948,310.356884 447.565625,309.871094 L447.385938,309.619531 L447.385938,310.553906 C445.921466,311.346278 444.288959,311.777507 442.624219,311.811719 C441.066926,311.744421 439.546985,311.313668 438.185938,310.553906 C437.891716,309.29551 437.028156,308.245952 435.85,307.714844 C433.783594,306.870313 434.053125,310.032813 434.053125,310.032813 L424.35,319.84375 C424.224778,319.929125 424.084561,319.990089 423.936719,320.023438 L412.185156,322.898438 C411.623246,323.04552 411.250554,323.577937 411.304688,324.15625 L411.502344,326.582031 C411.538996,326.993514 411.879926,327.311199 412.292969,327.31875 L447.583594,327.480469 C448.030168,327.480469 448.392188,327.118449 448.392188,326.671875 L448.392188,325.234375 L447.853125,317.669531 Z" id="Path" fill="#01ACED" fill-rule="nonzero"></path>
            <path d="M447.583594,327.444531 L412.292969,327.282812 C411.879926,327.275261 411.538996,326.957576 411.502344,326.546094 L411.484375,325.234375 L448.482031,325.234375 L448.482031,326.689844 C448.472261,327.129385 448.113087,327.480577 447.673438,327.480469" id="Path" fill="#1A1919" fill-rule="nonzero"></path>
            <polygon id="Path" fill="#1A1919" fill-rule="nonzero" points="541.416406 289.817969 547.382031 297.257031 545.926562 301.605469 543.80625 301.821094 541.991406 301.767187 536.295312 295.154687"></polygon>
            <path d="M552.934375,299.970313 L547.759375,296.178906 C547.433034,295.938817 547.031266,295.824026 546.627344,295.855469 L546.25,295.855469 L546.68125,296.448438 C546.762387,297.141148 546.55438,297.836669 546.10625,298.371094 C545.459375,299.2875 542.5125,302.342188 542.5125,302.342188 C541.296461,302.395057 540.090578,302.587998 538.91875,302.917188 C536.780469,303.582031 539.853125,305.432813 539.853125,305.432813 L540.679688,321.227344 C540.671338,321.428265 540.544149,321.604916 540.35625,321.676563 L534.426562,323.760938 C533.571041,324.053901 533.023442,324.890101 533.096875,325.791406 L533.276562,327.857813 C533.295613,328.181113 533.563639,328.433458 533.8875,328.432812 L545.998437,328.432812 C546.222047,328.442936 546.434185,328.333446 546.555469,328.145312 L560.930469,305.522656 C561.147146,305.188902 561.059637,304.743401 560.732812,304.516406 L559.457031,303.653906 L552.934375,299.970313 Z" id="Path" fill="#01ACED" fill-rule="nonzero"></path>
            <path d="M560.966406,305.594531 L546.591406,328.199219 C546.47196,328.391484 546.260708,328.507333 546.034375,328.504732 L533.923437,328.504732 C533.599576,328.505248 533.33155,328.252988 533.3125,327.929688 L533.186719,326.420313 L544.614844,326.420313 C544.962241,326.41807 545.28568,326.242874 545.477344,325.953125 L559.492969,303.671875 L560.76875,304.534375 C561.095574,304.76137 561.183083,305.206871 560.966406,305.540625" id="Path" fill="#1A1919" fill-rule="nonzero"></path>
            <path d="M465.714063,163.515625 L464.45625,180.172656 L442.767969,237.888281 L436.640625,304.067188 L437.772656,304.929688 C440.674484,306.32952 443.939272,306.794124 447.116406,306.259375 C448.414719,305.963179 449.670471,305.504347 450.853906,304.89375 L466.432812,237.780469 L496.692187,182.903906 L496.063281,162.096094 L465.714063,163.515625 Z" id="Path" fill="#E5E5E5" fill-rule="nonzero"></path>
            <path d="M463.216406,157.801562 C463.216406,153.866406 466.271094,144.882031 465.157031,132.825 C463.036719,109.914844 470.907031,98.684375 470.907031,98.684375 C476.675,100.678906 483.485156,95.090625 483.485156,95.090625 L486.917188,96.7976562 C494.464063,101.4875 505.460938,113.508594 504.508594,122.33125 L498.003906,154.082031 L499.441406,157.819531 C500.267969,159.99375 500.699219,163.210156 498.542969,164.072656 L498.542969,162.886719 L491.930469,165.078906 C484.563281,166.875781 471.5,169.876562 466.522656,166.875781 C461.545313,163.875 463.198438,157.891406 463.198438,157.891406" id="Path" fill="#1A1919" fill-rule="nonzero"></path>
            <path d="M475.902344,202.777344 L493.709375,252.227344 L535.199219,299.754687 C535.345019,299.93151 535.600552,299.970227 535.792188,299.844531 L539.385938,297.634375 C541.801462,295.997521 543.926991,293.969159 545.675,291.632812 L546.232031,290.896094 L512.091406,239.038281 L503.4125,193.739062 L500.573438,179.220313 L496.332813,168.223437 L475.902344,202.777344 Z" id="Path" fill="#E5E5E5" fill-rule="nonzero"></path>
            <path d="M487.510156,133.184375 L491.427344,144.666406 C501.022656,145.600781 524.130469,138.664844 524.130469,138.664844 L509.198437,111.873438 C507.925084,109.77293 506.437732,107.809866 504.760156,106.015625 C502.867752,104.259303 500.716254,102.804768 498.38125,101.703125 C494.607812,99.7265625 483.898438,95.2523438 483.898438,95.2523438" id="Path" fill="#1A1919" fill-rule="nonzero"></path>
            <polygon id="Path" fill="#FABE78" fill-rule="nonzero" points="444.169531 150.092969 449.829688 143.103125 465.390625 124.020313 445.499219 126.014844 432.058594 151.171094 439.138281 151.045313"></polygon>
            <path d="M444.349219,127.578125 C444.287459,127.677093 444.287459,127.802595 444.349219,127.901562 C447.70849,133.013237 452.718852,136.818575 458.544531,138.682812 C458.885938,138.485156 484.671094,128.135156 484.671094,128.135156 L470.907031,98.6484375 L464.869531,101.074219 C462.555515,101.903254 460.398689,103.118367 458.490625,104.667969 C456.755231,106.534248 455.185998,108.548397 453.800781,110.6875 L444.349219,127.578125 Z" id="Path" fill="#1A1919" fill-rule="nonzero"></path>
            <path d="M484.114062,88.046875 L484.904687,96.0070312 C484.780846,96.4425449 484.612238,96.8640638 484.401563,97.2648437 C483.451322,99.0997467 481.829057,100.496697 479.873438,101.164062 C472.865625,103.697656 469.972656,99.0617188 469.972656,99.0617188 C470.054532,96.2549309 469.952491,93.4457939 469.667188,90.6523438 L484.114062,88.046875 Z" id="Path" fill="#FABE78" fill-rule="nonzero"></path>
            <path d="M471.194531,93.86875 L484.4375,91.2632812 L484.707031,94.2101562 C484.707031,94.2101562 476.441406,99.4929687 471.194531,93.86875" id="Path" fill="#1A1919" fill-rule="nonzero"></path>
            <path d="M465.480469,84.0398438 C463.198438,84.3632812 462.3,82.153125 462.425781,79.49375 C462.454888,78.6776613 463.030626,77.9838223 463.827344,77.8046875 L465.444531,77.5710938 L465.480469,84.0398438 Z" id="Path" fill="#F9B775" fill-rule="nonzero"></path>
            <path d="M487.74375,82.8 C490.04375,82.8 490.61875,80.4820312 490.097656,77.8585937 C489.945142,77.0590994 489.274282,76.46196 488.4625,76.403125 L486.827344,76.403125 L487.74375,82.8 Z" id="Path" fill="#F9B775" fill-rule="nonzero"></path>
            <path d="M487.366406,76.1875 C487.801626,79.6297875 487.801626,83.1131812 487.366406,86.5554687 C486.485938,91.2992187 484.114063,92.790625 484.114063,92.790625 C482.07128,94.1379881 479.724091,94.9533275 477.285937,95.1625 C465.139063,96.959375 464.546094,79.7453125 464.546094,79.4398437 L464.132812,69.7726562 L482.748438,65.7117187 L487.096875,68.8023437 L487.366406,76.1875 Z" id="Path" fill="#FABE78" fill-rule="nonzero"></path>
            <path d="M465.139063,80.5359375 C465.139063,80.3921875 465.139063,80.2484375 465.139063,80.1046875 L465.013281,73.5640625 C464.961911,72.3913852 465.695765,71.3272971 466.810156,70.9585938 C467.388999,70.739064 468.028188,70.739064 468.607031,70.9585938 L470.008594,71.5695313 C471.917797,72.3924533 473.986508,72.7791858 476.064063,72.7015625 C478.14012,72.6125166 480.170953,72.0664619 482.011719,71.1023438 L483.341406,70.4015625 C483.521541,70.2978761 483.714996,70.2192849 483.916406,70.1679688 C484.657769,70.0177281 485.427484,70.2066023 486.015094,70.6829486 C486.602704,71.1592948 486.946736,71.8732816 486.953125,72.6296875 L487.420313,79.20625 C487.429259,79.3498608 487.429259,79.4938892 487.420313,79.6375 L487.653906,83.51875 L487.779688,83.51875 C488.696094,83.51875 488.678125,83.0335937 488.821875,82.1351562 C488.830821,81.9915454 488.830821,81.8475171 488.821875,81.7039063 L489.073438,77.0140625 C489.75737,75.0472781 490.280187,73.0281203 490.636719,70.9765625 C492.002344,63.96875 486.953125,63.4476563 486.953125,63.4476563 C483.359375,60.1953125 479.460156,57.5898438 474.141406,57.7875 C468.822656,57.9851563 461.383594,60.8421875 460.395313,66.26875 C460.029678,68.7259639 461.225081,71.1525592 463.396094,72.3601562 L463.773438,82.5664062 L463.773438,82.9796875 C463.989063,83.878125 464.45625,84.3453125 465.121094,84.4351562" id="Path" fill="#663225" fill-rule="nonzero"></path>
            <path d="M400.703125,123.247656 C401.226425,123.824432 401.831891,124.320914 402.5,124.721094 C402.5,124.721094 401.727344,131.369531 400.900781,132.160156 C399.42126,130.463455 397.836907,128.861098 396.157031,127.3625 L400.703125,123.247656 Z" id="Path" fill="#FABE78" fill-rule="nonzero"></path>
            <path d="M396.642188,127.79375 C396.642188,127.79375 396.642188,127.79375 396.642188,127.79375 C397.070531,127.742049 397.465971,127.537951 397.75625,127.21875 C397.75625,127.21875 397.75625,127.21875 397.864063,127.21875 C397.883321,127.252107 397.883321,127.293205 397.864063,127.326563 C397.549222,127.680943 397.113549,127.905187 396.642188,127.955469 L396.642188,127.79375 Z" id="Path" fill="#000000" fill-rule="nonzero"></path>
            <path d="M389.023437,121.828125 C388.367565,121.883431 387.721448,122.022316 387.100781,122.241406 C386.727414,122.273839 386.380435,122.447328 386.130469,122.726562 C385.562743,123.265739 384.962671,123.769799 384.333594,124.235937 L382.95,125.403906 C382.727947,125.63604 382.402218,125.737831 382.0875,125.673437 C381.842658,125.571841 381.665024,125.354302 381.614427,125.094091 C381.563831,124.83388 381.647005,124.565629 381.835937,124.379687 L382.932031,123.19375 C382.932031,123.19375 384.908594,120.929687 385.321875,120.588281 C385.735156,120.246875 385.771094,120.246875 387.244531,119.689844 L389.023437,121.828125 Z" id="Path" fill="#FABE78" fill-rule="nonzero"></path>
            <g id="Group" opacity="0.2" transform="translate(412.484375, 326.234375)">
                <g id="Clipped">
                    <mask id="mask-8" fill="white">
                        <use xlink:href="#path-7"></use>
                    </mask>
                    <g id="Rectangle"></g>
                    <path d="M45.6109375,1.9828125 L6.67265625,1.9828125 C4.44566415,1.90024694 2.24246521,1.49471307 0.13203125,0.77890625 L5.37890625,0.4375 C5.37867758,0.235919022 5.53692882,0.0697552206 5.73828125,0.06015625 L45.6109375,0.06015625 C45.8587492,0.06015625 46.0964111,0.158599048 46.2716404,0.333828351 C46.4468697,0.509057655 46.5453125,0.746719592 46.5453125,0.99453125 L46.5453125,1.1203125 C46.5453125,1.63635356 46.1269786,2.0546875 45.6109375,2.0546875" id="Path" fill="#1A1919" fill-rule="nonzero" mask="url(#mask-8)"></path>
                </g>
            </g>
            <path d="M376.571094,327.67814 L384.854688,327.67814 C387.760055,327.682896 390.548061,326.532086 392.604153,324.479364 C394.660246,322.426641 395.815625,319.640528 395.815625,316.735156 L395.815625,245.417188 C395.815625,239.363629 390.908246,234.45625 384.854688,234.45625 L376.571094,234.45625 C370.517535,234.45625 365.610156,239.363629 365.610156,245.417188 L365.610156,316.735156 C365.610156,319.640528 366.765535,322.426641 368.821628,324.479364 C370.877721,326.532086 373.665726,327.682896 376.571094,327.67814" id="Path" fill="#231F20" fill-rule="nonzero"></path>
            <path d="M378.152344,175.680469 C378.152344,175.680469 435.346875,143.336719 459.1375,135.26875 C482.263281,127.398437 503.071094,119.582031 536.1875,120.480469 C536.933737,120.498377 537.634103,120.844447 538.101674,121.426313 C538.569245,122.008179 538.756434,122.766622 538.613281,123.499219 C537.301563,130.165625 532.180469,147.972656 523.214063,183.640625 C523.214063,183.640625 518.398438,208.455469 515.110156,221.105469 C512.378906,231.563281 504.832031,265.685937 502.280469,277.257812 C501.782306,279.517057 499.778356,281.124703 497.464844,281.121094 C497.464844,281.121094 446.990625,287.2125 395.330469,282.648438" id="Path" fill="#FFFFFF" fill-rule="nonzero"></path>
            <g id="Clipped" transform="translate(377.343750, 120.390625)">
                <mask id="mask-10" fill="white">
                    <use xlink:href="#path-9"></use>
                </mask>
                <g id="Path"></g>
                <g id="Group" opacity="0.1" mask="url(#mask-10)">
                    <g transform="translate(-5.390625, 62.093750)" id="Clipped">
                        <g>
                            <mask id="mask-12" fill="white">
                                <use xlink:href="#path-11"></use>
                            </mask>
                            <g id="Rectangle"></g>
                            <path d="M33.35,106.327344 C33.35,106.327344 34.9132813,44.5148438 25.0664063,25.0546875 C15.2195313,5.59453125 0.4671875,0.221875 0.4671875,0.221875 L10.6734375,107.53125 L33.35,106.327344 Z" id="Path" fill="#000000" fill-rule="nonzero" mask="url(#mask-12)"></path>
                        </g>
                    </g>
                </g>
            </g>
            <path d="M419.534375,185.078125 L514.463281,181.484375 C515.306486,181.46654 516.037562,180.896301 516.260156,180.082812 L530.060156,131.567187 C530.165116,131.084373 530.066634,130.579643 529.787873,130.171699 C529.509111,129.763754 529.074669,129.488597 528.586719,129.410938 C484.096094,124.954688 427.65625,155.5375 417.467969,161.467187 C416.531003,162.016677 415.95631,163.02239 415.958587,164.108594 L416.875,175.015625 L418.078906,183.874219 C418.162852,184.56592 418.766521,185.07551 419.4625,185.042188" id="Path" fill="#1A1919" fill-rule="nonzero"></path>
            <path d="M511.839844,195.392187 L490.061719,196.398437 C489.686895,196.417944 489.319908,196.286298 489.042951,196.032983 C488.765994,195.779669 488.60221,195.425854 488.588281,195.050781 L488.588281,194.871094 C488.557766,194.093607 489.15882,193.436454 489.935938,193.397656 L511.714063,192.409375 C512.085905,192.389816 512.450246,192.519027 512.726681,192.768492 C513.003115,193.017958 513.168919,193.36717 513.1875,193.739062 L513.1875,193.91875 C513.207006,194.293574 513.07536,194.660561 512.822046,194.937518 C512.568731,195.214475 512.214916,195.378259 511.839844,195.392187" id="Path" fill="#B7B7B7" fill-rule="nonzero"></path>
            <path d="M385.016406,179.6875 L385.016406,181.053125 C385.016406,183.305609 385.912425,185.465576 387.506856,187.056636 C389.101288,188.647697 391.263146,189.539147 393.515625,189.534408 L399.966406,189.534408 C404.155823,189.543804 408.094139,187.53787 410.55,184.14375 C411.596348,182.774985 411.904041,180.979751 411.373223,179.340668 C410.842404,177.701586 409.540723,176.427549 407.890625,175.932031 L395.16875,172.122656 C392.804114,171.41324 390.243319,171.86264 388.261537,173.334821 C386.279755,174.807002 385.109957,177.128899 385.10625,179.597656" id="Path" fill="#CECECE" fill-rule="nonzero"></path>
            <g id="Clipped" transform="translate(384.531250, 171.703125)">
                <mask id="mask-14" fill="white">
                    <use xlink:href="#path-13"></use>
                </mask>
                <g id="Path"></g>
                <g id="Group" opacity="0.27" mask="url(#mask-14)">
                    <g transform="translate(-1.796875, -4.593750)" id="Clipped">
                        <g>
                            <mask id="mask-16" fill="white">
                                <use xlink:href="#path-15"></use>
                            </mask>
                            <g id="Rectangle"></g>
                            <path d="M29.18125,19.0828125 C29.0263236,15.8770427 26.9445397,13.0847524 23.9164063,12.0210937 C18.5257813,10.0445312 3.6296875,6.63046875 0.55703125,12.65 L2.0484375,0.62890625 L18.2203125,0.8625 L31.76875,5.76796875 L29.18125,19.0828125 Z" id="Path" fill="#FFFFFF" fill-rule="nonzero" mask="url(#mask-16)"></path>
                        </g>
                    </g>
                </g>
            </g>
            <g id="Clipped" transform="translate(487.953125, 192.265625)">
                <mask id="mask-18" fill="white">
                    <use xlink:href="#path-17"></use>
                </mask>
                <g id="Path"></g>
                <g id="Group" opacity="0.27" mask="url(#mask-18)">
                    <g transform="translate(8.984375, -4.390625)" id="Clipped">
                        <g>
                            <mask id="mask-20" fill="white">
                                <use xlink:href="#path-19"></use>
                            </mask>
                            <g id="Rectangle"></g>
                            <path d="M0.63515625,0.6171875 C0.63515625,0.6171875 6.02578125,3.384375 0.4375,11.3984375 L16.1242188,11.0390625 L18.7117188,2.36015625 C18.7117188,2.36015625 0.99453125,0.3296875 0.63515625,0.56328125" id="Path" fill="#1A1919" fill-rule="nonzero" mask="url(#mask-20)"></path>
                        </g>
                    </g>
                </g>
            </g>
            <path d="M277.707031,297.472656 L177.082031,297.472656 L183.982031,308.559375 L202.220313,308.559375 C208.882734,308.553483 215.519812,307.738933 221.985938,306.133594 L221.985938,306.133594 C228.453031,304.53553 235.089948,303.727032 241.751563,303.725781 L313.500781,303.725781 C320.162417,303.726679 326.799377,304.535181 333.266406,306.133594 C339.732532,307.738933 346.369609,308.553483 353.032031,308.559375 L371.270312,308.559375 L378.170313,297.472656 L277.707031,297.472656 Z" id="Path" fill="#100F0F" fill-rule="nonzero"></path>
            <path d="M381.997656,187.252344 C373.552344,157.028906 362.124219,138.916406 355.242187,130.021875 C351.895528,125.70901 346.854917,123.044687 341.40625,122.708594 C327.785937,121.9 299.359375,120.390625 277.617188,120.390625 C255.875,120.390625 227.448437,121.935937 213.864062,122.744531 C208.402589,123.07051 203.346967,125.735844 199.992188,130.057812 C193.110156,139.042187 181.682031,157.010938 173.236719,187.288281 C164.867837,196.396018 160.269392,208.341701 160.369442,220.710156 C160.369442,235.516406 162.473438,267.51875 163.73125,285.271875 C164.20404,292.347958 170.080015,297.846866 177.171875,297.85 L378.0625,297.85 C385.15436,297.846866 391.030335,292.347958 391.503125,285.271875 C392.760937,267.51875 394.864933,235.516406 394.864933,220.710156 C394.964983,208.341701 390.366538,196.396018 381.997656,187.288281 M277.617188,187.701562 C227.879688,187.701562 180.585938,189.03125 180.585938,189.03125 C180.585938,189.03125 190.0375,151.638281 202.615625,136.796094 C202.615625,136.796094 254.060156,135.55625 277.707031,135.55625 C301.353906,135.55625 352.798438,136.796094 352.798438,136.796094 C365.376563,151.638281 374.828125,189.03125 374.828125,189.03125 C374.828125,189.03125 327.444531,187.701562 277.707031,187.701562" id="Shape" fill="#FFFFFF" fill-rule="nonzero"></path>
            <path d="M339.609375,227.358594 L368,215.625 C372.546485,213.742524 377.755868,214.469539 381.613242,217.524847 C385.470615,220.580156 387.371127,225.484672 386.579688,230.341406 L386.417969,231.329688 C385.484885,237.078814 380.726869,241.435372 374.917969,241.859375 C366.598438,242.470313 351.9,242.021094 342.125,241.625781 C338.651478,241.47076 335.75127,238.924853 335.147514,235.500694 C334.543758,232.076535 336.398341,228.692252 339.609375,227.358594" id="Path" fill="#1A1919" fill-rule="nonzero"></path>
            <path d="M347.803159,233.917188 C347.803159,235.83022 346.649758,237.554537 344.881647,238.284933 C343.113537,239.015329 341.079492,238.607706 339.729353,237.252414 C338.379214,235.897122 337.979343,233.861539 338.716469,232.096224 C339.453596,230.330909 341.182294,229.184132 343.095313,229.191372 C344.347022,229.191372 345.547203,229.689863 346.430608,230.576639 C347.314012,231.463416 347.807903,232.665488 347.803159,233.917188" id="Path" fill="#01ACED" fill-rule="nonzero"></path>
            <path d="M361.171875,233.216406 C361.171875,236.193566 358.75841,238.607031 355.78125,238.607031 C352.80409,238.607031 350.390625,236.193566 350.390625,233.216406 C350.390625,230.239246 352.80409,227.825781 355.78125,227.825781 C358.75841,227.825781 361.171875,230.239246 361.171875,233.216406" id="Path" fill="#01ACED" fill-rule="nonzero"></path>
            <path d="M383.345329,227.807813 C383.345329,231.864812 380.900464,235.521992 377.151588,237.072855 C373.402711,238.623718 369.088702,237.762589 366.222544,234.891285 C363.356386,232.019982 362.502997,227.704434 364.060581,223.958346 C365.618166,220.212258 369.279726,217.773979 373.336719,217.781234 C375.994279,217.781234 378.542731,218.838186 380.420224,220.719049 C382.297717,222.599913 383.350084,225.150256 383.345329,227.807813" id="Path" fill="#FFFFFF" fill-rule="nonzero"></path>
            <path d="M277.707031,228.652344 L234.384375,228.652344 C230.911022,228.652344 228.095313,231.468053 228.095313,234.941406 C228.095313,238.41476 230.911022,241.230469 234.384375,241.230469 L321.029688,241.230469 C324.503041,241.230469 327.31875,238.41476 327.31875,234.941406 C327.31875,231.468053 324.503041,228.652344 321.029688,228.652344 L277.707031,228.652344 Z" id="Path" fill="#1A1919" fill-rule="nonzero"></path>
            <path d="M374.594531,263.439833 L180.819531,263.439833 C179.67076,263.437217 178.578198,263.936704 177.828596,264.807209 C177.078995,265.677714 176.747207,266.832312 176.920312,267.967969 L378.49375,267.967969 C378.666856,266.832312 378.335068,265.677714 377.585466,264.807209 C376.835864,263.936704 375.743302,263.437217 374.594531,263.439833" id="Path" fill="#1A1919" fill-rule="nonzero"></path>
            <path d="M197.135156,285.864844 L358.278906,285.864844 C362.280583,285.862103 366.149296,284.428066 369.185938,281.821875 L186.228125,281.821875 C189.266398,284.425294 193.134049,285.858938 197.135156,285.864844" id="Path" fill="#1A1919" fill-rule="nonzero"></path>
            <polygon id="Path" fill="#1A1919" fill-rule="nonzero" points="179.238281 272.190625 182.688281 277.635156 372.707812 277.635156 376.19375 272.190625"></polygon>
            <path d="M377.91875,269.53125 C378.208679,269.071267 378.404143,268.558172 378.49375,268.021875 L176.920312,268.021875 C177.009919,268.558172 177.205384,269.071267 177.495312,269.53125 L179.292187,272.244531 L376.19375,272.244531 L377.91875,269.53125 Z" id="Path" fill="#FFFFFF" fill-rule="nonzero"></path>
            <path d="M183.011719,278.120313 C183.901716,279.501336 184.984839,280.747835 186.228125,281.821875 L369.185938,281.821875 C370.429223,280.747835 371.512346,279.501336 372.402344,278.120313 L372.707812,277.635156 L182.688281,277.635156 L183.011719,278.120313 Z" id="Path" fill="#FFFFFF" fill-rule="nonzero"></path>
            <path d="M277.617188,187.665625 C227.879687,187.665625 180.585938,188.977344 180.585938,188.977344 C180.585938,188.977344 190.0375,151.584375 202.615625,136.760156 C202.615625,136.760156 254.060156,135.520312 277.707031,135.520312 C301.353906,135.520312 352.798438,136.760156 352.798438,136.760156 C365.376563,151.584375 374.828125,188.977344 374.828125,188.977344 C374.828125,188.977344 327.444531,187.665625 277.707031,187.665625" id="Path" fill="#1A1919" fill-rule="nonzero"></path>
            <g id="Clipped" transform="translate(179.687500, 134.765625)">
                <mask id="mask-22" fill="white">
                    <use xlink:href="#path-21"></use>
                </mask>
                <g id="Path"></g>
                <g id="Group" opacity="0.05" mask="url(#mask-22)">
                    <g transform="translate(-14.375000, -16.171875)" id="Clipped">
                        <g>
                            <mask id="mask-24" fill="white">
                                <use xlink:href="#path-23"></use>
                            </mask>
                            <g id="Rectangle"></g>
                            <path d="M53.3132813,81.2726562 C53.3132813,81.2726562 52.2890625,48.515625 84.2554687,49.1445312 C143.157031,50.4742187 104.272656,4.096875 123.391406,4.07890625 L22.640625,0.215625 L5.91171875,36.7820312 L0.52109375,65.8554688 L2.31796875,75.1632813 L53.3132813,81.2726562 Z" id="Path" fill="#FFFFFF" fill-rule="nonzero" mask="url(#mask-24)"></path>
                        </g>
                    </g>
                </g>
            </g>
            <polygon id="Path" fill="#FABE78" fill-rule="nonzero" points="502.154687 124.325781 503.879687 123.103906 502.98125 122.924219 502.208594 123.589063"></polygon>
            <path d="M500.142187,123.786719 L499.53125,128.36875 C499.477588,128.620433 499.539113,128.882932 499.699023,129.084558 C499.858933,129.286183 500.100522,129.405872 500.357812,129.410938 C500.735156,129.410938 501.004687,128.907813 501.1125,128.548438 L502.064844,124.649219 C502.40625,123.625 503.250781,123.625 503.574219,123.373438 L505.191406,121.576563 L503.592187,123.373438 C503.196875,123.714844 503.376562,124.792969 503.394531,125.170313 L503.394531,128.764063 C503.369474,129.038256 503.459937,129.310473 503.644128,129.515129 C503.828318,129.719785 504.089535,129.838324 504.364844,129.842188 L504.364844,129.842188 C504.795228,129.836592 505.155609,129.514549 505.209375,129.0875 L505.425,124.721094 L507.491406,122.061719 L505.892187,124.217969 C505.738237,124.649468 505.688969,125.111361 505.748437,125.565625 L505.748437,127.3625 C505.723164,127.688931 505.888841,128.000558 506.173584,128.162168 C506.458326,128.323779 506.810821,128.30625 507.078125,128.117188 L507.078125,128.117188 C507.299976,127.97418 507.440187,127.733818 507.455469,127.470313 L507.455469,125.673438 C507.449574,125.339495 507.586927,125.019005 507.832812,124.792969 L510.725781,122.1875 L512.289063,121.46875 L515.721094,121.199219 C512.75625,118.755469 512.576563,118.467969 508.892969,118.503906 C507.528368,118.522266 506.166177,118.624281 504.814063,118.809375 C504.122738,118.916354 503.461591,119.167345 502.873438,119.546094 L499.53125,121.630469 C499.299255,121.782446 499.093013,121.97049 498.920313,122.1875 L495.757813,126.014844 C495.575461,126.256317 495.536234,126.576896 495.654983,126.855212 C495.773731,127.133529 496.032306,127.327046 496.332813,127.3625 C496.332813,127.3625 496.566406,127.50625 497.446875,126.805469 L500.124219,123.786719 L504.99375,120.534375" id="Path" fill="#FABE78" fill-rule="nonzero"></path>
            <path d="M505.730469,124.559375 L505.730469,124.559375 L508.282031,121.145313 C508.282031,121.145313 508.282031,121.145313 508.371875,121.145313 C508.461719,121.145313 508.371875,121.145313 508.371875,121.235156 L505.838281,124.649219 L505.730469,124.559375 Z" id="Path" fill="#000000" fill-rule="nonzero"></path>
            <path d="M500.142187,123.858594 C500.142187,123.858594 500.142187,123.858594 500.142187,123.858594 C501.276826,122.570547 502.476294,121.341091 503.735937,120.175 C503.735937,120.175 503.735937,120.175 503.84375,120.175 C501.417969,122.475 500.25,123.76875 500.25,123.76875 L500.142187,123.858594 Z" id="Path" fill="#000000" fill-rule="nonzero"></path>
            <path d="M510.725781,122.313281 L510.725781,122.313281 C510.706522,122.279924 510.706522,122.238826 510.725781,122.205469 C511.225683,121.702903 511.595714,121.086186 511.803906,120.408594 C511.803906,120.408594 511.803906,120.408594 511.89375,120.408594 C511.666346,121.085644 511.284998,121.70072 510.779688,122.205469 L510.725781,122.313281 Z" id="Path" fill="#000000" fill-rule="nonzero"></path>
            <polygon id="Path" fill="#000000" fill-rule="nonzero" points="503.430469 123.625 503.430469 123.625 505.874219 120.390625 503.358594 123.535156"></polygon>
            <rect id="Rectangle" x="0" y="0.9703125" width="575" height="384.53125"></rect>
        </g>
    </g>
</svg>