<?xml version="1.0" encoding="UTF-8"?>
<!DOCTYPE svg PUBLIC "-//W3C//DTD SVG 1.1//EN" "http://www.w3.org/Graphics/SVG/1.1/DTD/svg11.dtd">
<!-- Creator: CorelDRAW 2018 (64-Bit Evaluation Version) -->
<svg xmlns="http://www.w3.org/2000/svg" xml:space="preserve" width="74.8933mm" height="23.891mm" version="1.1" style="shape-rendering:geometricPrecision; text-rendering:geometricPrecision; image-rendering:optimizeQuality; fill-rule:evenodd; clip-rule:evenodd"
viewBox="0 0 1334.04 425.56"
 xmlns:xlink="http://www.w3.org/1999/xlink">
 <defs>
  <style type="text/css">
   <![CDATA[
    .fil2 {fill:#FEFEFE}
    .fil3 {fill:#E0CD00}
    .fil0 {fill:#FEFEFE;fill-rule:nonzero}
    .fil1 {fill:#E0CD00;fill-rule:nonzero}
   ]]>
  </style>
 </defs>
 <g id="Layer_x0020_1">
  <metadata id="CorelCorpID_0Corel-Layer"/>
  <path class="fil0" d="M129.48 349.74l0 70.76 -25.27 0 0 -166.79 25.27 0 0 70.76 85.93 0 0 -70.76 25.27 0 0 166.79 -25.27 0 0 -70.76 -85.93 0zm205.77 -96.03c12.53,0 23.25,4.45 32.15,13.34 8.9,8.9 13.34,19.61 13.34,32.15 0,12.4 -4.38,23.05 -13.14,31.94 1.21,0.94 2.36,1.96 3.44,3.03 9.84,9.84 14.76,21.77 14.76,35.78 0,14.02 -4.92,25.95 -14.76,35.79 -9.84,9.84 -21.77,14.76 -35.79,14.76l-76.02 0 0 -166.79 76.02 0zm-50.74 90.98l0 50.54 50.74 0c7.01,0 12.97,-2.46 17.89,-7.38 4.92,-4.92 7.38,-10.89 7.38,-17.89 0,-7.01 -2.46,-12.97 -7.38,-17.89 -4.92,-4.92 -10.88,-7.38 -17.89,-7.38l-50.74 0zm0 -25.27l50.74 0c5.53,0 10.28,-1.99 14.25,-5.96 3.98,-3.98 5.97,-8.73 5.97,-14.25 0,-5.53 -1.99,-10.28 -5.97,-14.25 -3.98,-3.98 -8.73,-5.96 -14.25,-5.96l-50.74 0 0 40.43zm214.26 -30.93c-6.34,-5.12 -13.28,-8.83 -20.82,-11.12 -7.55,-2.29 -14.69,-3.44 -21.43,-3.44 -9.7,0 -17.52,2.09 -23.45,6.27 -5.93,4.18 -8.9,9.3 -8.9,15.37 0,5.53 1.99,10.35 5.96,14.45 3.98,4.11 9.67,7.25 17.08,9.4l40.03 10.92c11.46,3.51 20.69,9.17 27.7,16.98 7.01,7.82 10.51,17.79 10.51,29.92 0,14.02 -5.93,25.58 -17.79,34.67 -11.86,9.1 -27.63,13.65 -47.31,13.65 -15.9,0 -29.79,-3.2 -41.65,-9.6 -11.86,-6.4 -21.77,-15.2 -29.72,-26.38l20.62 -14.96c7.28,9.44 15.27,16.07 23.96,19.91 8.69,3.84 17.49,5.76 26.38,5.76 12.27,0 22.04,-2.26 29.31,-6.77 7.28,-4.52 10.92,-10.14 10.92,-16.88 0,-5.39 -1.82,-10.01 -5.46,-13.85 -3.64,-3.84 -9.17,-6.77 -16.58,-8.79l-37.4 -10.51c-13.61,-4.18 -23.96,-10.51 -31.03,-19 -7.08,-8.49 -10.61,-18.2 -10.61,-29.11 0,-13.61 5.32,-24.8 15.97,-33.56 10.65,-8.76 24.46,-13.14 41.45,-13.14 10.65,0 21.67,2.06 33.06,6.17 11.39,4.11 21.73,10.21 31.03,18.3l-21.83 15.37z"/>
  <path class="fil1" d="M660.27 359.85c0,16.71 -5.86,31 -17.59,42.86 -11.99,11.86 -27.97,17.79 -47.92,17.79l0 -25.27c13.21,0 23.22,-3.44 30.02,-10.31 6.81,-6.87 10.21,-15.23 10.21,-25.07l0 -106.14 25.27 0 0 106.14zm117.42 10.11l-35.99 -77.03 -35.99 77.03 71.97 0zm11.73 25.27l-95.83 0 -11.73 25.27 -27.9 0 77.84 -166.79 19.41 0 78.24 166.79 -28.3 0 -11.73 -25.27zm64.66 -40.43l38.01 0c10.38,0 19.27,-3.71 26.69,-11.12 7.41,-7.41 11.12,-16.38 11.12,-26.89 0,-10.38 -3.71,-19.27 -11.12,-26.69 -7.41,-7.41 -16.31,-11.12 -26.69,-11.12l-38.01 0 0 75.82zm38.01 -101.09c17.39,0 32.25,6.17 44.58,18.5 12.33,12.33 18.5,27.19 18.5,44.58 0,17.52 -6.17,32.45 -18.5,44.78 -12.33,12.33 -27.19,18.5 -44.58,18.5l-38.01 0 0 40.44 -25.27 0 0 -166.79 63.28 0zm155.23 116.25l-35.99 -77.03 -35.99 77.03 71.97 0zm11.73 25.27l-95.83 0 -11.73 25.27 -27.9 0 77.84 -166.79 19.41 0 78.24 166.79 -28.3 0 -11.73 -25.27zm145.52 -27.9l0 -113.62 25.27 0 0 166.79 -16.58 0 -89.56 -116.65 0 116.65 -25.27 0 0 -166.79 18.8 0 87.34 113.62z"/>
  <path class="fil2" d="M1040.53 56.99c-52.5,-10.02 -104.34,-18.48 -158.03,-26.16 -137.72,-19.71 -300.35,4.53 -408.56,83.81 -15.08,11.05 -22.93,12.21 3.41,12.93 111.9,3.05 325.84,14.01 430.12,-22.23 18.69,-6.5 47.06,-19.13 59.96,-30.07 -8.43,-10.74 -44.96,-16.02 -57.54,-24.72 17.16,0.26 79.33,11.1 90.55,18.13 -13.26,20.3 -45.01,38.11 -54.17,47.69 66.9,-0.04 134.26,-6.15 202.83,-5.3 46.02,0.57 99.9,3.82 144.91,12.26 7.34,1.38 13.87,2.71 21.26,4.65 6.3,1.65 14.07,3.07 18.76,7.01 -69.69,-1.58 -154.6,-15.42 -214.76,40.51 -4.54,4.22 -12.43,14.67 -17.35,18.07 6.07,-38.43 6.4,-24.3 14.13,-48.9 -31.61,0.22 -63.56,4.44 -95.36,5.42 -29.06,0.9 -68.14,1.51 -96.58,4.58 -29.78,3.21 -67.26,3.24 -97.66,4.09 -69.95,1.94 -439.33,5.32 -495.32,-3.77 2.91,7.48 18.31,16.98 25.58,38.47 -18.43,-10.63 -26.3,-20.17 -53.12,-28.24 -62.78,-18.88 -139.55,4.75 -172.69,59.21 9.2,-40.57 17.25,-38.34 24.49,-55.41 -19.06,3.2 -65.78,18.4 -82.22,25.58 -12.83,5.6 -25.36,10.22 -38.26,16.15 -12.32,5.66 -24.21,12.86 -34.94,17.27 22.29,-24.67 78.86,-55.48 117.52,-71.27 75.01,-30.63 165.36,-41.08 248.4,-35.03 24.97,1.82 22.54,2.96 37.78,-8.13 41.45,-30.15 103.78,-64.24 152.43,-82.93 185.11,-71.09 469.53,-4.31 636.95,57.34l-152.55 -30.98z"/>
  <path class="fil3" d="M1073.55 167c-4.71,8.02 -25.09,29.44 -35.6,32.19 -68.65,18.01 -345.84,11.07 -417.36,4.61 -19.34,-1.75 -87.76,-8.5 -104.6,-12.49 -8.85,-2.1 -47.06,-6.76 -54.15,-10.49 -10.45,-5.5 4.35,5.13 -3.58,-2.7 18.7,-0.32 39.09,2.06 56.91,2.71 159.33,5.81 316.78,3.66 475.91,-7.39 25.15,-1.75 58.08,-6.64 82.47,-6.44z"/>
  <path class="fil3" d="M843.72 44.39c-44.7,1.1 -74.99,3.01 -117.15,11.66 -16.49,3.38 -86.73,19.72 -87.14,38.97 11.88,10.2 24.87,6.12 35.19,11.52 -11.66,4.84 -120.83,5.26 -154.65,4.75 3.89,-6.38 23.56,-14.1 32.53,-18.59 54.28,-27.18 134.93,-47.79 196.43,-51.61 9.65,-0.6 84.5,-4.09 94.79,3.3z"/>
 </g>
</svg>
