<?xml version="1.0" encoding="UTF-8"?>
<!DOCTYPE svg PUBLIC "-//W3C//DTD SVG 1.1//EN" "http://www.w3.org/Graphics/SVG/1.1/DTD/svg11.dtd">
<!-- Creator: CorelDRAW 2021 (64-Bit) -->
<svg xmlns="http://www.w3.org/2000/svg" xml:space="preserve" width="77.1544mm" height="14.0189mm" version="1.1" style="shape-rendering:geometricPrecision; text-rendering:geometricPrecision; image-rendering:optimizeQuality; fill-rule:evenodd; clip-rule:evenodd"
viewBox="0 0 3436.92 624.49"
 xmlns:xlink="http://www.w3.org/1999/xlink"
 xmlns:xodm="http://www.corel.com/coreldraw/odm/2003">
 <defs>
  <style type="text/css">
   <![CDATA[
    .fil0 {fill:#727271;fill-rule:nonzero}
    .fil1 {fill:#E95229;fill-rule:nonzero}
    .fil2 {fill:#005C6A;fill-rule:nonzero}
   ]]>
  </style>
 </defs>
 <g id="Layer_x0020_1">
  <metadata id="CorelCorpID_0Corel-Layer"/>
  <path class="fil0" d="M1349.96 572.19l57.37 0 -28.25 -53.29 -29.12 53.29zm-58.62 52.3l74.1 -130.99 29.37 0 75.1 130.99 -34.2 0 -15.75 -28.62 -83.02 0 -15.25 28.62 -30.36 0z"/>
  <polygon class="fil0" points="1562.82,624.49 1562.82,493.49 1593.55,493.49 1593.55,548.15 1666.17,493.49 1710.3,493.49 1623.53,555.21 1720.95,624.49 1672,624.49 1593.55,566.86 1593.55,624.49 "/>
  <path class="fil0" d="M1839.62 572.19l57.38 0 -28.26 -53.29 -29.12 53.29zm-58.61 52.3l74.1 -130.99 29.37 0 75.1 130.99 -34.21 0 -15.73 -28.62 -83.04 0 -15.23 28.62 -30.37 0z"/>
  <path class="fil0" d="M2082.97 599.83l39.41 0c20.98,0 35.85,-3.27 44.62,-9.79 8.75,-6.53 13.13,-17.31 13.13,-32.35 0,-13.37 -3.64,-23.52 -10.91,-30.42 -7.27,-6.9 -18.01,-10.35 -32.22,-10.35l-54.03 0 0 82.9zm-30.49 24.66l0 -130.98 84.27 0c24.04,0 42.52,5.62 55.46,16.85 12.92,11.23 19.39,27.19 19.39,47.85 0,12.22 -2.52,23.23 -7.56,33.02 -5.04,9.79 -12.14,17.5 -21.31,23.11 -5.71,3.56 -12.79,6.13 -21.26,7.74 -8.47,1.61 -19.32,2.41 -32.53,2.41l-76.46 0z"/>
  <polygon class="fil0" points="2318.26,624.49 2318.26,493.49 2452.34,493.49 2452.34,515.8 2348.74,515.8 2348.74,545.04 2409.22,545.04 2409.22,567.35 2348.74,567.35 2348.74,599.83 2453.59,599.83 2453.59,624.49 "/>
  <path class="fil0" d="M2560.36 624.49l0 -130.99 24.66 0 61.72 79.19 60.35 -79.19 24.42 0 0 130.99 -28.26 0 0 -80.93c0,-1.56 0.1,-3.55 0.31,-5.94 0.2,-2.4 0.47,-5.09 0.8,-8.05 -1.65,3.38 -3.1,6.17 -4.34,8.37 -1.23,2.18 -2.36,3.99 -3.34,5.39l-49.2 65.43 -6.08 0 -49.31 -65.67c-1.82,-2.48 -3.37,-4.82 -4.65,-7.01 -1.29,-2.18 -2.33,-4.32 -3.16,-6.37 0.25,2.72 0.43,5.2 0.57,7.43 0.12,2.23 0.17,4.37 0.17,6.43l0 80.93 -24.66 0z"/>
  <polygon class="fil0" points="2846.34,525.83 2876.83,525.83 2876.83,624.48 2846.34,624.48 "/>
  <polygon class="fil0" points="2846.34,493.5 2876.83,493.5 2876.83,517.08 2846.34,517.08 "/>
  <path class="fil1" d="M2472.7 35.09l0 -26.98c0,-4.02 -3.17,-7.27 -7.08,-7.27l-48.18 0c-3.92,0 -7.09,3.25 -7.09,7.27l0 98.68 62.35 -71.7z"/>
  <path class="fil1" d="M1757.81 35.09l0 -26.98c0,-4.02 -3.17,-7.27 -7.08,-7.27l-48.18 0c-3.91,0 -7.08,3.25 -7.08,7.27l0 98.68 62.34 -71.7z"/>
  <path class="fil1" d="M1306.36 35.09l0 -26.98c0,-4.02 -3.18,-7.27 -7.09,-7.27l-48.18 0c-3.91,0 -7.08,3.25 -7.08,7.27l0 98.68 62.35 -71.7z"/>
  <path class="fil2" d="M1068.98 235.25c10.19,0 19.07,-3.11 26.63,-9.36 10.54,-8.72 15.59,-22.46 15.59,-36.13l0 -77.89c0,-13.67 -5.05,-27.41 -15.59,-36.13 -7.56,-6.25 -16.44,-9.36 -26.63,-9.36l-264.47 0c-4.13,0 -7.48,3.35 -7.48,7.48l0 153.91c0,4.13 3.35,7.48 7.48,7.48l264.47 0zm108.01 -42.22c0,14.99 -2.83,29.06 -8.49,42.22 -5.68,13.17 -13.35,24.59 -23.03,34.28 -9.7,9.68 -21.11,17.36 -34.27,23.03 -13.16,5.66 -27.24,8.49 -42.22,8.49l-330.27 0c-4.12,0 -7.47,-3.35 -7.47,-7.47l0 -285.53c0,-4.12 3.34,-7.47 7.46,-7.47l330.28 -0.54c14.99,0 29.06,2.84 42.22,8.5 13.16,5.66 24.58,13.43 34.27,23.3 9.67,9.87 17.35,21.38 23.03,34.54 5.66,13.16 8.49,27.24 8.49,42.22l0 84.43z"/>
  <path class="fil2" d="M2410.34 132.53l0 161.24c0,4.01 3.18,7.27 7.09,7.27l48.18 0c3.91,0 7.08,-3.26 7.08,-7.27l0 -233.03 -62.35 71.79z"/>
  <path class="fil2" d="M1695.46 132.53l0 161.24c0,4.01 3.17,7.27 7.08,7.27l48.18 0c3.91,0 7.08,-3.26 7.08,-7.27l0 -233.03 -62.35 71.79z"/>
  <path class="fil2" d="M1244.01 132.53l0 161.24c0,4.01 3.17,7.27 7.08,7.27l48.18 0c3.92,0 7.09,-3.26 7.09,-7.27l0 -233.03 -62.35 71.79z"/>
  <path class="fil2" d="M1526.1 237.05c9.66,0 18.09,-3.04 25.25,-9.13 9.97,-8.47 14.75,-21.81 14.75,-35.12l0 -185.53c0,-4.01 3.17,-7.27 7.08,-7.27l48.18 0c3.91,0 7.09,3.26 7.09,7.27l0 188.71c0,14.57 -2.69,28.27 -8.05,41.06 -5.38,12.8 -12.65,23.92 -21.83,33.34 -9.18,9.42 -20,16.89 -32.47,22.4 -12.47,5.51 -25.81,8.26 -40.01,8.26l-145.84 0c-3.92,0 -7.1,-3.26 -7.1,-7.27l0 -49.45c0,-4.01 3.18,-7.27 7.1,-7.27l145.84 0z"/>
  <path class="fil2" d="M1831.91 301.72c-3.91,0 -7.08,-3.17 -7.08,-7.08l0 -253.01c0,-9.35 2.6,-17.49 7.79,-24.42 5.2,-6.92 11.51,-11.78 18.97,-14.54 7.43,-2.78 15.4,-3.39 23.89,-1.83 8.49,1.56 15.85,5.98 22.08,13.25l181.16 208.93c2.83,3.25 7.88,3.25 10.71,0l181.17 -208.93c6.23,-7.27 13.59,-11.69 22.07,-13.25 8.49,-1.55 16.45,-0.95 23.91,1.83 7.43,2.76 13.77,7.62 18.96,14.54 5.2,6.93 7.8,15.07 7.8,24.42l0 253.01c0,3.91 -3.17,7.08 -7.09,7.08l-47.66 0c-3.92,0 -7.09,-3.17 -7.09,-7.08l0 -180.51c0,-6.56 -8.14,-9.6 -12.43,-4.64l-153.82 177.38c-4.15,4.85 -9.01,8.49 -14.55,10.91 -5.54,2.41 -11.17,3.63 -16.88,3.63 -5.72,0 -11.26,-1.22 -16.62,-3.63 -5.39,-2.42 -10.14,-6.06 -14.3,-10.91l-153.81 -177.38c-4.29,-4.95 -12.44,-1.92 -12.44,4.64l0 180.51c0,3.91 -3.17,7.08 -7.08,7.08l-47.66 0z"/>
  <path class="fil2" d="M2916.06 0.04c3.91,0 7.08,3.17 7.08,7.08l0 251.17c0,8.66 -2.26,16.19 -6.77,22.6 -4.49,6.41 -10.13,11.26 -16.87,14.54 -6.77,3.29 -14.13,4.68 -22.09,4.15 -7.96,-0.52 -15.25,-3.55 -21.83,-9.09l-242.52 -195.91c-4.64,-3.74 -11.54,-0.44 -11.54,5.52l0 193.86c0,3.92 -3.17,7.09 -7.08,7.09l-47.66 0c-3.91,0 -7.08,-3.17 -7.08,-7.09l0 -250.77c0,-8.66 2.25,-16.29 6.75,-22.86 4.49,-6.58 10.13,-11.44 16.89,-14.55 6.75,-3.12 14.03,-4.42 21.81,-3.89 7.8,0.52 14.99,3.55 21.56,9.09l243.07 195.45c4.64,3.72 11.52,0.42 11.52,-5.53l0 -193.77c0,-3.91 3.17,-7.08 7.09,-7.08l47.66 0z"/>
  <path class="fil2" d="M3328.66 235.78c10.21,0 19.12,-3.13 26.7,-9.4 10.55,-8.74 15.61,-22.5 15.61,-36.19l0 -78.07c0,-13.7 -5.06,-27.46 -15.61,-36.19 -7.57,-6.27 -16.49,-9.41 -26.7,-9.41l-265.08 0c-4.13,0 -7.49,3.36 -7.49,7.5l0 154.26c0,4.13 3.36,7.49 7.49,7.49l265.08 0zm108.26 -42.32c0,15.03 -2.84,29.13 -8.52,42.32 -5.7,13.19 -13.38,24.64 -23.09,34.35 -9.71,9.71 -21.14,17.4 -34.34,23.08 -13.19,5.67 -27.29,8.52 -42.31,8.52l-331.01 0c-4.15,0 -7.51,-3.36 -7.51,-7.49l0 -286.17c0,-4.13 3.35,-7.49 7.49,-7.49l331.02 -0.54c15.02,0 29.12,2.84 42.31,8.52 13.2,5.68 24.63,13.46 34.34,23.36 9.72,9.89 17.4,21.43 23.09,34.62 5.68,13.19 8.52,27.3 8.52,42.31l0 84.62z"/>
  <path class="fil1" d="M370.4 87.37c-0.53,-16.02 -11.89,-30.02 -27.68,-34.71 -13.27,-3.93 -24.56,0.46 -35.72,7.13 -16.34,9.76 -33.01,18.98 -49.39,28.67 -6.82,4.04 -13.35,8.46 -17.97,15.34 -8.47,12.61 -4.73,25.52 5.59,34.49 12.45,10.8 27.42,16.14 43.57,18.61 18.19,2.79 36.12,1.69 53.84,-3.12 9.47,-2.59 18.07,-7.17 26.31,-12.4 0.97,-0.61 1.61,-2.45 1.63,-3.73 0.14,-8.69 0.08,-17.39 0.08,-26.08l-0.22 0c0,-8.06 0.22,-16.14 -0.04,-24.19zm91.62 317.67c-0.64,-11.26 -5.31,-21.15 -16.04,-26.29 -6.4,-3.05 -13.48,-1.97 -20.26,0.12 -14.46,4.46 -25.4,13.95 -35.14,24.89 -14.33,16.11 -23.82,34.91 -28.18,55.99 -1.64,7.91 -1.54,16.21 -1.81,24.35 -0.04,1.33 1.88,3.15 3.32,4.03 6.71,4.07 13.57,7.87 20.36,11.8 7.24,4.18 14.3,8.71 21.71,12.59 23.25,12.14 50.87,-1.12 56.08,-26.79 0.42,-2.04 0.41,-4.17 0.41,-6.26 0.03,-11.83 0.02,-23.66 0.02,-35.5 -0.1,0 -0.2,0 -0.3,0 0,-12.99 0.56,-26 -0.16,-38.94zm-346.61 -48.84c-6.95,-14.26 -16.1,-27.05 -28.13,-37.37 -6.45,-5.55 -14.05,-9.77 -21.23,-14.46 -0.76,-0.49 -2.38,-0.44 -3.2,0.04 -14.92,8.7 -30.01,17.11 -44.54,26.41 -11.81,7.55 -17.34,19.22 -16.83,33.16 0.53,14.09 7.45,24.96 19.43,32.21 14.04,8.5 28.31,16.67 42.64,24.69 8.74,4.89 17.56,9.75 26.77,13.65 8.18,3.46 16.8,3.29 24.68,-1.72 4.5,-2.86 7.09,-7.37 9.12,-12.11 2.69,-6.26 3.47,-12.9 3.15,-19.71 -0.07,-15.95 -4.96,-30.65 -11.86,-44.8zm401.61 -204.13c-16.3,-9.4 -32.63,-18.79 -48.89,-28.28 -13.24,-7.71 -26.14,-7.09 -39.16,0.74 -16.58,9.98 -33.4,19.56 -50.02,29.48 -8.01,4.77 -15.94,9.45 -24.8,12.69 -11.87,4.34 -24.03,6.5 -36.52,7.16 -14.39,0.77 -28.72,0.05 -42.73,-3.49 -15.81,-4 -30.62,-10.19 -42.19,-22.24 -9.65,-10.05 -15.28,-21.74 -13.21,-36.08 1.05,-7.29 4.29,-13.74 8.71,-19.58 5.48,-7.21 12.56,-12.5 20.33,-17.02 19.45,-11.29 38.85,-22.69 58.34,-33.92 2.4,-1.39 5.22,-2.05 7.8,-3.16 0.77,-0.34 1.89,-1.02 1.94,-1.62 0.04,-0.66 -0.8,-1.67 -1.52,-2.08 -12.23,-7.06 -24.45,-14.12 -36.76,-21.05 -13.07,-7.35 -25.89,-7.15 -38.92,0.72 -16.12,9.73 -32.67,18.75 -48.87,28.36 -10.61,6.29 -21.28,12.58 -31.28,19.77 -15.25,10.96 -27.02,25.16 -33.67,42.87 -6.25,16.62 -5.3,33.2 2.57,49.33 8.86,18.19 22.96,31.42 39.49,42.45 19.19,12.82 40.3,21.17 62.47,27.19 31.94,8.66 64.46,11.74 97.38,9.86 18.17,-1.04 36.32,-3.2 54.04,-7.7 19.94,-5.08 39.38,-11.61 57.41,-21.69 12.05,-6.74 23.83,-13.96 35.78,-20.87 13.13,-7.6 26.29,-15.15 39.53,-22.54 2.29,-1.27 5.11,-1.62 7.69,-2.4 1.2,-0.37 2.4,-0.74 3.6,-1.1 0.01,-0.31 0.04,-0.62 0.06,-0.92 -2.86,-1.62 -5.73,-3.22 -8.58,-4.86zm-247.03 459.86c19.05,-10.94 38.26,-21.63 57.07,-32.96 10.9,-6.59 18.16,-16.13 18.14,-29.65 -0.02,-22.94 0.04,-45.89 -0.31,-68.82 -0.41,-27.54 8.49,-52.05 23.96,-74.34 10.1,-14.55 22.12,-27.37 37.8,-36.14 10.99,-6.15 22.63,-10.13 35.44,-8.19 17.42,2.65 28.3,12.97 33.07,29.88 2.13,7.56 2.92,15.68 3.08,23.56 0.42,21.36 0.24,42.75 0.14,64.11 -0.02,3.31 -0.97,6.58 -1.39,9.9 -0.11,0.86 0.13,1.76 0.22,2.65 0.86,-0.14 1.85,-0.07 2.57,-0.47 12.78,-7.34 25.62,-14.61 38.31,-22.16 11.16,-6.64 17.42,-16.5 17.48,-29.65 0.15,-27.44 0.15,-54.9 -0.03,-82.34 -0.08,-12.95 -1.84,-25.82 -6.37,-37.93 -6.24,-16.7 -14.99,-31.82 -31.14,-41.27 -14.34,-8.39 -29.72,-10.81 -46.01,-8.47 -22.71,3.27 -42.68,13.14 -61.26,26.04 -16.32,11.32 -31.18,24.39 -44.14,39.45 -11.87,13.79 -22.75,28.34 -32.23,43.96 -9.39,15.44 -17.77,31.33 -24.3,48.12 -4.46,11.49 -8.41,23.24 -11.72,35.11 -5.21,18.74 -7.45,38 -7.42,57.45 0.02,24.51 0.45,49.02 0.46,73.53 0,5.92 -0.04,12.01 -3.48,17.32 -0.21,0.32 -0.2,0.79 -0.21,1.2 -0.01,0.19 0.16,0.37 0.38,0.79 0.61,-0.22 1.31,-0.34 1.88,-0.67zm-268.62 -199.66c0.01,12.46 -0.29,24.95 0.13,37.39 0.4,11.83 5.05,21.99 15.29,28.4 13.65,8.54 27.71,16.43 41.65,24.53 10.66,6.2 21.36,12.37 32.13,18.42 16.41,9.23 34.1,15.06 52.89,15.31 29.28,0.41 52.15,-13.89 64.22,-42.94 8.48,-20.42 9.6,-41.67 8.41,-63.23 -1.18,-21.47 -6.07,-42.2 -12.91,-62.53 -7.6,-22.64 -17.97,-43.96 -30.34,-64.31 -10.78,-17.75 -22.98,-34.46 -37.21,-49.66 -11.7,-12.49 -24.06,-24.27 -38.27,-33.8 -11.8,-7.91 -24.16,-14.99 -36.4,-22.25 -13.32,-7.89 -26.79,-15.5 -40.15,-23.35 -4.83,-2.84 -9.59,-5.85 -14.19,-9.06 -1.66,-1.15 -2.72,-3.16 -4.17,-4.66 -0.42,-0.42 -1.28,-0.6 -1.91,-0.53 -0.23,0.01 -0.55,1.03 -0.54,1.58 0.21,11.28 0.51,22.58 0.68,33.85 0.17,11.52 0.29,23.05 0.29,34.57 -0.01,9.64 4.03,17.58 10.86,23.82 4.41,4.03 9.8,7.07 15.03,10.09 18.74,10.86 37.66,21.41 56.39,32.28 12.39,7.21 22.38,17.15 31.06,28.46 10.29,13.41 18.3,28.1 23.27,44.23 4.87,15.82 7.93,31.91 4,48.56 -3.57,15.15 -11.24,26.91 -26.35,32.71 -11.49,4.41 -22.84,2.72 -33.64,-1.98 -8.49,-3.7 -16.54,-8.49 -24.63,-13.06 -14.03,-7.9 -28.01,-15.91 -41.92,-24.04 -3.59,-2.09 -6.8,-4.84 -10.18,-7.27 -0.94,-0.66 -1.89,-1.28 -3.47,-2.35 0,4.2 -0.01,7.51 0,10.81zm146.23 -363.99c-19.93,11.07 -39.85,22.17 -59.76,33.28 -13.14,7.33 -26.24,14.76 -39.41,22.07 -6.86,3.81 -13.93,7.24 -20.63,11.28 -9.93,5.97 -15.31,15.01 -15.8,26.6 -0.29,6.69 3.28,11.49 8.96,14.77 8.87,5.14 17.79,10.2 26.63,15.4 19.39,11.39 39.02,22.42 58.01,34.46 11.92,7.53 22.43,17.1 32.48,27.1 15.48,15.44 29.14,32.34 41.29,50.47 8.81,13.13 16.62,26.85 23.4,41.17 6.9,14.59 13.01,29.47 17.76,44.88 9.47,30.69 14.54,61.95 10.86,94.17 -2.05,17.98 -6.93,35.11 -16.93,50.41 -14.37,21.94 -34.2,35.04 -60.8,37.26 -13.86,1.17 -27.36,-0.06 -40.62,-4.19 -3.63,-1.12 -7.14,-2.6 -10.71,-3.91l-0.45 0.84c1.67,1.13 3.29,2.35 5.04,3.33 16.67,9.41 33.39,18.73 50.04,28.17 16.37,9.29 32.66,18.71 49,28.06 5.62,3.23 11.15,6.66 16.89,9.66 10.69,5.6 25.72,2.47 30.89,-9.39 1.56,-3.57 1.7,-7.93 1.75,-11.94 0.25,-30.47 -0.05,-60.96 0.59,-91.41 0.4,-18.52 4.98,-36.47 10.36,-54.14 8.92,-29.31 21.98,-56.69 38.65,-82.43 10.69,-16.48 22.66,-31.9 36.08,-46.21 15.81,-16.87 33.29,-31.79 53.19,-43.64 21.36,-12.71 44.21,-21.28 69.44,-21.03 31.73,0.33 55.65,14.5 71.7,41.95 6.2,10.62 10.1,22.02 12.45,34.02 0.2,1.02 0.48,2.04 0.76,3.04 0.12,0.37 0.37,0.72 1.19,1.12 0.18,-1.31 0.5,-2.63 0.5,-3.95 -0.22,-42.93 -0.59,-85.86 -0.59,-128.81 -0.01,-9.42 -2.92,-16.99 -10.38,-22.66 -5.03,-3.84 -12.48,-5.99 -18.68,-2.33 -21.45,12.66 -43.19,24.81 -64.57,37.56 -24.91,14.84 -51.7,24.49 -79.96,30.53 -22.34,4.78 -44.97,6.63 -67.71,6.53 -21.67,-0.09 -43.25,-1.94 -64.58,-6.41 -22.55,-4.72 -44.43,-11.39 -65.02,-21.76 -23.6,-11.89 -44.56,-27.19 -59.11,-49.77 -13.07,-20.29 -17.73,-42.46 -11.24,-66.04 4.27,-15.55 12.47,-29.11 23.66,-40.9 7.18,-7.57 15.09,-14.16 23.64,-20.05 0.72,-0.49 1.34,-1.13 2,-1.7 -0.16,-0.23 -0.29,-0.46 -0.44,-0.69 -3.27,1.74 -6.58,3.43 -9.81,5.22z"/>
  <path class="fil2" d="M157.4 43.04c-3.27,1.74 -6.57,3.43 -9.8,5.22 -19.93,11.07 -39.85,22.17 -59.75,33.27 -13.15,7.34 -26.26,14.77 -39.41,22.08 -6.85,3.81 -13.93,7.24 -20.65,11.28 -9.92,5.97 -15.3,15 -15.8,26.59 -0.29,6.69 3.28,11.49 8.95,14.78 8.88,5.15 17.8,10.2 26.64,15.4 19.39,11.39 39.01,22.42 58.02,34.45 11.91,7.53 22.43,17.1 32.47,27.1 15.49,15.44 29.14,32.34 41.29,50.47 8.81,13.13 16.62,26.85 23.39,41.17 6.9,14.59 13.03,29.47 17.77,44.87 9.46,30.7 14.54,61.95 10.86,94.17 -2.05,17.98 -6.93,35.11 -16.93,50.41 -14.37,21.95 -34.19,35.05 -60.79,37.27 -13.86,1.16 -27.37,-0.06 -40.61,-4.19 -3.62,-1.13 -7.15,-2.61 -10.72,-3.92l-0.45 0.85c1.69,1.11 3.3,2.34 5.05,3.33 16.67,9.39 33.39,18.71 50.04,28.16 16.37,9.29 32.68,18.71 49.01,28.06 5.63,3.23 11.15,6.66 16.89,9.66 10.7,5.6 25.71,2.47 30.89,-9.39 1.55,-3.57 1.71,-7.93 1.74,-11.94 0.26,-30.47 -0.03,-60.95 0.61,-91.41 0.38,-18.52 4.98,-36.48 10.34,-54.14 8.93,-29.31 21.99,-56.69 38.66,-82.43 10.68,-16.48 22.65,-31.89 36.07,-46.21 15.82,-16.87 33.31,-31.79 53.2,-43.64 21.36,-12.71 44.2,-21.28 69.44,-21.03 31.73,0.33 55.64,14.5 71.69,41.95 6.21,10.62 10.1,22.02 12.46,34.02 0.2,1.02 0.47,2.04 0.76,3.04 0.11,0.39 0.35,0.72 1.19,1.13 0.16,-1.31 0.49,-2.63 0.49,-3.95 -0.21,-42.93 -0.59,-85.86 -0.6,-128.81 0,-9.42 -2.92,-16.99 -10.37,-22.66 -5.03,-3.84 -12.49,-5.99 -18.7,-2.33 -21.44,12.66 -43.18,24.81 -64.56,37.56 -24.92,14.84 -51.72,24.49 -79.97,30.53 -22.34,4.78 -44.97,6.63 -67.7,6.53 -21.68,-0.08 -43.26,-1.94 -64.59,-6.41 -22.55,-4.73 -44.42,-11.39 -65.01,-21.76 -23.6,-11.88 -44.58,-27.19 -59.12,-49.76 -13.08,-20.3 -17.74,-42.46 -11.24,-66.05 4.28,-15.54 12.47,-29.11 23.65,-40.9 7.19,-7.56 15.09,-14.15 23.65,-20.04 0.71,-0.49 1.34,-1.14 2,-1.71 -0.14,-0.23 -0.3,-0.46 -0.44,-0.69z"/>
  <path class="fil1" d="M1.37 401.46c0,4.19 0,7.49 0,10.8 0.01,12.47 -0.28,24.94 0.13,37.41 0.4,11.8 5.05,21.98 15.29,28.39 13.65,8.55 27.72,16.44 41.65,24.54 10.67,6.2 21.36,12.37 32.13,18.42 16.43,9.23 34.1,15.05 52.89,15.31 29.28,0.4 52.15,-13.89 64.23,-42.96 8.47,-20.4 9.59,-41.65 8.41,-63.22 -1.18,-21.46 -6.07,-42.19 -12.91,-62.54 -7.6,-22.64 -17.97,-43.96 -30.34,-64.31 -10.79,-17.74 -22.97,-34.46 -37.22,-49.66 -11.7,-12.5 -24.06,-24.26 -38.27,-33.79 -11.8,-7.92 -24.16,-14.99 -36.39,-22.24 -13.32,-7.9 -26.81,-15.51 -40.16,-23.35 -4.84,-2.84 -9.59,-5.85 -14.19,-9.06 -1.67,-1.15 -2.73,-3.16 -4.18,-4.66 -0.42,-0.43 -1.28,-0.59 -1.91,-0.54 -0.23,0.02 -0.55,1.04 -0.54,1.59 0.21,11.28 0.52,22.56 0.68,33.85 0.16,11.52 0.3,23.04 0.29,34.56 -0.01,9.65 4.02,17.6 10.85,23.83 4.41,4.02 9.81,7.06 15.04,10.09 18.74,10.85 37.65,21.4 56.38,32.28 12.38,7.19 22.38,17.15 31.05,28.46 10.29,13.41 18.3,28.08 23.27,44.23 4.87,15.82 7.93,31.9 4.01,48.54 -3.58,15.15 -11.23,26.93 -26.36,32.72 -11.49,4.41 -22.84,2.73 -33.63,-1.98 -8.49,-3.7 -16.53,-8.5 -24.63,-13.05 -14.04,-7.9 -28.02,-15.91 -41.92,-24.04 -3.58,-2.09 -6.78,-4.83 -10.18,-7.27 -0.93,-0.67 -1.9,-1.29 -3.47,-2.35z"/>
  <path class="fil1" d="M268.12 612.59c0.61,-0.21 1.3,-0.34 1.87,-0.67 19.05,-10.94 38.27,-21.63 57.07,-32.97 10.91,-6.57 18.16,-16.12 18.14,-29.65 -0.01,-22.94 0.03,-45.89 -0.31,-68.81 -0.41,-27.56 8.51,-52.06 23.97,-74.35 10.1,-14.57 22.11,-27.36 37.8,-36.14 11,-6.14 22.64,-10.13 35.45,-8.17 17.42,2.64 28.3,12.96 33.07,29.87 2.12,7.56 2.92,15.68 3.08,23.56 0.41,21.36 0.25,42.73 0.14,64.11 -0.02,3.3 -0.97,6.59 -1.39,9.89 -0.11,0.86 0.13,1.78 0.22,2.65 0.86,-0.14 1.85,-0.05 2.57,-0.46 12.8,-7.34 25.64,-14.62 38.31,-22.17 11.17,-6.63 17.42,-16.5 17.48,-29.65 0.14,-27.44 0.14,-54.89 -0.03,-82.33 -0.08,-12.96 -1.84,-25.83 -6.37,-37.94 -6.24,-16.69 -14.99,-31.81 -31.12,-41.26 -14.35,-8.39 -29.73,-10.82 -46.01,-8.47 -22.72,3.27 -42.69,13.12 -61.28,26.03 -16.32,11.32 -31.18,24.38 -44.12,39.44 -11.88,13.8 -22.75,28.34 -32.25,43.97 -9.38,15.44 -17.77,31.32 -24.29,48.13 -4.46,11.49 -8.41,23.22 -11.71,35.1 -5.23,18.74 -7.46,38 -7.44,57.46 0.02,24.5 0.45,49.01 0.46,73.53 0,5.91 -0.04,12 -3.48,17.31 -0.2,0.32 -0.19,0.81 -0.21,1.21 0,0.18 0.18,0.37 0.39,0.78z"/>
  <path class="fil1" d="M525.6 156.93c-2.86,-1.62 -5.73,-3.21 -8.57,-4.85 -16.31,-9.43 -32.63,-18.81 -48.89,-28.28 -13.23,-7.72 -26.15,-7.1 -39.16,0.74 -16.58,9.97 -33.4,19.56 -50.02,29.47 -8,4.77 -15.94,9.45 -24.8,12.69 -11.87,4.34 -24.03,6.51 -36.51,7.18 -14.38,0.76 -28.72,0.04 -42.73,-3.5 -15.82,-4 -30.63,-10.2 -42.21,-22.26 -9.65,-10.04 -15.27,-21.73 -13.21,-36.08 1.06,-7.3 4.29,-13.74 8.71,-19.57 5.47,-7.21 12.57,-12.51 20.33,-17.02 19.45,-11.31 38.85,-22.68 58.33,-33.94 2.41,-1.39 5.22,-2.04 7.8,-3.16 0.78,-0.33 1.9,-1.02 1.94,-1.62 0.04,-0.66 -0.81,-1.65 -1.51,-2.07 -12.23,-7.06 -24.46,-14.13 -36.76,-21.04 -13.07,-7.35 -25.89,-7.16 -38.92,0.7 -16.12,9.74 -32.67,18.75 -48.86,28.36 -10.61,6.29 -21.29,12.58 -31.29,19.77 -15.25,10.97 -27,25.16 -33.65,42.87 -6.25,16.62 -5.3,33.22 2.55,49.33 8.87,18.19 22.96,31.43 39.49,42.46 19.2,12.8 40.3,21.16 62.48,27.18 31.93,8.67 64.45,11.76 97.38,9.87 18.18,-1.05 36.31,-3.19 54.04,-7.71 19.93,-5.08 39.38,-11.6 57.41,-21.69 12.05,-6.74 23.83,-13.96 35.78,-20.87 13.12,-7.59 26.28,-15.16 39.52,-22.54 2.3,-1.29 5.12,-1.63 7.7,-2.41 1.19,-0.37 2.39,-0.73 3.59,-1.09 0.02,-0.31 0.04,-0.61 0.06,-0.92z"/>
  <path class="fil2" d="M127.28 400.99c-0.07,-15.95 -4.96,-30.65 -11.87,-44.8 -6.95,-14.26 -16.09,-27.05 -28.13,-37.37 -6.45,-5.55 -14.05,-9.77 -21.23,-14.46 -0.76,-0.49 -2.38,-0.45 -3.21,0.04 -14.91,8.7 -30.01,17.11 -44.54,26.41 -11.81,7.55 -17.34,19.22 -16.83,33.16 0.53,14.09 7.45,24.96 19.42,32.21 14.05,8.5 28.32,16.67 42.65,24.69 8.74,4.89 17.56,9.75 26.77,13.65 8.18,3.46 16.8,3.29 24.68,-1.72 4.5,-2.86 7.08,-7.37 9.12,-12.11 2.7,-6.26 3.47,-12.9 3.15,-19.71z"/>
  <path class="fil2" d="M462.19 443.98c0,-12.98 0.56,-26 -0.17,-38.93 -0.64,-11.26 -5.31,-21.15 -16.04,-26.29 -6.4,-3.06 -13.47,-1.98 -20.26,0.11 -14.46,4.46 -25.4,13.95 -35.14,24.9 -14.33,16.09 -23.83,34.9 -28.18,55.98 -1.64,7.91 -1.54,16.21 -1.81,24.35 -0.04,1.33 1.88,3.15 3.32,4.03 6.7,4.07 13.57,7.87 20.36,11.8 7.23,4.2 14.3,8.72 21.71,12.59 23.24,12.14 50.85,-1.11 56.07,-26.78 0.42,-2.03 0.4,-4.17 0.41,-6.25 0.03,-11.84 0.02,-23.67 0.02,-35.5 -0.1,0 -0.2,0 -0.29,0z"/>
  <path class="fil2" d="M370.45 111.57c0,-8.07 0.22,-16.14 -0.04,-24.19 -0.54,-16.02 -11.88,-30.03 -27.68,-34.71 -13.27,-3.93 -24.55,0.46 -35.72,7.13 -16.34,9.76 -33,18.97 -49.39,28.67 -6.82,4.04 -13.36,8.46 -17.98,15.33 -8.46,12.61 -4.72,25.52 5.6,34.49 12.46,10.81 27.41,16.14 43.57,18.61 18.19,2.78 36.11,1.7 53.83,-3.13 9.48,-2.58 18.08,-7.16 26.32,-12.38 0.97,-0.62 1.61,-2.46 1.63,-3.73 0.15,-8.7 0.08,-17.39 0.08,-26.08l-0.22 0z"/>
 </g>
</svg>
