<?xml version="1.0" encoding="UTF-8"?>
<svg width="290px" height="385px" viewBox="0 0 290 385" version="1.1" xmlns="http://www.w3.org/2000/svg" xmlns:xlink="http://www.w3.org/1999/xlink">
    <defs>
        <rect id="path-1" x="0.70078125" y="0.48515625" width="278.0125" height="7.3671875"></rect>
        <path d="M5.6421875,0.1796875 C4.39969264,0.21837501 3.37785288,1.17106771 3.25234375,2.4078125 C2.0484375,14.0515625 -3.25234375,85.0640625 3.25234375,148.889062 C3.51593252,151.535972 4.8060372,153.97427 6.84609375,155.68125 C9.28984375,157.69375 20.3585938,157.621875 30.0617188,157.478125 C34.4101563,157.478125 38.4890625,157.478125 41.3820313,157.585937 L48.3,157.585937 L49.2523438,87.2382812 L58.9914063,57.1046875 L56.925,51.2109375 C56.925,51.2109375 46.4492188,20.5023437 34.4820313,11.6796875 C27.7976563,6.73828125 10.9789063,0.05390625 5.73203125,0.05390625 L5.55234375,0.05390625" id="path-3"></path>
        <rect id="path-5" x="0.20390625" y="0.73671875" width="32.9726562" height="107.309375"></rect>
        <rect id="path-7" x="0.00625" y="0.646875" width="14.23125" height="25.1921875"></rect>
        <path d="M0.509375,1.365625 L0.509375,1.52734375 C0.393885198,1.89921568 0.43622638,2.30220226 0.626484936,2.64194969 C0.816743492,2.98169711 1.13821273,3.22837198 1.515625,3.32421875 L11.8835938,6.05546875 C12.2554657,6.17095855 12.6584523,6.12861737 12.9981997,5.93835881 C13.3379471,5.74810026 13.584622,5.42663102 13.6804688,5.04921875 L13.6804688,4.86953125 C13.7959586,4.49765932 13.7536174,4.09467274 13.5633588,3.75492531 C13.3731003,3.41517789 13.051631,3.16850302 12.6742188,3.07265625 L2.30625,0.3234375 L1.946875,0.3234375 C1.29959036,0.325012217 0.733192056,0.759005721 0.56328125,1.38359375" id="path-9"></path>
        <path d="M17.6273437,0.91640625 L4.528125,4.8515625 C2.85408842,5.34853334 1.524494,6.62562407 0.960516916,8.27829111 C0.396539828,9.93095814 0.66805792,11.7544328 1.6890625,13.1710937 C4.21273454,16.6698058 8.26420499,18.7423402 12.578125,18.7414248 L19.2265625,18.7414248 C21.5441115,18.7461896 23.7681168,17.8276643 25.4068749,16.1889062 C27.045633,14.5501481 27.9641584,12.3261427 27.9593979,10.0085937 L27.9593979,8.60703125 C27.9654311,6.06759251 26.7675563,3.67555898 24.7304862,2.1592703 C22.6934162,0.642981629 20.0582448,0.1818956 17.6273438,0.91640625" id="path-11"></path>
        <rect id="path-13" x="0.16796875" y="0.77890625" width="32.1460937" height="18.9570312"></rect>
        <path d="M22.8382812,1.99453125 C10.2601562,16.81875 0.80859375,54.2117188 0.80859375,54.2117188 C0.80859375,54.2117188 48.1921875,52.9 97.9296875,52.9 C147.667187,52.9 195.050781,54.2117188 195.050781,54.2117188 C195.050781,54.2117188 185.599219,16.81875 173.021094,1.99453125 C173.021094,1.99453125 121.576563,0.7546875 97.9296875,0.7546875 C74.2828125,0.7546875 22.8382813,1.99453125 22.8382813,1.99453125" id="path-15"></path>
        <rect id="path-17" x="0.59296875" y="0.215625" width="122.816406" height="81.075"></rect>
        <rect id="path-19" x="0.2578125" y="0.3953125" width="41.1664063" height="1.9765625"></rect>
        <path d="M0.2875,27.6898438 C0.350970154,34.2607589 2.37849634,40.6624851 6.109375,46.071875 C12.3265625,55.05625 49.7375,102.907031 49.7375,102.907031 C52.7062013,101.353024 55.0387498,98.8107365 56.3320313,95.7195313 C56.3320313,95.7195313 36.7820313,57.9851562 30.3132813,48.8570313 C24.6171875,40.8609375 20.4125,34.8953125 17.9867188,32.6851563 L19.190625,33.6554688 L18.7953125,0.8984375 L0.2875,27.6898438 Z" id="path-21"></path>
        <rect id="path-23" x="0.19765625" y="0.5390625" width="23.8265625" height="45.4429687"></rect>
        <path d="M24.653125,7.9421875 L24.8328125,11.1226563 L24.8328125,11.1226563 L24.9226562,12.290625 L24.9226562,13.5304688 L24.9226562,13.5304688 L26.3960937,30.6726562 C21.9578125,39.4414062 15.09375,53.2054687 11.6796875,61.2195313 C6.46875,73.671875 3.234375,115 0.8984375,138.251563 C3.69620012,140.229456 7.04986346,141.267644 10.4757812,141.216406 C10.4757812,141.216406 20.5742187,106.267188 21.7421875,96.4382813 C22.9101562,86.609375 24.58125,75.7203125 27.1328125,71.7132813 C29.684375,67.70625 33.2242187,62.9085938 33.2242187,62.9085938 C57.1765625,30.2773438 57.6976562,24.3296875 57.6976562,17.2140625 C57.6976562,9.43359375 49.9171875,0.62890625 49.9171875,0.62890625 L24.653125,7.9421875 Z" id="path-25"></path>
        <rect id="path-27" x="0.52109375" y="0.77890625" width="6.7921875" height="7.81640625"></rect>
        <rect id="path-29" x="0.4375" y="0.34765625" width="10.9429688" height="8.28359375"></rect>
        <path d="M0.09609375,7.10390625 C0.920886623,8.90071262 1.22589805,10.892624 0.9765625,12.8539062 C0.9765625,12.8539062 1.3,16.7890625 11.865625,5.77421875 L10.7515625,4.390625 L7.984375,0.27578125 L0.09609375,7.10390625 Z" id="path-31"></path>
        <path d="M0.1140625,8.5953125 C0.1140625,13.4828125 30.9664062,34.5242187 31.3078125,35.2609375 C35.0632812,43.41875 49.8875,73.1390625 49.8875,73.1390625 L51.684375,75.834375 L54.2359375,80.7398437 C54.4057698,81.0791295 54.6373243,81.3838065 54.91875,81.6382812 C55.8890625,82.5546875 58.2789062,84.81875 59.4289062,85.7171875 C59.5886453,85.8825406 59.8137239,85.9681681 60.0429761,85.9508005 C60.2722283,85.933433 60.4818383,85.8148744 60.6148437,85.6273437 C61.0101562,85.10625 60.453125,84.53125 60.453125,84.53125 L57.65,81.9617187 C57.65,81.9617187 57.65,81.9617187 57.65,81.9617187 L63.4179687,86.8671875 C63.701586,87.1128783 64.1226327,87.1128783 64.40625,86.8671875 L64.40625,86.8671875 C64.5744026,86.7428197 64.6834043,86.5542483 64.7072484,86.3464645 C64.7310924,86.1386807 64.6676404,85.9303194 64.5320312,85.7710937 L60.09375,81.8898437 C60.09375,81.8898437 60.09375,81.7820312 60.09375,81.8898437 L65.8078125,86.3820312 C66.1941907,86.6319163 66.7049805,86.5633027 67.0117187,86.2203125 C67.2208189,85.8647926 67.177298,85.4150771 66.9039062,85.10625 L61.5132812,80.4703125 C61.5132812,80.4703125 61.5132812,80.3445312 61.5132812,80.4703125 L66.5984375,84.1898437 C66.7631795,84.3321559 66.9824277,84.3943202 67.1973487,84.3596555 C67.4122697,84.3249908 67.6008552,84.1970469 67.7125,84.0101562 C67.9773564,83.5653853 67.8949387,82.995954 67.5148437,82.6445312 L62.609375,78.78125 C62.609375,78.78125 62.609375,78.6734375 62.609375,78.78125 L65.8617187,80.8476562 C66.2487495,81.1453722 66.8038465,81.0729683 67.1015625,80.6859375 C67.3992785,80.2989067 67.3268745,79.7438097 66.9398437,79.4460937 L60.1117187,74.0554687 L55.9609375,70.875 L54.703125,69.078125 C54.703125,69.078125 40.8132812,32.3859375 38.746875,29.1515625 C36.6804687,25.9171875 12.9257812,4.0671875 6.70859375,0.95859375 C6.03356454,0.594040384 5.28316338,0.39106302 4.51640625,0.365625 C0.4015625,0.365625 0.1140625,7.93046875 0.1140625,8.5953125" id="path-33"></path>
        <rect id="path-35" x="0.52109375" y="0.1078125" width="9.8109375" height="16.81875"></rect>
    </defs>
    <g id="White-Car-Desktop-Cropped-Right" stroke="none" stroke-width="1" fill="none" fill-rule="evenodd">
        <g id="New-Hero_TrueCar_Find_Your_Next_Used_Car_Small_Final-copy-2">
            <g id="Group" opacity="0.2" transform="translate(116.796875, 319.843750)">
                <g id="Clipped">
                    <mask id="mask-2" fill="white">
                        <use xlink:href="#path-1"></use>
                    </mask>
                    <g id="Rectangle"></g>
                    <path d="M5.98359375,3.090625 L199.165625,0.48515625 C200.9625,0.48515625 202.759375,0.48515625 204.55625,0.66484375 L277.347656,5.0671875 C278.055844,5.14776187 278.590778,5.74700891 278.590778,6.45976562 C278.590778,7.17252234 278.055844,7.77176938 277.347656,7.85234375 L62.890625,7.85234375 C60.6085938,7.85234375 58.3265625,7.7625 56.0265625,7.60078125 L1.13203125,7.60078125 C-0.66484375,7.475 4.240625,3.1625 6.0375,3.1625" id="Path" fill="#1A1919" fill-rule="nonzero" mask="url(#mask-2)"></path>
                </g>
            </g>
            <path d="M170.559375,327.67814 L178.842969,327.67814 C181.748337,327.682896 184.536342,326.532086 186.592435,324.479364 C188.648527,322.426641 189.803906,319.640528 189.803906,316.735156 L189.803906,245.417188 C189.803906,239.363629 184.896527,234.45625 178.842969,234.45625 L170.559375,234.45625 C164.512835,234.466162 159.616406,239.370639 159.616406,245.417188 L159.616406,316.735156 C159.616406,319.637412 160.769323,322.420799 162.821528,324.473004 C164.873732,326.525208 167.657119,327.67814 170.559375,327.67814" id="Path" fill="#231F20" fill-rule="nonzero"></path>
            <path d="M124.235938,124.164063 C122.993443,124.20275 121.971603,125.155443 121.846094,126.392188 C120.642188,138.035938 115.341406,209.048437 121.846094,272.873437 C122.109683,275.520347 123.399787,277.958645 125.439844,279.665625 C127.883594,281.678125 138.952344,281.60625 148.655469,281.4625 C153.003906,281.4625 157.082813,281.4625 159.975781,281.570312 L166.89375,281.570312 L167.846094,211.222656 L177.585156,181.089062 L175.51875,175.195312 C175.51875,175.195312 165.042969,144.486719 153.075781,135.664062 C146.391406,130.722656 129.572656,124.038281 124.325781,124.038281 L124.146094,124.038281" id="Path" fill="#FFFFFF" fill-rule="nonzero"></path>
            <g id="Clipped" transform="translate(118.593750, 123.984375)">
                <mask id="mask-4" fill="white">
                    <use xlink:href="#path-3"></use>
                </mask>
                <g id="Path"></g>
                <g id="Group" mask="url(#mask-4)" opacity="0.1">
                    <g transform="translate(-0.796875, 50.312500)">
                        <g transform="translate(32.343750, 7.187500)">
                            <g id="Clipped">
                                <mask id="mask-6" fill="white">
                                    <use xlink:href="#path-5"></use>
                                </mask>
                                <g id="Rectangle"></g>
                                <path d="M0.29375,106.842187 C0.29375,106.842187 -1.26953125,45.0296875 8.57734375,25.5875 C18.4242187,6.1453125 33.140625,0.73671875 33.140625,0.73671875 L22.934375,108.046094 L0.29375,106.842187 Z" id="Path" fill="#000000" fill-rule="nonzero" mask="url(#mask-6)"></path>
                            </g>
                        </g>
                        <g>
                            <g id="Clipped">
                                <mask id="mask-8" fill="white">
                                    <use xlink:href="#path-7"></use>
                                </mask>
                                <g id="Rectangle"></g>
                                <path d="M0.00625,0.646875 C0.00625,0.646875 4.175,10.996875 7.19375,13.9617187 C15.4234375,22.1914062 14.8125,22.1914062 13.4828125,25.8210937 L9.2421875,22.8023437 L2.3421875,17.4117187 L0.00625,0.646875 Z" id="Path" fill="#000000" fill-rule="nonzero" mask="url(#mask-8)"></path>
                            </g>
                        </g>
                    </g>
                </g>
            </g>
            <path d="M173.164844,179.022656 L173.164844,180.424219 C173.154959,185.243117 169.25093,189.147146 164.432031,189.157037 L157.783594,189.157037 C153.468961,189.160926 149.416219,187.087741 146.894531,183.586719 C145.87313,182.172518 145.599231,180.351469 146.159442,178.699383 C146.719652,177.047297 148.044706,175.768441 149.715625,175.267187 L162.814844,171.332031 C165.247603,170.598761 167.883859,171.059829 169.92333,172.575269 C171.962801,174.090709 173.164844,176.48179 173.164844,179.022656" id="Path" fill="#01ACED" fill-rule="nonzero"></path>
            <path d="M172.266406,181.125 C172.266406,181.125 165.078906,153.596875 151.027344,141.126562 C144.325,135.178906 129.824219,131.657031 126.302344,131.566968 C125.670497,131.555226 125.136949,132.03385 125.080469,132.663281 C124.667188,138.251562 122.888281,171.439844 122.636719,180.765625 C122.606839,181.71123 123.257154,182.543029 124.182031,182.742187 L155.591406,189.067187 L172.266406,181.125 Z" id="Path" fill="#1A1919" fill-rule="nonzero"></path>
            <path d="M173.506269,179.310156 L173.506269,180.711719 C173.511033,183.029268 172.592508,185.253273 170.95375,186.892031 C169.314992,188.530789 167.090986,189.449315 164.773438,189.44455 L158.125,189.44455 C153.81108,189.445465 149.75961,187.372931 147.235938,183.874219 C146.214933,182.457558 145.943415,180.634083 146.507392,178.981416 C147.071369,177.328749 148.400963,176.051658 150.075,175.554688 L163.174219,171.619531 C165.60461,170.893162 168.235301,171.357552 170.2701,172.87215 C172.304899,174.386748 173.504653,176.773542 173.506269,179.310156" id="Path" fill="#CECECE" fill-rule="nonzero"></path>
            <path d="M136.832031,201.860937 L126.464062,199.129687 C126.08665,199.033841 125.765181,198.787166 125.574922,198.447418 C125.384664,198.107671 125.342323,197.704684 125.457812,197.332812 L125.457812,197.171094 C125.554218,196.793202 125.800027,196.4707 126.138845,196.277573 C126.477664,196.084446 126.88041,196.037273 127.254687,196.146875 L137.622656,198.896094 C138.000069,198.991941 138.321538,199.238615 138.511796,199.578363 C138.702055,199.91811 138.744396,200.321097 138.628906,200.692969 L138.628906,200.854687 C138.533059,201.2321 138.286385,201.553569 137.946637,201.743828 C137.60689,201.934086 137.203903,201.976427 136.832031,201.860937" id="Path" fill="#B7B7B7" fill-rule="nonzero"></path>
            <g id="Clipped" transform="translate(124.984375, 195.859375)">
                <mask id="mask-10" fill="white">
                    <use xlink:href="#path-9"></use>
                </mask>
                <g id="Path"></g>
                <path d="M4.80390625,6.684375 C5.40081931,4.55004938 6.57613687,2.62227985 8.2,1.1140625 L-2.58125,-0.3234375 L-1.48515625,4.6359375 L4.80390625,6.684375 Z" id="Path" fill="#1A1919" fill-rule="nonzero" mask="url(#mask-10)"></path>
            </g>
            <g id="Clipped" transform="translate(145.546875, 170.703125)">
                <mask id="mask-12" fill="white">
                    <use xlink:href="#path-11"></use>
                </mask>
                <g id="Path"></g>
                <g id="Group" opacity="0.27" mask="url(#mask-12)">
                    <g transform="translate(-2.593750, -4.390625)" id="Clipped">
                        <g>
                            <mask id="mask-14" fill="white">
                                <use xlink:href="#path-13"></use>
                            </mask>
                            <g id="Rectangle"></g>
                            <path d="M2.9171875,19.7359375 C3.09523598,16.4704353 5.222784,13.6337046 8.3078125,12.5484375 C13.8421875,10.5179688 29.1515625,6.90625 32.2960937,13.1953125 L30.76875,0.796875 L14.09375,1.03046875 L0.16796875,6.0796875 L2.9171875,19.7359375 Z" id="Path" fill="#FFFFFF" fill-rule="nonzero" mask="url(#mask-14)"></path>
                        </g>
                    </g>
                </g>
            </g>
            <path d="M277.707031,297.472656 L177.082031,297.472656 L183.982031,308.559375 L202.220313,308.559375 C208.882734,308.553483 215.519812,307.738933 221.985938,306.133594 L221.985938,306.133594 C228.453031,304.53553 235.089948,303.727032 241.751563,303.725781 L313.500781,303.725781 C320.162417,303.726679 326.799377,304.535181 333.266406,306.133594 C339.732532,307.738933 346.369609,308.553483 353.032031,308.559375 L371.270312,308.559375 L378.170313,297.472656 L277.707031,297.472656 Z" id="Path" fill="#100F0F" fill-rule="nonzero"></path>
            <path d="M381.997656,187.252344 C373.552344,157.028906 362.124219,138.916406 355.242187,130.021875 C351.895528,125.70901 346.854917,123.044687 341.40625,122.708594 C327.785937,121.9 299.359375,120.390625 277.617188,120.390625 C255.875,120.390625 227.448437,121.935937 213.864062,122.744531 C208.402589,123.07051 203.346967,125.735844 199.992188,130.057812 C193.110156,139.042187 181.682031,157.010938 173.236719,187.288281 C164.867837,196.396018 160.269392,208.341701 160.369442,220.710156 C160.369442,235.516406 162.473438,267.51875 163.73125,285.271875 C164.20404,292.347958 170.080015,297.846866 177.171875,297.85 L378.0625,297.85 C385.15436,297.846866 391.030335,292.347958 391.503125,285.271875 C392.760937,267.51875 394.864933,235.516406 394.864933,220.710156 C394.964983,208.341701 390.366538,196.396018 381.997656,187.288281 M277.617188,187.701562 C227.879688,187.701562 180.585938,189.03125 180.585938,189.03125 C180.585938,189.03125 190.0375,151.638281 202.615625,136.796094 C202.615625,136.796094 254.060156,135.55625 277.707031,135.55625 C301.353906,135.55625 352.798438,136.796094 352.798438,136.796094 C365.376563,151.638281 374.828125,189.03125 374.828125,189.03125 C374.828125,189.03125 327.444531,187.701562 277.707031,187.701562" id="Shape" fill="#FFFFFF" fill-rule="nonzero"></path>
            <path d="M215.894531,227.358594 L187.503906,215.625 C182.955699,213.746266 177.747084,214.474146 173.888147,217.52774 C170.029209,220.581334 168.123419,225.483114 168.90625,230.341406 L169.067969,231.329687 C170.001053,237.078814 174.759069,241.435372 180.567969,241.859375 C188.905469,242.470313 203.603906,242.021094 213.360937,241.625781 C216.83446,241.47076 219.734668,238.924853 220.338424,235.500694 C220.94218,232.076535 219.087597,228.692252 215.876562,227.358594" id="Path" fill="#1A1919" fill-rule="nonzero"></path>
            <path d="M277.707031,228.652344 L234.384375,228.652344 C230.911022,228.652344 228.095313,231.468053 228.095313,234.941406 C228.095313,238.41476 230.911022,241.230469 234.384375,241.230469 L321.029688,241.230469 C324.503041,241.230469 327.31875,238.41476 327.31875,234.941406 C327.31875,231.468053 324.503041,228.652344 321.029688,228.652344 L277.707031,228.652344 Z" id="Path" fill="#1A1919" fill-rule="nonzero"></path>
            <path d="M207.610903,233.917188 C207.610903,235.83022 208.764305,237.554537 210.532415,238.284933 C212.300526,239.015329 214.334571,238.607706 215.68471,237.252414 C217.034849,235.897122 217.434719,233.861539 216.697593,232.096224 C215.960467,230.330909 214.231768,229.184132 212.31875,229.191372 C211.067041,229.191372 209.866859,229.689863 208.983455,230.576639 C208.10005,231.463416 207.60616,232.665488 207.610903,233.917188" id="Path" fill="#01ACED" fill-rule="nonzero"></path>
            <path d="M194.278125,233.216406 C194.278125,236.193566 196.69159,238.607031 199.66875,238.607031 C202.64591,238.607031 205.059375,236.193566 205.059375,233.216406 C205.059375,230.239246 202.64591,227.825781 199.66875,227.825781 C196.69159,227.825781 194.278125,230.239246 194.278125,233.216406" id="Path" fill="#01ACED" fill-rule="nonzero"></path>
            <path d="M172.06875,227.807813 C172.06875,233.34533 176.557795,237.834375 182.095312,237.834375 C187.63283,237.834375 192.121875,233.34533 192.121875,227.807813 C192.121875,222.270295 187.63283,217.78125 182.095312,217.78125 C176.557795,217.78125 172.06875,222.270295 172.06875,227.807813" id="Path" fill="#FFFFFF" fill-rule="nonzero"></path>
            <path d="M374.594531,263.439833 L180.819531,263.439833 C179.67076,263.437217 178.578198,263.936704 177.828596,264.807209 C177.078995,265.677714 176.747207,266.832312 176.920312,267.967969 L378.49375,267.967969 C378.666856,266.832312 378.335068,265.677714 377.585466,264.807209 C376.835864,263.936704 375.743302,263.437217 374.594531,263.439833" id="Path" fill="#1A1919" fill-rule="nonzero"></path>
            <path d="M197.135156,285.864844 L358.278906,285.864844 C362.280583,285.862103 366.149296,284.428066 369.185938,281.821875 L186.228125,281.821875 C189.266398,284.425294 193.134049,285.858938 197.135156,285.864844" id="Path" fill="#1A1919" fill-rule="nonzero"></path>
            <polygon id="Path" fill="#1A1919" fill-rule="nonzero" points="179.238281 272.190625 182.688281 277.635156 372.707812 277.635156 376.19375 272.190625"></polygon>
            <path d="M377.91875,269.53125 C378.208679,269.071267 378.404143,268.558172 378.49375,268.021875 L176.920312,268.021875 C177.009919,268.558172 177.205384,269.071267 177.495312,269.53125 L179.292187,272.244531 L376.19375,272.244531 L377.91875,269.53125 Z" id="Path" fill="#FFFFFF" fill-rule="nonzero"></path>
            <path d="M183.011719,278.120313 C183.901716,279.501336 184.984839,280.747835 186.228125,281.821875 L369.185938,281.821875 C370.429223,280.747835 371.512346,279.501336 372.402344,278.120313 L372.707812,277.635156 L182.688281,277.635156 L183.011719,278.120313 Z" id="Path" fill="#FFFFFF" fill-rule="nonzero"></path>
            <path d="M277.617188,187.665625 C227.879687,187.665625 180.585938,188.977344 180.585938,188.977344 C180.585938,188.977344 190.0375,151.584375 202.615625,136.760156 C202.615625,136.760156 254.060156,135.520312 277.707031,135.520312 C301.353906,135.520312 352.798438,136.760156 352.798438,136.760156 C365.376563,151.584375 374.828125,188.977344 374.828125,188.977344 C374.828125,188.977344 327.444531,187.665625 277.707031,187.665625" id="Path" fill="#1A1919" fill-rule="nonzero"></path>
            <g id="Clipped" transform="translate(179.687500, 134.765625)">
                <mask id="mask-16" fill="white">
                    <use xlink:href="#path-15"></use>
                </mask>
                <g id="Path"></g>
                <g id="Group" opacity="0.05" mask="url(#mask-16)">
                    <g transform="translate(-14.375000, -16.171875)" id="Clipped">
                        <g>
                            <mask id="mask-18" fill="white">
                                <use xlink:href="#path-17"></use>
                            </mask>
                            <g id="Rectangle"></g>
                            <path d="M53.3132813,81.2726562 C53.3132813,81.2726562 52.2890625,48.515625 84.2554687,49.1445312 C143.157031,50.4742187 104.272656,4.096875 123.391406,4.07890625 L22.640625,0.215625 L5.91171875,36.7820312 L0.52109375,65.8554688 L2.31796875,75.1632813 L53.3132813,81.2726562 Z" id="Path" fill="#FFFFFF" fill-rule="nonzero" mask="url(#mask-18)"></path>
                        </g>
                    </g>
                </g>
            </g>
            <g id="Group" opacity="0.2" transform="translate(18.968750, 325.234375)">
                <g id="Clipped">
                    <mask id="mask-20" fill="white">
                        <use xlink:href="#path-19"></use>
                    </mask>
                    <g id="Rectangle"></g>
                    <path d="M40.4898437,2.371875 L0.6171875,2.371875 C0.415835066,2.36227603 0.257812252,2.19611223 0.257812252,1.99453125 L0.257812252,0.7546875 C0.257812252,0.553106522 0.415835066,0.386942721 0.6171875,0.37734375 L40.4898437,0.37734375 C41.0058848,0.37734375 41.4242187,0.795677687 41.4242187,1.31171875 L41.4242187,1.4375 C41.4242187,1.95354106 41.0058848,2.371875 40.4898437,2.371875" id="Path" fill="#1A1919" fill-rule="nonzero" mask="url(#mask-20)"></path>
                </g>
            </g>
            <path d="M40.178125,97.678125 C40.178125,97.678125 36.36875,104.039062 38.6507812,108.872656 C40.9328125,113.70625 41.4539062,116.060156 39.171875,119.653906 C37.0875,122.870312 35.2367187,126.841406 36.584375,129.554687 C36.9915748,130.083526 37.6240164,130.389761 38.2914062,130.38125 C40.5694929,130.561646 42.8373382,129.92461 44.6882812,128.584375 C45.7884959,125.774503 47.0668741,123.037694 48.515625,120.390625 C49.45,119.258594 54.05,115 54.05,115 L47.7429687,96.3125 L40.178125,97.678125 Z" id="Path" fill="#1A1919" fill-rule="nonzero"></path>
            <path d="M80.428125,121.594531 C83.23125,118.000781 84.95625,116.203906 84.021875,113.957812 C82.3507813,110.220312 75.8820312,109.124219 76.6367188,105.566406 C77.3914063,102.008594 78.6851563,97.4265625 74.3546875,94.1203125 C71.803433,92.2111026 69.8619557,89.6016572 68.7664063,86.609375 C62.0640625,72.6296875 50.3125,78.3617187 50.3125,78.3617187 C44.2210937,77.840625 42.5859375,82.8539062 39.890625,84.9742187 C37.7613774,86.6389935 36.4519876,89.139928 36.296875,91.8382812 C35.79375,96.4203125 40.609375,98.0554687 40.609375,98.0554687 C40.609375,98.0554687 43.84375,99.6367188 44.346875,99.3851562 C44.85,99.1335938 65.1007812,119.042969 65.1007812,119.042969 L80.428125,121.594531 Z" id="Path" fill="#1A1919" fill-rule="nonzero"></path>
            <path d="M121.648437,289.296875 C121.127344,288.488281 120.157031,286.871094 119.186719,285.146094 C117.369367,284.982127 115.611191,285.840448 114.622656,287.374219 C112.538281,290.0875 113.867969,294.202344 113.867969,294.202344 C115.359375,296.250781 120.696094,304.264844 121.055469,304.857812 L127.667969,299.161719 L121.648437,289.296875 Z" id="Path" fill="#CC935A" fill-rule="nonzero"></path>
            <path d="M45.496875,171.475781 C45.496875,171.475781 43.8257813,172.805469 41.8132813,170.649219 L42.6398438,166.175 L44.8320312,166.300781 L45.7484375,170.05625 L45.496875,171.475781 Z" id="Path" fill="#000000" fill-rule="nonzero"></path>
            <path d="M40.8609375,305.325 C40.8609375,305.325 41.184375,303.617969 41.7414062,301.73125 C40.2912101,300.795658 38.7191757,300.064057 37.0695313,299.557031 C35.2925147,298.950435 33.4306647,298.629008 31.553125,298.604688 C30.8882813,303.492188 29.325,310.895313 29.2171875,311.578125 C29.8278226,313.323217 31.3584812,314.58376 33.1882813,314.848438 C34.9852012,315.507347 36.9888964,315.266904 38.5789063,314.201563 L40.8609375,305.325 Z" id="Path" fill="#CC935A" fill-rule="nonzero"></path>
            <path d="M83.878125,225.795313 L83.4828125,193.038281 L64.975,219.991406 C65.0384702,226.562321 67.0659963,232.964048 70.796875,238.373437 C77.0140625,247.357813 114.910156,296.125 114.910156,296.125 C117.97322,294.61805 120.40003,292.070218 121.75625,288.9375 C121.75625,288.9375 101.469531,250.125 95.0007812,241.06875 C88.5320312,232.0125 84.0039062,225.525781 81.79375,224.10625" id="Path" fill="#E5E5E5" fill-rule="nonzero"></path>
            <g id="Clipped" transform="translate(64.687500, 192.265625)">
                <mask id="mask-22" fill="white">
                    <use xlink:href="#path-21"></use>
                </mask>
                <g id="Path"></g>
                <g id="Group" opacity="0.1" mask="url(#mask-22)">
                    <g transform="translate(-1.796875, -3.593750)" id="Clipped">
                        <g>
                            <mask id="mask-24" fill="white">
                                <use xlink:href="#path-23"></use>
                            </mask>
                            <g id="Rectangle"></g>
                            <path d="M22.209375,10.78125 C22.209375,10.78125 4.240625,33.565625 3.7015625,46 L0.1078125,32.6671875 L17.96875,3.00078125 L21.99375,0.5390625 L24.0601563,8.31953125 L22.209375,10.78125 Z" id="Path" fill="#000000" fill-rule="nonzero" mask="url(#mask-24)"></path>
                        </g>
                    </g>
                </g>
            </g>
            <path d="M84.7765625,160.676562 C84.7765625,160.676562 85.9984375,162.599219 82.6742187,164.539844 L81.5421875,165.204688 L78.9546875,162.347656 L81.5421875,159.508594 L84.0039062,159.885937 L84.7765625,160.676562 Z" id="Path" fill="#000000" fill-rule="nonzero"></path>
            <path d="M80.5,162.347656 L55.2,169.660937 L55.3796875,172.841406 L55.3796875,172.841406 L55.4695312,174.009375 L55.4695312,175.249219 L55.4695312,175.249219 L56.9429687,192.391406 C52.5046875,201.160156 45.640625,214.90625 42.2265625,222.938281 C36.9257812,235.372656 33.421875,276.664844 31.0859375,299.970312 C31.0859375,299.970312 36.65625,303.45625 41.7054687,303.078906 C41.7054687,303.078906 51.03125,267.985937 52.1992188,258.157031 C53.3671875,248.328125 55.0382812,237.439062 57.5898437,233.432031 C60.1414062,229.425 63.68125,224.627344 63.68125,224.627344 C87.6335937,191.996094 88.1546875,186.048437 88.1546875,178.932812 C88.1546875,171.152344 80.3742187,162.347656 80.3742187,162.347656" id="Path" fill="#E5E5E5" fill-rule="nonzero"></path>
            <g id="Clipped" transform="translate(30.546875, 161.718750)">
                <mask id="mask-26" fill="white">
                    <use xlink:href="#path-25"></use>
                </mask>
                <g id="Path"></g>
                <g id="Group" mask="url(#mask-26)">
                    <g transform="translate(6.390625, -3.593750)">
                        <g id="Group" opacity="0.1" stroke-width="1" fill="none" fill-rule="evenodd" transform="translate(16.968750, 26.156250)">
                            <g id="Clipped">
                                <mask id="mask-28" fill="white">
                                    <use xlink:href="#path-27"></use>
                                </mask>
                                <g id="Rectangle"></g>
                                <path d="M3.1625,8.5953125 C6.63046875,2.39609375 7.2953125,0.77890625 7.2953125,0.77890625 C7.2953125,0.77890625 2.9828125,5.325 2.5875,4.37265625 C2.1921875,3.4203125 0.52109375,0.77890625 0.52109375,0.77890625 L3.1625,8.5953125 Z" id="Path" fill="#000000" fill-rule="nonzero" mask="url(#mask-28)"></path>
                            </g>
                        </g>
                        <path d="M45.8265625,5.58828125 C42.5921875,4.815625 34.3085938,15.4351563 26.2945313,17.753125 C19.3945313,19.7476562 17.7414063,19.3164062 17.7414063,19.3164062 L17.0945313,16.7289063 L16.321875,12.7039063 L42.4664063,0.5390625 L45.8265625,5.58828125 Z" id="Path" fill="#000000" fill-rule="nonzero"></path>
                        <path d="M0.796875,146.014063 L0.3296875,145.816406 C3.025,139.185938 5.4328125,120.857813 7.75078125,103.140625 C8.775,95.3242188 9.7453125,87.9390625 10.7335938,81.578125 C12.9796875,67.203125 24.3539063,52.1992188 33.5,40.25 C36.9575966,35.9688577 40.1328013,31.4671498 43.0054688,26.7734375 C45.6171788,22.535658 45.8881353,17.258779 43.7242188,12.7757813 C42.7565658,10.718228 41.3739854,8.8829443 39.6632813,7.38515625 L39.9867188,6.98984375 C40.0765625,6.98984375 49.9234375,15.165625 43.4367188,26.9890625 C40.5521839,31.7008002 37.3650226,36.220447 33.8953125,40.5195313 C24.7851563,52.4507813 13.4648438,67.3109375 11.21875,81.6679688 C10.2484375,87.9929688 9.278125,95.378125 8.25390625,103.230469 C5.88203125,120.947656 3.47421875,139.311719 0.796875,146.014063 Z" id="Path" fill="#FFFFFF" fill-rule="nonzero"></path>
                    </g>
                </g>
            </g>
            <path d="M62.890625,110.382031 C62.890625,110.382031 64.3640625,109.717187 64.9570312,110.1125 C66.3351303,110.937567 67.7634336,111.675724 69.2335937,112.322656 C69.790625,112.55625 65.6398437,112.574219 65.6398437,112.574219 L63.96875,111.927344 L63.5734375,110.903125 L62.890625,110.382031 Z" id="Path" fill="#01ACED" fill-rule="nonzero"></path>
            <path d="M52.8640625,115.43125 C52.4232083,115.656998 52.0273701,115.961489 51.6960938,116.329688 C50.4254685,117.679705 49.3544676,119.204519 48.515625,120.857813 L52.396875,116.203906 L52.8640625,115.43125 Z" id="Path" fill="#01ACED" fill-rule="nonzero"></path>
            <path d="M52.6125,116.329688 C49.7554687,118.126563 46.6289062,124.146094 46.6289062,124.146094 C41.7054687,134.424219 37.4648438,160.604687 37.4648438,160.604687 C34.4820312,163.515625 17.7890625,190.46875 17.7890625,190.46875 L16.2617188,192.265625 C15.9023438,192.750781 11.8773437,197.404688 11.64375,197.979688 L8.984375,208.239844 C8.984375,208.239844 8.6609375,209.102344 8.984375,209.353906 C9.51811393,209.632494 10.17638,209.452254 10.49375,208.940625 L12.8835937,201.555469 L10.49375,210.539844 C10.371542,210.979529 10.6055349,211.439715 11.0328125,211.6 C11.2589913,211.686555 11.5105344,211.678136 11.7304193,211.576651 C11.9503043,211.475165 12.1199074,211.289209 12.2007813,211.060938 L13.9976563,202.076563 L12.0929688,211.528125 C12.0262502,211.756874 12.0531346,212.002758 12.1677076,212.211686 C12.2822806,212.420613 12.475157,212.575469 12.7039063,212.642188 L12.7039063,212.642188 C12.9504737,212.718434 13.2180787,212.682658 13.4359592,212.544321 C13.6538397,212.405984 13.8000534,212.179018 13.8359375,211.923438 C14.5546875,207.215625 14.5546875,206.964063 15.3453125,202.615625 C15.3453125,202.615625 14.446875,209.371875 14.446875,209.371875 C14.3570313,209.821094 14.446875,210.252344 14.9320313,210.288281 C15.4171875,210.324219 15.6867188,209.551563 15.7765625,209.210156 L17.178125,203.046875 C17.178125,203.046875 20.1609375,199.632812 20.196875,196.973438 C20.4036174,196.201224 20.8427141,195.511215 21.4546875,194.996875 L23.2515625,193.002344 C23.2515625,193.002344 46.71875,166.175 48.8570312,160.730469 C50.9953125,155.285937 56.49375,121.199219 56.49375,119.402344 C56.49375,117.605469 52.6125,116.419531 52.6125,116.419531" id="Path" fill="#CC935A" fill-rule="nonzero"></path>
            <g id="Group" opacity="0.18" style="mix-blend-mode: multiply;" transform="translate(35.140625, 162.718750)">
                <g id="Clipped">
                    <mask id="mask-30" fill="white">
                        <use xlink:href="#path-29"></use>
                    </mask>
                    <g id="Rectangle"></g>
                    <path d="M8.271875,8.63125 C8.271875,8.63125 6.978125,4.48046875 0.67109375,1.1921875 C0.475227754,1.09216759 0.38057467,0.865047623 0.447441026,0.65553304 C0.514307383,0.446018457 0.723030011,0.315720524 0.940625,0.34765625 C5.05452958,0.481697493 8.88920058,2.46173416 11.3804688,5.73828125 L9.58359375,7.89453125 L8.271875,8.63125 Z" id="Path" fill="#000000" fill-rule="nonzero" mask="url(#mask-30)"></path>
                </g>
            </g>
            <path d="M64.903125,111.280469 C57.715625,121.504688 52.325,117.102344 52.325,117.102344 C52.6804312,114.866061 52.3548643,112.57457 51.390625,110.525781 L59.296875,103.697656 L62.1539063,107.920312 C62.9265625,109.088281 64.8671875,111.280469 64.8671875,111.280469" id="Path" fill="#CC935A" fill-rule="nonzero"></path>
            <path d="M63.178125,109.196094 C52.6125,120.210938 52.2890625,116.275781 52.2890625,116.275781 C52.538398,114.314499 52.2333866,112.322588 51.4085938,110.525781 L59.296875,103.697656 L62.0640625,107.8125 L63.178125,109.196094 Z" id="Path" fill="#CC935A" fill-rule="nonzero"></path>
            <g id="Clipped" transform="translate(51.312500, 103.421875)">
                <mask id="mask-32" fill="white">
                    <use xlink:href="#path-31"></use>
                </mask>
                <g id="Path"></g>
                <path d="M0.00625,7.3375 C2.07701396,6.18963657 4.00161726,4.79595833 5.73828125,3.18671875 C5.82783169,3.06607662 5.99517455,3.03473138 6.1223175,3.11478434 C6.24946044,3.19483731 6.29352323,3.35928982 6.2234375,3.4921875 C5.19225322,6.35791279 3.09344884,8.71423918 0.365625,10.06875 L0.09609375,7.64296875 L0.00625,7.3375 Z" id="Path" fill="#1A1919" fill-rule="nonzero" mask="url(#mask-32)"></path>
            </g>
            <path d="M63.178125,109.465625 C61.8125,108.3875 59.728125,99.7445313 59.728125,99.7445313 L62.0640625,97.9476563 L61.09375,91.1914062 L46.1796875,83.4828125 L38.8125,91.1375 L40.1242188,93.725 C40.1242188,93.725 40.3757813,95.2164063 40.5734375,96.3484375 C41.25625,100.139844 42.7476563,108.926563 47.365625,110.83125 C51.6960938,112.628125 56.565625,106.967969 56.565625,106.967969 L57.7515625,105.458594" id="Path" fill="#CC935A" fill-rule="nonzero"></path>
            <path d="M83.8421875,225.975 L83.734375,225.975 C82.8,224.860938 82.1171875,224.178125 82.1171875,224.178125 C82.0718384,224.14984 82.0493169,224.095984 82.0610303,224.043836 C82.0727436,223.991688 82.1161334,223.952637 82.1692228,223.946463 C82.2223122,223.940288 82.2735062,223.968339 82.296875,224.016406 C82.296875,224.016406 82.9976563,224.771094 83.9320312,225.813281 C83.9561772,225.836939 83.969784,225.869321 83.969784,225.903125 C83.969784,225.936929 83.9561772,225.969311 83.9320312,225.992969 C83.9009013,226.000635 83.8679741,225.99405 83.8421875,225.975 Z" id="Path" fill="#000000" fill-rule="nonzero"></path>
            <path d="M12.3625,199.596875 L11.5359375,206.514844 C11.5359375,207.089844 11.284375,207.628906 11.859375,207.754687 L12.1289063,207.754687 C12.7349318,207.788379 13.2849242,207.401897 13.4585938,206.820312 L15.5609375,202.166406 C15.769141,201.586856 15.9020001,200.982951 15.95625,200.369531 C16.9879352,199.455133 17.888839,198.403071 18.6335937,197.242969" id="Path" fill="#CC935A" fill-rule="nonzero"></path>
            <path d="M12.290625,207.844531 L11.859375,207.844531 C11.3023438,207.71875 11.3742188,207.233594 11.428125,206.766406 C11.4367295,206.688779 11.4367295,206.610439 11.428125,206.532813 L12.2546875,199.614844 L12.3984375,199.614844 L11.5539063,206.532813 C11.5539063,206.532813 11.5539063,206.694531 11.5539063,206.766406 C11.4640625,207.305469 11.4460938,207.610937 11.8414063,207.700781 L12.1109375,207.700781 C12.6898608,207.742077 13.2199595,207.376234 13.3867188,206.820312 L15.4710938,202.166406 C15.6882803,201.589483 15.8214124,200.984337 15.8664063,200.369531 L15.8664063,200.369531 L15.8664063,200.369531 C16.8976642,199.468271 17.7987236,198.428122 18.54375,197.278906 L18.6515625,197.278906 C17.9064417,198.438737 17.0055787,199.490751 15.9742188,200.405469 C15.9292249,201.020274 15.7960928,201.625421 15.5789063,202.202344 L13.4945313,206.874219 C13.2986885,207.391905 12.8380977,207.763127 12.290625,207.844531 L12.290625,207.844531 Z" id="Path" fill="#000000" fill-rule="nonzero"></path>
            <path d="M118.59375,183.28125 L119.779687,185.078125 L124.182031,188.150781 L131.028125,193.541406 C131.35225,193.807482 131.449199,194.262394 131.261719,194.6375 C131.144629,194.874647 130.927137,195.046598 130.669373,195.105814 C130.411609,195.16503 130.140879,195.105238 129.932031,194.942969 L126.679687,192.876563 C126.679687,192.876563 126.553906,192.876563 126.679687,192.876563 L131.585156,196.739844 C131.965251,197.091266 132.047669,197.660698 131.782812,198.105469 C131.671168,198.292359 131.482582,198.420303 131.267661,198.454968 C131.05274,198.489633 130.833492,198.427468 130.66875,198.285156 L125.583594,194.565625 C125.583594,194.565625 125.475781,194.565625 125.583594,194.565625 L130.974219,199.201563 C131.247611,199.51039 131.291131,199.960105 131.082031,200.315625 C130.775293,200.658615 130.264503,200.727229 129.878125,200.477344 L124.164062,195.985156 C124.164062,195.985156 124.038281,195.985156 124.164062,195.985156 L128.440625,199.884375 C128.576234,200.043601 128.639686,200.251962 128.615842,200.459746 C128.591998,200.66753 128.482996,200.856101 128.314844,200.980469 L128.314844,200.980469 C128.031226,201.22616 127.61018,201.22616 127.326562,200.980469 L121.558594,196.075 C121.558594,196.075 121.558594,196.075 121.558594,196.075 L124.361719,198.644531 C124.361719,198.644531 124.91875,199.219531 124.523437,199.740625 C124.390432,199.928156 124.180822,200.046714 123.95157,200.064082 C123.722318,200.081449 123.497239,199.995822 123.3375,199.830469 C122.1875,198.932031 119.74375,196.667969 118.827344,195.751563 C118.551228,195.492258 118.320439,195.188588 118.144531,194.853125 L115.575,189.947656 L113.778125,187.252344 C113.778125,187.252344 98.9539062,157.621875 95.234375,149.482031 C94.8929688,148.727344 64.040625,127.685938 64.040625,122.798438 C64.040625,122.025781 64.4179688,112.017188 70.6351563,115.161719 C76.8523438,118.30625 100.625,140.030469 102.709375,143.264844 C104.79375,146.499219 118.59375,183.28125 118.59375,183.28125" id="Path" fill="#CC935A" fill-rule="nonzero"></path>
            <g id="Clipped" transform="translate(63.890625, 114.203125)">
                <mask id="mask-34" fill="white">
                    <use xlink:href="#path-33"></use>
                </mask>
                <g id="Path"></g>
                <g id="Group" opacity="0.18" style="mix-blend-mode: multiply;" mask="url(#mask-34)">
                    <g transform="translate(31.343750, 31.343750)" id="Clipped">
                        <g>
                            <mask id="mask-36" fill="white">
                                <use xlink:href="#path-35"></use>
                            </mask>
                            <g id="Rectangle"></g>
                            <path d="M0.52109375,13.3867188 C0.52109375,13.3867188 6.0015625,10.3859375 8.85859375,0.55703125 C8.96881834,0.277437926 9.25290298,0.106555966 9.55154916,0.140206241 C9.85019535,0.173856516 10.0891312,0.403670357 10.134375,0.70078125 C11.1039673,6.49650041 9.44450945,12.4231356 5.60625,16.8726562 L2.0125,15.0757812 L0.52109375,13.3867188 Z" id="Path" fill="#000000" fill-rule="nonzero" mask="url(#mask-36)"></path>
                        </g>
                    </g>
                </g>
            </g>
            <path d="M36.5484375,161.323438 L36.5484375,161.323438 C37.1446738,160.499636 37.8453187,159.75671 38.6328125,159.113281 C38.6328125,159.113281 38.6328125,159.113281 38.6328125,159.113281 C37.8618177,159.755212 37.1683299,160.484882 36.5664062,161.2875 C36.5664062,161.2875 36.584375,161.323438 36.5484375,161.323438 Z" id="Path" fill="#000000" fill-rule="nonzero"></path>
            <path d="M102.242188,141.755469 C96.8112798,135.313612 91.0411281,129.165581 84.95625,123.3375 C72.8632812,110.54375 65.7296875,110.759375 65.7296875,110.759375 L65.7296875,111.046875 C64.8671875,110.795312 64.3640625,110.705469 64.3640625,110.705469 C63.1530892,112.529178 61.5663522,114.07303 59.7101563,115.233594 C53.3671875,119.510156 52.2710938,116.347656 52.2710938,116.347656 C51.9008108,116.633012 51.5468667,116.938964 51.2109375,117.264063 L51.1210938,117.120313 C51.1210938,117.120313 46.1257813,120.157031 43.4664063,131.495313 C42.98125,133.004688 42.5320313,134.711719 42.046875,136.616406 C42.046875,136.616406 42.046875,136.778125 41.9570313,137.083594 C41.8671875,137.389063 41.759375,137.892188 41.6695313,138.323438 C38.8664063,150.290625 37.80625,156.867188 37.2132813,159.346875 L36.9078125,160.335156 L36.9078125,160.335156 C36.7837495,160.77331 36.6088634,161.195449 36.3867188,161.592969 C35.8387556,162.272461 35.3630147,163.00715 34.9671875,163.785156 C34.9671875,163.785156 45.0835938,166.426562 45.4789063,171.475781 C47.436169,168.8768 48.9816166,165.991964 50.0609375,162.922656 C50.5090993,166.136716 50.70137,169.381286 50.6359375,172.625781 C50.6205413,172.824359 50.7489695,173.005669 50.9414063,173.057031 C53.1875,173.50625 66.5742188,175.105469 80.7515625,162.096094 C80.7515625,162.096094 83.4648438,159.382813 84.7585938,160.676563 C84.7585938,160.676563 80.6257813,150.955469 79.3679688,146.553125 C78.7929688,144.396875 78.4335938,142.761719 78.2179688,141.665625 C83.7523438,147.05625 89.5382813,152.734375 90.7960938,154.010156 L97.534375,160.730469 C104.128906,158.4125 105.422656,146.103906 105.422656,146.103906 C104.462722,144.551651 103.355527,143.09545 102.116406,141.755469" id="Path" fill="#01ACED" fill-rule="nonzero"></path>
            <path d="M50.025,163.102344 C50.025,163.102344 50.025,163.102344 50.025,163.102344 C49.8632812,161.485156 49.5039063,159.203125 49.1445313,156.777344 C48.371875,151.835938 47.509375,146.229687 47.8328125,143.947656 C47.8328125,143.947656 47.8328125,143.947656 47.8328125,143.947656 C47.8328125,143.947656 47.8328125,143.947656 47.8328125,143.947656 C47.8699577,148.243823 48.3091123,152.527085 49.1445312,156.741406 C49.5039062,159.167187 49.8632812,161.449219 50.025,163.066406 C50.025,163.066406 50.025,163.066406 50.025,163.066406 L50.025,163.102344 Z" id="Path" fill="#000000" fill-rule="nonzero"></path>
            <path d="M79.1523438,142.6 L79.1523438,142.6 C79.1523438,142.6 76.8703125,139.814844 76.403125,139.167969 C76.403125,139.167969 76.403125,139.167969 76.403125,139.167969 C76.403125,139.167969 76.403125,139.167969 76.403125,139.167969 C76.8703125,139.814844 79.134375,142.564063 79.1523438,142.582031 C79.1703125,142.6 79.1523438,142.582031 79.1523438,142.582031 C79.1523438,142.582031 79.1703125,142.6 79.1523438,142.6 Z" id="Path" fill="#000000" fill-rule="nonzero"></path>
            <path d="M43.3945312,91.4609375 C43.915625,92.4851562 45.9460938,96.0609375 54.1757812,94.0304687 C54.6789062,93.9046875 55.4515625,96.0429687 55.9726562,95.8273437 C55.9856134,95.0851288 56.5187498,94.4543758 57.2484375,94.3179687 C58.50625,94.0484375 59.4226563,95.1984375 59.9617187,97.7140625 C60.1573283,98.8270873 59.4955301,99.9121285 58.4164062,100.247656 C58.2900103,100.290467 58.219038,100.424526 58.2546875,100.553125 C59.6727905,103.948352 61.566485,107.124676 63.8789063,109.986719 L66.6640625,105.440625 L61.2734375,100.840625 L65.8734375,94.4617187 L61.09375,85.3335937 L46.2875,83.303125 L41.9390625,84.8304687 L37.734375,91.4609375 L39.8726563,95.8992187 C41.5471431,94.629276 42.8350593,92.9182761 43.5921875,90.9578125" id="Path" fill="#1A1919" fill-rule="nonzero"></path>
            <path d="M132.483594,314.075781 C125.170312,325.378125 125.673437,326.528125 119.905469,327.336719 C116.527344,327.785937 116.096094,326.653906 115.664844,325.539844 C115.363278,324.413784 115.717075,323.213652 116.58125,322.43125 C118.688323,321.751271 120.262601,319.984505 120.696094,317.813281" id="Path" fill="#FF6400" fill-rule="nonzero"></path>
            <path d="M28.75,326.905469 C28.5464632,327.091035 28.2876431,327.204664 28.0132812,327.228906 C26.4128204,327.380149 24.8046579,327.434154 23.1976563,327.390625 C18.7234375,327.390625 15.2554688,328.001563 13.4226562,327.175 C11.7831024,326.196069 10.7236112,324.479426 10.5835938,322.575 L12.6320312,322.952344 L31.9484375,322.179688 L30.8523437,323.527344 L28.75,326.905469 Z" id="Path" fill="#FF6400" fill-rule="nonzero"></path>
            <path d="M41.8492187,320.867969 L41.8492187,326.6 C41.8492187,326.808401 41.6802762,326.977344 41.471875,326.977344 L32.6671875,326.977344 C32.6671875,326.977344 32.6671875,323.527344 32.6671875,323.383594" id="Path" fill="#FF6400" fill-rule="nonzero"></path>
            <path d="M41.328125,318.190625 C41.9456983,319.925367 42.0084938,321.809233 41.5078125,323.58125 C41.4199812,323.896712 41.1344681,324.116338 40.8070313,324.120312 L32.9546875,323.940625 L32.5953125,322.14375 L41.328125,318.190625 Z" id="Path" fill="#FF6400" fill-rule="nonzero"></path>
            <path d="M41.1484375,318.190625 C41.7791052,319.922094 41.848264,321.808244 41.3460937,323.58125 C41.2582625,323.896712 40.9727494,324.116338 40.6453125,324.120312 L32.7929687,323.940625 L32.4335937,322.14375 L41.1484375,318.190625 Z" id="Path" fill="#FF6400" fill-rule="nonzero"></path>
            <path d="M40.3578125,314.578906 C40.350237,314.021941 40.1679662,313.481414 39.8367188,313.033594 C39.0531491,312.185028 37.7899552,311.984403 36.7820313,312.548438 L36.7820313,312.548438 L36.5125,312.638281 C34.0287848,312.842363 31.5914768,311.879394 29.9179688,310.032813 C29.693951,309.811297 29.3333927,309.811297 29.109375,310.032813 C27.4742188,311.829688 21.3648438,318.064844 17.5015625,319.484375 C17.5015625,319.484375 10.9070313,320.41875 10.6734375,322.305469 C10.3859375,324.695313 14.2671875,326.204688 19.3882813,325.485938 C23.5210938,324.767188 28.4984375,323.689063 28.4984375,323.689063 L30.9242188,322.880469 C31.3526964,323.290721 31.8155929,323.663443 32.3078125,323.994531 C34.7875,323.994531 39.7289063,324.282031 41.0585938,322.790625 C43.2148438,320.346875 40.3578125,315.872656 40.3578125,314.776563 L40.3578125,314.560938" id="Path" fill="#FF6400" fill-rule="nonzero"></path>
            <path d="M30.9242187,323.4375 L32.1101562,322.017969 C32.1548137,321.824453 32.3478909,321.70378 32.5414062,321.748438 C32.7349216,321.793095 32.8555949,321.986172 32.8109375,322.179687 L32.8109375,325.971094 L32.8109375,327.03125 L30.9960937,327.03125 C30.827388,327.03125 30.690625,326.894487 30.690625,326.725781 L30.9242187,323.4375 Z" id="Path" fill="#000000" fill-rule="nonzero"></path>
            <path d="M132.555469,313.554688 C132.602262,313.829178 132.544567,314.111242 132.39375,314.345312 C131.581353,315.722912 130.693545,317.054625 129.734375,318.334375 C127.075,321.928125 125.583594,325.1625 123.840625,326.150781 C122.4467,326.992991 120.719867,327.067482 119.258594,326.348437 L119.959375,324.335937 L130.38125,308.415625 L132.555469,313.554688 Z" id="Path" fill="#FF6400" fill-rule="nonzero"></path>
            <path d="M135.753906,299.808594 L139.922656,302.809375 C140.059629,302.949116 140.059629,303.172759 139.922656,303.3125 L134.783594,310.5 C134.783594,310.5 132.501563,308.828906 132.375781,308.703125" id="Path" fill="#FF6400" fill-rule="nonzero"></path>
            <path d="M133.25625,298.730469 C135.058647,299.227712 136.652807,300.292586 137.802344,301.767187 C138.00973,302.024041 138.00973,302.390803 137.802344,302.647656 C136.472656,304.444531 133.076563,308.91875 133.076563,308.91875 L131.405469,308.164062 L133.25625,298.730469 Z" id="Path" fill="#FF6400" fill-rule="nonzero"></path>
            <path d="M133.184375,298.820312 C134.994109,299.322391 136.594299,300.393384 137.748437,301.875 C137.955824,302.131854 137.955824,302.498615 137.748437,302.755469 C136.436719,304.552344 133.040625,309.026563 133.040625,309.026563 L131.351562,308.271875 L133.184375,298.820312 Z" id="Path" fill="#FF6400" fill-rule="nonzero"></path>
            <path d="M129.788281,297.364844 C129.332835,297.039391 128.784681,296.869274 128.225,296.879687 C126.428125,296.879687 126.050781,299.071875 126.050781,299.071875 L126.050781,299.071875 C126.028982,299.164233 125.998912,299.25444 125.960937,299.341406 C124.691278,301.485127 122.489233,302.908805 120.013281,303.186719 C119.860881,303.208326 119.724215,303.292032 119.635717,303.417972 C119.547218,303.543912 119.514778,303.700857 119.546094,303.851562 C119.995312,306.1875 121.558594,314.830469 120.4625,318.783594 C120.4625,318.783594 117.371875,324.695312 118.773438,325.971094 C120.570312,327.60625 124.020313,325.360156 126.446094,320.760156 C128.242969,316.986719 130.291406,312.296875 130.291406,312.296875 L131.046094,309.871094 C131.629358,309.764543 132.201006,309.602074 132.753125,309.385937 C134.190625,307.391406 137.317187,303.528125 136.885937,301.5875 C136.167187,298.407031 130.848437,298.119531 129.95,297.490625 L129.788281,297.364844" id="Path" fill="#FF6400" fill-rule="nonzero"></path>
            <path d="M131.046094,309.871094 L130.560937,308.074219 C130.473701,307.918358 130.507692,307.722683 130.642381,307.605373 C130.777071,307.488063 130.975559,307.481256 131.117969,307.589062 L134.226562,309.763281 L134.98125,310.302344 L133.903125,311.829687 C133.774473,311.942074 133.582558,311.942074 133.453906,311.829688 L131.046094,309.871094 Z" id="Path" fill="#000000" fill-rule="nonzero"></path>
            <rect id="Rectangle" x="0" y="0.9703125" width="575" height="384.53125"></rect>
        </g>
    </g>
</svg>