<?xml version="1.0" encoding="UTF-8"?>
<!DOCTYPE svg PUBLIC "-//W3C//DTD SVG 1.1//EN" "http://www.w3.org/Graphics/SVG/1.1/DTD/svg11.dtd">
<!-- Creator: CorelDRAW 2018 (64-Bit Evaluation Version) -->
<svg xmlns="http://www.w3.org/2000/svg" xml:space="preserve" width="108.016mm" height="114.882mm" version="1.1" style="shape-rendering:geometricPrecision; text-rendering:geometricPrecision; image-rendering:optimizeQuality; fill-rule:evenodd; clip-rule:evenodd"
viewBox="0 0 8027.53 8537.79"
 xmlns:xlink="http://www.w3.org/1999/xlink">
 <defs>
  <style type="text/css">
   <![CDATA[
    .fil0 {fill:#004494}
   ]]>
  </style>
 </defs>
 <g id="Layer_x0020_1">
  <metadata id="CorelCorpID_0Corel-Layer"/>
  <path class="fil0" d="M4250.85 6279.37l11.01 -1806.16c360.79,92.62 675.78,428.21 683.77,878.93 8.41,472.22 -315.42,831.45 -694.78,927.22zm-558.79 -1799.67l9.13 1790.99c-349.91,-84.25 -663.85,-446.93 -667.21,-884.54 -3.4,-442.48 311.22,-815.48 658.09,-906.46zm-1693.53 -2134.02l1687.42 -12 7.24 505.3 -1520.22 26.13 170.55 576.03 1357.31 -3.12 -1.64 355.71c-172.8,105.7 -616.37,164.67 -906.15,522.95 -656.04,811.12 -477.21,1886.29 368.8,2412.56 197.48,122.86 309.7,125.7 531.26,214.68l17.89 381.16c-1703.74,-134.35 -3166.75,-1632.93 -3073.01,-3498.58 88.9,-1768.95 1565.51,-3207.83 3392.8,-3196.55 1821,11.24 3289.9,1452.29 3360.51,3230.8 75.74,1908.86 -1387.6,3308.62 -3140.06,3472.7l-0.32 -400.04c1640.57,-221.53 1789.87,-2551.47 269.33,-3054.17 -38.13,-12.6 -94.66,-23.65 -132.5,-36.61 -143.79,-49.37 -128.38,46.33 -128.47,-387.68l1346.67 -13.92 197.24 -602 -1533.55 -2.04 -8.36 -491.5 1734.07 11 138.07 -628.36 -4359.35 0.12c51.13,134.87 220.16,500.62 224.49,617.44zm-1998.52 1786.76c-0.32,1552.11 1043.01,2832.68 2253.09,3439.12 710.06,355.87 933.5,264.22 1453.89,407.29l15.04 546.35c213.61,7.32 333.11,27.25 527.39,-6.12l14.32 -550.51c1150.95,-83.62 2059.69,-611.56 2616.8,-1189.72 746.47,-774.63 1147.47,-1610.12 1146.98,-2951.26 -0.72,-2002.72 -1856.13,-3828.61 -3861.28,-3827.57l-304.86 0.08c-2013.73,0.96 -3860.89,1812.48 -3861.25,3827.48l-0.12 304.86z"/>
 </g>
</svg>
