<svg height="512pt" viewBox="0 0 512.001 512" width="512pt" xmlns="http://www.w3.org/2000/svg"><path d="m185.601562 0h-175.710937c-5.460937 0-9.890625 4.429688-9.890625 9.890625v359.566406c0 5.460938 4.429688 9.890625 9.890625 9.890625h175.710937c5.460938 0 9.890626-4.429687 9.890626-9.890625v-359.566406c0-5.460937-4.429688-9.890625-9.890626-9.890625zm0 0" fill="#8ac2ff"/><path d="m132.65625 326.402344v175.707031c0 5.460937 4.425781 9.890625 9.890625 9.890625h359.5625c5.464844 0 9.890625-4.425781 9.890625-9.890625v-175.707031c0-5.464844-4.425781-9.894532-9.890625-9.894532h-359.5625c-5.464844 0-9.890625 4.429688-9.890625 9.894532zm0 0" fill="#8ac2ff"/><g fill="#54a0ff"><path d="m30.90625 369.457031v-359.566406c0-5.460937 4.429688-9.890625 9.890625-9.890625h-30.90625c-5.460937 0-9.890625 4.429688-9.890625 9.890625v359.566406c0 5.460938 4.429688 9.890625 9.890625 9.890625h30.90625c-5.460937-.003906-9.890625-4.429687-9.890625-9.890625zm0 0"/><path d="m163.5625 502.109375v-175.707031c0-5.464844 4.425781-9.894532 9.890625-9.894532h-30.90625c-5.460937 0-9.890625 4.429688-9.890625 9.894532v175.707031c0 5.464844 4.425781 9.890625 9.890625 9.890625h30.90625c-5.464844 0-9.890625-4.425781-9.890625-9.890625zm0 0"/><path d="m142.546875 316.507812c-5.464844 0-9.894531 4.429688-9.894531 9.894532v52.941406h52.949218c5.460938 0 9.890626-4.425781 9.890626-9.890625v-52.945313zm0 0"/></g><path d="m163.5625 326.402344c0-5.464844 4.425781-9.894532 9.890625-9.894532h-30.90625c-5.460937 0-9.890625 4.429688-9.890625 9.894532v52.941406h30.90625zm0 0" fill="#338def"/><path d="m442.695312 256.882812c-4.265624 0-7.726562-3.457031-7.726562-7.726562 0-95.1875-77.441406-172.628906-172.628906-172.628906-4.265625 0-7.726563-3.457032-7.726563-7.726563s3.457031-7.726562 7.726563-7.726562c103.710937 0 188.082031 84.375 188.082031 188.082031.003906 4.269531-3.457031 7.726562-7.726563 7.726562zm0 0" fill="#c7d2e5"/><path d="m469.484375 245.339844h-53.574219c-2.59375 0-3.890625 3.136718-2.058594 4.96875l26.785157 26.789062c1.136719 1.136719 2.980469 1.136719 4.117187 0l26.785156-26.789062c1.835938-1.832032.539063-4.96875-2.054687-4.96875zm0 0" fill="#e4eaf8"/><path d="m261.277344 39.957031-26.785156 26.785157c-1.136719 1.136718-1.136719 2.980468 0 4.117187l26.785156 26.789063c1.835937 1.832031 4.96875.53125 4.96875-2.058594v-53.574219c.003906-2.59375-3.132813-3.890625-4.96875-2.058594zm0 0" fill="#e4eaf8"/><path d="m436.757812 250.308594c-1.832031-1.832032-.535156-4.96875 2.058594-4.96875h-22.90625c-2.59375 0-3.890625 3.136718-2.058594 4.96875l26.789063 26.789062c1.136719 1.136719 2.976563 1.136719 4.113281 0l9.394532-9.394531zm0 0" fill="#c7d2e5"/><path d="m257.398438 70.859375c-1.136719-1.136719-1.136719-2.980469 0-4.117187l8.847656-8.847657v-15.878906c0-2.59375-3.132813-3.890625-4.96875-2.058594l-26.785156 26.785157c-1.136719 1.136718-1.136719 2.980468 0 4.117187l26.785156 26.789063c1.835937 1.832031 4.96875.53125 4.96875-2.058594v-15.878906zm0 0" fill="#c7d2e5"/></svg>